<?xml version="1.0" standalone="no"?>
 <!DOCTYPE svg PUBLIC "-//W3C//DTD SVG 1.1//EN" 
 "http://www.w3.org/Graphics/SVG/1.1/DTD/svg11.dtd"> 
<svg xmlns="http://www.w3.org/2000/svg" version="1.1" 
    width="29.7002cm" height="21.0007cm" viewBox="0 0 116930 82680 ">
<title>SVG Picture created as DAC-ADAU1966-drl_map.svg date 2016/05/25 09:56:52 </title>
  <desc>Picture generated by PCBNEW </desc>
<g style="fill:#000000; fill-opacity:1;stroke:#000000; stroke-opacity:1;
stroke-linecap:round; stroke-linejoin:round; "
 transform="translate(0 0) scale(1 1)">
</g>
<g style="fill:#000000; fill-opacity:0.0; 
stroke:#000000; stroke-width:-0.000393701; stroke-opacity:1; 
stroke-linecap:round; stroke-linejoin:round;">
</g>
<g style="fill:#000000; fill-opacity:0.0; 
stroke:#000000; stroke-width:59.0551; stroke-opacity:1; 
stroke-linecap:round; stroke-linejoin:round;">
<path d="M80708 59055
L41338 59055
" />
<path d="M80708 19685
L80708 59055
" />
<path d="M41338 19685
L80708 19685
" />
<path d="M41338 59055
L41338 19685
" />
</g>
<g style="fill:#000000; fill-opacity:0.0; 
stroke:#000000; stroke-width:78.7402; stroke-opacity:1; 
stroke-linecap:round; stroke-linejoin:round;">
<path d="M54474 35741
L54632 35898
" />
<path d="M54632 35741
L54474 35898
" />
<path d="M65759 53026
L65917 53183
" />
<path d="M65917 53026
L65759 53183
" />
<path d="M65859 54126
L66017 54283
" />
<path d="M66017 54126
L65859 54283
" />
<path d="M66321 39996
L66478 40153
" />
<path d="M66478 39996
L66321 40153
" />
<circle cx="42238.6" cy="23355.1" r="98.4252" /> 
<circle cx="42338.6" cy="27955.1" r="98.4252" /> 
<circle cx="42338.6" cy="31055.1" r="98.4252" /> 
<circle cx="42338.6" cy="36055.1" r="98.4252" /> 
<circle cx="42338.6" cy="38055.1" r="98.4252" /> 
<circle cx="42338.6" cy="40055.1" r="98.4252" /> 
<circle cx="42338.6" cy="41805.1" r="98.4252" /> 
<circle cx="42338.6" cy="44555.1" r="98.4252" /> 
<circle cx="42338.6" cy="46555.1" r="98.4252" /> 
<circle cx="42338.6" cy="48805.1" r="98.4252" /> 
<circle cx="42338.6" cy="51555.1" r="98.4252" /> 
<circle cx="42338.6" cy="54555.1" r="98.4252" /> 
<circle cx="42688.6" cy="33855.1" r="98.4252" /> 
<circle cx="43338.6" cy="49655.1" r="98.4252" /> 
<circle cx="43638.6" cy="28555.1" r="98.4252" /> 
<circle cx="44038.6" cy="40055.1" r="98.4252" /> 
<circle cx="44088.6" cy="23305.1" r="98.4252" /> 
<circle cx="44588.6" cy="55805.1" r="98.4252" /> 
<circle cx="44838.6" cy="33655.1" r="98.4252" /> 
<circle cx="44838.6" cy="35205.1" r="98.4252" /> 
<circle cx="44838.6" cy="37955.1" r="98.4252" /> 
<circle cx="45488.6" cy="41955.1" r="98.4252" /> 
<circle cx="45488.6" cy="47805.1" r="98.4252" /> 
<circle cx="45588.6" cy="30555.1" r="98.4252" /> 
<circle cx="45588.6" cy="58055.1" r="98.4252" /> 
<circle cx="45738.6" cy="44105.1" r="98.4252" /> 
<circle cx="45773.5" cy="20350" r="98.4252" /> 
<circle cx="45808.5" cy="28400" r="98.4252" /> 
<circle cx="45833.5" cy="23900" r="98.4252" /> 
<circle cx="45833.5" cy="26545.1" r="98.4252" /> 
<circle cx="46558.5" cy="29200" r="98.4252" /> 
<circle cx="46938.6" cy="48255.1" r="98.4252" /> 
<circle cx="47138.6" cy="31255.1" r="98.4252" /> 
<circle cx="47238.6" cy="24755.1" r="98.4252" /> 
<circle cx="47538.6" cy="33655.1" r="98.4252" /> 
<circle cx="48538.6" cy="25755.1" r="98.4252" /> 
<circle cx="48638.6" cy="50155.1" r="98.4252" /> 
<circle cx="48678.6" cy="26765.1" r="98.4252" /> 
<circle cx="49138.6" cy="31855.1" r="98.4252" /> 
<circle cx="49158.5" cy="29900" r="98.4252" /> 
<circle cx="49213.6" cy="47805.1" r="98.4252" /> 
<circle cx="49338.6" cy="41355.1" r="98.4252" /> 
<circle cx="49438.6" cy="39655.1" r="98.4252" /> 
<circle cx="49538.6" cy="33655.1" r="98.4252" /> 
<circle cx="50088.6" cy="20305.1" r="98.4252" /> 
<circle cx="50088.6" cy="36555.1" r="98.4252" /> 
<circle cx="50738.6" cy="34355.1" r="98.4252" /> 
<circle cx="50738.6" cy="39655.1" r="98.4252" /> 
<circle cx="50738.6" cy="41355.1" r="98.4252" /> 
<circle cx="50738.6" cy="43355.1" r="98.4252" /> 
<circle cx="50738.6" cy="44905.1" r="98.4252" /> 
<circle cx="50938.6" cy="31855.1" r="98.4252" /> 
<circle cx="51088.6" cy="38055.1" r="98.4252" /> 
<circle cx="51238.6" cy="34605.1" r="98.4252" /> 
<circle cx="51438.6" cy="48255.1" r="98.4252" /> 
<circle cx="51538.6" cy="25755.1" r="98.4252" /> 
<circle cx="51588.6" cy="26775.1" r="98.4252" /> 
<circle cx="51738.6" cy="42755.1" r="98.4252" /> 
<circle cx="51833.5" cy="29600" r="98.4252" /> 
<circle cx="52038.6" cy="35555.1" r="98.4252" /> 
<circle cx="52088.6" cy="58055.1" r="98.4252" /> 
<circle cx="52238.6" cy="39155.1" r="98.4252" /> 
<circle cx="52438.6" cy="44955.1" r="98.4252" /> 
<circle cx="52738.6" cy="53955.1" r="98.4252" /> 
<circle cx="53038.6" cy="40555.1" r="98.4252" /> 
<circle cx="53038.6" cy="41055.1" r="98.4252" /> 
<circle cx="53238.6" cy="31855.1" r="98.4252" /> 
<circle cx="53338.6" cy="38400" r="98.4252" /> 
<circle cx="53438.6" cy="47055.1" r="98.4252" /> 
<circle cx="53438.6" cy="51955.1" r="98.4252" /> 
<circle cx="53588.6" cy="20305.1" r="98.4252" /> 
<circle cx="53638.6" cy="48255.1" r="98.4252" /> 
<circle cx="53713.5" cy="33550" r="98.4252" /> 
<circle cx="53838.6" cy="37081.1" r="98.4252" /> 
<circle cx="53838.6" cy="42455.1" r="98.4252" /> 
<circle cx="53938.6" cy="50005.1" r="98.4252" /> 
<circle cx="54023.5" cy="32500" r="98.4252" /> 
<circle cx="54138.6" cy="42155.1" r="98.4252" /> 
<circle cx="54138.6" cy="42755.1" r="98.4252" /> 
<circle cx="54238.6" cy="46755.1" r="98.4252" /> 
<circle cx="54283.5" cy="38800" r="98.4252" /> 
<circle cx="54338.6" cy="33455.1" r="98.4252" /> 
<circle cx="54338.6" cy="44655.1" r="98.4252" /> 
<circle cx="54418.6" cy="26875.1" r="98.4252" /> 
<circle cx="54438.6" cy="47955.1" r="98.4252" /> 
<circle cx="54458.5" cy="29050" r="98.4252" /> 
<circle cx="54538.6" cy="25755.1" r="98.4252" /> 
<circle cx="54588.6" cy="51605.1" r="98.4252" /> 
<circle cx="54638.6" cy="55255.1" r="98.4252" /> 
<circle cx="54738.6" cy="52655.1" r="98.4252" /> 
<circle cx="54763.6" cy="53780.1" r="98.4252" /> 
<circle cx="54838.6" cy="37830.1" r="98.4252" /> 
<circle cx="55088.6" cy="58055.1" r="98.4252" /> 
<circle cx="55138.6" cy="32955.1" r="98.4252" /> 
<circle cx="55138.6" cy="39955.1" r="98.4252" /> 
<circle cx="55338.6" cy="43655.1" r="98.4252" /> 
<circle cx="55338.6" cy="44655.1" r="98.4252" /> 
<circle cx="55658.5" cy="40050" r="98.4252" /> 
<circle cx="55813.6" cy="33805.1" r="98.4252" /> 
<circle cx="55817.6" cy="40641.1" r="98.4252" /> 
<circle cx="55863.6" cy="34680.1" r="98.4252" /> 
<circle cx="55913.6" cy="38005.1" r="98.4252" /> 
<circle cx="55938.6" cy="24755.1" r="98.4252" /> 
<circle cx="56013.6" cy="53780.1" r="98.4252" /> 
<circle cx="56088.6" cy="49280.1" r="98.4252" /> 
<circle cx="56138.6" cy="40855.1" r="98.4252" /> 
<circle cx="56153.5" cy="38770" r="98.4252" /> 
<circle cx="56203.5" cy="37720" r="98.4252" /> 
<circle cx="56538.6" cy="35815.1" r="98.4252" /> 
<circle cx="56638.6" cy="43655.1" r="98.4252" /> 
<circle cx="56638.6" cy="44655.1" r="98.4252" /> 
<circle cx="56663.5" cy="39000" r="98.4252" /> 
<circle cx="56663.6" cy="48655.1" r="98.4252" /> 
<circle cx="56663.6" cy="55255.1" r="98.4252" /> 
<circle cx="56988.6" cy="37655.1" r="98.4252" /> 
<circle cx="57038.6" cy="35055.1" r="98.4252" /> 
<circle cx="57038.6" cy="49255.1" r="98.4252" /> 
<circle cx="57038.6" cy="51155.1" r="98.4252" /> 
<circle cx="57038.6" cy="53405.1" r="98.4252" /> 
<circle cx="57058.5" cy="29450" r="98.4252" /> 
<circle cx="57238.6" cy="44655.1" r="98.4252" /> 
<circle cx="57238.6" cy="55730.1" r="98.4252" /> 
<circle cx="57348.7" cy="35477.1" r="98.4252" /> 
<circle cx="57513.6" cy="56355.1" r="98.4252" /> 
<circle cx="57538.6" cy="27095.1" r="98.4252" /> 
<circle cx="57538.6" cy="40055.1" r="98.4252" /> 
<circle cx="57623.5" cy="20400" r="98.4252" /> 
<circle cx="57638.6" cy="23155.1" r="98.4252" /> 
<circle cx="57638.6" cy="50755.1" r="98.4252" /> 
<circle cx="57638.6" cy="52880.1" r="98.4252" /> 
<circle cx="57938.6" cy="47055.1" r="98.4252" /> 
<circle cx="57963.6" cy="49455.1" r="98.4252" /> 
<circle cx="58038.6" cy="53305.1" r="98.4252" /> 
<circle cx="58113.6" cy="38605.1" r="98.4252" /> 
<circle cx="58143.7" cy="36511.5" r="98.4252" /> 
<circle cx="58313.6" cy="29255.1" r="98.4252" /> 
<circle cx="58313.6" cy="31755.1" r="98.4252" /> 
<circle cx="58363.6" cy="57205.1" r="98.4252" /> 
<circle cx="58363.6" cy="57705.1" r="98.4252" /> 
<circle cx="58438.6" cy="51855.1" r="98.4252" /> 
<circle cx="58438.6" cy="52255.1" r="98.4252" /> 
<circle cx="58438.6" cy="52655.1" r="98.4252" /> 
<circle cx="58538.6" cy="54430.1" r="98.4252" /> 
<circle cx="58613.6" cy="39230.1" r="98.4252" /> 
<circle cx="58638.6" cy="37005.1" r="98.4252" /> 
<circle cx="58823.5" cy="20400" r="98.4252" /> 
<circle cx="58938.6" cy="35605.1" r="98.4252" /> 
<circle cx="58988.6" cy="56405.1" r="98.4252" /> 
<circle cx="58988.6" cy="57980.1" r="98.4252" /> 
<circle cx="59038.6" cy="37405.1" r="98.4252" /> 
<circle cx="59238.6" cy="33355.1" r="98.4252" /> 
<circle cx="59238.6" cy="35305.1" r="98.4252" /> 
<circle cx="59338.6" cy="49005.1" r="98.4252" /> 
<circle cx="59423.5" cy="41900" r="98.4252" /> 
<circle cx="59538.6" cy="32355.1" r="98.4252" /> 
<circle cx="59588.6" cy="43330.1" r="98.4252" /> 
<circle cx="59588.6" cy="44355.1" r="98.4252" /> 
<circle cx="59663.6" cy="40055.1" r="98.4252" /> 
<circle cx="59788.6" cy="34755.1" r="98.4252" /> 
<circle cx="59838.6" cy="42230.1" r="98.4252" /> 
<circle cx="59888.6" cy="55655.1" r="98.4252" /> 
<circle cx="59963.6" cy="44655.1" r="98.4252" /> 
<circle cx="60163.5" cy="42010" r="98.4252" /> 
<circle cx="60438.6" cy="41030.1" r="98.4252" /> 
<circle cx="60463.6" cy="37555.1" r="98.4252" /> 
<circle cx="60488.6" cy="43155.1" r="98.4252" /> 
<circle cx="60488.6" cy="44155.1" r="98.4252" /> 
<circle cx="60553.5" cy="34030" r="98.4252" /> 
<circle cx="60618.6" cy="27085.1" r="98.4252" /> 
<circle cx="60638.6" cy="46955.1" r="98.4252" /> 
<circle cx="60663.6" cy="49355.1" r="98.4252" /> 
<circle cx="60736.8" cy="33403.7" r="98.4252" /> 
<circle cx="60938.6" cy="31535" r="98.4252" /> 
<circle cx="61242.5" cy="44155.1" r="98.4252" /> 
<circle cx="61288.6" cy="54155.1" r="98.4252" /> 
<circle cx="61338.6" cy="29255.1" r="98.4252" /> 
<circle cx="61770.1" cy="39845" r="98.4252" /> 
<circle cx="61988.6" cy="52155.1" r="98.4252" /> 
<circle cx="61988.6" cy="53355.1" r="98.4252" /> 
<circle cx="61988.6" cy="54455.1" r="98.4252" /> 
<circle cx="61988.6" cy="56455.1" r="98.4252" /> 
<circle cx="61988.6" cy="58380.1" r="98.4252" /> 
<circle cx="62538.6" cy="50055.1" r="98.4252" /> 
<circle cx="62588.6" cy="57880.1" r="98.4252" /> 
<circle cx="62838.6" cy="20305.1" r="98.4252" /> 
<circle cx="62838.6" cy="29255.1" r="98.4252" /> 
<circle cx="62963.5" cy="40830.1" r="98.4252" /> 
<circle cx="63188.6" cy="58380.1" r="98.4252" /> 
<circle cx="63338.6" cy="51505.1" r="98.4252" /> 
<circle cx="63338.6" cy="52255.1" r="98.4252" /> 
<circle cx="63338.6" cy="54955.1" r="98.4252" /> 
<circle cx="63578.6" cy="27095.1" r="98.4252" /> 
<circle cx="63730.7" cy="42438" r="98.4252" /> 
<circle cx="63738.6" cy="25755.1" r="98.4252" /> 
<circle cx="63883.5" cy="30450" r="98.4252" /> 
<circle cx="63938.6" cy="45655.1" r="98.4252" /> 
<circle cx="63938.6" cy="46755.1" r="98.4252" /> 
<circle cx="63938.6" cy="51555.1" r="98.4252" /> 
<circle cx="63973.5" cy="37500" r="98.4252" /> 
<circle cx="64238.6" cy="44355.1" r="98.4252" /> 
<circle cx="64438.6" cy="52255.1" r="98.4252" /> 
<circle cx="64513.5" cy="42390" r="98.4252" /> 
<circle cx="64693.5" cy="37350" r="98.4252" /> 
<circle cx="64813.6" cy="43555.1" r="98.4252" /> 
<circle cx="64883.5" cy="31425" r="98.4252" /> 
<circle cx="65038.6" cy="39055.1" r="98.4252" /> 
<circle cx="65233.5" cy="43000" r="98.4252" /> 
<circle cx="65388.6" cy="48455.1" r="98.4252" /> 
<circle cx="65588.6" cy="29255.1" r="98.4252" /> 
<circle cx="65938.6" cy="34930.1" r="98.4252" /> 
<circle cx="65988.6" cy="47905.1" r="98.4252" /> 
<circle cx="65988.6" cy="48455.1" r="98.4252" /> 
<circle cx="66087.1" cy="46755.1" r="98.4252" /> 
<circle cx="66088.6" cy="20305.1" r="98.4252" /> 
<circle cx="66238.6" cy="37955.1" r="98.4252" /> 
<circle cx="66438.6" cy="26805.1" r="98.4252" /> 
<circle cx="66571.7" cy="53755.1" r="98.4252" /> 
<circle cx="66588.6" cy="51255.1" r="98.4252" /> 
<circle cx="66633.5" cy="44400" r="98.4252" /> 
<circle cx="66638.6" cy="25755.1" r="98.4252" /> 
<circle cx="66883.5" cy="33700" r="98.4252" /> 
<circle cx="66888.6" cy="39455.1" r="98.4252" /> 
<circle cx="66913.6" cy="37455.1" r="98.4252" /> 
<circle cx="67238.6" cy="50255.1" r="98.4252" /> 
<circle cx="67238.6" cy="51555.1" r="98.4252" /> 
<circle cx="67288.6" cy="29255.1" r="98.4252" /> 
<circle cx="67838.6" cy="48205.1" r="98.4252" /> 
<circle cx="67838.6" cy="50705.1" r="98.4252" /> 
<circle cx="67838.6" cy="54455.1" r="98.4252" /> 
<circle cx="67908.5" cy="41200" r="98.4252" /> 
<circle cx="68083.5" cy="42375" r="98.4252" /> 
<circle cx="68183.5" cy="43700" r="98.4252" /> 
<circle cx="68308.5" cy="46050" r="98.4252" /> 
<circle cx="68413.6" cy="34955.1" r="98.4252" /> 
<circle cx="68488.6" cy="53955.1" r="98.4252" /> 
<circle cx="68638.6" cy="29255.1" r="98.4252" /> 
<circle cx="69213.6" cy="39455.1" r="98.4252" /> 
<circle cx="69738.6" cy="46255.1" r="98.4252" /> 
<circle cx="69738.6" cy="53905.1" r="98.4252" /> 
<circle cx="70088.6" cy="25025.1" r="98.4252" /> 
<circle cx="70188.6" cy="53955.1" r="98.4252" /> 
<circle cx="70458.5" cy="32850" r="98.4252" /> 
<circle cx="70538.6" cy="47055.1" r="98.4252" /> 
<circle cx="70718.5" cy="42375" r="98.4252" /> 
<circle cx="70738.6" cy="26505.1" r="98.4252" /> 
<circle cx="70738.6" cy="27905.1" r="98.4252" /> 
<circle cx="70838.6" cy="20305.1" r="98.4252" /> 
<circle cx="70838.6" cy="34930.1" r="98.4252" /> 
<circle cx="70838.6" cy="37230.1" r="98.4252" /> 
<circle cx="70858.5" cy="45000" r="98.4252" /> 
<circle cx="71208.5" cy="29950" r="98.4252" /> 
<circle cx="71233.5" cy="53185.2" r="98.4252" /> 
<circle cx="71233.5" cy="54710.2" r="98.4252" /> 
<circle cx="71238.6" cy="52305.1" r="98.4252" /> 
<circle cx="71938.6" cy="22955.1" r="98.4252" /> 
<circle cx="72058.5" cy="47600" r="98.4252" /> 
<circle cx="72283.5" cy="53960.2" r="98.4252" /> 
<circle cx="72838.6" cy="58305.1" r="98.4252" /> 
<circle cx="73088.6" cy="21800" r="98.4252" /> 
<circle cx="73538.6" cy="52855.1" r="98.4252" /> 
<circle cx="73538.6" cy="53655.1" r="98.4252" /> 
<circle cx="73583.5" cy="23925" r="98.4252" /> 
<circle cx="73583.5" cy="27025" r="98.4252" /> 
<circle cx="73583.5" cy="29950" r="98.4252" /> 
<circle cx="73583.5" cy="32850" r="98.4252" /> 
<circle cx="73583.5" cy="35975" r="98.4252" /> 
<circle cx="73608.5" cy="39250" r="98.4252" /> 
<circle cx="73608.5" cy="42175" r="98.4252" /> 
<circle cx="73608.5" cy="45100" r="98.4252" /> 
<circle cx="75238.6" cy="34255.1" r="98.4252" /> 
<circle cx="75258.5" cy="47625" r="98.4252" /> 
<circle cx="75338.6" cy="25555.1" r="98.4252" /> 
<circle cx="75588.6" cy="20305.1" r="98.4252" /> 
<circle cx="75588.6" cy="23305.1" r="98.4252" /> 
<circle cx="76238.6" cy="39055.1" r="98.4252" /> 
<circle cx="76338.6" cy="57555.1" r="98.4252" /> 
<circle cx="76338.6" cy="58305.1" r="98.4252" /> 
<circle cx="76888.6" cy="53405.1" r="98.4252" /> 
<circle cx="76938.6" cy="52455.1" r="98.4252" /> 
<circle cx="76938.6" cy="54255.1" r="98.4252" /> 
<circle cx="77088.6" cy="56805.1" r="98.4252" /> 
<circle cx="77225" cy="22550" r="98.4252" /> 
<circle cx="78988.6" cy="51405.1" r="98.4252" /> 
<circle cx="78988.6" cy="54405.1" r="98.4252" /> 
<circle cx="79588.6" cy="24055.1" r="98.4252" /> 
<circle cx="79588.6" cy="28555.1" r="98.4252" /> 
<circle cx="79588.6" cy="30805.1" r="98.4252" /> 
<circle cx="79588.6" cy="42055.1" r="98.4252" /> 
<circle cx="79588.6" cy="44055.1" r="98.4252" /> 
<circle cx="79588.6" cy="49055.1" r="98.4252" /> 
<circle cx="79588.6" cy="50805.1" r="98.4252" /> 
<circle cx="79753.5" cy="36110" r="98.4252" /> 
<circle cx="79763.5" cy="37200" r="98.4252" /> 
<circle cx="79838.6" cy="55305.1" r="98.4252" /> 
<path d="M58354 48097
L58354 48412
" />
<path d="M58196 48255
L58511 48255
" />
<path d="M58746 30337
L58746 30652
" />
<path d="M58588 30495
L58903 30495
" />
<path d="M59338 48097
L59338 48412
" />
<path d="M59181 48255
L59496 48255
" />
<path d="M59730 30337
L59730 30652
" />
<path d="M59573 30495
L59888 30495
" />
<path d="M61054 47997
L61054 48312
" />
<path d="M60896 48155
L61211 48155
" />
<path d="M62038 47997
L62038 48312
" />
<path d="M61881 48155
L62196 48155
" />
<path d="M65102 45890
L65102 46205
" />
<path d="M64945 46047
L65260 46047
" />
<path d="M66087 45890
L66087 46205
" />
<path d="M65929 46047
L66244 46047
" />
<path d="M67038 56119
L67038 56434
" />
<path d="M66881 56277
L67196 56277
" />
<path d="M67038 57497
L67038 57812
" />
<path d="M66881 57655
L67196 57655
" />
<path d="M67145 35189
L67145 35504
" />
<path d="M66987 35347
L67302 35347
" />
<path d="M67145 36174
L67145 36488
" />
<path d="M66987 36331
L67302 36331
" />
<path d="M68043 37947
L68043 38262
" />
<path d="M67886 38105
L68200 38105
" />
<path d="M68043 38931
L68043 39246
" />
<path d="M67886 39089
L68200 39089
" />
<path d="M69426 35947
L69426 36262
" />
<path d="M69268 36105
L69583 36105
" />
<path d="M70410 35947
L70410 36262
" />
<path d="M70253 36105
L70568 36105
" />
<path d="M70846 49397
L70846 49712
" />
<path d="M70688 49555
L71003 49555
" />
<path d="M71830 49397
L71830 49712
" />
<path d="M71673 49555
L71988 49555
" />
<path d="M74938 50597
L74938 50912
" />
<path d="M74781 50755
L75096 50755
" />
<path d="M74938 51975
L74938 52290
" />
<path d="M74781 52133
L75096 52133
" />
<path d="M78138 53397
L78138 53712
" />
<path d="M77981 53555
L78296 53555
" />
<path d="M79516 53397
L79516 53712
" />
<path d="M79359 53555
L79674 53555
" />
<polyline fill="none;"
points="43277,35194
43277,34915
42999,34915
42999,35194
43277,35194
" /> 
<polyline fill="none;"
points="43277,36194
43277,35915
42999,35915
42999,36194
43277,36194
" /> 
<polyline fill="none;"
points="43277,37194
43277,36915
42999,36915
42999,37194
43277,37194
" /> 
<polyline fill="none;"
points="43277,38194
43277,37915
42999,37915
42999,38194
43277,38194
" /> 
<polyline fill="none;"
points="43277,39194
43277,38915
42999,38915
42999,39194
43277,39194
" /> 
<polyline fill="none;"
points="43277,43494
43277,43215
42999,43215
42999,43494
43277,43494
" /> 
<polyline fill="none;"
points="43277,44494
43277,44215
42999,44215
42999,44494
43277,44494
" /> 
<polyline fill="none;"
points="43277,45494
43277,45215
42999,45215
42999,45494
43277,45494
" /> 
<polyline fill="none;"
points="43277,46494
43277,46215
42999,46215
42999,46494
43277,46494
" /> 
<polyline fill="none;"
points="43277,47494
43277,47215
42999,47215
42999,47494
43277,47494
" /> 
<polyline fill="none;"
points="43477,52194
43477,51915
43199,51915
43199,52194
43477,52194
" /> 
<polyline fill="none;"
points="43477,53194
43477,52915
43199,52915
43199,53194
43477,53194
" /> 
<polyline fill="none;"
points="44277,35194
44277,34915
43999,34915
43999,35194
44277,35194
" /> 
<polyline fill="none;"
points="44277,36194
44277,35915
43999,35915
43999,36194
44277,36194
" /> 
<polyline fill="none;"
points="44277,37194
44277,36915
43999,36915
43999,37194
44277,37194
" /> 
<polyline fill="none;"
points="44277,38194
44277,37915
43999,37915
43999,38194
44277,38194
" /> 
<polyline fill="none;"
points="44277,39194
44277,38915
43999,38915
43999,39194
44277,39194
" /> 
<polyline fill="none;"
points="44277,43494
44277,43215
43999,43215
43999,43494
44277,43494
" /> 
<polyline fill="none;"
points="44277,44494
44277,44215
43999,44215
43999,44494
44277,44494
" /> 
<polyline fill="none;"
points="44277,45494
44277,45215
43999,45215
43999,45494
44277,45494
" /> 
<polyline fill="none;"
points="44277,46494
44277,46215
43999,46215
43999,46494
44277,46494
" /> 
<polyline fill="none;"
points="44277,47494
44277,47215
43999,47215
43999,47494
44277,47494
" /> 
<polyline fill="none;"
points="44977,52194
44977,51915
44699,51915
44699,52194
44977,52194
" /> 
<polyline fill="none;"
points="44977,53194
44977,52915
44699,52915
44699,53194
44977,53194
" /> 
<polyline fill="none;"
points="46477,52194
46477,51915
46199,51915
46199,52194
46477,52194
" /> 
<polyline fill="none;"
points="46477,53194
46477,52915
46199,52915
46199,53194
46477,53194
" /> 
<polyline fill="none;"
points="46977,35194
46977,34915
46699,34915
46699,35194
46977,35194
" /> 
<polyline fill="none;"
points="46977,36194
46977,35915
46699,35915
46699,36194
46977,36194
" /> 
<polyline fill="none;"
points="46977,37194
46977,36915
46699,36915
46699,37194
46977,37194
" /> 
<polyline fill="none;"
points="46977,38194
46977,37915
46699,37915
46699,38194
46977,38194
" /> 
<polyline fill="none;"
points="46977,39194
46977,38915
46699,38915
46699,39194
46977,39194
" /> 
<polyline fill="none;"
points="46977,43494
46977,43215
46699,43215
46699,43494
46977,43494
" /> 
<polyline fill="none;"
points="46977,44494
46977,44215
46699,44215
46699,44494
46977,44494
" /> 
<polyline fill="none;"
points="46977,45494
46977,45215
46699,45215
46699,45494
46977,45494
" /> 
<polyline fill="none;"
points="46977,46494
46977,46215
46699,46215
46699,46494
46977,46494
" /> 
<polyline fill="none;"
points="46977,47494
46977,47215
46699,47215
46699,47494
46977,47494
" /> 
<polyline fill="none;"
points="47128,56295
47128,56017
46849,56017
46849,56295
47128,56295
" /> 
<polyline fill="none;"
points="47128,57295
47128,57017
46849,57017
46849,57295
47128,57295
" /> 
<polyline fill="none;"
points="47207,21394
47207,21115
46929,21115
46929,21394
47207,21394
" /> 
<polyline fill="none;"
points="47207,22394
47207,22115
46929,22115
46929,22394
47207,22394
" /> 
<polyline fill="none;"
points="47977,35194
47977,34915
47699,34915
47699,35194
47977,35194
" /> 
<polyline fill="none;"
points="47977,36194
47977,35915
47699,35915
47699,36194
47977,36194
" /> 
<polyline fill="none;"
points="47977,37194
47977,36915
47699,36915
47699,37194
47977,37194
" /> 
<polyline fill="none;"
points="47977,38194
47977,37915
47699,37915
47699,38194
47977,38194
" /> 
<polyline fill="none;"
points="47977,39194
47977,38915
47699,38915
47699,39194
47977,39194
" /> 
<polyline fill="none;"
points="47977,43494
47977,43215
47699,43215
47699,43494
47977,43494
" /> 
<polyline fill="none;"
points="47977,44494
47977,44215
47699,44215
47699,44494
47977,44494
" /> 
<polyline fill="none;"
points="47977,45494
47977,45215
47699,45215
47699,45494
47977,45494
" /> 
<polyline fill="none;"
points="47977,46494
47977,46215
47699,46215
47699,46494
47977,46494
" /> 
<polyline fill="none;"
points="47977,47494
47977,47215
47699,47215
47699,47494
47977,47494
" /> 
<polyline fill="none;"
points="47977,52194
47977,51915
47699,51915
47699,52194
47977,52194
" /> 
<polyline fill="none;"
points="47977,53194
47977,52915
47699,52915
47699,53194
47977,53194
" /> 
<polyline fill="none;"
points="48128,56295
48128,56017
47849,56017
47849,56295
48128,56295
" /> 
<polyline fill="none;"
points="48128,57295
48128,57017
47849,57017
47849,57295
48128,57295
" /> 
<polyline fill="none;"
points="48207,21394
48207,21115
47929,21115
47929,21394
48207,21394
" /> 
<polyline fill="none;"
points="48207,22394
48207,22115
47929,22115
47929,22394
48207,22394
" /> 
<polyline fill="none;"
points="49128,56295
49128,56017
48849,56017
48849,56295
49128,56295
" /> 
<polyline fill="none;"
points="49128,57295
49128,57017
48849,57017
48849,57295
49128,57295
" /> 
<polyline fill="none;"
points="49207,21394
49207,21115
48929,21115
48929,21394
49207,21394
" /> 
<polyline fill="none;"
points="49207,22394
49207,22115
48929,22115
48929,22394
49207,22394
" /> 
<polyline fill="none;"
points="49477,52194
49477,51915
49199,51915
49199,52194
49477,52194
" /> 
<polyline fill="none;"
points="49477,53194
49477,52915
49199,52915
49199,53194
49477,53194
" /> 
<polyline fill="none;"
points="50128,56295
50128,56017
49849,56017
49849,56295
50128,56295
" /> 
<polyline fill="none;"
points="50128,57295
50128,57017
49849,57017
49849,57295
50128,57295
" /> 
<polyline fill="none;"
points="50207,21394
50207,21115
49929,21115
49929,21394
50207,21394
" /> 
<polyline fill="none;"
points="50207,22394
50207,22115
49929,22115
49929,22394
50207,22394
" /> 
<polyline fill="none;"
points="50977,52194
50977,51915
50699,51915
50699,52194
50977,52194
" /> 
<polyline fill="none;"
points="50977,53194
50977,52915
50699,52915
50699,53194
50977,53194
" /> 
<polyline fill="none;"
points="51128,56295
51128,56017
50849,56017
50849,56295
51128,56295
" /> 
<polyline fill="none;"
points="51128,57295
51128,57017
50849,57017
50849,57295
51128,57295
" /> 
<polyline fill="none;"
points="51177,33144
51177,32865
50899,32865
50899,33144
51177,33144
" /> 
<polyline fill="none;"
points="51207,21394
51207,21115
50929,21115
50929,21394
51207,21394
" /> 
<polyline fill="none;"
points="51207,22394
51207,22115
50929,22115
50929,22394
51207,22394
" /> 
<polyline fill="none;"
points="52128,56295
52128,56017
51849,56017
51849,56295
52128,56295
" /> 
<polyline fill="none;"
points="52128,57295
52128,57017
51849,57017
51849,57295
52128,57295
" /> 
<polyline fill="none;"
points="52177,33144
52177,32865
51899,32865
51899,33144
52177,33144
" /> 
<polyline fill="none;"
points="52207,21394
52207,21115
51929,21115
51929,21394
52207,21394
" /> 
<polyline fill="none;"
points="52207,22394
52207,22115
51929,22115
51929,22394
52207,22394
" /> 
<polyline fill="none;"
points="52477,52194
52477,51915
52199,51915
52199,52194
52477,52194
" /> 
<polyline fill="none;"
points="52477,53194
52477,52915
52199,52915
52199,53194
52477,53194
" /> 
<polyline fill="none;"
points="53177,33144
53177,32865
52899,32865
52899,33144
53177,33144
" /> 
<polyline fill="none;"
points="53207,21394
53207,21115
52929,21115
52929,21394
53207,21394
" /> 
<polyline fill="none;"
points="53207,22394
53207,22115
52929,22115
52929,22394
53207,22394
" /> 
<polyline fill="none;"
points="54207,21394
54207,21115
53929,21115
53929,21394
54207,21394
" /> 
<polyline fill="none;"
points="54207,22394
54207,22115
53929,22115
53929,22394
54207,22394
" /> 
<polyline fill="none;"
points="55207,21394
55207,21115
54929,21115
54929,21394
55207,21394
" /> 
<polyline fill="none;"
points="55207,22394
55207,22115
54929,22115
54929,22394
55207,22394
" /> 
<polyline fill="none;"
points="56207,21394
56207,21115
55929,21115
55929,21394
56207,21394
" /> 
<polyline fill="none;"
points="56207,22394
56207,22115
55929,22115
55929,22394
56207,22394
" /> 
<polyline fill="none;"
points="56277,57994
56277,57715
55999,57715
55999,57994
56277,57994
" /> 
<polyline fill="none;"
points="57277,57994
57277,57715
56999,57715
56999,57994
57277,57994
" /> 
<polyline fill="none;"
points="60457,21394
60457,21115
60179,21115
60179,21394
60457,21394
" /> 
<polyline fill="none;"
points="60457,22394
60457,22115
60179,22115
60179,22394
60457,22394
" /> 
<polyline fill="none;"
points="61457,21394
61457,21115
61179,21115
61179,21394
61457,21394
" /> 
<polyline fill="none;"
points="61457,22394
61457,22115
61179,22115
61179,22394
61457,22394
" /> 
<polyline fill="none;"
points="62457,21394
62457,21115
62179,21115
62179,21394
62457,21394
" /> 
<polyline fill="none;"
points="62457,22394
62457,22115
62179,22115
62179,22394
62457,22394
" /> 
<polyline fill="none;"
points="63457,21394
63457,21115
63179,21115
63179,21394
63457,21394
" /> 
<polyline fill="none;"
points="63457,22394
63457,22115
63179,22115
63179,22394
63457,22394
" /> 
<polyline fill="none;"
points="64457,21394
64457,21115
64179,21115
64179,21394
64457,21394
" /> 
<polyline fill="none;"
points="64457,22394
64457,22115
64179,22115
64179,22394
64457,22394
" /> 
<polyline fill="none;"
points="65457,21394
65457,21115
65179,21115
65179,21394
65457,21394
" /> 
<polyline fill="none;"
points="65457,22394
65457,22115
65179,22115
65179,22394
65457,22394
" /> 
<polyline fill="none;"
points="66457,21394
66457,21115
66179,21115
66179,21394
66457,21394
" /> 
<polyline fill="none;"
points="66457,22394
66457,22115
66179,22115
66179,22394
66457,22394
" /> 
<polyline fill="none;"
points="67457,21394
67457,21115
67179,21115
67179,21394
67457,21394
" /> 
<polyline fill="none;"
points="67457,22394
67457,22115
67179,22115
67179,22394
67457,22394
" /> 
<polyline fill="none;"
points="68457,21394
68457,21115
68179,21115
68179,21394
68457,21394
" /> 
<polyline fill="none;"
points="68457,22394
68457,22115
68179,22115
68179,22394
68457,22394
" /> 
<polyline fill="none;"
points="69457,21394
69457,21115
69179,21115
69179,21394
69457,21394
" /> 
<polyline fill="none;"
points="69457,22394
69457,22115
69179,22115
69179,22394
69457,22394
" /> 
<polyline fill="none;"
points="69977,56595
69977,56317
69699,56317
69699,56595
69977,56595
" /> 
<polyline fill="none;"
points="71227,56595
71227,56317
70949,56317
70949,56595
71227,56595
" /> 
<path d="M70785 56614
L71391 56614
" />
<path d="M70785 56299
L71391 56299
" />
<path d="M71391.7 56614.2 A157.48 157.48 0.0 0 0 71391.7 56299.2 " />
<path d="M70785.4 56299.2 A157.48 157.48 0.0 0 0 70785.4 56614.2 " />
<polyline fill="none;"
points="73727,56595
73727,56317
73449,56317
73449,56595
73727,56595
" /> 
<path d="M73891 56299
L73285 56299
" />
<path d="M73891 56614
L73285 56614
" />
<path d="M73285.4 56299.2 A157.48 157.48 0.0 0 0 73285.4 56614.2 " />
<path d="M73891.7 56614.2 A157.48 157.48 0.0 0 0 73891.7 56299.2 " />
<polyline fill="none;"
points="74977,56595
74977,56317
74699,56317
74699,56595
74977,56595
" /> 
<polyline fill="none;"
points="77907,25544
77907,25265
77629,25265
77629,25544
77907,25544
" /> 
<polyline fill="none;"
points="77907,26544
77907,26265
77629,26265
77629,26544
77907,26544
" /> 
<polyline fill="none;"
points="77907,27544
77907,27265
77629,27265
77629,27544
77907,27544
" /> 
<polyline fill="none;"
points="77907,28544
77907,28265
77629,28265
77629,28544
77907,28544
" /> 
<polyline fill="none;"
points="77907,29544
77907,29265
77629,29265
77629,29544
77907,29544
" /> 
<polyline fill="none;"
points="77907,30544
77907,30265
77629,30265
77629,30544
77907,30544
" /> 
<polyline fill="none;"
points="77907,31544
77907,31265
77629,31265
77629,31544
77907,31544
" /> 
<polyline fill="none;"
points="77907,32544
77907,32265
77629,32265
77629,32544
77907,32544
" /> 
<polyline fill="none;"
points="77907,33544
77907,33265
77629,33265
77629,33544
77907,33544
" /> 
<polyline fill="none;"
points="77907,34544
77907,34265
77629,34265
77629,34544
77907,34544
" /> 
<polyline fill="none;"
points="77907,38794
77907,38515
77629,38515
77629,38794
77907,38794
" /> 
<polyline fill="none;"
points="77907,39794
77907,39515
77629,39515
77629,39794
77907,39794
" /> 
<polyline fill="none;"
points="77907,40794
77907,40515
77629,40515
77629,40794
77907,40794
" /> 
<polyline fill="none;"
points="77907,41794
77907,41515
77629,41515
77629,41794
77907,41794
" /> 
<polyline fill="none;"
points="77907,42794
77907,42515
77629,42515
77629,42794
77907,42794
" /> 
<polyline fill="none;"
points="77907,43794
77907,43515
77629,43515
77629,43794
77907,43794
" /> 
<polyline fill="none;"
points="77907,44794
77907,44515
77629,44515
77629,44794
77907,44794
" /> 
<polyline fill="none;"
points="77907,45794
77907,45515
77629,45515
77629,45794
77907,45794
" /> 
<polyline fill="none;"
points="77907,46794
77907,46515
77629,46515
77629,46794
77907,46794
" /> 
<polyline fill="none;"
points="77907,47794
77907,47515
77629,47515
77629,47794
77907,47794
" /> 
<polyline fill="none;"
points="78907,25544
78907,25265
78629,25265
78629,25544
78907,25544
" /> 
<polyline fill="none;"
points="78907,26544
78907,26265
78629,26265
78629,26544
78907,26544
" /> 
<polyline fill="none;"
points="78907,27544
78907,27265
78629,27265
78629,27544
78907,27544
" /> 
<polyline fill="none;"
points="78907,28544
78907,28265
78629,28265
78629,28544
78907,28544
" /> 
<polyline fill="none;"
points="78907,29544
78907,29265
78629,29265
78629,29544
78907,29544
" /> 
<polyline fill="none;"
points="78907,30544
78907,30265
78629,30265
78629,30544
78907,30544
" /> 
<polyline fill="none;"
points="78907,31544
78907,31265
78629,31265
78629,31544
78907,31544
" /> 
<polyline fill="none;"
points="78907,32544
78907,32265
78629,32265
78629,32544
78907,32544
" /> 
<polyline fill="none;"
points="78907,33544
78907,33265
78629,33265
78629,33544
78907,33544
" /> 
<polyline fill="none;"
points="78907,34544
78907,34265
78629,34265
78629,34544
78907,34544
" /> 
<polyline fill="none;"
points="78907,38794
78907,38515
78629,38515
78629,38794
78907,38794
" /> 
<polyline fill="none;"
points="78907,39794
78907,39515
78629,39515
78629,39794
78907,39794
" /> 
<polyline fill="none;"
points="78907,40794
78907,40515
78629,40515
78629,40794
78907,40794
" /> 
<polyline fill="none;"
points="78907,41794
78907,41515
78629,41515
78629,41794
78907,41794
" /> 
<polyline fill="none;"
points="78907,42794
78907,42515
78629,42515
78629,42794
78907,42794
" /> 
<polyline fill="none;"
points="78907,43794
78907,43515
78629,43515
78629,43794
78907,43794
" /> 
<polyline fill="none;"
points="78907,44794
78907,44515
78629,44515
78629,44794
78907,44794
" /> 
<polyline fill="none;"
points="78907,45794
78907,45515
78629,45515
78629,45794
78907,45794
" /> 
<polyline fill="none;"
points="78907,46794
78907,46515
78629,46515
78629,46794
78907,46794
" /> 
<polyline fill="none;"
points="78907,47794
78907,47515
78629,47515
78629,47794
78907,47794
" /> 
<polyline fill="none;"
points="43307,22283
43937,21653
43307,21023
42677,21653
43307,22283
" /> 
<polyline fill="none;"
points="43307,57716
43937,57086
43307,56456
42677,57086
43307,57716
" /> 
<polyline fill="none;"
points="78740,22283
79370,21653
78740,21023
78110,21653
78740,22283
" /> 
<polyline fill="none;"
points="78740,57716
79370,57086
78740,56456
78110,57086
78740,57716
" /> 
</g>
<g style="fill:#000000; fill-opacity:0.0; 
stroke:#000000; stroke-width:118.11; stroke-opacity:1; 
stroke-linecap:round; stroke-linejoin:round;">
<path d="M42377 60918
L42377 59737
L42658 59737
L42827 59793
L42940 59905
L42996 60018
L43052 60243
L43052 60411
L42996 60636
L42940 60749
L42827 60861
L42658 60918
L42377 60918
" />
<path d="M43558 60918
L43558 60130
" />
<path d="M43558 60355
L43615 60243
L43671 60187
L43783 60130
L43896 60130
" />
<path d="M44289 60918
L44289 60130
" />
<path d="M44289 59737
L44233 59793
L44289 59849
L44346 59793
L44289 59737
L44289 59849
" />
<path d="M45021 60918
L44908 60861
L44852 60749
L44852 59737
" />
<path d="M45639 60918
L45527 60861
L45471 60749
L45471 59737
" />
<path d="M46989 60918
L46989 59737
L47383 60580
L47776 59737
L47776 60918
" />
<path d="M48845 60918
L48845 60299
L48789 60187
L48676 60130
L48451 60130
L48339 60187
" />
<path d="M48845 60861
L48733 60918
L48451 60918
L48339 60861
L48283 60749
L48283 60636
L48339 60524
L48451 60468
L48733 60468
L48845 60411
" />
<path d="M49408 60130
L49408 61311
" />
<path d="M49408 60187
L49520 60130
L49745 60130
L49857 60187
L49914 60243
L49970 60355
L49970 60693
L49914 60805
L49857 60861
L49745 60918
L49520 60918
L49408 60861
" />
<path d="M50476 60805
L50532 60861
L50476 60918
L50420 60861
L50476 60805
L50476 60918
" />
<path d="M50476 60187
L50532 60243
L50476 60299
L50420 60243
L50476 60187
L50476 60299
" />
<path d="M41151 62785
L41309 62942
" />
<path d="M41309 62785
L41151 62942
" />
<path d="M42602 62217
L42715 62217
L42827 62273
L42883 62329
L42940 62442
L42996 62667
L42996 62948
L42940 63173
L42883 63285
L42827 63342
L42715 63398
L42602 63398
L42490 63342
L42433 63285
L42377 63173
L42321 62948
L42321 62667
L42377 62442
L42433 62329
L42490 62273
L42602 62217
" />
<path d="M43502 63285
L43558 63342
L43502 63398
L43446 63342
L43502 63285
L43502 63398
" />
<path d="M44571 62611
L44571 63398
" />
<path d="M44289 62161
L44008 63004
L44739 63004
" />
<path d="M45414 62217
L45527 62217
L45639 62273
L45696 62329
L45752 62442
L45808 62667
L45808 62948
L45752 63173
L45696 63285
L45639 63342
L45527 63398
L45414 63398
L45302 63342
L45246 63285
L45189 63173
L45133 62948
L45133 62667
L45189 62442
L45246 62329
L45302 62273
L45414 62217
" />
<path d="M46314 63398
L46314 62611
" />
<path d="M46314 62723
L46370 62667
L46483 62611
L46652 62611
L46764 62667
L46820 62779
L46820 63398
" />
<path d="M46820 62779
L46877 62667
L46989 62611
L47158 62611
L47270 62667
L47327 62779
L47327 63398
" />
<path d="M47889 63398
L47889 62611
" />
<path d="M47889 62723
L47945 62667
L48058 62611
L48226 62611
L48339 62667
L48395 62779
L48395 63398
" />
<path d="M48395 62779
L48451 62667
L48564 62611
L48733 62611
L48845 62667
L48901 62779
L48901 63398
" />
<path d="M51207 62161
L50195 63679
" />
<path d="M52726 62217
L52838 62217
L52951 62273
L53007 62329
L53063 62442
L53120 62667
L53120 62948
L53063 63173
L53007 63285
L52951 63342
L52838 63398
L52726 63398
L52613 63342
L52557 63285
L52501 63173
L52445 62948
L52445 62667
L52501 62442
L52557 62329
L52613 62273
L52726 62217
" />
<path d="M53626 63285
L53682 63342
L53626 63398
L53570 63342
L53626 63285
L53626 63398
" />
<path d="M54413 62217
L54526 62217
L54638 62273
L54694 62329
L54751 62442
L54807 62667
L54807 62948
L54751 63173
L54694 63285
L54638 63342
L54526 63398
L54413 63398
L54301 63342
L54244 63285
L54188 63173
L54132 62948
L54132 62667
L54188 62442
L54244 62329
L54301 62273
L54413 62217
" />
<path d="M55932 63398
L55257 63398
" />
<path d="M55594 63398
L55594 62217
L55482 62386
L55369 62498
L55257 62554
" />
<path d="M56944 62217
L56719 62217
L56607 62273
L56550 62329
L56438 62498
L56382 62723
L56382 63173
L56438 63285
L56494 63342
L56607 63398
L56832 63398
L56944 63342
L57000 63285
L57057 63173
L57057 62892
L57000 62779
L56944 62723
L56832 62667
L56607 62667
L56494 62723
L56438 62779
L56382 62892
" />
<path d="M57507 62217
L57507 62442
" />
<path d="M57956 62217
L57956 62442
" />
<path d="M59700 63848
L59644 63792
L59531 63623
L59475 63510
L59419 63342
L59363 63061
L59363 62836
L59419 62554
L59475 62386
L59531 62273
L59644 62104
L59700 62048
" />
<path d="M60656 62611
L60656 63398
" />
<path d="M60375 62161
L60094 63004
L60825 63004
" />
<path d="M62175 63398
L62175 62217
" />
<path d="M62681 63398
L62681 62779
L62625 62667
L62512 62611
L62343 62611
L62231 62667
L62175 62723
" />
<path d="M63412 63398
L63300 63342
L63243 63285
L63187 63173
L63187 62836
L63243 62723
L63300 62667
L63412 62611
L63581 62611
L63693 62667
L63749 62723
L63806 62836
L63806 63173
L63749 63285
L63693 63342
L63581 63398
L63412 63398
" />
<path d="M64481 63398
L64368 63342
L64312 63229
L64312 62217
" />
<path d="M65381 63342
L65268 63398
L65043 63398
L64931 63342
L64874 63229
L64874 62779
L64931 62667
L65043 62611
L65268 62611
L65381 62667
L65437 62779
L65437 62892
L64874 63004
" />
<path d="M65887 63342
L65999 63398
L66224 63398
L66337 63342
L66393 63229
L66393 63173
L66337 63061
L66224 63004
L66055 63004
L65943 62948
L65887 62836
L65887 62779
L65943 62667
L66055 62611
L66224 62611
L66337 62667
" />
<path d="M66787 63848
L66843 63792
L66955 63623
L67012 63510
L67068 63342
L67124 63061
L67124 62836
L67068 62554
L67012 62386
L66955 62273
L66843 62104
L66787 62048
" />
<circle cx="41210.6" cy="64423.2" r="98.4252" /> 
<path d="M42602 63776
L42715 63776
L42827 63832
L42883 63888
L42940 64001
L42996 64226
L42996 64507
L42940 64732
L42883 64845
L42827 64901
L42715 64957
L42602 64957
L42490 64901
L42433 64845
L42377 64732
L42321 64507
L42321 64226
L42377 64001
L42433 63888
L42490 63832
L42602 63776
" />
<path d="M43502 64845
L43558 64901
L43502 64957
L43446 64901
L43502 64845
L43502 64957
" />
<path d="M44627 63776
L44064 63776
L44008 64338
L44064 64282
L44177 64226
L44458 64226
L44571 64282
L44627 64338
L44683 64451
L44683 64732
L44627 64845
L44571 64901
L44458 64957
L44177 64957
L44064 64901
L44008 64845
" />
<path d="M45414 63776
L45527 63776
L45639 63832
L45696 63888
L45752 64001
L45808 64226
L45808 64507
L45752 64732
L45696 64845
L45639 64901
L45527 64957
L45414 64957
L45302 64901
L45246 64845
L45189 64732
L45133 64507
L45133 64226
L45189 64001
L45246 63888
L45302 63832
L45414 63776
" />
<path d="M46314 64957
L46314 64170
" />
<path d="M46314 64282
L46370 64226
L46483 64170
L46652 64170
L46764 64226
L46820 64338
L46820 64957
" />
<path d="M46820 64338
L46877 64226
L46989 64170
L47158 64170
L47270 64226
L47327 64338
L47327 64957
" />
<path d="M47889 64957
L47889 64170
" />
<path d="M47889 64282
L47945 64226
L48058 64170
L48226 64170
L48339 64226
L48395 64338
L48395 64957
" />
<path d="M48395 64338
L48451 64226
L48564 64170
L48733 64170
L48845 64226
L48901 64338
L48901 64957
" />
<path d="M51207 63720
L50195 65238
" />
<path d="M52726 63776
L52838 63776
L52951 63832
L53007 63888
L53063 64001
L53120 64226
L53120 64507
L53063 64732
L53007 64845
L52951 64901
L52838 64957
L52726 64957
L52613 64901
L52557 64845
L52501 64732
L52445 64507
L52445 64226
L52501 64001
L52557 63888
L52613 63832
L52726 63776
" />
<path d="M53626 64845
L53682 64901
L53626 64957
L53570 64901
L53626 64845
L53626 64957
" />
<path d="M54413 63776
L54526 63776
L54638 63832
L54694 63888
L54751 64001
L54807 64226
L54807 64507
L54751 64732
L54694 64845
L54638 64901
L54526 64957
L54413 64957
L54301 64901
L54244 64845
L54188 64732
L54132 64507
L54132 64226
L54188 64001
L54244 63888
L54301 63832
L54413 63776
" />
<path d="M55257 63888
L55313 63832
L55426 63776
L55707 63776
L55819 63832
L55875 63888
L55932 64001
L55932 64113
L55875 64282
L55201 64957
L55932 64957
" />
<path d="M56663 63776
L56775 63776
L56888 63832
L56944 63888
L57000 64001
L57057 64226
L57057 64507
L57000 64732
L56944 64845
L56888 64901
L56775 64957
L56663 64957
L56550 64901
L56494 64845
L56438 64732
L56382 64507
L56382 64226
L56438 64001
L56494 63888
L56550 63832
L56663 63776
" />
<path d="M57507 63776
L57507 64001
" />
<path d="M57956 63776
L57956 64001
" />
<path d="M59700 65407
L59644 65351
L59531 65182
L59475 65070
L59419 64901
L59363 64620
L59363 64395
L59419 64113
L59475 63945
L59531 63832
L59644 63663
L59700 63607
" />
<path d="M60094 63888
L60150 63832
L60262 63776
L60544 63776
L60656 63832
L60712 63888
L60769 64001
L60769 64113
L60712 64282
L60037 64957
L60769 64957
" />
<path d="M61331 64957
L61556 64957
L61669 64901
L61725 64845
L61837 64676
L61893 64451
L61893 64001
L61837 63888
L61781 63832
L61669 63776
L61444 63776
L61331 63832
L61275 63888
L61219 64001
L61219 64282
L61275 64395
L61331 64451
L61444 64507
L61669 64507
L61781 64451
L61837 64395
L61893 64282
" />
<path d="M62906 64170
L62906 64957
" />
<path d="M62625 63720
L62343 64563
L63075 64563
" />
<path d="M64424 64957
L64424 63776
" />
<path d="M64931 64957
L64931 64338
L64874 64226
L64762 64170
L64593 64170
L64481 64226
L64424 64282
" />
<path d="M65662 64957
L65549 64901
L65493 64845
L65437 64732
L65437 64395
L65493 64282
L65549 64226
L65662 64170
L65830 64170
L65943 64226
L65999 64282
L66055 64395
L66055 64732
L65999 64845
L65943 64901
L65830 64957
L65662 64957
" />
<path d="M66730 64957
L66618 64901
L66562 64788
L66562 63776
" />
<path d="M67630 64901
L67518 64957
L67293 64957
L67180 64901
L67124 64788
L67124 64338
L67180 64226
L67293 64170
L67518 64170
L67630 64226
L67687 64338
L67687 64451
L67124 64563
" />
<path d="M68136 64901
L68249 64957
L68474 64957
L68586 64901
L68643 64788
L68643 64732
L68586 64620
L68474 64563
L68305 64563
L68193 64507
L68136 64395
L68136 64338
L68193 64226
L68305 64170
L68474 64170
L68586 64226
" />
<path d="M69036 65407
L69093 65351
L69205 65182
L69261 65070
L69318 64901
L69374 64620
L69374 64395
L69318 64113
L69261 63945
L69205 63832
L69093 63663
L69036 63607
" />
<path d="M41151 65824
L41151 66139
" />
<path d="M40994 65982
L41309 65982
" />
<path d="M42602 65335
L42715 65335
L42827 65391
L42883 65447
L42940 65560
L42996 65785
L42996 66066
L42940 66291
L42883 66404
L42827 66460
L42715 66516
L42602 66516
L42490 66460
L42433 66404
L42377 66291
L42321 66066
L42321 65785
L42377 65560
L42433 65447
L42490 65391
L42602 65335
" />
<path d="M43502 66404
L43558 66460
L43502 66516
L43446 66460
L43502 66404
L43502 66516
" />
<path d="M44233 65841
L44121 65785
L44064 65729
L44008 65616
L44008 65560
L44064 65447
L44121 65391
L44233 65335
L44458 65335
L44571 65391
L44627 65447
L44683 65560
L44683 65616
L44627 65729
L44571 65785
L44458 65841
L44233 65841
L44121 65897
L44064 65954
L44008 66066
L44008 66291
L44064 66404
L44121 66460
L44233 66516
L44458 66516
L44571 66460
L44627 66404
L44683 66291
L44683 66066
L44627 65954
L44571 65897
L44458 65841
" />
<path d="M45414 65335
L45527 65335
L45639 65391
L45696 65447
L45752 65560
L45808 65785
L45808 66066
L45752 66291
L45696 66404
L45639 66460
L45527 66516
L45414 66516
L45302 66460
L45246 66404
L45189 66291
L45133 66066
L45133 65785
L45189 65560
L45246 65447
L45302 65391
L45414 65335
" />
<path d="M46314 66516
L46314 65729
" />
<path d="M46314 65841
L46370 65785
L46483 65729
L46652 65729
L46764 65785
L46820 65897
L46820 66516
" />
<path d="M46820 65897
L46877 65785
L46989 65729
L47158 65729
L47270 65785
L47327 65897
L47327 66516
" />
<path d="M47889 66516
L47889 65729
" />
<path d="M47889 65841
L47945 65785
L48058 65729
L48226 65729
L48339 65785
L48395 65897
L48395 66516
" />
<path d="M48395 65897
L48451 65785
L48564 65729
L48733 65729
L48845 65785
L48901 65897
L48901 66516
" />
<path d="M51207 65279
L50195 66797
" />
<path d="M52726 65335
L52838 65335
L52951 65391
L53007 65447
L53063 65560
L53120 65785
L53120 66066
L53063 66291
L53007 66404
L52951 66460
L52838 66516
L52726 66516
L52613 66460
L52557 66404
L52501 66291
L52445 66066
L52445 65785
L52501 65560
L52557 65447
L52613 65391
L52726 65335
" />
<path d="M53626 66404
L53682 66460
L53626 66516
L53570 66460
L53626 66404
L53626 66516
" />
<path d="M54413 65335
L54526 65335
L54638 65391
L54694 65447
L54751 65560
L54807 65785
L54807 66066
L54751 66291
L54694 66404
L54638 66460
L54526 66516
L54413 66516
L54301 66460
L54244 66404
L54188 66291
L54132 66066
L54132 65785
L54188 65560
L54244 65447
L54301 65391
L54413 65335
" />
<path d="M55201 65335
L55932 65335
L55538 65785
L55707 65785
L55819 65841
L55875 65897
L55932 66010
L55932 66291
L55875 66404
L55819 66460
L55707 66516
L55369 66516
L55257 66460
L55201 66404
" />
<path d="M57057 66516
L56382 66516
" />
<path d="M56719 66516
L56719 65335
L56607 65504
L56494 65616
L56382 65672
" />
<path d="M57507 65335
L57507 65560
" />
<path d="M57956 65335
L57956 65560
" />
<path d="M59700 66966
L59644 66910
L59531 66741
L59475 66629
L59419 66460
L59363 66179
L59363 65954
L59419 65672
L59475 65504
L59531 65391
L59644 65223
L59700 65166
" />
<path d="M60094 65447
L60150 65391
L60262 65335
L60544 65335
L60656 65391
L60712 65447
L60769 65560
L60769 65672
L60712 65841
L60037 66516
L60769 66516
" />
<path d="M61219 65447
L61275 65391
L61387 65335
L61669 65335
L61781 65391
L61837 65447
L61893 65560
L61893 65672
L61837 65841
L61162 66516
L61893 66516
" />
<path d="M63300 66516
L63300 65335
" />
<path d="M63806 66516
L63806 65897
L63749 65785
L63637 65729
L63468 65729
L63356 65785
L63300 65841
" />
<path d="M64537 66516
L64424 66460
L64368 66404
L64312 66291
L64312 65954
L64368 65841
L64424 65785
L64537 65729
L64706 65729
L64818 65785
L64874 65841
L64931 65954
L64931 66291
L64874 66404
L64818 66460
L64706 66516
L64537 66516
" />
<path d="M65606 66516
L65493 66460
L65437 66347
L65437 65335
" />
<path d="M66505 66460
L66393 66516
L66168 66516
L66055 66460
L65999 66347
L65999 65897
L66055 65785
L66168 65729
L66393 65729
L66505 65785
L66562 65897
L66562 66010
L65999 66122
" />
<path d="M67012 66460
L67124 66516
L67349 66516
L67462 66460
L67518 66347
L67518 66291
L67462 66179
L67349 66122
L67180 66122
L67068 66066
L67012 65954
L67012 65897
L67068 65785
L67180 65729
L67349 65729
L67462 65785
" />
<path d="M67911 66966
L67968 66910
L68080 66741
L68136 66629
L68193 66460
L68249 66179
L68249 65954
L68193 65672
L68136 65504
L68080 65391
L67968 65223
L67911 65166
" />
<polyline fill="none;"
points="41251,67680
41251,67402
40973,67402
40973,67680
41251,67680
" /> 
<path d="M42996 68075
L42321 68075
" />
<path d="M42658 68075
L42658 66894
L42546 67063
L42433 67175
L42321 67232
" />
<path d="M43502 67963
L43558 68019
L43502 68075
L43446 68019
L43502 67963
L43502 68075
" />
<path d="M44289 66894
L44402 66894
L44514 66950
L44571 67007
L44627 67119
L44683 67344
L44683 67625
L44627 67850
L44571 67963
L44514 68019
L44402 68075
L44289 68075
L44177 68019
L44121 67963
L44064 67850
L44008 67625
L44008 67344
L44064 67119
L44121 67007
L44177 66950
L44289 66894
" />
<path d="M45414 66894
L45527 66894
L45639 66950
L45696 67007
L45752 67119
L45808 67344
L45808 67625
L45752 67850
L45696 67963
L45639 68019
L45527 68075
L45414 68075
L45302 68019
L45246 67963
L45189 67850
L45133 67625
L45133 67344
L45189 67119
L45246 67007
L45302 66950
L45414 66894
" />
<path d="M46314 68075
L46314 67288
" />
<path d="M46314 67400
L46370 67344
L46483 67288
L46652 67288
L46764 67344
L46820 67456
L46820 68075
" />
<path d="M46820 67456
L46877 67344
L46989 67288
L47158 67288
L47270 67344
L47327 67456
L47327 68075
" />
<path d="M47889 68075
L47889 67288
" />
<path d="M47889 67400
L47945 67344
L48058 67288
L48226 67288
L48339 67344
L48395 67456
L48395 68075
" />
<path d="M48395 67456
L48451 67344
L48564 67288
L48733 67288
L48845 67344
L48901 67456
L48901 68075
" />
<path d="M51207 66838
L50195 68356
" />
<path d="M52726 66894
L52838 66894
L52951 66950
L53007 67007
L53063 67119
L53120 67344
L53120 67625
L53063 67850
L53007 67963
L52951 68019
L52838 68075
L52726 68075
L52613 68019
L52557 67963
L52501 67850
L52445 67625
L52445 67344
L52501 67119
L52557 67007
L52613 66950
L52726 66894
" />
<path d="M53626 67963
L53682 68019
L53626 68075
L53570 68019
L53626 67963
L53626 68075
" />
<path d="M54413 66894
L54526 66894
L54638 66950
L54694 67007
L54751 67119
L54807 67344
L54807 67625
L54751 67850
L54694 67963
L54638 68019
L54526 68075
L54413 68075
L54301 68019
L54244 67963
L54188 67850
L54132 67625
L54132 67344
L54188 67119
L54244 67007
L54301 66950
L54413 66894
" />
<path d="M55201 66894
L55932 66894
L55538 67344
L55707 67344
L55819 67400
L55875 67456
L55932 67569
L55932 67850
L55875 67963
L55819 68019
L55707 68075
L55369 68075
L55257 68019
L55201 67963
" />
<path d="M56494 68075
L56719 68075
L56832 68019
L56888 67963
L57000 67794
L57057 67569
L57057 67119
L57000 67007
L56944 66950
L56832 66894
L56607 66894
L56494 66950
L56438 67007
L56382 67119
L56382 67400
L56438 67513
L56494 67569
L56607 67625
L56832 67625
L56944 67569
L57000 67513
L57057 67400
" />
<path d="M57507 66894
L57507 67119
" />
<path d="M57956 66894
L57956 67119
" />
<path d="M59700 68525
L59644 68469
L59531 68300
L59475 68188
L59419 68019
L59363 67738
L59363 67513
L59419 67232
L59475 67063
L59531 66950
L59644 66782
L59700 66725
" />
<path d="M60769 68075
L60094 68075
" />
<path d="M60431 68075
L60431 66894
L60319 67063
L60206 67175
L60094 67232
" />
<path d="M61837 66894
L61275 66894
L61219 67456
L61275 67400
L61387 67344
L61669 67344
L61781 67400
L61837 67456
L61893 67569
L61893 67850
L61837 67963
L61781 68019
L61669 68075
L61387 68075
L61275 68019
L61219 67963
" />
<path d="M62287 66894
L63018 66894
L62625 67344
L62793 67344
L62906 67400
L62962 67456
L63018 67569
L63018 67850
L62962 67963
L62906 68019
L62793 68075
L62456 68075
L62343 68019
L62287 67963
" />
<path d="M64424 68075
L64424 66894
" />
<path d="M64931 68075
L64931 67456
L64874 67344
L64762 67288
L64593 67288
L64481 67344
L64424 67400
" />
<path d="M65662 68075
L65549 68019
L65493 67963
L65437 67850
L65437 67513
L65493 67400
L65549 67344
L65662 67288
L65830 67288
L65943 67344
L65999 67400
L66055 67513
L66055 67850
L65999 67963
L65943 68019
L65830 68075
L65662 68075
" />
<path d="M66730 68075
L66618 68019
L66562 67906
L66562 66894
" />
<path d="M67630 68019
L67518 68075
L67293 68075
L67180 68019
L67124 67906
L67124 67456
L67180 67344
L67293 67288
L67518 67288
L67630 67344
L67687 67456
L67687 67569
L67124 67681
" />
<path d="M68136 68019
L68249 68075
L68474 68075
L68586 68019
L68643 67906
L68643 67850
L68586 67738
L68474 67681
L68305 67681
L68193 67625
L68136 67513
L68136 67456
L68193 67344
L68305 67288
L68474 67288
L68586 67344
" />
<path d="M70049 67625
L70949 67625
" />
<path d="M70499 68075
L70499 67175
" />
<path d="M72355 67007
L72411 66950
L72523 66894
L72805 66894
L72917 66950
L72973 67007
L73030 67119
L73030 67232
L72973 67400
L72298 68075
L73030 68075
" />
<path d="M74379 68019
L74492 68075
L74717 68075
L74829 68019
L74886 67906
L74886 67850
L74829 67738
L74717 67681
L74548 67681
L74436 67625
L74379 67513
L74379 67456
L74436 67344
L74548 67288
L74717 67288
L74829 67344
" />
<path d="M75561 68075
L75448 68019
L75392 67906
L75392 66894
" />
<path d="M76179 68075
L76067 68019
L76010 67963
L75954 67850
L75954 67513
L76010 67400
L76067 67344
L76179 67288
L76348 67288
L76460 67344
L76517 67400
L76573 67513
L76573 67850
L76517 67963
L76460 68019
L76348 68075
L76179 68075
" />
<path d="M76910 67288
L77360 67288
" />
<path d="M77079 66894
L77079 67906
L77135 68019
L77248 68075
L77360 68075
" />
<path d="M77698 68019
L77810 68075
L78035 68075
L78148 68019
L78204 67906
L78204 67850
L78148 67738
L78035 67681
L77866 67681
L77754 67625
L77698 67513
L77698 67456
L77754 67344
L77866 67288
L78035 67288
L78148 67344
" />
<path d="M78598 68525
L78654 68469
L78766 68300
L78823 68188
L78879 68019
L78935 67738
L78935 67513
L78879 67232
L78823 67063
L78766 66950
L78654 66782
L78598 66725
" />
<polyline fill="none;"
points="40679,69730
41309,69100
40679,68470
40049,69100
40679,69730
" /> 
<path d="M42265 68453
L42996 68453
L42602 68903
L42771 68903
L42883 68959
L42940 69016
L42996 69128
L42996 69409
L42940 69522
L42883 69578
L42771 69634
L42433 69634
L42321 69578
L42265 69522
" />
<path d="M43502 69522
L43558 69578
L43502 69634
L43446 69578
L43502 69522
L43502 69634
" />
<path d="M44008 68566
L44064 68509
L44177 68453
L44458 68453
L44571 68509
L44627 68566
L44683 68678
L44683 68791
L44627 68959
L43952 69634
L44683 69634
" />
<path d="M45414 68453
L45527 68453
L45639 68509
L45696 68566
L45752 68678
L45808 68903
L45808 69184
L45752 69409
L45696 69522
L45639 69578
L45527 69634
L45414 69634
L45302 69578
L45246 69522
L45189 69409
L45133 69184
L45133 68903
L45189 68678
L45246 68566
L45302 68509
L45414 68453
" />
<path d="M46314 69634
L46314 68847
" />
<path d="M46314 68959
L46370 68903
L46483 68847
L46652 68847
L46764 68903
L46820 69016
L46820 69634
" />
<path d="M46820 69016
L46877 68903
L46989 68847
L47158 68847
L47270 68903
L47327 69016
L47327 69634
" />
<path d="M47889 69634
L47889 68847
" />
<path d="M47889 68959
L47945 68903
L48058 68847
L48226 68847
L48339 68903
L48395 69016
L48395 69634
" />
<path d="M48395 69016
L48451 68903
L48564 68847
L48733 68847
L48845 68903
L48901 69016
L48901 69634
" />
<path d="M51207 68397
L50195 69915
" />
<path d="M52726 68453
L52838 68453
L52951 68509
L53007 68566
L53063 68678
L53120 68903
L53120 69184
L53063 69409
L53007 69522
L52951 69578
L52838 69634
L52726 69634
L52613 69578
L52557 69522
L52501 69409
L52445 69184
L52445 68903
L52501 68678
L52557 68566
L52613 68509
L52726 68453
" />
<path d="M53626 69522
L53682 69578
L53626 69634
L53570 69578
L53626 69522
L53626 69634
" />
<path d="M54807 69634
L54132 69634
" />
<path d="M54469 69634
L54469 68453
L54357 68622
L54244 68734
L54132 68791
" />
<path d="M55257 68566
L55313 68509
L55426 68453
L55707 68453
L55819 68509
L55875 68566
L55932 68678
L55932 68791
L55875 68959
L55201 69634
L55932 69634
" />
<path d="M56944 68453
L56719 68453
L56607 68509
L56550 68566
L56438 68734
L56382 68959
L56382 69409
L56438 69522
L56494 69578
L56607 69634
L56832 69634
L56944 69578
L57000 69522
L57057 69409
L57057 69128
L57000 69016
L56944 68959
L56832 68903
L56607 68903
L56494 68959
L56438 69016
L56382 69128
" />
<path d="M57507 68453
L57507 68678
" />
<path d="M57956 68453
L57956 68678
" />
<path d="M59700 70084
L59644 70028
L59531 69859
L59475 69747
L59419 69578
L59363 69297
L59363 69072
L59419 68791
L59475 68622
L59531 68509
L59644 68341
L59700 68284
" />
<path d="M60656 68847
L60656 69634
" />
<path d="M60375 68397
L60094 69241
L60825 69241
" />
<path d="M62175 69634
L62175 68453
" />
<path d="M62681 69634
L62681 69016
L62625 68903
L62512 68847
L62343 68847
L62231 68903
L62175 68959
" />
<path d="M63412 69634
L63300 69578
L63243 69522
L63187 69409
L63187 69072
L63243 68959
L63300 68903
L63412 68847
L63581 68847
L63693 68903
L63749 68959
L63806 69072
L63806 69409
L63749 69522
L63693 69578
L63581 69634
L63412 69634
" />
<path d="M64481 69634
L64368 69578
L64312 69465
L64312 68453
" />
<path d="M65381 69578
L65268 69634
L65043 69634
L64931 69578
L64874 69465
L64874 69016
L64931 68903
L65043 68847
L65268 68847
L65381 68903
L65437 69016
L65437 69128
L64874 69241
" />
<path d="M65887 69578
L65999 69634
L66224 69634
L66337 69578
L66393 69465
L66393 69409
L66337 69297
L66224 69241
L66055 69241
L65943 69184
L65887 69072
L65887 69016
L65943 68903
L66055 68847
L66224 68847
L66337 68903
" />
<path d="M66787 70084
L66843 70028
L66955 69859
L67012 69747
L67068 69578
L67124 69297
L67124 69072
L67068 68791
L67012 68622
L66955 68509
L66843 68341
L66787 68284
" />
<path d="M68924 70084
L68868 70028
L68755 69859
L68699 69747
L68643 69578
L68586 69297
L68586 69072
L68643 68791
L68699 68622
L68755 68509
L68868 68341
L68924 68284
" />
<path d="M69374 68847
L69374 69634
" />
<path d="M69374 68959
L69430 68903
L69543 68847
L69711 68847
L69824 68903
L69880 69016
L69880 69634
" />
<path d="M70611 69634
L70499 69578
L70442 69522
L70386 69409
L70386 69072
L70442 68959
L70499 68903
L70611 68847
L70780 68847
L70892 68903
L70949 68959
L71005 69072
L71005 69409
L70949 69522
L70892 69578
L70780 69634
L70611 69634
" />
<path d="M71342 68847
L71792 68847
" />
<path d="M71511 68453
L71511 69465
L71567 69578
L71680 69634
L71792 69634
" />
<path d="M73086 68847
L73086 70028
" />
<path d="M73086 68903
L73198 68847
L73423 68847
L73536 68903
L73592 68959
L73648 69072
L73648 69409
L73592 69522
L73536 69578
L73423 69634
L73198 69634
L73086 69578
" />
<path d="M74323 69634
L74211 69578
L74154 69465
L74154 68453
" />
<path d="M75279 69634
L75279 69016
L75223 68903
L75111 68847
L74886 68847
L74773 68903
" />
<path d="M75279 69578
L75167 69634
L74886 69634
L74773 69578
L74717 69465
L74717 69353
L74773 69241
L74886 69184
L75167 69184
L75279 69128
" />
<path d="M75673 68847
L76123 68847
" />
<path d="M75842 68453
L75842 69465
L75898 69578
L76010 69634
L76123 69634
" />
<path d="M76967 69578
L76854 69634
L76629 69634
L76517 69578
L76460 69465
L76460 69016
L76517 68903
L76629 68847
L76854 68847
L76967 68903
L77023 69016
L77023 69128
L76460 69241
" />
<path d="M78035 69634
L78035 68453
" />
<path d="M78035 69578
L77923 69634
L77698 69634
L77585 69578
L77529 69522
L77473 69409
L77473 69072
L77529 68959
L77585 68903
L77698 68847
L77923 68847
L78035 68903
" />
<path d="M78485 70084
L78541 70028
L78654 69859
L78710 69747
L78766 69578
L78823 69297
L78823 69072
L78766 68791
L78710 68622
L78654 68509
L78541 68341
L78485 68284
" />
</g> 
</svg>
