M48
;DRILL file {KiCad 4.0.2-stable} date 25/05/2016 09:56:52
;FORMAT={-:-/ absolute / metric / decimal}
FMAT,2
METRIC,TZ
T1C0.400
T2C0.500
T3C0.800
T4C1.000
T5C3.200
%
G90
G05
M71
T1
X33.566Y59.017
X62.23Y15.113
X62.484Y12.319
X63.656Y48.209
T2
X2.286Y90.678
X2.54Y78.994
X2.54Y71.12
X2.54Y58.42
X2.54Y53.34
X2.54Y48.26
X2.54Y43.815
X2.54Y36.83
X2.54Y31.75
X2.54Y26.035
X2.54Y19.05
X2.54Y11.43
X3.429Y64.008
X5.08Y23.876
X5.842Y77.47
X6.858Y48.26
X6.985Y90.805
X8.255Y8.255
X8.89Y64.516
X8.89Y60.579
X8.89Y53.594
X10.541Y43.434
X10.541Y28.575
X10.795Y72.39
X10.795Y2.54
X11.176Y37.973
X11.265Y98.311
X11.354Y77.864
X11.417Y89.294
X11.417Y82.575
X13.258Y75.832
X14.224Y27.432
X14.732Y70.612
X14.986Y87.122
X15.748Y64.516
X18.288Y84.582
X18.542Y22.606
X18.644Y82.017
X19.812Y69.088
X19.863Y74.054
X20.002Y28.575
X20.32Y44.958
X20.574Y49.276
X20.828Y64.516
X22.225Y98.425
X22.225Y57.15
X23.876Y62.738
X23.876Y49.276
X23.876Y44.958
X23.876Y39.878
X23.876Y35.941
X24.384Y69.088
X24.765Y53.34
X25.146Y62.103
X25.654Y27.432
X25.908Y84.582
X26.035Y81.991
X26.416Y41.402
X26.657Y74.816
X27.178Y59.69
X27.305Y2.54
X27.686Y50.546
X28.194Y35.814
X28.956Y12.954
X29.718Y46.99
X29.718Y45.72
X30.226Y69.088
X30.48Y52.464
X30.734Y30.48
X30.734Y18.034
X31.115Y98.425
X31.242Y27.432
X31.432Y64.783
X31.75Y55.814
X31.75Y42.164
X32.004Y22.987
X32.22Y67.45
X32.512Y42.926
X32.512Y41.402
X32.766Y31.242
X32.88Y51.448
X33.02Y65.024
X33.02Y36.576
X33.223Y81.737
X33.274Y28.194
X33.325Y76.213
X33.528Y84.582
X33.655Y18.923
X33.782Y9.652
X34.036Y16.256
X34.099Y13.398
X34.29Y53.911
X34.925Y2.54
X35.052Y66.294
X35.052Y48.514
X35.56Y39.116
X35.56Y36.576
X36.372Y48.273
X36.767Y64.135
X36.777Y46.772
X36.893Y61.912
X37.02Y53.467
X37.084Y87.122
X37.274Y13.398
X37.465Y24.828
X37.592Y46.228
X37.63Y51.524
X37.757Y54.191
X38.608Y59.03
X38.862Y39.116
X38.862Y36.576
X38.925Y50.94
X38.925Y26.416
X38.925Y9.652
X39.751Y54.356
X39.878Y60.96
X39.878Y24.892
X39.878Y20.066
X39.878Y14.351
X39.928Y75.197
X40.386Y36.576
X40.386Y8.445
X40.666Y59.888
X41.084Y6.858
X41.148Y81.178
X41.148Y48.26
X41.364Y98.184
X41.402Y91.186
X41.402Y21.082
X41.402Y15.684
X42.164Y30.48
X42.227Y24.384
X42.418Y14.605
X42.608Y51.943
X42.685Y57.261
X43.116Y75.692
X43.116Y69.342
X43.243Y4.699
X43.243Y3.429
X43.434Y18.288
X43.434Y17.272
X43.434Y16.256
X43.688Y11.747
X43.878Y50.355
X43.942Y56.007
X44.412Y98.184
X44.704Y59.563
X44.831Y6.731
X44.831Y2.73
X44.958Y54.991
X45.466Y65.278
X45.466Y60.325
X45.72Y25.527
X45.936Y43.574
X46.228Y67.818
X46.355Y39.941
X46.355Y37.338
X46.545Y48.26
X46.863Y61.722
X46.99Y42.735
X47.117Y8.636
X47.307Y36.576
X47.815Y43.295
X48.514Y45.783
X48.578Y54.61
X48.641Y40.386
X48.641Y37.846
X48.806Y63.564
X48.971Y81.204
X49.022Y30.734
X49.085Y24.638
X49.272Y65.155
X49.784Y69.901
X50.556Y37.846
X50.673Y12.446
X50.8Y75.692
X51.896Y48.794
X52.451Y17.526
X52.451Y14.478
X52.451Y11.684
X52.451Y6.604
X52.451Y1.714
X53.848Y22.86
X53.975Y2.984
X54.61Y98.425
X54.61Y75.692
X54.927Y46.291
X55.499Y1.714
X55.88Y19.177
X55.88Y17.272
X55.88Y10.414
X56.49Y81.178
X56.876Y42.207
X56.896Y84.582
X57.264Y72.657
X57.404Y34.036
X57.404Y31.242
X57.404Y19.05
X57.493Y54.75
X58.166Y37.338
X58.674Y17.272
X58.864Y42.329
X59.321Y55.131
X59.627Y39.37
X59.804Y70.18
X60.198Y50.8
X60.693Y40.78
X61.087Y26.924
X61.595Y75.692
X62.484Y61.277
X62.611Y28.321
X62.611Y26.924
X62.861Y31.242
X62.865Y98.425
X63.246Y53.594
X63.754Y81.915
X64.092Y13.462
X64.135Y19.812
X64.249Y37.224
X64.262Y84.582
X64.884Y64.402
X64.897Y49.784
X64.96Y54.864
X65.786Y22.352
X65.786Y19.05
X65.913Y75.692
X67.31Y27.559
X67.31Y21.209
X67.31Y11.684
X67.487Y45.352
X67.932Y42.367
X68.186Y39.002
X68.504Y33.033
X68.77Y61.214
X68.961Y12.954
X69.342Y75.692
X70.802Y49.784
X72.136Y32.512
X72.136Y13.081
X73.025Y86.436
X73.279Y12.954
X73.965Y66.561
X74.168Y30.48
X74.625Y42.367
X74.676Y82.677
X74.676Y79.121
X74.93Y98.425
X74.93Y61.277
X74.93Y55.435
X74.98Y35.7
X75.87Y73.927
X75.933Y14.909
X75.933Y11.036
X75.946Y17.145
X77.724Y91.694
X78.028Y29.096
X78.6Y12.941
X80.01Y1.905
X80.645Y94.628
X81.788Y15.748
X81.788Y13.716
X81.902Y89.23
X81.902Y81.356
X81.902Y73.927
X81.902Y66.561
X81.902Y58.623
X81.965Y50.305
X81.965Y42.875
X81.965Y35.446
X86.106Y62.992
X86.156Y29.032
X86.36Y85.09
X86.995Y98.425
X86.995Y90.805
X88.646Y50.8
X88.9Y3.81
X88.9Y1.905
X90.297Y14.351
X90.424Y16.764
X90.424Y12.192
X90.805Y5.715
X91.151Y92.723
X95.631Y19.431
X95.631Y11.811
X97.155Y88.9
X97.155Y77.47
X97.155Y71.755
X97.155Y43.18
X97.155Y38.1
X97.155Y25.4
X97.155Y20.955
X97.574Y58.281
X97.599Y55.512
X97.79Y9.525
T3
X43.22Y27.432
X44.216Y72.542
X45.72Y27.432
X46.716Y72.542
X50.078Y27.686
X52.578Y27.686
X60.361Y33.039
X62.861Y33.039
X65.278Y7.056
X65.278Y3.556
X65.549Y60.218
X65.549Y57.718
X67.831Y53.213
X67.831Y50.713
X71.343Y58.293
X73.843Y58.293
X74.95Y24.13
X77.45Y24.13
X85.344Y21.082
X85.344Y17.582
X93.472Y13.97
X96.972Y13.97
T4
X4.572Y60.96
X4.572Y58.42
X4.572Y55.88
X4.572Y53.34
X4.572Y50.8
X4.572Y39.878
X4.572Y37.338
X4.572Y34.798
X4.572Y32.258
X4.572Y29.718
X5.08Y17.78
X5.08Y15.24
X7.112Y60.96
X7.112Y58.42
X7.112Y55.88
X7.112Y53.34
X7.112Y50.8
X7.112Y39.878
X7.112Y37.338
X7.112Y34.798
X7.112Y32.258
X7.112Y29.718
X8.89Y17.78
X8.89Y15.24
X12.7Y17.78
X12.7Y15.24
X13.97Y60.96
X13.97Y58.42
X13.97Y55.88
X13.97Y53.34
X13.97Y50.8
X13.97Y39.878
X13.97Y37.338
X13.97Y34.798
X13.97Y32.258
X13.97Y29.718
X14.352Y7.363
X14.352Y4.823
X14.554Y96.012
X14.554Y93.472
X16.51Y60.96
X16.51Y58.42
X16.51Y55.88
X16.51Y53.34
X16.51Y50.8
X16.51Y39.878
X16.51Y37.338
X16.51Y34.798
X16.51Y32.258
X16.51Y29.718
X16.51Y17.78
X16.51Y15.24
X16.892Y7.363
X16.892Y4.823
X17.094Y96.012
X17.094Y93.472
X19.432Y7.363
X19.432Y4.823
X19.634Y96.012
X19.634Y93.472
X20.32Y17.78
X20.32Y15.24
X21.972Y7.363
X21.972Y4.823
X22.174Y96.012
X22.174Y93.472
X24.13Y17.78
X24.13Y15.24
X24.512Y7.363
X24.512Y4.823
X24.638Y66.167
X24.714Y96.012
X24.714Y93.472
X27.052Y7.363
X27.052Y4.823
X27.178Y66.167
X27.254Y96.012
X27.254Y93.472
X27.94Y17.78
X27.94Y15.24
X29.718Y66.167
X29.794Y96.012
X29.794Y93.472
X32.334Y96.012
X32.334Y93.472
X34.874Y96.012
X34.874Y93.472
X37.414Y96.012
X37.414Y93.472
X37.592Y3.048
X40.132Y3.048
X48.209Y96.012
X48.209Y93.472
X50.749Y96.012
X50.749Y93.472
X53.289Y96.012
X53.289Y93.472
X55.829Y96.012
X55.829Y93.472
X58.369Y96.012
X58.369Y93.472
X60.909Y96.012
X60.909Y93.472
X63.449Y96.012
X63.449Y93.472
X65.989Y96.012
X65.989Y93.472
X68.529Y96.012
X68.529Y93.472
X71.069Y96.012
X71.069Y93.472
X72.39Y6.6
X85.09Y6.6
X92.532Y85.471
X92.532Y82.931
X92.532Y80.391
X92.532Y77.851
X92.532Y75.311
X92.532Y72.771
X92.532Y70.231
X92.532Y67.691
X92.532Y65.151
X92.532Y62.611
X92.532Y51.816
X92.532Y49.276
X92.532Y46.736
X92.532Y44.196
X92.532Y41.656
X92.532Y39.116
X92.532Y36.576
X92.532Y34.036
X92.532Y31.496
X92.532Y28.956
X95.072Y85.471
X95.072Y82.931
X95.072Y80.391
X95.072Y77.851
X95.072Y75.311
X95.072Y72.771
X95.072Y70.231
X95.072Y67.691
X95.072Y65.151
X95.072Y62.611
X95.072Y51.816
X95.072Y49.276
X95.072Y46.736
X95.072Y44.196
X95.072Y41.656
X95.072Y39.116
X95.072Y36.576
X95.072Y34.036
X95.072Y31.496
X95.072Y28.956
T5
X5.Y95.
X5.Y5.
X95.Y95.
X95.Y5.
T4
X74.795Y6.6G85X76.335Y6.6
G05
X82.685Y6.6G85X81.145Y6.6
G05
T0
M30
