G04 #@! TF.FileFunction,Legend,Bot*
%FSLAX46Y46*%
G04 Gerber Fmt 4.6, Leading zero omitted, Abs format (unit mm)*
G04 Created by KiCad (PCBNEW 4.0.2-stable) date 25/05/2016 09:56:58*
%MOMM*%
G01*
G04 APERTURE LIST*
%ADD10C,0.100000*%
%ADD11C,0.300000*%
%ADD12C,0.150000*%
G04 APERTURE END LIST*
D10*
D11*
X77456571Y90368571D02*
X77456571Y91082857D01*
X75956571Y91082857D01*
X77456571Y89868571D02*
X76456571Y89868571D01*
X75956571Y89868571D02*
X76028000Y89940000D01*
X76099429Y89868571D01*
X76028000Y89797143D01*
X75956571Y89868571D01*
X76099429Y89868571D01*
X77385143Y88511428D02*
X77456571Y88654285D01*
X77456571Y88939999D01*
X77385143Y89082857D01*
X77313714Y89154285D01*
X77170857Y89225714D01*
X76742286Y89225714D01*
X76599429Y89154285D01*
X76528000Y89082857D01*
X76456571Y88939999D01*
X76456571Y88654285D01*
X76528000Y88511428D01*
X77385143Y87297143D02*
X77456571Y87440000D01*
X77456571Y87725714D01*
X77385143Y87868571D01*
X77242286Y87940000D01*
X76670857Y87940000D01*
X76528000Y87868571D01*
X76456571Y87725714D01*
X76456571Y87440000D01*
X76528000Y87297143D01*
X76670857Y87225714D01*
X76813714Y87225714D01*
X76956571Y87940000D01*
X76456571Y86582857D02*
X77456571Y86582857D01*
X76599429Y86582857D02*
X76528000Y86511429D01*
X76456571Y86368571D01*
X76456571Y86154286D01*
X76528000Y86011429D01*
X76670857Y85940000D01*
X77456571Y85940000D01*
X77385143Y85297143D02*
X77456571Y85154286D01*
X77456571Y84868571D01*
X77385143Y84725714D01*
X77242286Y84654286D01*
X77170857Y84654286D01*
X77028000Y84725714D01*
X76956571Y84868571D01*
X76956571Y85082857D01*
X76885143Y85225714D01*
X76742286Y85297143D01*
X76670857Y85297143D01*
X76528000Y85225714D01*
X76456571Y85082857D01*
X76456571Y84868571D01*
X76528000Y84725714D01*
X77385143Y83440000D02*
X77456571Y83582857D01*
X77456571Y83868571D01*
X77385143Y84011428D01*
X77242286Y84082857D01*
X76670857Y84082857D01*
X76528000Y84011428D01*
X76456571Y83868571D01*
X76456571Y83582857D01*
X76528000Y83440000D01*
X76670857Y83368571D01*
X76813714Y83368571D01*
X76956571Y84082857D01*
X77456571Y82082857D02*
X75956571Y82082857D01*
X77385143Y82082857D02*
X77456571Y82225714D01*
X77456571Y82511428D01*
X77385143Y82654286D01*
X77313714Y82725714D01*
X77170857Y82797143D01*
X76742286Y82797143D01*
X76599429Y82725714D01*
X76528000Y82654286D01*
X76456571Y82511428D01*
X76456571Y82225714D01*
X76528000Y82082857D01*
X76456571Y79582857D02*
X77456571Y79582857D01*
X76456571Y80225714D02*
X77242286Y80225714D01*
X77385143Y80154286D01*
X77456571Y80011428D01*
X77456571Y79797143D01*
X77385143Y79654286D01*
X77313714Y79582857D01*
X76456571Y78868571D02*
X77456571Y78868571D01*
X76599429Y78868571D02*
X76528000Y78797143D01*
X76456571Y78654285D01*
X76456571Y78440000D01*
X76528000Y78297143D01*
X76670857Y78225714D01*
X77456571Y78225714D01*
X77456571Y76868571D02*
X75956571Y76868571D01*
X77385143Y76868571D02*
X77456571Y77011428D01*
X77456571Y77297142D01*
X77385143Y77440000D01*
X77313714Y77511428D01*
X77170857Y77582857D01*
X76742286Y77582857D01*
X76599429Y77511428D01*
X76528000Y77440000D01*
X76456571Y77297142D01*
X76456571Y77011428D01*
X76528000Y76868571D01*
X77385143Y75582857D02*
X77456571Y75725714D01*
X77456571Y76011428D01*
X77385143Y76154285D01*
X77242286Y76225714D01*
X76670857Y76225714D01*
X76528000Y76154285D01*
X76456571Y76011428D01*
X76456571Y75725714D01*
X76528000Y75582857D01*
X76670857Y75511428D01*
X76813714Y75511428D01*
X76956571Y76225714D01*
X77456571Y74868571D02*
X76456571Y74868571D01*
X76742286Y74868571D02*
X76599429Y74797143D01*
X76528000Y74725714D01*
X76456571Y74582857D01*
X76456571Y74440000D01*
X75956571Y73011429D02*
X75956571Y72154286D01*
X77456571Y72582857D02*
X75956571Y72582857D01*
X77028000Y71725715D02*
X77028000Y71011429D01*
X77456571Y71868572D02*
X75956571Y71368572D01*
X77456571Y70868572D01*
X77456571Y70368572D02*
X75956571Y70368572D01*
X75956571Y69797144D01*
X76028000Y69654286D01*
X76099429Y69582858D01*
X76242286Y69511429D01*
X76456571Y69511429D01*
X76599429Y69582858D01*
X76670857Y69654286D01*
X76742286Y69797144D01*
X76742286Y70368572D01*
X77456571Y68011429D02*
X76742286Y68511429D01*
X77456571Y68868572D02*
X75956571Y68868572D01*
X75956571Y68297144D01*
X76028000Y68154286D01*
X76099429Y68082858D01*
X76242286Y68011429D01*
X76456571Y68011429D01*
X76599429Y68082858D01*
X76670857Y68154286D01*
X76742286Y68297144D01*
X76742286Y68868572D01*
X75956571Y65940001D02*
X75956571Y65654287D01*
X76028000Y65511429D01*
X76170857Y65368572D01*
X76456571Y65297144D01*
X76956571Y65297144D01*
X77242286Y65368572D01*
X77385143Y65511429D01*
X77456571Y65654287D01*
X77456571Y65940001D01*
X77385143Y66082858D01*
X77242286Y66225715D01*
X76956571Y66297144D01*
X76456571Y66297144D01*
X76170857Y66225715D01*
X76028000Y66082858D01*
X75956571Y65940001D01*
X76456571Y64654286D02*
X77956571Y64654286D01*
X76528000Y64654286D02*
X76456571Y64511429D01*
X76456571Y64225715D01*
X76528000Y64082858D01*
X76599429Y64011429D01*
X76742286Y63940000D01*
X77170857Y63940000D01*
X77313714Y64011429D01*
X77385143Y64082858D01*
X77456571Y64225715D01*
X77456571Y64511429D01*
X77385143Y64654286D01*
X77385143Y62725715D02*
X77456571Y62868572D01*
X77456571Y63154286D01*
X77385143Y63297143D01*
X77242286Y63368572D01*
X76670857Y63368572D01*
X76528000Y63297143D01*
X76456571Y63154286D01*
X76456571Y62868572D01*
X76528000Y62725715D01*
X76670857Y62654286D01*
X76813714Y62654286D01*
X76956571Y63368572D01*
X76456571Y62011429D02*
X77456571Y62011429D01*
X76599429Y62011429D02*
X76528000Y61940001D01*
X76456571Y61797143D01*
X76456571Y61582858D01*
X76528000Y61440001D01*
X76670857Y61368572D01*
X77456571Y61368572D01*
X79856571Y91082857D02*
X78356571Y91082857D01*
X79070857Y91082857D02*
X79070857Y90225714D01*
X79856571Y90225714D02*
X78356571Y90225714D01*
X79856571Y88868571D02*
X79070857Y88868571D01*
X78928000Y88940000D01*
X78856571Y89082857D01*
X78856571Y89368571D01*
X78928000Y89511428D01*
X79785143Y88868571D02*
X79856571Y89011428D01*
X79856571Y89368571D01*
X79785143Y89511428D01*
X79642286Y89582857D01*
X79499429Y89582857D01*
X79356571Y89511428D01*
X79285143Y89368571D01*
X79285143Y89011428D01*
X79213714Y88868571D01*
X79856571Y88154285D02*
X78856571Y88154285D01*
X79142286Y88154285D02*
X78999429Y88082857D01*
X78928000Y88011428D01*
X78856571Y87868571D01*
X78856571Y87725714D01*
X79856571Y86582857D02*
X78356571Y86582857D01*
X79785143Y86582857D02*
X79856571Y86725714D01*
X79856571Y87011428D01*
X79785143Y87154286D01*
X79713714Y87225714D01*
X79570857Y87297143D01*
X79142286Y87297143D01*
X78999429Y87225714D01*
X78928000Y87154286D01*
X78856571Y87011428D01*
X78856571Y86725714D01*
X78928000Y86582857D01*
X78856571Y86011428D02*
X79856571Y85725714D01*
X79142286Y85440000D01*
X79856571Y85154285D01*
X78856571Y84868571D01*
X79856571Y83654285D02*
X79070857Y83654285D01*
X78928000Y83725714D01*
X78856571Y83868571D01*
X78856571Y84154285D01*
X78928000Y84297142D01*
X79785143Y83654285D02*
X79856571Y83797142D01*
X79856571Y84154285D01*
X79785143Y84297142D01*
X79642286Y84368571D01*
X79499429Y84368571D01*
X79356571Y84297142D01*
X79285143Y84154285D01*
X79285143Y83797142D01*
X79213714Y83654285D01*
X79856571Y82939999D02*
X78856571Y82939999D01*
X79142286Y82939999D02*
X78999429Y82868571D01*
X78928000Y82797142D01*
X78856571Y82654285D01*
X78856571Y82511428D01*
X79785143Y81440000D02*
X79856571Y81582857D01*
X79856571Y81868571D01*
X79785143Y82011428D01*
X79642286Y82082857D01*
X79070857Y82082857D01*
X78928000Y82011428D01*
X78856571Y81868571D01*
X78856571Y81582857D01*
X78928000Y81440000D01*
X79070857Y81368571D01*
X79213714Y81368571D01*
X79356571Y82082857D01*
X79856571Y78868571D02*
X79856571Y79582857D01*
X78356571Y79582857D01*
X79856571Y78368571D02*
X78856571Y78368571D01*
X78356571Y78368571D02*
X78428000Y78440000D01*
X78499429Y78368571D01*
X78428000Y78297143D01*
X78356571Y78368571D01*
X78499429Y78368571D01*
X79785143Y77011428D02*
X79856571Y77154285D01*
X79856571Y77439999D01*
X79785143Y77582857D01*
X79713714Y77654285D01*
X79570857Y77725714D01*
X79142286Y77725714D01*
X78999429Y77654285D01*
X78928000Y77582857D01*
X78856571Y77439999D01*
X78856571Y77154285D01*
X78928000Y77011428D01*
X79785143Y75797143D02*
X79856571Y75940000D01*
X79856571Y76225714D01*
X79785143Y76368571D01*
X79642286Y76440000D01*
X79070857Y76440000D01*
X78928000Y76368571D01*
X78856571Y76225714D01*
X78856571Y75940000D01*
X78928000Y75797143D01*
X79070857Y75725714D01*
X79213714Y75725714D01*
X79356571Y76440000D01*
X78856571Y75082857D02*
X79856571Y75082857D01*
X78999429Y75082857D02*
X78928000Y75011429D01*
X78856571Y74868571D01*
X78856571Y74654286D01*
X78928000Y74511429D01*
X79070857Y74440000D01*
X79856571Y74440000D01*
X79785143Y73797143D02*
X79856571Y73654286D01*
X79856571Y73368571D01*
X79785143Y73225714D01*
X79642286Y73154286D01*
X79570857Y73154286D01*
X79428000Y73225714D01*
X79356571Y73368571D01*
X79356571Y73582857D01*
X79285143Y73725714D01*
X79142286Y73797143D01*
X79070857Y73797143D01*
X78928000Y73725714D01*
X78856571Y73582857D01*
X78856571Y73368571D01*
X78928000Y73225714D01*
X79785143Y71940000D02*
X79856571Y72082857D01*
X79856571Y72368571D01*
X79785143Y72511428D01*
X79642286Y72582857D01*
X79070857Y72582857D01*
X78928000Y72511428D01*
X78856571Y72368571D01*
X78856571Y72082857D01*
X78928000Y71940000D01*
X79070857Y71868571D01*
X79213714Y71868571D01*
X79356571Y72582857D01*
X78856571Y70225714D02*
X79856571Y69940000D01*
X79142286Y69654286D01*
X79856571Y69368571D01*
X78856571Y69082857D01*
X78856571Y68654285D02*
X79856571Y68368571D01*
X79142286Y68082857D01*
X79856571Y67797142D01*
X78856571Y67511428D01*
X78856571Y67082856D02*
X79856571Y66797142D01*
X79142286Y66511428D01*
X79856571Y66225713D01*
X78856571Y65939999D01*
X79713714Y65368570D02*
X79785143Y65297142D01*
X79856571Y65368570D01*
X79785143Y65439999D01*
X79713714Y65368570D01*
X79856571Y65368570D01*
X78856571Y64868570D02*
X78856571Y64297141D01*
X78356571Y64654284D02*
X79642286Y64654284D01*
X79785143Y64582856D01*
X79856571Y64439998D01*
X79856571Y64297141D01*
X79856571Y63154284D02*
X79070857Y63154284D01*
X78928000Y63225713D01*
X78856571Y63368570D01*
X78856571Y63654284D01*
X78928000Y63797141D01*
X79785143Y63154284D02*
X79856571Y63297141D01*
X79856571Y63654284D01*
X79785143Y63797141D01*
X79642286Y63868570D01*
X79499429Y63868570D01*
X79356571Y63797141D01*
X79285143Y63654284D01*
X79285143Y63297141D01*
X79213714Y63154284D01*
X78856571Y62439998D02*
X80356571Y62439998D01*
X78928000Y62439998D02*
X78856571Y62297141D01*
X78856571Y62011427D01*
X78928000Y61868570D01*
X78999429Y61797141D01*
X79142286Y61725712D01*
X79570857Y61725712D01*
X79713714Y61797141D01*
X79785143Y61868570D01*
X79856571Y62011427D01*
X79856571Y62297141D01*
X79785143Y62439998D01*
X79856571Y61082855D02*
X78856571Y61082855D01*
X79142286Y61082855D02*
X78999429Y61011427D01*
X78928000Y60939998D01*
X78856571Y60797141D01*
X78856571Y60654284D01*
X79713714Y60154284D02*
X79785143Y60082856D01*
X79856571Y60154284D01*
X79785143Y60225713D01*
X79713714Y60154284D01*
X79856571Y60154284D01*
X79856571Y59225712D02*
X79785143Y59368570D01*
X79713714Y59439998D01*
X79570857Y59511427D01*
X79142286Y59511427D01*
X78999429Y59439998D01*
X78928000Y59368570D01*
X78856571Y59225712D01*
X78856571Y59011427D01*
X78928000Y58868570D01*
X78999429Y58797141D01*
X79142286Y58725712D01*
X79570857Y58725712D01*
X79713714Y58797141D01*
X79785143Y58868570D01*
X79856571Y59011427D01*
X79856571Y59225712D01*
X79856571Y58082855D02*
X78856571Y58082855D01*
X79142286Y58082855D02*
X78999429Y58011427D01*
X78928000Y57939998D01*
X78856571Y57797141D01*
X78856571Y57654284D01*
X78856571Y56511427D02*
X80070857Y56511427D01*
X80213714Y56582856D01*
X80285143Y56654284D01*
X80356571Y56797141D01*
X80356571Y57011427D01*
X80285143Y57154284D01*
X79785143Y56511427D02*
X79856571Y56654284D01*
X79856571Y56939998D01*
X79785143Y57082856D01*
X79713714Y57154284D01*
X79570857Y57225713D01*
X79142286Y57225713D01*
X78999429Y57154284D01*
X78928000Y57082856D01*
X78856571Y56939998D01*
X78856571Y56654284D01*
X78928000Y56511427D01*
X78285143Y54725713D02*
X80213714Y56011427D01*
X78356571Y53939998D02*
X78356571Y53654284D01*
X78428000Y53511426D01*
X78570857Y53368569D01*
X78856571Y53297141D01*
X79356571Y53297141D01*
X79642286Y53368569D01*
X79785143Y53511426D01*
X79856571Y53654284D01*
X79856571Y53939998D01*
X79785143Y54082855D01*
X79642286Y54225712D01*
X79356571Y54297141D01*
X78856571Y54297141D01*
X78570857Y54225712D01*
X78428000Y54082855D01*
X78356571Y53939998D01*
X79856571Y52654283D02*
X78356571Y52654283D01*
X79070857Y52654283D02*
X79070857Y51797140D01*
X79856571Y51797140D02*
X78356571Y51797140D01*
X79856571Y50368568D02*
X79856571Y51082854D01*
X78356571Y51082854D01*
D12*
X100000000Y0D02*
X0Y0D01*
X100000000Y100000000D02*
X100000000Y0D01*
X0Y100000000D02*
X100000000Y100000000D01*
X0Y0D02*
X0Y100000000D01*
X11557000Y10668000D02*
X11557000Y11201400D01*
X11557000Y10668000D02*
X11557000Y10134600D01*
X10287000Y10668000D02*
X10287000Y11201400D01*
X10287000Y10668000D02*
X10287000Y10134600D01*
X9779000Y31158000D02*
X9779000Y30624600D01*
X9779000Y31158000D02*
X9779000Y31691400D01*
X11049000Y31158000D02*
X11049000Y30624600D01*
X11049000Y31158000D02*
X11049000Y31691400D01*
X23495000Y21590000D02*
X23495000Y21056600D01*
X23495000Y21590000D02*
X23495000Y22123400D01*
X24765000Y21590000D02*
X24765000Y21056600D01*
X24765000Y21590000D02*
X24765000Y22123400D01*
X27305000Y21590000D02*
X27305000Y21056600D01*
X27305000Y21590000D02*
X27305000Y22123400D01*
X28575000Y21590000D02*
X28575000Y21056600D01*
X28575000Y21590000D02*
X28575000Y22123400D01*
X92372000Y20447000D02*
X92905400Y20447000D01*
X92372000Y20447000D02*
X91838600Y20447000D01*
X92372000Y21717000D02*
X92905400Y21717000D01*
X92372000Y21717000D02*
X91838600Y21717000D01*
X49795000Y7758000D02*
X49795000Y5958000D01*
X49095000Y6858000D02*
X49495000Y6858000D01*
X48595000Y6858000D02*
X48195000Y6858000D01*
X49095000Y7258000D02*
X49095000Y6458000D01*
X48595000Y6458000D02*
X48995000Y6858000D01*
X48595000Y7258000D02*
X48595000Y6458000D01*
X48995000Y6858000D02*
X48595000Y7258000D01*
X47295000Y5958000D02*
X47295000Y6058000D01*
X50295000Y5958000D02*
X47295000Y5958000D01*
X50295000Y6058000D02*
X50295000Y5958000D01*
X47495000Y7758000D02*
X47495000Y7658000D01*
X48895000Y7758000D02*
X47495000Y7758000D01*
X50295000Y7758000D02*
X50295000Y7658000D01*
X48895000Y7758000D02*
X50295000Y7758000D01*
X87960000Y82118200D02*
X88976000Y82118200D01*
X87960000Y82118200D02*
X86944000Y82118200D01*
X87960000Y83743800D02*
X86944000Y83743800D01*
X87960000Y83743800D02*
X88976000Y83743800D01*
X87960000Y79578200D02*
X88976000Y79578200D01*
X87960000Y79578200D02*
X86944000Y79578200D01*
X87960000Y81203800D02*
X86944000Y81203800D01*
X87960000Y81203800D02*
X88976000Y81203800D01*
X87960000Y77038200D02*
X88976000Y77038200D01*
X87960000Y77038200D02*
X86944000Y77038200D01*
X87960000Y78663800D02*
X86944000Y78663800D01*
X87960000Y78663800D02*
X88976000Y78663800D01*
X87960000Y74498200D02*
X88976000Y74498200D01*
X87960000Y74498200D02*
X86944000Y74498200D01*
X87960000Y76123800D02*
X86944000Y76123800D01*
X87960000Y76123800D02*
X88976000Y76123800D01*
X87960000Y71958200D02*
X88976000Y71958200D01*
X87960000Y71958200D02*
X86944000Y71958200D01*
X87960000Y73583800D02*
X86944000Y73583800D01*
X87960000Y73583800D02*
X88976000Y73583800D01*
X87960000Y69418200D02*
X88976000Y69418200D01*
X87960000Y69418200D02*
X86944000Y69418200D01*
X87960000Y71043800D02*
X86944000Y71043800D01*
X87960000Y71043800D02*
X88976000Y71043800D01*
X87960000Y66878200D02*
X88976000Y66878200D01*
X87960000Y66878200D02*
X86944000Y66878200D01*
X87960000Y68503800D02*
X86944000Y68503800D01*
X87960000Y68503800D02*
X88976000Y68503800D01*
X87960000Y64338200D02*
X88976000Y64338200D01*
X87960000Y64338200D02*
X86944000Y64338200D01*
X87960000Y65963800D02*
X86944000Y65963800D01*
X87960000Y65963800D02*
X88976000Y65963800D01*
X87960000Y48463200D02*
X88976000Y48463200D01*
X87960000Y48463200D02*
X86944000Y48463200D01*
X87960000Y50088800D02*
X86944000Y50088800D01*
X87960000Y50088800D02*
X88976000Y50088800D01*
X87960000Y45923200D02*
X88976000Y45923200D01*
X87960000Y45923200D02*
X86944000Y45923200D01*
X87960000Y47548800D02*
X86944000Y47548800D01*
X87960000Y47548800D02*
X88976000Y47548800D01*
X87960000Y43383200D02*
X88976000Y43383200D01*
X87960000Y43383200D02*
X86944000Y43383200D01*
X87960000Y45008800D02*
X86944000Y45008800D01*
X87960000Y45008800D02*
X88976000Y45008800D01*
X87960000Y40843200D02*
X88976000Y40843200D01*
X87960000Y40843200D02*
X86944000Y40843200D01*
X87960000Y42468800D02*
X86944000Y42468800D01*
X87960000Y42468800D02*
X88976000Y42468800D01*
X87960000Y38303200D02*
X88976000Y38303200D01*
X87960000Y38303200D02*
X86944000Y38303200D01*
X87960000Y39928800D02*
X86944000Y39928800D01*
X87960000Y39928800D02*
X88976000Y39928800D01*
X87960000Y35763200D02*
X88976000Y35763200D01*
X87960000Y35763200D02*
X86944000Y35763200D01*
X87960000Y37388800D02*
X86944000Y37388800D01*
X87960000Y37388800D02*
X88976000Y37388800D01*
X61148000Y49707800D02*
X61529000Y49707800D01*
X61148000Y49707800D02*
X60767000Y49707800D01*
X61148000Y48844200D02*
X61529000Y48844200D01*
X61148000Y48844200D02*
X60767000Y48844200D01*
X55359300Y43690500D02*
X55359300Y43309500D01*
X55359300Y43690500D02*
X55359300Y44071500D01*
X54495700Y43690500D02*
X54495700Y43309500D01*
X54495700Y43690500D02*
X54495700Y44071500D01*
X45897800Y62677000D02*
X45897800Y62296000D01*
X45897800Y62677000D02*
X45897800Y63058000D01*
X45034200Y62677000D02*
X45034200Y62296000D01*
X45034200Y62677000D02*
X45034200Y63058000D01*
X42291000Y62153800D02*
X42672000Y62153800D01*
X42291000Y62153800D02*
X41910000Y62153800D01*
X42291000Y61290200D02*
X42672000Y61290200D01*
X42291000Y61290200D02*
X41910000Y61290200D01*
X35255000Y51003200D02*
X34874000Y51003200D01*
X35255000Y51003200D02*
X35636000Y51003200D01*
X35255000Y51866800D02*
X34874000Y51866800D01*
X35255000Y51866800D02*
X35636000Y51866800D01*
X40716200Y50988000D02*
X40716200Y51369000D01*
X40716200Y50988000D02*
X40716200Y50607000D01*
X41579800Y50988000D02*
X41579800Y51369000D01*
X41579800Y50988000D02*
X41579800Y50607000D01*
X61761313Y29356203D02*
X62294713Y29356203D01*
X61761313Y29356203D02*
X61227913Y29356203D01*
X61761313Y30626203D02*
X62294713Y30626203D01*
X61761313Y30626203D02*
X61227913Y30626203D01*
X44130000Y48691800D02*
X44511000Y48691800D01*
X44130000Y48691800D02*
X43749000Y48691800D01*
X44130000Y47828200D02*
X44511000Y47828200D01*
X44130000Y47828200D02*
X43749000Y47828200D01*
X17906800Y88900000D02*
X17906800Y89916000D01*
X17906800Y88900000D02*
X17906800Y87884000D01*
X16281200Y88900000D02*
X16281200Y87884000D01*
X16281200Y88900000D02*
X16281200Y89916000D01*
X20446800Y88900000D02*
X20446800Y89916000D01*
X20446800Y88900000D02*
X20446800Y87884000D01*
X18821200Y88900000D02*
X18821200Y87884000D01*
X18821200Y88900000D02*
X18821200Y89916000D01*
X22986800Y88900000D02*
X22986800Y89916000D01*
X22986800Y88900000D02*
X22986800Y87884000D01*
X21361200Y88900000D02*
X21361200Y87884000D01*
X21361200Y88900000D02*
X21361200Y89916000D01*
X25526800Y88900000D02*
X25526800Y89916000D01*
X25526800Y88900000D02*
X25526800Y87884000D01*
X23901200Y88900000D02*
X23901200Y87884000D01*
X23901200Y88900000D02*
X23901200Y89916000D01*
X28066800Y88900000D02*
X28066800Y89916000D01*
X28066800Y88900000D02*
X28066800Y87884000D01*
X26441200Y88900000D02*
X26441200Y87884000D01*
X26441200Y88900000D02*
X26441200Y89916000D01*
X30606800Y88900000D02*
X30606800Y89916000D01*
X30606800Y88900000D02*
X30606800Y87884000D01*
X28981200Y88900000D02*
X28981200Y87884000D01*
X28981200Y88900000D02*
X28981200Y89916000D01*
X33146800Y88900000D02*
X33146800Y89916000D01*
X33146800Y88900000D02*
X33146800Y87884000D01*
X31521200Y88900000D02*
X31521200Y87884000D01*
X31521200Y88900000D02*
X31521200Y89916000D01*
X35686800Y88900000D02*
X35686800Y89916000D01*
X35686800Y88900000D02*
X35686800Y87884000D01*
X34061200Y88900000D02*
X34061200Y87884000D01*
X34061200Y88900000D02*
X34061200Y89916000D01*
X51561800Y88900000D02*
X51561800Y89916000D01*
X51561800Y88900000D02*
X51561800Y87884000D01*
X49936200Y88900000D02*
X49936200Y87884000D01*
X49936200Y88900000D02*
X49936200Y89916000D01*
X54101800Y88900000D02*
X54101800Y89916000D01*
X54101800Y88900000D02*
X54101800Y87884000D01*
X52476200Y88900000D02*
X52476200Y87884000D01*
X52476200Y88900000D02*
X52476200Y89916000D01*
X56641800Y88900000D02*
X56641800Y89916000D01*
X56641800Y88900000D02*
X56641800Y87884000D01*
X55016200Y88900000D02*
X55016200Y87884000D01*
X55016200Y88900000D02*
X55016200Y89916000D01*
X59181800Y88900000D02*
X59181800Y89916000D01*
X59181800Y88900000D02*
X59181800Y87884000D01*
X57556200Y88900000D02*
X57556200Y87884000D01*
X57556200Y88900000D02*
X57556200Y89916000D01*
X61721800Y88900000D02*
X61721800Y89916000D01*
X61721800Y88900000D02*
X61721800Y87884000D01*
X60096200Y88900000D02*
X60096200Y87884000D01*
X60096200Y88900000D02*
X60096200Y89916000D01*
X64261800Y88900000D02*
X64261800Y89916000D01*
X64261800Y88900000D02*
X64261800Y87884000D01*
X62636200Y88900000D02*
X62636200Y87884000D01*
X62636200Y88900000D02*
X62636200Y89916000D01*
X66801800Y88900000D02*
X66801800Y89916000D01*
X66801800Y88900000D02*
X66801800Y87884000D01*
X65176200Y88900000D02*
X65176200Y87884000D01*
X65176200Y88900000D02*
X65176200Y89916000D01*
X69341800Y88900000D02*
X69341800Y89916000D01*
X69341800Y88900000D02*
X69341800Y87884000D01*
X67716200Y88900000D02*
X67716200Y87884000D01*
X67716200Y88900000D02*
X67716200Y89916000D01*
X19685000Y21590000D02*
X19685000Y21056600D01*
X19685000Y21590000D02*
X19685000Y22123400D01*
X20955000Y21590000D02*
X20955000Y21056600D01*
X20955000Y21590000D02*
X20955000Y22123400D01*
X15875000Y21590000D02*
X15875000Y21056600D01*
X15875000Y21590000D02*
X15875000Y22123400D01*
X17145000Y21590000D02*
X17145000Y21056600D01*
X17145000Y21590000D02*
X17145000Y22123400D01*
X12065000Y21590000D02*
X12065000Y21056600D01*
X12065000Y21590000D02*
X12065000Y22123400D01*
X13335000Y21590000D02*
X13335000Y21056600D01*
X13335000Y21590000D02*
X13335000Y22123400D01*
X8255000Y21590000D02*
X8255000Y21056600D01*
X8255000Y21590000D02*
X8255000Y22123400D01*
X9525000Y21590000D02*
X9525000Y21056600D01*
X9525000Y21590000D02*
X9525000Y22123400D01*
X4445000Y21590000D02*
X4445000Y21056600D01*
X4445000Y21590000D02*
X4445000Y22123400D01*
X5715000Y21590000D02*
X5715000Y21056600D01*
X5715000Y21590000D02*
X5715000Y22123400D01*
X87960000Y33223200D02*
X88976000Y33223200D01*
X87960000Y33223200D02*
X86944000Y33223200D01*
X87960000Y34848800D02*
X86944000Y34848800D01*
X87960000Y34848800D02*
X88976000Y34848800D01*
X87960000Y30683200D02*
X88976000Y30683200D01*
X87960000Y30683200D02*
X86944000Y30683200D01*
X87960000Y32308800D02*
X86944000Y32308800D01*
X87960000Y32308800D02*
X88976000Y32308800D01*
X89281000Y15494000D02*
X89281000Y16027400D01*
X89281000Y15494000D02*
X89281000Y14960600D01*
X88011000Y15494000D02*
X88011000Y16027400D01*
X88011000Y15494000D02*
X88011000Y14960600D01*
X77724000Y4191000D02*
X77190600Y4191000D01*
X77724000Y4191000D02*
X78257400Y4191000D01*
X77724000Y2921000D02*
X77190600Y2921000D01*
X77724000Y2921000D02*
X78257400Y2921000D01*
X14987052Y10664844D02*
X14987052Y11198244D01*
X14987052Y10664844D02*
X14987052Y10131444D01*
X13717052Y10664844D02*
X13717052Y11198244D01*
X13717052Y10664844D02*
X13717052Y10131444D01*
X9398000Y48895000D02*
X8864600Y48895000D01*
X9398000Y48895000D02*
X9931400Y48895000D01*
X9398000Y47625000D02*
X8864600Y47625000D01*
X9398000Y47625000D02*
X9931400Y47625000D01*
X15240000Y43561000D02*
X14706600Y43561000D01*
X15240000Y43561000D02*
X15773400Y43561000D01*
X15240000Y42291000D02*
X14706600Y42291000D01*
X15240000Y42291000D02*
X15773400Y42291000D01*
X15240000Y47625000D02*
X14706600Y47625000D01*
X15240000Y47625000D02*
X15773400Y47625000D01*
X15240000Y46355000D02*
X14706600Y46355000D01*
X15240000Y46355000D02*
X15773400Y46355000D01*
X22352000Y55245000D02*
X22885400Y55245000D01*
X22352000Y55245000D02*
X21818600Y55245000D01*
X22352000Y56515000D02*
X22885400Y56515000D01*
X22352000Y56515000D02*
X21818600Y56515000D01*
X22352000Y52705000D02*
X22885400Y52705000D01*
X22352000Y52705000D02*
X21818600Y52705000D01*
X22352000Y53975000D02*
X22885400Y53975000D01*
X22352000Y53975000D02*
X21818600Y53975000D01*
X19939000Y31158000D02*
X19939000Y30624600D01*
X19939000Y31158000D02*
X19939000Y31691400D01*
X21209000Y31158000D02*
X21209000Y30624600D01*
X21209000Y31158000D02*
X21209000Y31691400D01*
X22352000Y59055000D02*
X21818600Y59055000D01*
X22352000Y59055000D02*
X22885400Y59055000D01*
X22352000Y57785000D02*
X21818600Y57785000D01*
X22352000Y57785000D02*
X22885400Y57785000D01*
X24468000Y32893000D02*
X23934600Y32893000D01*
X24468000Y32893000D02*
X25001400Y32893000D01*
X24468000Y31623000D02*
X23934600Y31623000D01*
X24468000Y31623000D02*
X25001400Y31623000D01*
X69469000Y6012000D02*
X69469000Y6545400D01*
X69469000Y6012000D02*
X69469000Y5478600D01*
X68199000Y6012000D02*
X68199000Y6545400D01*
X68199000Y6012000D02*
X68199000Y5478600D01*
X61761313Y35452203D02*
X62294713Y35452203D01*
X61761313Y35452203D02*
X61227913Y35452203D01*
X61761313Y36722203D02*
X62294713Y36722203D01*
X61761313Y36722203D02*
X61227913Y36722203D01*
X44620000Y29845000D02*
X45153400Y29845000D01*
X44620000Y29845000D02*
X44086600Y29845000D01*
X44620000Y31115000D02*
X45153400Y31115000D01*
X44620000Y31115000D02*
X44086600Y31115000D01*
X44620000Y23749000D02*
X45153400Y23749000D01*
X44620000Y23749000D02*
X44086600Y23749000D01*
X44620000Y25019000D02*
X45153400Y25019000D01*
X44620000Y25019000D02*
X44086600Y25019000D01*
X61861500Y58826400D02*
X61861500Y58293000D01*
X61861500Y58826400D02*
X61861500Y59359800D01*
X63131500Y58826400D02*
X63131500Y58293000D01*
X63131500Y58826400D02*
X63131500Y59359800D01*
X68084500Y58826400D02*
X68084500Y58293000D01*
X68084500Y58826400D02*
X68084500Y59359800D01*
X69354500Y58826400D02*
X69354500Y58293000D01*
X69354500Y58826400D02*
X69354500Y59359800D01*
X72466000Y56070500D02*
X71932600Y56070500D01*
X72466000Y56070500D02*
X72999400Y56070500D01*
X72466000Y54800500D02*
X71932600Y54800500D01*
X72466000Y54800500D02*
X72999400Y54800500D01*
X72466000Y61912500D02*
X71932600Y61912500D01*
X72466000Y61912500D02*
X72999400Y61912500D01*
X72466000Y60642500D02*
X71932600Y60642500D01*
X72466000Y60642500D02*
X72999400Y60642500D01*
X35857000Y58420000D02*
X36390400Y58420000D01*
X35857000Y58420000D02*
X35323600Y58420000D01*
X35857000Y59690000D02*
X36390400Y59690000D01*
X35857000Y59690000D02*
X35323600Y59690000D01*
X51478000Y24003000D02*
X52011400Y24003000D01*
X51478000Y24003000D02*
X50944600Y24003000D01*
X51478000Y25273000D02*
X52011400Y25273000D01*
X51478000Y25273000D02*
X50944600Y25273000D01*
X51478000Y30099000D02*
X52011400Y30099000D01*
X51478000Y30099000D02*
X50944600Y30099000D01*
X51478000Y31369000D02*
X52011400Y31369000D01*
X51478000Y31369000D02*
X50944600Y31369000D01*
X89281000Y19982000D02*
X89281000Y20515400D01*
X89281000Y19982000D02*
X89281000Y19448600D01*
X88011000Y19982000D02*
X88011000Y20515400D01*
X88011000Y19982000D02*
X88011000Y19448600D01*
X72644000Y4191000D02*
X72110600Y4191000D01*
X72644000Y4191000D02*
X73177400Y4191000D01*
X72644000Y2921000D02*
X72110600Y2921000D01*
X72644000Y2921000D02*
X73177400Y2921000D01*
X89535000Y6350000D02*
X89535000Y6883400D01*
X89535000Y6350000D02*
X89535000Y5816600D01*
X88265000Y6350000D02*
X88265000Y6883400D01*
X88265000Y6350000D02*
X88265000Y5816600D01*
X94572000Y10795000D02*
X94038600Y10795000D01*
X94572000Y10795000D02*
X95105400Y10795000D01*
X94572000Y9525000D02*
X94038600Y9525000D01*
X94572000Y9525000D02*
X95105400Y9525000D01*
X20574000Y40513000D02*
X20040600Y40513000D01*
X20574000Y40513000D02*
X21107400Y40513000D01*
X20574000Y39243000D02*
X20040600Y39243000D01*
X20574000Y39243000D02*
X21107400Y39243000D01*
X20531000Y37973000D02*
X19997600Y37973000D01*
X20531000Y37973000D02*
X21064400Y37973000D01*
X20531000Y36703000D02*
X19997600Y36703000D01*
X20531000Y36703000D02*
X21064400Y36703000D01*
X20531000Y35433000D02*
X19997600Y35433000D01*
X20531000Y35433000D02*
X21064400Y35433000D01*
X20531000Y34163000D02*
X19997600Y34163000D01*
X20531000Y34163000D02*
X21064400Y34163000D01*
X22352000Y60325000D02*
X22885400Y60325000D01*
X22352000Y60325000D02*
X21818600Y60325000D01*
X22352000Y61595000D02*
X22885400Y61595000D01*
X22352000Y61595000D02*
X21818600Y61595000D01*
X6012000Y63373000D02*
X6545400Y63373000D01*
X6012000Y63373000D02*
X5478600Y63373000D01*
X6012000Y64643000D02*
X6545400Y64643000D01*
X6012000Y64643000D02*
X5478600Y64643000D01*
X9779000Y59520000D02*
X9779000Y58986600D01*
X9779000Y59520000D02*
X9779000Y60053400D01*
X11049000Y59520000D02*
X11049000Y58986600D01*
X11049000Y59520000D02*
X11049000Y60053400D01*
X11049000Y54780000D02*
X11049000Y55313400D01*
X11049000Y54780000D02*
X11049000Y54246600D01*
X9779000Y54780000D02*
X9779000Y55313400D01*
X9779000Y54780000D02*
X9779000Y54246600D01*
X6012000Y42037000D02*
X6545400Y42037000D01*
X6012000Y42037000D02*
X5478600Y42037000D01*
X6012000Y43307000D02*
X6545400Y43307000D01*
X6012000Y43307000D02*
X5478600Y43307000D01*
X9017000Y40386000D02*
X9017000Y39852600D01*
X9017000Y40386000D02*
X9017000Y40919400D01*
X10287000Y40386000D02*
X10287000Y39852600D01*
X10287000Y40386000D02*
X10287000Y40919400D01*
X9017000Y35814000D02*
X9017000Y35280600D01*
X9017000Y35814000D02*
X9017000Y36347400D01*
X10287000Y35814000D02*
X10287000Y35280600D01*
X10287000Y35814000D02*
X10287000Y36347400D01*
X94572000Y18415000D02*
X94038600Y18415000D01*
X94572000Y18415000D02*
X95105400Y18415000D01*
X94572000Y17145000D02*
X94038600Y17145000D01*
X94572000Y17145000D02*
X95105400Y17145000D01*
X60071000Y17018000D02*
X60071000Y16484600D01*
X60071000Y17018000D02*
X60071000Y17551400D01*
X61341000Y17018000D02*
X61341000Y16484600D01*
X61341000Y17018000D02*
X61341000Y17551400D01*
X58504000Y10795000D02*
X57970600Y10795000D01*
X58504000Y10795000D02*
X59037400Y10795000D01*
X58504000Y9525000D02*
X57970600Y9525000D01*
X58504000Y9525000D02*
X59037400Y9525000D01*
X58204000Y12562000D02*
X58204000Y14362000D01*
X58904000Y13462000D02*
X58504000Y13462000D01*
X59404000Y13462000D02*
X59804000Y13462000D01*
X58904000Y13062000D02*
X58904000Y13862000D01*
X59404000Y13862000D02*
X59004000Y13462000D01*
X59404000Y13062000D02*
X59404000Y13862000D01*
X59004000Y13462000D02*
X59404000Y13062000D01*
X60704000Y14362000D02*
X60704000Y14262000D01*
X57704000Y14362000D02*
X60704000Y14362000D01*
X57704000Y14262000D02*
X57704000Y14362000D01*
X60504000Y12562000D02*
X60504000Y12662000D01*
X59104000Y12562000D02*
X60504000Y12562000D01*
X57704000Y12562000D02*
X57704000Y12662000D01*
X59104000Y12562000D02*
X57704000Y12562000D01*
X66686000Y21198000D02*
X64886000Y21198000D01*
X65786000Y21898000D02*
X65786000Y21498000D01*
X65786000Y22398000D02*
X65786000Y22798000D01*
X66186000Y21898000D02*
X65386000Y21898000D01*
X65386000Y22398000D02*
X65786000Y21998000D01*
X66186000Y22398000D02*
X65386000Y22398000D01*
X65786000Y21998000D02*
X66186000Y22398000D01*
X64886000Y23698000D02*
X64986000Y23698000D01*
X64886000Y20698000D02*
X64886000Y23698000D01*
X64986000Y20698000D02*
X64886000Y20698000D01*
X66686000Y23498000D02*
X66586000Y23498000D01*
X66686000Y22098000D02*
X66686000Y23498000D01*
X66686000Y20698000D02*
X66586000Y20698000D01*
X66686000Y22098000D02*
X66686000Y20698000D01*
X80656000Y21982000D02*
X80656000Y20182000D01*
X79956000Y21082000D02*
X80356000Y21082000D01*
X79456000Y21082000D02*
X79056000Y21082000D01*
X79956000Y21482000D02*
X79956000Y20682000D01*
X79456000Y20682000D02*
X79856000Y21082000D01*
X79456000Y21482000D02*
X79456000Y20682000D01*
X79856000Y21082000D02*
X79456000Y21482000D01*
X78156000Y20182000D02*
X78156000Y20282000D01*
X81156000Y20182000D02*
X78156000Y20182000D01*
X81156000Y20282000D02*
X81156000Y20182000D01*
X78356000Y21982000D02*
X78356000Y21882000D01*
X79756000Y21982000D02*
X78356000Y21982000D01*
X81156000Y21982000D02*
X81156000Y21882000D01*
X79756000Y21982000D02*
X81156000Y21982000D01*
X47995000Y9514000D02*
X47995000Y11314000D01*
X48695000Y10414000D02*
X48295000Y10414000D01*
X49195000Y10414000D02*
X49595000Y10414000D01*
X48695000Y10014000D02*
X48695000Y10814000D01*
X49195000Y10814000D02*
X48795000Y10414000D01*
X49195000Y10014000D02*
X49195000Y10814000D01*
X48795000Y10414000D02*
X49195000Y10014000D01*
X50495000Y11314000D02*
X50495000Y11214000D01*
X47495000Y11314000D02*
X50495000Y11314000D01*
X47495000Y11214000D02*
X47495000Y11314000D01*
X50295000Y9514000D02*
X50295000Y9614000D01*
X48895000Y9514000D02*
X50295000Y9514000D01*
X47495000Y9514000D02*
X47495000Y9614000D01*
X48895000Y9514000D02*
X47495000Y9514000D01*
X61584000Y22998000D02*
X63384000Y22998000D01*
X62484000Y22298000D02*
X62484000Y22698000D01*
X62484000Y21798000D02*
X62484000Y21398000D01*
X62084000Y22298000D02*
X62884000Y22298000D01*
X62884000Y21798000D02*
X62484000Y22198000D01*
X62084000Y21798000D02*
X62884000Y21798000D01*
X62484000Y22198000D02*
X62084000Y21798000D01*
X63384000Y20498000D02*
X63284000Y20498000D01*
X63384000Y23498000D02*
X63384000Y20498000D01*
X63284000Y23498000D02*
X63384000Y23498000D01*
X61584000Y20698000D02*
X61684000Y20698000D01*
X61584000Y22098000D02*
X61584000Y20698000D01*
X61584000Y23498000D02*
X61684000Y23498000D01*
X61584000Y22098000D02*
X61584000Y23498000D01*
X75730000Y26278000D02*
X75730000Y28078000D01*
X76430000Y27178000D02*
X76030000Y27178000D01*
X76930000Y27178000D02*
X77330000Y27178000D01*
X76430000Y26778000D02*
X76430000Y27578000D01*
X76930000Y27578000D02*
X76530000Y27178000D01*
X76930000Y26778000D02*
X76930000Y27578000D01*
X76530000Y27178000D02*
X76930000Y26778000D01*
X78230000Y28078000D02*
X78230000Y27978000D01*
X75230000Y28078000D02*
X78230000Y28078000D01*
X75230000Y27978000D02*
X75230000Y28078000D01*
X78030000Y26278000D02*
X78030000Y26378000D01*
X76630000Y26278000D02*
X78030000Y26278000D01*
X75230000Y26278000D02*
X75230000Y26378000D01*
X76630000Y26278000D02*
X75230000Y26278000D01*
X26543000Y62060000D02*
X26543000Y61526600D01*
X26543000Y62060000D02*
X26543000Y62593400D01*
X27813000Y62060000D02*
X27813000Y61526600D01*
X27813000Y62060000D02*
X27813000Y62593400D01*
X17527052Y10664844D02*
X17527052Y11198244D01*
X17527052Y10664844D02*
X17527052Y10131444D01*
X16257052Y10664844D02*
X16257052Y11198244D01*
X16257052Y10664844D02*
X16257052Y10131444D01*
X22607052Y10664844D02*
X22607052Y11198244D01*
X22607052Y10664844D02*
X22607052Y10131444D01*
X21337052Y10664844D02*
X21337052Y11198244D01*
X21337052Y10664844D02*
X21337052Y10131444D01*
X25612052Y9775844D02*
X26145452Y9775844D01*
X25612052Y9775844D02*
X25078652Y9775844D01*
X25612052Y11045844D02*
X26145452Y11045844D01*
X25612052Y11045844D02*
X25078652Y11045844D01*
X32556052Y6727844D02*
X33089452Y6727844D01*
X32556052Y6727844D02*
X32022652Y6727844D01*
X32556052Y7997844D02*
X33089452Y7997844D01*
X32556052Y7997844D02*
X32022652Y7997844D01*
X69790000Y8752000D02*
X69790000Y10552000D01*
X70490000Y9652000D02*
X70090000Y9652000D01*
X70990000Y9652000D02*
X71390000Y9652000D01*
X70490000Y9252000D02*
X70490000Y10052000D01*
X70990000Y10052000D02*
X70590000Y9652000D01*
X70990000Y9252000D02*
X70990000Y10052000D01*
X70590000Y9652000D02*
X70990000Y9252000D01*
X72290000Y10552000D02*
X72290000Y10452000D01*
X69290000Y10552000D02*
X72290000Y10552000D01*
X69290000Y10452000D02*
X69290000Y10552000D01*
X72090000Y8752000D02*
X72090000Y8852000D01*
X70690000Y8752000D02*
X72090000Y8752000D01*
X69290000Y8752000D02*
X69290000Y8852000D01*
X70690000Y8752000D02*
X69290000Y8752000D01*
X88100000Y11060000D02*
X88100000Y9260000D01*
X87400000Y10160000D02*
X87800000Y10160000D01*
X86900000Y10160000D02*
X86500000Y10160000D01*
X87400000Y10560000D02*
X87400000Y9760000D01*
X86900000Y9760000D02*
X87300000Y10160000D01*
X86900000Y10560000D02*
X86900000Y9760000D01*
X87300000Y10160000D02*
X86900000Y10560000D01*
X85600000Y9260000D02*
X85600000Y9360000D01*
X88600000Y9260000D02*
X85600000Y9260000D01*
X88600000Y9360000D02*
X88600000Y9260000D01*
X85800000Y11060000D02*
X85800000Y10960000D01*
X87200000Y11060000D02*
X85800000Y11060000D01*
X88600000Y11060000D02*
X88600000Y10960000D01*
X87200000Y11060000D02*
X88600000Y11060000D01*
X45466000Y68707000D02*
X45999400Y68707000D01*
X45466000Y68707000D02*
X44932600Y68707000D01*
X45466000Y69977000D02*
X45999400Y69977000D01*
X45466000Y69977000D02*
X44932600Y69977000D01*
X45466000Y75057000D02*
X45999400Y75057000D01*
X45466000Y75057000D02*
X44932600Y75057000D01*
X45466000Y76327000D02*
X45999400Y76327000D01*
X45466000Y76327000D02*
X44932600Y76327000D01*
X65532000Y52113000D02*
X65532000Y52646400D01*
X65532000Y52113000D02*
X65532000Y51579600D01*
X64262000Y52113000D02*
X64262000Y52646400D01*
X64262000Y52113000D02*
X64262000Y51579600D01*
X71437500Y52113000D02*
X71437500Y52646400D01*
X71437500Y52113000D02*
X71437500Y51579600D01*
X70167500Y52113000D02*
X70167500Y52646400D01*
X70167500Y52113000D02*
X70167500Y51579600D01*
X3937000Y26416000D02*
X3937000Y25882600D01*
X3937000Y26416000D02*
X3937000Y26949400D01*
X5207000Y26416000D02*
X5207000Y25882600D01*
X5207000Y26416000D02*
X5207000Y26949400D01*
X32639000Y25654000D02*
X32639000Y25120600D01*
X32639000Y25654000D02*
X32639000Y26187400D01*
X33909000Y25654000D02*
X33909000Y25120600D01*
X33909000Y25654000D02*
X33909000Y26187400D01*
X9723381Y11787047D02*
X9247190Y12120381D01*
X9723381Y12358476D02*
X8723381Y12358476D01*
X8723381Y11977523D01*
X8771000Y11882285D01*
X8818619Y11834666D01*
X8913857Y11787047D01*
X9056714Y11787047D01*
X9151952Y11834666D01*
X9199571Y11882285D01*
X9247190Y11977523D01*
X9247190Y12358476D01*
X8818619Y11406095D02*
X8771000Y11358476D01*
X8723381Y11263238D01*
X8723381Y11025142D01*
X8771000Y10929904D01*
X8818619Y10882285D01*
X8913857Y10834666D01*
X9009095Y10834666D01*
X9151952Y10882285D01*
X9723381Y11453714D01*
X9723381Y10834666D01*
X8818619Y10453714D02*
X8771000Y10406095D01*
X8723381Y10310857D01*
X8723381Y10072761D01*
X8771000Y9977523D01*
X8818619Y9929904D01*
X8913857Y9882285D01*
X9009095Y9882285D01*
X9151952Y9929904D01*
X9723381Y10501333D01*
X9723381Y9882285D01*
X9151952Y9310857D02*
X9104333Y9406095D01*
X9056714Y9453714D01*
X8961476Y9501333D01*
X8913857Y9501333D01*
X8818619Y9453714D01*
X8771000Y9406095D01*
X8723381Y9310857D01*
X8723381Y9120380D01*
X8771000Y9025142D01*
X8818619Y8977523D01*
X8913857Y8929904D01*
X8961476Y8929904D01*
X9056714Y8977523D01*
X9104333Y9025142D01*
X9151952Y9120380D01*
X9151952Y9310857D01*
X9199571Y9406095D01*
X9247190Y9453714D01*
X9342429Y9501333D01*
X9532905Y9501333D01*
X9628143Y9453714D01*
X9675762Y9406095D01*
X9723381Y9310857D01*
X9723381Y9120380D01*
X9675762Y9025142D01*
X9628143Y8977523D01*
X9532905Y8929904D01*
X9342429Y8929904D01*
X9247190Y8977523D01*
X9199571Y9025142D01*
X9151952Y9120380D01*
X12644381Y32234047D02*
X12168190Y32567381D01*
X12644381Y32805476D02*
X11644381Y32805476D01*
X11644381Y32424523D01*
X11692000Y32329285D01*
X11739619Y32281666D01*
X11834857Y32234047D01*
X11977714Y32234047D01*
X12072952Y32281666D01*
X12120571Y32329285D01*
X12168190Y32424523D01*
X12168190Y32805476D01*
X11739619Y31853095D02*
X11692000Y31805476D01*
X11644381Y31710238D01*
X11644381Y31472142D01*
X11692000Y31376904D01*
X11739619Y31329285D01*
X11834857Y31281666D01*
X11930095Y31281666D01*
X12072952Y31329285D01*
X12644381Y31900714D01*
X12644381Y31281666D01*
X11644381Y30662619D02*
X11644381Y30567380D01*
X11692000Y30472142D01*
X11739619Y30424523D01*
X11834857Y30376904D01*
X12025333Y30329285D01*
X12263429Y30329285D01*
X12453905Y30376904D01*
X12549143Y30424523D01*
X12596762Y30472142D01*
X12644381Y30567380D01*
X12644381Y30662619D01*
X12596762Y30757857D01*
X12549143Y30805476D01*
X12453905Y30853095D01*
X12263429Y30900714D01*
X12025333Y30900714D01*
X11834857Y30853095D01*
X11739619Y30805476D01*
X11692000Y30757857D01*
X11644381Y30662619D01*
X11644381Y29995952D02*
X11644381Y29376904D01*
X12025333Y29710238D01*
X12025333Y29567380D01*
X12072952Y29472142D01*
X12120571Y29424523D01*
X12215810Y29376904D01*
X12453905Y29376904D01*
X12549143Y29424523D01*
X12596762Y29472142D01*
X12644381Y29567380D01*
X12644381Y29853095D01*
X12596762Y29948333D01*
X12549143Y29995952D01*
X24582381Y26519047D02*
X24106190Y26852381D01*
X24582381Y27090476D02*
X23582381Y27090476D01*
X23582381Y26709523D01*
X23630000Y26614285D01*
X23677619Y26566666D01*
X23772857Y26519047D01*
X23915714Y26519047D01*
X24010952Y26566666D01*
X24058571Y26614285D01*
X24106190Y26709523D01*
X24106190Y27090476D01*
X23915714Y25661904D02*
X24582381Y25661904D01*
X23534762Y25900000D02*
X24249048Y26138095D01*
X24249048Y25519047D01*
X24582381Y24614285D02*
X24582381Y25185714D01*
X24582381Y24900000D02*
X23582381Y24900000D01*
X23725238Y24995238D01*
X23820476Y25090476D01*
X23868095Y25185714D01*
X23915714Y23757142D02*
X24582381Y23757142D01*
X23534762Y23995238D02*
X24249048Y24233333D01*
X24249048Y23614285D01*
X26868381Y22709047D02*
X26392190Y23042381D01*
X26868381Y23280476D02*
X25868381Y23280476D01*
X25868381Y22899523D01*
X25916000Y22804285D01*
X25963619Y22756666D01*
X26058857Y22709047D01*
X26201714Y22709047D01*
X26296952Y22756666D01*
X26344571Y22804285D01*
X26392190Y22899523D01*
X26392190Y23280476D01*
X26201714Y21851904D02*
X26868381Y21851904D01*
X25820762Y22090000D02*
X26535048Y22328095D01*
X26535048Y21709047D01*
X26868381Y20804285D02*
X26868381Y21375714D01*
X26868381Y21090000D02*
X25868381Y21090000D01*
X26011238Y21185238D01*
X26106476Y21280476D01*
X26154095Y21375714D01*
X25868381Y19947142D02*
X25868381Y20137619D01*
X25916000Y20232857D01*
X25963619Y20280476D01*
X26106476Y20375714D01*
X26296952Y20423333D01*
X26677905Y20423333D01*
X26773143Y20375714D01*
X26820762Y20328095D01*
X26868381Y20232857D01*
X26868381Y20042380D01*
X26820762Y19947142D01*
X26773143Y19899523D01*
X26677905Y19851904D01*
X26439810Y19851904D01*
X26344571Y19899523D01*
X26296952Y19947142D01*
X26249333Y20042380D01*
X26249333Y20232857D01*
X26296952Y20328095D01*
X26344571Y20375714D01*
X26439810Y20423333D01*
X93440047Y22280619D02*
X93916238Y22280619D01*
X93916238Y23280619D01*
X93201952Y23280619D02*
X92582904Y23280619D01*
X92916238Y22899667D01*
X92773380Y22899667D01*
X92678142Y22852048D01*
X92630523Y22804429D01*
X92582904Y22709190D01*
X92582904Y22471095D01*
X92630523Y22375857D01*
X92678142Y22328238D01*
X92773380Y22280619D01*
X93059095Y22280619D01*
X93154333Y22328238D01*
X93201952Y22375857D01*
X91963857Y23280619D02*
X91868618Y23280619D01*
X91773380Y23233000D01*
X91725761Y23185381D01*
X91678142Y23090143D01*
X91630523Y22899667D01*
X91630523Y22661571D01*
X91678142Y22471095D01*
X91725761Y22375857D01*
X91773380Y22328238D01*
X91868618Y22280619D01*
X91963857Y22280619D01*
X92059095Y22328238D01*
X92106714Y22375857D01*
X92154333Y22471095D01*
X92201952Y22661571D01*
X92201952Y22899667D01*
X92154333Y23090143D01*
X92106714Y23185381D01*
X92059095Y23233000D01*
X91963857Y23280619D01*
X91249571Y23185381D02*
X91201952Y23233000D01*
X91106714Y23280619D01*
X90868618Y23280619D01*
X90773380Y23233000D01*
X90725761Y23185381D01*
X90678142Y23090143D01*
X90678142Y22994905D01*
X90725761Y22852048D01*
X91297190Y22280619D01*
X90678142Y22280619D01*
X50585476Y4627619D02*
X50585476Y5627619D01*
X50347381Y5627619D01*
X50204523Y5580000D01*
X50109285Y5484762D01*
X50061666Y5389524D01*
X50014047Y5199048D01*
X50014047Y5056190D01*
X50061666Y4865714D01*
X50109285Y4770476D01*
X50204523Y4675238D01*
X50347381Y4627619D01*
X50585476Y4627619D01*
X49680714Y5627619D02*
X49061666Y5627619D01*
X49395000Y5246667D01*
X49252142Y5246667D01*
X49156904Y5199048D01*
X49109285Y5151429D01*
X49061666Y5056190D01*
X49061666Y4818095D01*
X49109285Y4722857D01*
X49156904Y4675238D01*
X49252142Y4627619D01*
X49537857Y4627619D01*
X49633095Y4675238D01*
X49680714Y4722857D01*
X48442619Y5627619D02*
X48347380Y5627619D01*
X48252142Y5580000D01*
X48204523Y5532381D01*
X48156904Y5437143D01*
X48109285Y5246667D01*
X48109285Y5008571D01*
X48156904Y4818095D01*
X48204523Y4722857D01*
X48252142Y4675238D01*
X48347380Y4627619D01*
X48442619Y4627619D01*
X48537857Y4675238D01*
X48585476Y4722857D01*
X48633095Y4818095D01*
X48680714Y5008571D01*
X48680714Y5246667D01*
X48633095Y5437143D01*
X48585476Y5532381D01*
X48537857Y5580000D01*
X48442619Y5627619D01*
X47775952Y5627619D02*
X47156904Y5627619D01*
X47490238Y5246667D01*
X47347380Y5246667D01*
X47252142Y5199048D01*
X47204523Y5151429D01*
X47156904Y5056190D01*
X47156904Y4818095D01*
X47204523Y4722857D01*
X47252142Y4675238D01*
X47347380Y4627619D01*
X47633095Y4627619D01*
X47728333Y4675238D01*
X47775952Y4722857D01*
X52141405Y7231119D02*
X52141405Y8231119D01*
X51569976Y7231119D02*
X51998548Y7802548D01*
X51569976Y8231119D02*
X52141405Y7659690D01*
X46133095Y6691333D02*
X45656904Y6691333D01*
X46228333Y6405619D02*
X45895000Y7405619D01*
X45561666Y6405619D01*
X84431047Y82732619D02*
X84764381Y83208810D01*
X85002476Y82732619D02*
X85002476Y83732619D01*
X84621523Y83732619D01*
X84526285Y83685000D01*
X84478666Y83637381D01*
X84431047Y83542143D01*
X84431047Y83399286D01*
X84478666Y83304048D01*
X84526285Y83256429D01*
X84621523Y83208810D01*
X85002476Y83208810D01*
X83526285Y83732619D02*
X84002476Y83732619D01*
X84050095Y83256429D01*
X84002476Y83304048D01*
X83907238Y83351667D01*
X83669142Y83351667D01*
X83573904Y83304048D01*
X83526285Y83256429D01*
X83478666Y83161190D01*
X83478666Y82923095D01*
X83526285Y82827857D01*
X83573904Y82780238D01*
X83669142Y82732619D01*
X83907238Y82732619D01*
X84002476Y82780238D01*
X84050095Y82827857D01*
X82621523Y83399286D02*
X82621523Y82732619D01*
X82859619Y83780238D02*
X83097714Y83065952D01*
X82478666Y83065952D01*
X81954857Y83304048D02*
X82050095Y83351667D01*
X82097714Y83399286D01*
X82145333Y83494524D01*
X82145333Y83542143D01*
X82097714Y83637381D01*
X82050095Y83685000D01*
X81954857Y83732619D01*
X81764380Y83732619D01*
X81669142Y83685000D01*
X81621523Y83637381D01*
X81573904Y83542143D01*
X81573904Y83494524D01*
X81621523Y83399286D01*
X81669142Y83351667D01*
X81764380Y83304048D01*
X81954857Y83304048D01*
X82050095Y83256429D01*
X82097714Y83208810D01*
X82145333Y83113571D01*
X82145333Y82923095D01*
X82097714Y82827857D01*
X82050095Y82780238D01*
X81954857Y82732619D01*
X81764380Y82732619D01*
X81669142Y82780238D01*
X81621523Y82827857D01*
X81573904Y82923095D01*
X81573904Y83113571D01*
X81621523Y83208810D01*
X81669142Y83256429D01*
X81764380Y83304048D01*
X84431047Y79557619D02*
X84764381Y80033810D01*
X85002476Y79557619D02*
X85002476Y80557619D01*
X84621523Y80557619D01*
X84526285Y80510000D01*
X84478666Y80462381D01*
X84431047Y80367143D01*
X84431047Y80224286D01*
X84478666Y80129048D01*
X84526285Y80081429D01*
X84621523Y80033810D01*
X85002476Y80033810D01*
X83526285Y80557619D02*
X84002476Y80557619D01*
X84050095Y80081429D01*
X84002476Y80129048D01*
X83907238Y80176667D01*
X83669142Y80176667D01*
X83573904Y80129048D01*
X83526285Y80081429D01*
X83478666Y79986190D01*
X83478666Y79748095D01*
X83526285Y79652857D01*
X83573904Y79605238D01*
X83669142Y79557619D01*
X83907238Y79557619D01*
X84002476Y79605238D01*
X84050095Y79652857D01*
X82621523Y80224286D02*
X82621523Y79557619D01*
X82859619Y80605238D02*
X83097714Y79890952D01*
X82478666Y79890952D01*
X82192952Y80557619D02*
X81526285Y80557619D01*
X81954857Y79557619D01*
X84431047Y77398619D02*
X84764381Y77874810D01*
X85002476Y77398619D02*
X85002476Y78398619D01*
X84621523Y78398619D01*
X84526285Y78351000D01*
X84478666Y78303381D01*
X84431047Y78208143D01*
X84431047Y78065286D01*
X84478666Y77970048D01*
X84526285Y77922429D01*
X84621523Y77874810D01*
X85002476Y77874810D01*
X83526285Y78398619D02*
X84002476Y78398619D01*
X84050095Y77922429D01*
X84002476Y77970048D01*
X83907238Y78017667D01*
X83669142Y78017667D01*
X83573904Y77970048D01*
X83526285Y77922429D01*
X83478666Y77827190D01*
X83478666Y77589095D01*
X83526285Y77493857D01*
X83573904Y77446238D01*
X83669142Y77398619D01*
X83907238Y77398619D01*
X84002476Y77446238D01*
X84050095Y77493857D01*
X82621523Y78065286D02*
X82621523Y77398619D01*
X82859619Y78446238D02*
X83097714Y77731952D01*
X82478666Y77731952D01*
X81669142Y78398619D02*
X81859619Y78398619D01*
X81954857Y78351000D01*
X82002476Y78303381D01*
X82097714Y78160524D01*
X82145333Y77970048D01*
X82145333Y77589095D01*
X82097714Y77493857D01*
X82050095Y77446238D01*
X81954857Y77398619D01*
X81764380Y77398619D01*
X81669142Y77446238D01*
X81621523Y77493857D01*
X81573904Y77589095D01*
X81573904Y77827190D01*
X81621523Y77922429D01*
X81669142Y77970048D01*
X81764380Y78017667D01*
X81954857Y78017667D01*
X82050095Y77970048D01*
X82097714Y77922429D01*
X82145333Y77827190D01*
X84431047Y75112619D02*
X84764381Y75588810D01*
X85002476Y75112619D02*
X85002476Y76112619D01*
X84621523Y76112619D01*
X84526285Y76065000D01*
X84478666Y76017381D01*
X84431047Y75922143D01*
X84431047Y75779286D01*
X84478666Y75684048D01*
X84526285Y75636429D01*
X84621523Y75588810D01*
X85002476Y75588810D01*
X83526285Y76112619D02*
X84002476Y76112619D01*
X84050095Y75636429D01*
X84002476Y75684048D01*
X83907238Y75731667D01*
X83669142Y75731667D01*
X83573904Y75684048D01*
X83526285Y75636429D01*
X83478666Y75541190D01*
X83478666Y75303095D01*
X83526285Y75207857D01*
X83573904Y75160238D01*
X83669142Y75112619D01*
X83907238Y75112619D01*
X84002476Y75160238D01*
X84050095Y75207857D01*
X82621523Y75779286D02*
X82621523Y75112619D01*
X82859619Y76160238D02*
X83097714Y75445952D01*
X82478666Y75445952D01*
X81621523Y76112619D02*
X82097714Y76112619D01*
X82145333Y75636429D01*
X82097714Y75684048D01*
X82002476Y75731667D01*
X81764380Y75731667D01*
X81669142Y75684048D01*
X81621523Y75636429D01*
X81573904Y75541190D01*
X81573904Y75303095D01*
X81621523Y75207857D01*
X81669142Y75160238D01*
X81764380Y75112619D01*
X82002476Y75112619D01*
X82097714Y75160238D01*
X82145333Y75207857D01*
X84431047Y72191619D02*
X84764381Y72667810D01*
X85002476Y72191619D02*
X85002476Y73191619D01*
X84621523Y73191619D01*
X84526285Y73144000D01*
X84478666Y73096381D01*
X84431047Y73001143D01*
X84431047Y72858286D01*
X84478666Y72763048D01*
X84526285Y72715429D01*
X84621523Y72667810D01*
X85002476Y72667810D01*
X83526285Y73191619D02*
X84002476Y73191619D01*
X84050095Y72715429D01*
X84002476Y72763048D01*
X83907238Y72810667D01*
X83669142Y72810667D01*
X83573904Y72763048D01*
X83526285Y72715429D01*
X83478666Y72620190D01*
X83478666Y72382095D01*
X83526285Y72286857D01*
X83573904Y72239238D01*
X83669142Y72191619D01*
X83907238Y72191619D01*
X84002476Y72239238D01*
X84050095Y72286857D01*
X82621523Y72858286D02*
X82621523Y72191619D01*
X82859619Y73239238D02*
X83097714Y72524952D01*
X82478666Y72524952D01*
X81669142Y72858286D02*
X81669142Y72191619D01*
X81907238Y73239238D02*
X82145333Y72524952D01*
X81526285Y72524952D01*
X84431047Y69778619D02*
X84764381Y70254810D01*
X85002476Y69778619D02*
X85002476Y70778619D01*
X84621523Y70778619D01*
X84526285Y70731000D01*
X84478666Y70683381D01*
X84431047Y70588143D01*
X84431047Y70445286D01*
X84478666Y70350048D01*
X84526285Y70302429D01*
X84621523Y70254810D01*
X85002476Y70254810D01*
X83526285Y70778619D02*
X84002476Y70778619D01*
X84050095Y70302429D01*
X84002476Y70350048D01*
X83907238Y70397667D01*
X83669142Y70397667D01*
X83573904Y70350048D01*
X83526285Y70302429D01*
X83478666Y70207190D01*
X83478666Y69969095D01*
X83526285Y69873857D01*
X83573904Y69826238D01*
X83669142Y69778619D01*
X83907238Y69778619D01*
X84002476Y69826238D01*
X84050095Y69873857D01*
X82621523Y70445286D02*
X82621523Y69778619D01*
X82859619Y70826238D02*
X83097714Y70111952D01*
X82478666Y70111952D01*
X82192952Y70778619D02*
X81573904Y70778619D01*
X81907238Y70397667D01*
X81764380Y70397667D01*
X81669142Y70350048D01*
X81621523Y70302429D01*
X81573904Y70207190D01*
X81573904Y69969095D01*
X81621523Y69873857D01*
X81669142Y69826238D01*
X81764380Y69778619D01*
X82050095Y69778619D01*
X82145333Y69826238D01*
X82192952Y69873857D01*
X84431047Y67365619D02*
X84764381Y67841810D01*
X85002476Y67365619D02*
X85002476Y68365619D01*
X84621523Y68365619D01*
X84526285Y68318000D01*
X84478666Y68270381D01*
X84431047Y68175143D01*
X84431047Y68032286D01*
X84478666Y67937048D01*
X84526285Y67889429D01*
X84621523Y67841810D01*
X85002476Y67841810D01*
X83526285Y68365619D02*
X84002476Y68365619D01*
X84050095Y67889429D01*
X84002476Y67937048D01*
X83907238Y67984667D01*
X83669142Y67984667D01*
X83573904Y67937048D01*
X83526285Y67889429D01*
X83478666Y67794190D01*
X83478666Y67556095D01*
X83526285Y67460857D01*
X83573904Y67413238D01*
X83669142Y67365619D01*
X83907238Y67365619D01*
X84002476Y67413238D01*
X84050095Y67460857D01*
X82621523Y68032286D02*
X82621523Y67365619D01*
X82859619Y68413238D02*
X83097714Y67698952D01*
X82478666Y67698952D01*
X82145333Y68270381D02*
X82097714Y68318000D01*
X82002476Y68365619D01*
X81764380Y68365619D01*
X81669142Y68318000D01*
X81621523Y68270381D01*
X81573904Y68175143D01*
X81573904Y68079905D01*
X81621523Y67937048D01*
X82192952Y67365619D01*
X81573904Y67365619D01*
X84431047Y64444619D02*
X84764381Y64920810D01*
X85002476Y64444619D02*
X85002476Y65444619D01*
X84621523Y65444619D01*
X84526285Y65397000D01*
X84478666Y65349381D01*
X84431047Y65254143D01*
X84431047Y65111286D01*
X84478666Y65016048D01*
X84526285Y64968429D01*
X84621523Y64920810D01*
X85002476Y64920810D01*
X83526285Y65444619D02*
X84002476Y65444619D01*
X84050095Y64968429D01*
X84002476Y65016048D01*
X83907238Y65063667D01*
X83669142Y65063667D01*
X83573904Y65016048D01*
X83526285Y64968429D01*
X83478666Y64873190D01*
X83478666Y64635095D01*
X83526285Y64539857D01*
X83573904Y64492238D01*
X83669142Y64444619D01*
X83907238Y64444619D01*
X84002476Y64492238D01*
X84050095Y64539857D01*
X82621523Y65111286D02*
X82621523Y64444619D01*
X82859619Y65492238D02*
X83097714Y64777952D01*
X82478666Y64777952D01*
X81573904Y64444619D02*
X82145333Y64444619D01*
X81859619Y64444619D02*
X81859619Y65444619D01*
X81954857Y65301762D01*
X82050095Y65206524D01*
X82145333Y65158905D01*
X84431047Y48569619D02*
X84764381Y49045810D01*
X85002476Y48569619D02*
X85002476Y49569619D01*
X84621523Y49569619D01*
X84526285Y49522000D01*
X84478666Y49474381D01*
X84431047Y49379143D01*
X84431047Y49236286D01*
X84478666Y49141048D01*
X84526285Y49093429D01*
X84621523Y49045810D01*
X85002476Y49045810D01*
X83526285Y49569619D02*
X84002476Y49569619D01*
X84050095Y49093429D01*
X84002476Y49141048D01*
X83907238Y49188667D01*
X83669142Y49188667D01*
X83573904Y49141048D01*
X83526285Y49093429D01*
X83478666Y48998190D01*
X83478666Y48760095D01*
X83526285Y48664857D01*
X83573904Y48617238D01*
X83669142Y48569619D01*
X83907238Y48569619D01*
X84002476Y48617238D01*
X84050095Y48664857D01*
X82621523Y49236286D02*
X82621523Y48569619D01*
X82859619Y49617238D02*
X83097714Y48902952D01*
X82478666Y48902952D01*
X81907238Y49569619D02*
X81811999Y49569619D01*
X81716761Y49522000D01*
X81669142Y49474381D01*
X81621523Y49379143D01*
X81573904Y49188667D01*
X81573904Y48950571D01*
X81621523Y48760095D01*
X81669142Y48664857D01*
X81716761Y48617238D01*
X81811999Y48569619D01*
X81907238Y48569619D01*
X82002476Y48617238D01*
X82050095Y48664857D01*
X82097714Y48760095D01*
X82145333Y48950571D01*
X82145333Y49188667D01*
X82097714Y49379143D01*
X82050095Y49474381D01*
X82002476Y49522000D01*
X81907238Y49569619D01*
X84431047Y46283619D02*
X84764381Y46759810D01*
X85002476Y46283619D02*
X85002476Y47283619D01*
X84621523Y47283619D01*
X84526285Y47236000D01*
X84478666Y47188381D01*
X84431047Y47093143D01*
X84431047Y46950286D01*
X84478666Y46855048D01*
X84526285Y46807429D01*
X84621523Y46759810D01*
X85002476Y46759810D01*
X83526285Y47283619D02*
X84002476Y47283619D01*
X84050095Y46807429D01*
X84002476Y46855048D01*
X83907238Y46902667D01*
X83669142Y46902667D01*
X83573904Y46855048D01*
X83526285Y46807429D01*
X83478666Y46712190D01*
X83478666Y46474095D01*
X83526285Y46378857D01*
X83573904Y46331238D01*
X83669142Y46283619D01*
X83907238Y46283619D01*
X84002476Y46331238D01*
X84050095Y46378857D01*
X83145333Y47283619D02*
X82526285Y47283619D01*
X82859619Y46902667D01*
X82716761Y46902667D01*
X82621523Y46855048D01*
X82573904Y46807429D01*
X82526285Y46712190D01*
X82526285Y46474095D01*
X82573904Y46378857D01*
X82621523Y46331238D01*
X82716761Y46283619D01*
X83002476Y46283619D01*
X83097714Y46331238D01*
X83145333Y46378857D01*
X82050095Y46283619D02*
X81859619Y46283619D01*
X81764380Y46331238D01*
X81716761Y46378857D01*
X81621523Y46521714D01*
X81573904Y46712190D01*
X81573904Y47093143D01*
X81621523Y47188381D01*
X81669142Y47236000D01*
X81764380Y47283619D01*
X81954857Y47283619D01*
X82050095Y47236000D01*
X82097714Y47188381D01*
X82145333Y47093143D01*
X82145333Y46855048D01*
X82097714Y46759810D01*
X82050095Y46712190D01*
X81954857Y46664571D01*
X81764380Y46664571D01*
X81669142Y46712190D01*
X81621523Y46759810D01*
X81573904Y46855048D01*
X84431047Y43743619D02*
X84764381Y44219810D01*
X85002476Y43743619D02*
X85002476Y44743619D01*
X84621523Y44743619D01*
X84526285Y44696000D01*
X84478666Y44648381D01*
X84431047Y44553143D01*
X84431047Y44410286D01*
X84478666Y44315048D01*
X84526285Y44267429D01*
X84621523Y44219810D01*
X85002476Y44219810D01*
X83526285Y44743619D02*
X84002476Y44743619D01*
X84050095Y44267429D01*
X84002476Y44315048D01*
X83907238Y44362667D01*
X83669142Y44362667D01*
X83573904Y44315048D01*
X83526285Y44267429D01*
X83478666Y44172190D01*
X83478666Y43934095D01*
X83526285Y43838857D01*
X83573904Y43791238D01*
X83669142Y43743619D01*
X83907238Y43743619D01*
X84002476Y43791238D01*
X84050095Y43838857D01*
X83145333Y44743619D02*
X82526285Y44743619D01*
X82859619Y44362667D01*
X82716761Y44362667D01*
X82621523Y44315048D01*
X82573904Y44267429D01*
X82526285Y44172190D01*
X82526285Y43934095D01*
X82573904Y43838857D01*
X82621523Y43791238D01*
X82716761Y43743619D01*
X83002476Y43743619D01*
X83097714Y43791238D01*
X83145333Y43838857D01*
X81954857Y44315048D02*
X82050095Y44362667D01*
X82097714Y44410286D01*
X82145333Y44505524D01*
X82145333Y44553143D01*
X82097714Y44648381D01*
X82050095Y44696000D01*
X81954857Y44743619D01*
X81764380Y44743619D01*
X81669142Y44696000D01*
X81621523Y44648381D01*
X81573904Y44553143D01*
X81573904Y44505524D01*
X81621523Y44410286D01*
X81669142Y44362667D01*
X81764380Y44315048D01*
X81954857Y44315048D01*
X82050095Y44267429D01*
X82097714Y44219810D01*
X82145333Y44124571D01*
X82145333Y43934095D01*
X82097714Y43838857D01*
X82050095Y43791238D01*
X81954857Y43743619D01*
X81764380Y43743619D01*
X81669142Y43791238D01*
X81621523Y43838857D01*
X81573904Y43934095D01*
X81573904Y44124571D01*
X81621523Y44219810D01*
X81669142Y44267429D01*
X81764380Y44315048D01*
X84431047Y41076619D02*
X84764381Y41552810D01*
X85002476Y41076619D02*
X85002476Y42076619D01*
X84621523Y42076619D01*
X84526285Y42029000D01*
X84478666Y41981381D01*
X84431047Y41886143D01*
X84431047Y41743286D01*
X84478666Y41648048D01*
X84526285Y41600429D01*
X84621523Y41552810D01*
X85002476Y41552810D01*
X83526285Y42076619D02*
X84002476Y42076619D01*
X84050095Y41600429D01*
X84002476Y41648048D01*
X83907238Y41695667D01*
X83669142Y41695667D01*
X83573904Y41648048D01*
X83526285Y41600429D01*
X83478666Y41505190D01*
X83478666Y41267095D01*
X83526285Y41171857D01*
X83573904Y41124238D01*
X83669142Y41076619D01*
X83907238Y41076619D01*
X84002476Y41124238D01*
X84050095Y41171857D01*
X83145333Y42076619D02*
X82526285Y42076619D01*
X82859619Y41695667D01*
X82716761Y41695667D01*
X82621523Y41648048D01*
X82573904Y41600429D01*
X82526285Y41505190D01*
X82526285Y41267095D01*
X82573904Y41171857D01*
X82621523Y41124238D01*
X82716761Y41076619D01*
X83002476Y41076619D01*
X83097714Y41124238D01*
X83145333Y41171857D01*
X82192952Y42076619D02*
X81526285Y42076619D01*
X81954857Y41076619D01*
X84431047Y38663619D02*
X84764381Y39139810D01*
X85002476Y38663619D02*
X85002476Y39663619D01*
X84621523Y39663619D01*
X84526285Y39616000D01*
X84478666Y39568381D01*
X84431047Y39473143D01*
X84431047Y39330286D01*
X84478666Y39235048D01*
X84526285Y39187429D01*
X84621523Y39139810D01*
X85002476Y39139810D01*
X83526285Y39663619D02*
X84002476Y39663619D01*
X84050095Y39187429D01*
X84002476Y39235048D01*
X83907238Y39282667D01*
X83669142Y39282667D01*
X83573904Y39235048D01*
X83526285Y39187429D01*
X83478666Y39092190D01*
X83478666Y38854095D01*
X83526285Y38758857D01*
X83573904Y38711238D01*
X83669142Y38663619D01*
X83907238Y38663619D01*
X84002476Y38711238D01*
X84050095Y38758857D01*
X83145333Y39663619D02*
X82526285Y39663619D01*
X82859619Y39282667D01*
X82716761Y39282667D01*
X82621523Y39235048D01*
X82573904Y39187429D01*
X82526285Y39092190D01*
X82526285Y38854095D01*
X82573904Y38758857D01*
X82621523Y38711238D01*
X82716761Y38663619D01*
X83002476Y38663619D01*
X83097714Y38711238D01*
X83145333Y38758857D01*
X81669142Y39663619D02*
X81859619Y39663619D01*
X81954857Y39616000D01*
X82002476Y39568381D01*
X82097714Y39425524D01*
X82145333Y39235048D01*
X82145333Y38854095D01*
X82097714Y38758857D01*
X82050095Y38711238D01*
X81954857Y38663619D01*
X81764380Y38663619D01*
X81669142Y38711238D01*
X81621523Y38758857D01*
X81573904Y38854095D01*
X81573904Y39092190D01*
X81621523Y39187429D01*
X81669142Y39235048D01*
X81764380Y39282667D01*
X81954857Y39282667D01*
X82050095Y39235048D01*
X82097714Y39187429D01*
X82145333Y39092190D01*
X84431047Y36250619D02*
X84764381Y36726810D01*
X85002476Y36250619D02*
X85002476Y37250619D01*
X84621523Y37250619D01*
X84526285Y37203000D01*
X84478666Y37155381D01*
X84431047Y37060143D01*
X84431047Y36917286D01*
X84478666Y36822048D01*
X84526285Y36774429D01*
X84621523Y36726810D01*
X85002476Y36726810D01*
X83526285Y37250619D02*
X84002476Y37250619D01*
X84050095Y36774429D01*
X84002476Y36822048D01*
X83907238Y36869667D01*
X83669142Y36869667D01*
X83573904Y36822048D01*
X83526285Y36774429D01*
X83478666Y36679190D01*
X83478666Y36441095D01*
X83526285Y36345857D01*
X83573904Y36298238D01*
X83669142Y36250619D01*
X83907238Y36250619D01*
X84002476Y36298238D01*
X84050095Y36345857D01*
X83145333Y37250619D02*
X82526285Y37250619D01*
X82859619Y36869667D01*
X82716761Y36869667D01*
X82621523Y36822048D01*
X82573904Y36774429D01*
X82526285Y36679190D01*
X82526285Y36441095D01*
X82573904Y36345857D01*
X82621523Y36298238D01*
X82716761Y36250619D01*
X83002476Y36250619D01*
X83097714Y36298238D01*
X83145333Y36345857D01*
X81621523Y37250619D02*
X82097714Y37250619D01*
X82145333Y36774429D01*
X82097714Y36822048D01*
X82002476Y36869667D01*
X81764380Y36869667D01*
X81669142Y36822048D01*
X81621523Y36774429D01*
X81573904Y36679190D01*
X81573904Y36441095D01*
X81621523Y36345857D01*
X81669142Y36298238D01*
X81764380Y36250619D01*
X82002476Y36250619D01*
X82097714Y36298238D01*
X82145333Y36345857D01*
X62321070Y47320513D02*
X62368689Y47272894D01*
X62511546Y47225275D01*
X62606784Y47225275D01*
X62749642Y47272894D01*
X62844880Y47368132D01*
X62892499Y47463370D01*
X62940118Y47653846D01*
X62940118Y47796704D01*
X62892499Y47987180D01*
X62844880Y48082418D01*
X62749642Y48177656D01*
X62606784Y48225275D01*
X62511546Y48225275D01*
X62368689Y48177656D01*
X62321070Y48130037D01*
X61463927Y47891942D02*
X61463927Y47225275D01*
X61702023Y48272894D02*
X61940118Y47558608D01*
X61321070Y47558608D01*
X60463927Y48225275D02*
X60940118Y48225275D01*
X60987737Y47749085D01*
X60940118Y47796704D01*
X60844880Y47844323D01*
X60606784Y47844323D01*
X60511546Y47796704D01*
X60463927Y47749085D01*
X60416308Y47653846D01*
X60416308Y47415751D01*
X60463927Y47320513D01*
X60511546Y47272894D01*
X60606784Y47225275D01*
X60844880Y47225275D01*
X60940118Y47272894D01*
X60987737Y47320513D01*
X59844880Y47796704D02*
X59940118Y47844323D01*
X59987737Y47891942D01*
X60035356Y47987180D01*
X60035356Y48034799D01*
X59987737Y48130037D01*
X59940118Y48177656D01*
X59844880Y48225275D01*
X59654403Y48225275D01*
X59559165Y48177656D01*
X59511546Y48130037D01*
X59463927Y48034799D01*
X59463927Y47987180D01*
X59511546Y47891942D01*
X59559165Y47844323D01*
X59654403Y47796704D01*
X59844880Y47796704D01*
X59940118Y47749085D01*
X59987737Y47701466D01*
X60035356Y47606227D01*
X60035356Y47415751D01*
X59987737Y47320513D01*
X59940118Y47272894D01*
X59844880Y47225275D01*
X59654403Y47225275D01*
X59559165Y47272894D01*
X59511546Y47320513D01*
X59463927Y47415751D01*
X59463927Y47606227D01*
X59511546Y47701466D01*
X59559165Y47749085D01*
X59654403Y47796704D01*
X53951143Y44807047D02*
X53998762Y44854666D01*
X54046381Y44997523D01*
X54046381Y45092761D01*
X53998762Y45235619D01*
X53903524Y45330857D01*
X53808286Y45378476D01*
X53617810Y45426095D01*
X53474952Y45426095D01*
X53284476Y45378476D01*
X53189238Y45330857D01*
X53094000Y45235619D01*
X53046381Y45092761D01*
X53046381Y44997523D01*
X53094000Y44854666D01*
X53141619Y44807047D01*
X53379714Y43949904D02*
X54046381Y43949904D01*
X52998762Y44188000D02*
X53713048Y44426095D01*
X53713048Y43807047D01*
X53046381Y42949904D02*
X53046381Y43426095D01*
X53522571Y43473714D01*
X53474952Y43426095D01*
X53427333Y43330857D01*
X53427333Y43092761D01*
X53474952Y42997523D01*
X53522571Y42949904D01*
X53617810Y42902285D01*
X53855905Y42902285D01*
X53951143Y42949904D01*
X53998762Y42997523D01*
X54046381Y43092761D01*
X54046381Y43330857D01*
X53998762Y43426095D01*
X53951143Y43473714D01*
X53046381Y42045142D02*
X53046381Y42235619D01*
X53094000Y42330857D01*
X53141619Y42378476D01*
X53284476Y42473714D01*
X53474952Y42521333D01*
X53855905Y42521333D01*
X53951143Y42473714D01*
X53998762Y42426095D01*
X54046381Y42330857D01*
X54046381Y42140380D01*
X53998762Y42045142D01*
X53951143Y41997523D01*
X53855905Y41949904D01*
X53617810Y41949904D01*
X53522571Y41997523D01*
X53474952Y42045142D01*
X53427333Y42140380D01*
X53427333Y42330857D01*
X53474952Y42426095D01*
X53522571Y42473714D01*
X53617810Y42521333D01*
X44299143Y65508047D02*
X44346762Y65555666D01*
X44394381Y65698523D01*
X44394381Y65793761D01*
X44346762Y65936619D01*
X44251524Y66031857D01*
X44156286Y66079476D01*
X43965810Y66127095D01*
X43822952Y66127095D01*
X43632476Y66079476D01*
X43537238Y66031857D01*
X43442000Y65936619D01*
X43394381Y65793761D01*
X43394381Y65698523D01*
X43442000Y65555666D01*
X43489619Y65508047D01*
X43727714Y64650904D02*
X44394381Y64650904D01*
X43346762Y64889000D02*
X44061048Y65127095D01*
X44061048Y64508047D01*
X43394381Y63650904D02*
X43394381Y64127095D01*
X43870571Y64174714D01*
X43822952Y64127095D01*
X43775333Y64031857D01*
X43775333Y63793761D01*
X43822952Y63698523D01*
X43870571Y63650904D01*
X43965810Y63603285D01*
X44203905Y63603285D01*
X44299143Y63650904D01*
X44346762Y63698523D01*
X44394381Y63793761D01*
X44394381Y64031857D01*
X44346762Y64127095D01*
X44299143Y64174714D01*
X43727714Y62746142D02*
X44394381Y62746142D01*
X43346762Y62984238D02*
X44061048Y63222333D01*
X44061048Y62603285D01*
X42394047Y62761857D02*
X42441666Y62714238D01*
X42584523Y62666619D01*
X42679761Y62666619D01*
X42822619Y62714238D01*
X42917857Y62809476D01*
X42965476Y62904714D01*
X43013095Y63095190D01*
X43013095Y63238048D01*
X42965476Y63428524D01*
X42917857Y63523762D01*
X42822619Y63619000D01*
X42679761Y63666619D01*
X42584523Y63666619D01*
X42441666Y63619000D01*
X42394047Y63571381D01*
X41536904Y63333286D02*
X41536904Y62666619D01*
X41775000Y63714238D02*
X42013095Y62999952D01*
X41394047Y62999952D01*
X40536904Y63666619D02*
X41013095Y63666619D01*
X41060714Y63190429D01*
X41013095Y63238048D01*
X40917857Y63285667D01*
X40679761Y63285667D01*
X40584523Y63238048D01*
X40536904Y63190429D01*
X40489285Y63095190D01*
X40489285Y62857095D01*
X40536904Y62761857D01*
X40584523Y62714238D01*
X40679761Y62666619D01*
X40917857Y62666619D01*
X41013095Y62714238D01*
X41060714Y62761857D01*
X40108333Y63571381D02*
X40060714Y63619000D01*
X39965476Y63666619D01*
X39727380Y63666619D01*
X39632142Y63619000D01*
X39584523Y63571381D01*
X39536904Y63476143D01*
X39536904Y63380905D01*
X39584523Y63238048D01*
X40155952Y62666619D01*
X39536904Y62666619D01*
X35917047Y52347857D02*
X35964666Y52300238D01*
X36107523Y52252619D01*
X36202761Y52252619D01*
X36345619Y52300238D01*
X36440857Y52395476D01*
X36488476Y52490714D01*
X36536095Y52681190D01*
X36536095Y52824048D01*
X36488476Y53014524D01*
X36440857Y53109762D01*
X36345619Y53205000D01*
X36202761Y53252619D01*
X36107523Y53252619D01*
X35964666Y53205000D01*
X35917047Y53157381D01*
X35059904Y52919286D02*
X35059904Y52252619D01*
X35298000Y53300238D02*
X35536095Y52585952D01*
X34917047Y52585952D01*
X34631333Y53252619D02*
X34012285Y53252619D01*
X34345619Y52871667D01*
X34202761Y52871667D01*
X34107523Y52824048D01*
X34059904Y52776429D01*
X34012285Y52681190D01*
X34012285Y52443095D01*
X34059904Y52347857D01*
X34107523Y52300238D01*
X34202761Y52252619D01*
X34488476Y52252619D01*
X34583714Y52300238D01*
X34631333Y52347857D01*
X33631333Y53157381D02*
X33583714Y53205000D01*
X33488476Y53252619D01*
X33250380Y53252619D01*
X33155142Y53205000D01*
X33107523Y53157381D01*
X33059904Y53062143D01*
X33059904Y52966905D01*
X33107523Y52824048D01*
X33678952Y52252619D01*
X33059904Y52252619D01*
X40108143Y49887047D02*
X40155762Y49934666D01*
X40203381Y50077523D01*
X40203381Y50172761D01*
X40155762Y50315619D01*
X40060524Y50410857D01*
X39965286Y50458476D01*
X39774810Y50506095D01*
X39631952Y50506095D01*
X39441476Y50458476D01*
X39346238Y50410857D01*
X39251000Y50315619D01*
X39203381Y50172761D01*
X39203381Y50077523D01*
X39251000Y49934666D01*
X39298619Y49887047D01*
X39536714Y49029904D02*
X40203381Y49029904D01*
X39155762Y49268000D02*
X39870048Y49506095D01*
X39870048Y48887047D01*
X39203381Y48315619D02*
X39203381Y48220380D01*
X39251000Y48125142D01*
X39298619Y48077523D01*
X39393857Y48029904D01*
X39584333Y47982285D01*
X39822429Y47982285D01*
X40012905Y48029904D01*
X40108143Y48077523D01*
X40155762Y48125142D01*
X40203381Y48220380D01*
X40203381Y48315619D01*
X40155762Y48410857D01*
X40108143Y48458476D01*
X40012905Y48506095D01*
X39822429Y48553714D01*
X39584333Y48553714D01*
X39393857Y48506095D01*
X39298619Y48458476D01*
X39251000Y48410857D01*
X39203381Y48315619D01*
X40203381Y47506095D02*
X40203381Y47315619D01*
X40155762Y47220380D01*
X40108143Y47172761D01*
X39965286Y47077523D01*
X39774810Y47029904D01*
X39393857Y47029904D01*
X39298619Y47077523D01*
X39251000Y47125142D01*
X39203381Y47220380D01*
X39203381Y47410857D01*
X39251000Y47506095D01*
X39298619Y47553714D01*
X39393857Y47601333D01*
X39631952Y47601333D01*
X39727190Y47553714D01*
X39774810Y47506095D01*
X39822429Y47410857D01*
X39822429Y47220380D01*
X39774810Y47125142D01*
X39727190Y47077523D01*
X39631952Y47029904D01*
X66778047Y29678357D02*
X66825666Y29630738D01*
X66968523Y29583119D01*
X67063761Y29583119D01*
X67206619Y29630738D01*
X67301857Y29725976D01*
X67349476Y29821214D01*
X67397095Y30011690D01*
X67397095Y30154548D01*
X67349476Y30345024D01*
X67301857Y30440262D01*
X67206619Y30535500D01*
X67063761Y30583119D01*
X66968523Y30583119D01*
X66825666Y30535500D01*
X66778047Y30487881D01*
X65920904Y30249786D02*
X65920904Y29583119D01*
X66159000Y30630738D02*
X66397095Y29916452D01*
X65778047Y29916452D01*
X64968523Y30249786D02*
X64968523Y29583119D01*
X65206619Y30630738D02*
X65444714Y29916452D01*
X64825666Y29916452D01*
X63920904Y29583119D02*
X64492333Y29583119D01*
X64206619Y29583119D02*
X64206619Y30583119D01*
X64301857Y30440262D01*
X64397095Y30345024D01*
X64492333Y30297405D01*
X45315047Y46378857D02*
X45362666Y46331238D01*
X45505523Y46283619D01*
X45600761Y46283619D01*
X45743619Y46331238D01*
X45838857Y46426476D01*
X45886476Y46521714D01*
X45934095Y46712190D01*
X45934095Y46855048D01*
X45886476Y47045524D01*
X45838857Y47140762D01*
X45743619Y47236000D01*
X45600761Y47283619D01*
X45505523Y47283619D01*
X45362666Y47236000D01*
X45315047Y47188381D01*
X44457904Y46950286D02*
X44457904Y46283619D01*
X44696000Y47331238D02*
X44934095Y46616952D01*
X44315047Y46616952D01*
X43743619Y47283619D02*
X43648380Y47283619D01*
X43553142Y47236000D01*
X43505523Y47188381D01*
X43457904Y47093143D01*
X43410285Y46902667D01*
X43410285Y46664571D01*
X43457904Y46474095D01*
X43505523Y46378857D01*
X43553142Y46331238D01*
X43648380Y46283619D01*
X43743619Y46283619D01*
X43838857Y46331238D01*
X43886476Y46378857D01*
X43934095Y46474095D01*
X43981714Y46664571D01*
X43981714Y46902667D01*
X43934095Y47093143D01*
X43886476Y47188381D01*
X43838857Y47236000D01*
X43743619Y47283619D01*
X42838857Y46855048D02*
X42934095Y46902667D01*
X42981714Y46950286D01*
X43029333Y47045524D01*
X43029333Y47093143D01*
X42981714Y47188381D01*
X42934095Y47236000D01*
X42838857Y47283619D01*
X42648380Y47283619D01*
X42553142Y47236000D01*
X42505523Y47188381D01*
X42457904Y47093143D01*
X42457904Y47045524D01*
X42505523Y46950286D01*
X42553142Y46902667D01*
X42648380Y46855048D01*
X42838857Y46855048D01*
X42934095Y46807429D01*
X42981714Y46759810D01*
X43029333Y46664571D01*
X43029333Y46474095D01*
X42981714Y46378857D01*
X42934095Y46331238D01*
X42838857Y46283619D01*
X42648380Y46283619D01*
X42553142Y46331238D01*
X42505523Y46378857D01*
X42457904Y46474095D01*
X42457904Y46664571D01*
X42505523Y46759810D01*
X42553142Y46807429D01*
X42648380Y46855048D01*
X17470381Y85447047D02*
X16994190Y85780381D01*
X17470381Y86018476D02*
X16470381Y86018476D01*
X16470381Y85637523D01*
X16518000Y85542285D01*
X16565619Y85494666D01*
X16660857Y85447047D01*
X16803714Y85447047D01*
X16898952Y85494666D01*
X16946571Y85542285D01*
X16994190Y85637523D01*
X16994190Y86018476D01*
X16470381Y84542285D02*
X16470381Y85018476D01*
X16946571Y85066095D01*
X16898952Y85018476D01*
X16851333Y84923238D01*
X16851333Y84685142D01*
X16898952Y84589904D01*
X16946571Y84542285D01*
X17041810Y84494666D01*
X17279905Y84494666D01*
X17375143Y84542285D01*
X17422762Y84589904D01*
X17470381Y84685142D01*
X17470381Y84923238D01*
X17422762Y85018476D01*
X17375143Y85066095D01*
X17470381Y84018476D02*
X17470381Y83828000D01*
X17422762Y83732761D01*
X17375143Y83685142D01*
X17232286Y83589904D01*
X17041810Y83542285D01*
X16660857Y83542285D01*
X16565619Y83589904D01*
X16518000Y83637523D01*
X16470381Y83732761D01*
X16470381Y83923238D01*
X16518000Y84018476D01*
X16565619Y84066095D01*
X16660857Y84113714D01*
X16898952Y84113714D01*
X16994190Y84066095D01*
X17041810Y84018476D01*
X17089429Y83923238D01*
X17089429Y83732761D01*
X17041810Y83637523D01*
X16994190Y83589904D01*
X16898952Y83542285D01*
X16470381Y82685142D02*
X16470381Y82875619D01*
X16518000Y82970857D01*
X16565619Y83018476D01*
X16708476Y83113714D01*
X16898952Y83161333D01*
X17279905Y83161333D01*
X17375143Y83113714D01*
X17422762Y83066095D01*
X17470381Y82970857D01*
X17470381Y82780380D01*
X17422762Y82685142D01*
X17375143Y82637523D01*
X17279905Y82589904D01*
X17041810Y82589904D01*
X16946571Y82637523D01*
X16898952Y82685142D01*
X16851333Y82780380D01*
X16851333Y82970857D01*
X16898952Y83066095D01*
X16946571Y83113714D01*
X17041810Y83161333D01*
X20010381Y85447047D02*
X19534190Y85780381D01*
X20010381Y86018476D02*
X19010381Y86018476D01*
X19010381Y85637523D01*
X19058000Y85542285D01*
X19105619Y85494666D01*
X19200857Y85447047D01*
X19343714Y85447047D01*
X19438952Y85494666D01*
X19486571Y85542285D01*
X19534190Y85637523D01*
X19534190Y86018476D01*
X19010381Y84542285D02*
X19010381Y85018476D01*
X19486571Y85066095D01*
X19438952Y85018476D01*
X19391333Y84923238D01*
X19391333Y84685142D01*
X19438952Y84589904D01*
X19486571Y84542285D01*
X19581810Y84494666D01*
X19819905Y84494666D01*
X19915143Y84542285D01*
X19962762Y84589904D01*
X20010381Y84685142D01*
X20010381Y84923238D01*
X19962762Y85018476D01*
X19915143Y85066095D01*
X20010381Y84018476D02*
X20010381Y83828000D01*
X19962762Y83732761D01*
X19915143Y83685142D01*
X19772286Y83589904D01*
X19581810Y83542285D01*
X19200857Y83542285D01*
X19105619Y83589904D01*
X19058000Y83637523D01*
X19010381Y83732761D01*
X19010381Y83923238D01*
X19058000Y84018476D01*
X19105619Y84066095D01*
X19200857Y84113714D01*
X19438952Y84113714D01*
X19534190Y84066095D01*
X19581810Y84018476D01*
X19629429Y83923238D01*
X19629429Y83732761D01*
X19581810Y83637523D01*
X19534190Y83589904D01*
X19438952Y83542285D01*
X19010381Y82637523D02*
X19010381Y83113714D01*
X19486571Y83161333D01*
X19438952Y83113714D01*
X19391333Y83018476D01*
X19391333Y82780380D01*
X19438952Y82685142D01*
X19486571Y82637523D01*
X19581810Y82589904D01*
X19819905Y82589904D01*
X19915143Y82637523D01*
X19962762Y82685142D01*
X20010381Y82780380D01*
X20010381Y83018476D01*
X19962762Y83113714D01*
X19915143Y83161333D01*
X22677381Y85447047D02*
X22201190Y85780381D01*
X22677381Y86018476D02*
X21677381Y86018476D01*
X21677381Y85637523D01*
X21725000Y85542285D01*
X21772619Y85494666D01*
X21867857Y85447047D01*
X22010714Y85447047D01*
X22105952Y85494666D01*
X22153571Y85542285D01*
X22201190Y85637523D01*
X22201190Y86018476D01*
X21677381Y84542285D02*
X21677381Y85018476D01*
X22153571Y85066095D01*
X22105952Y85018476D01*
X22058333Y84923238D01*
X22058333Y84685142D01*
X22105952Y84589904D01*
X22153571Y84542285D01*
X22248810Y84494666D01*
X22486905Y84494666D01*
X22582143Y84542285D01*
X22629762Y84589904D01*
X22677381Y84685142D01*
X22677381Y84923238D01*
X22629762Y85018476D01*
X22582143Y85066095D01*
X22677381Y84018476D02*
X22677381Y83828000D01*
X22629762Y83732761D01*
X22582143Y83685142D01*
X22439286Y83589904D01*
X22248810Y83542285D01*
X21867857Y83542285D01*
X21772619Y83589904D01*
X21725000Y83637523D01*
X21677381Y83732761D01*
X21677381Y83923238D01*
X21725000Y84018476D01*
X21772619Y84066095D01*
X21867857Y84113714D01*
X22105952Y84113714D01*
X22201190Y84066095D01*
X22248810Y84018476D01*
X22296429Y83923238D01*
X22296429Y83732761D01*
X22248810Y83637523D01*
X22201190Y83589904D01*
X22105952Y83542285D01*
X22010714Y82685142D02*
X22677381Y82685142D01*
X21629762Y82923238D02*
X22344048Y83161333D01*
X22344048Y82542285D01*
X25217381Y85447047D02*
X24741190Y85780381D01*
X25217381Y86018476D02*
X24217381Y86018476D01*
X24217381Y85637523D01*
X24265000Y85542285D01*
X24312619Y85494666D01*
X24407857Y85447047D01*
X24550714Y85447047D01*
X24645952Y85494666D01*
X24693571Y85542285D01*
X24741190Y85637523D01*
X24741190Y86018476D01*
X24217381Y84542285D02*
X24217381Y85018476D01*
X24693571Y85066095D01*
X24645952Y85018476D01*
X24598333Y84923238D01*
X24598333Y84685142D01*
X24645952Y84589904D01*
X24693571Y84542285D01*
X24788810Y84494666D01*
X25026905Y84494666D01*
X25122143Y84542285D01*
X25169762Y84589904D01*
X25217381Y84685142D01*
X25217381Y84923238D01*
X25169762Y85018476D01*
X25122143Y85066095D01*
X25217381Y84018476D02*
X25217381Y83828000D01*
X25169762Y83732761D01*
X25122143Y83685142D01*
X24979286Y83589904D01*
X24788810Y83542285D01*
X24407857Y83542285D01*
X24312619Y83589904D01*
X24265000Y83637523D01*
X24217381Y83732761D01*
X24217381Y83923238D01*
X24265000Y84018476D01*
X24312619Y84066095D01*
X24407857Y84113714D01*
X24645952Y84113714D01*
X24741190Y84066095D01*
X24788810Y84018476D01*
X24836429Y83923238D01*
X24836429Y83732761D01*
X24788810Y83637523D01*
X24741190Y83589904D01*
X24645952Y83542285D01*
X24217381Y83208952D02*
X24217381Y82589904D01*
X24598333Y82923238D01*
X24598333Y82780380D01*
X24645952Y82685142D01*
X24693571Y82637523D01*
X24788810Y82589904D01*
X25026905Y82589904D01*
X25122143Y82637523D01*
X25169762Y82685142D01*
X25217381Y82780380D01*
X25217381Y83066095D01*
X25169762Y83161333D01*
X25122143Y83208952D01*
X27630381Y85447047D02*
X27154190Y85780381D01*
X27630381Y86018476D02*
X26630381Y86018476D01*
X26630381Y85637523D01*
X26678000Y85542285D01*
X26725619Y85494666D01*
X26820857Y85447047D01*
X26963714Y85447047D01*
X27058952Y85494666D01*
X27106571Y85542285D01*
X27154190Y85637523D01*
X27154190Y86018476D01*
X26630381Y84542285D02*
X26630381Y85018476D01*
X27106571Y85066095D01*
X27058952Y85018476D01*
X27011333Y84923238D01*
X27011333Y84685142D01*
X27058952Y84589904D01*
X27106571Y84542285D01*
X27201810Y84494666D01*
X27439905Y84494666D01*
X27535143Y84542285D01*
X27582762Y84589904D01*
X27630381Y84685142D01*
X27630381Y84923238D01*
X27582762Y85018476D01*
X27535143Y85066095D01*
X27630381Y84018476D02*
X27630381Y83828000D01*
X27582762Y83732761D01*
X27535143Y83685142D01*
X27392286Y83589904D01*
X27201810Y83542285D01*
X26820857Y83542285D01*
X26725619Y83589904D01*
X26678000Y83637523D01*
X26630381Y83732761D01*
X26630381Y83923238D01*
X26678000Y84018476D01*
X26725619Y84066095D01*
X26820857Y84113714D01*
X27058952Y84113714D01*
X27154190Y84066095D01*
X27201810Y84018476D01*
X27249429Y83923238D01*
X27249429Y83732761D01*
X27201810Y83637523D01*
X27154190Y83589904D01*
X27058952Y83542285D01*
X26725619Y83161333D02*
X26678000Y83113714D01*
X26630381Y83018476D01*
X26630381Y82780380D01*
X26678000Y82685142D01*
X26725619Y82637523D01*
X26820857Y82589904D01*
X26916095Y82589904D01*
X27058952Y82637523D01*
X27630381Y83208952D01*
X27630381Y82589904D01*
X30297381Y85447047D02*
X29821190Y85780381D01*
X30297381Y86018476D02*
X29297381Y86018476D01*
X29297381Y85637523D01*
X29345000Y85542285D01*
X29392619Y85494666D01*
X29487857Y85447047D01*
X29630714Y85447047D01*
X29725952Y85494666D01*
X29773571Y85542285D01*
X29821190Y85637523D01*
X29821190Y86018476D01*
X29297381Y84542285D02*
X29297381Y85018476D01*
X29773571Y85066095D01*
X29725952Y85018476D01*
X29678333Y84923238D01*
X29678333Y84685142D01*
X29725952Y84589904D01*
X29773571Y84542285D01*
X29868810Y84494666D01*
X30106905Y84494666D01*
X30202143Y84542285D01*
X30249762Y84589904D01*
X30297381Y84685142D01*
X30297381Y84923238D01*
X30249762Y85018476D01*
X30202143Y85066095D01*
X30297381Y84018476D02*
X30297381Y83828000D01*
X30249762Y83732761D01*
X30202143Y83685142D01*
X30059286Y83589904D01*
X29868810Y83542285D01*
X29487857Y83542285D01*
X29392619Y83589904D01*
X29345000Y83637523D01*
X29297381Y83732761D01*
X29297381Y83923238D01*
X29345000Y84018476D01*
X29392619Y84066095D01*
X29487857Y84113714D01*
X29725952Y84113714D01*
X29821190Y84066095D01*
X29868810Y84018476D01*
X29916429Y83923238D01*
X29916429Y83732761D01*
X29868810Y83637523D01*
X29821190Y83589904D01*
X29725952Y83542285D01*
X30297381Y82589904D02*
X30297381Y83161333D01*
X30297381Y82875619D02*
X29297381Y82875619D01*
X29440238Y82970857D01*
X29535476Y83066095D01*
X29583095Y83161333D01*
X32710381Y85447047D02*
X32234190Y85780381D01*
X32710381Y86018476D02*
X31710381Y86018476D01*
X31710381Y85637523D01*
X31758000Y85542285D01*
X31805619Y85494666D01*
X31900857Y85447047D01*
X32043714Y85447047D01*
X32138952Y85494666D01*
X32186571Y85542285D01*
X32234190Y85637523D01*
X32234190Y86018476D01*
X31710381Y84542285D02*
X31710381Y85018476D01*
X32186571Y85066095D01*
X32138952Y85018476D01*
X32091333Y84923238D01*
X32091333Y84685142D01*
X32138952Y84589904D01*
X32186571Y84542285D01*
X32281810Y84494666D01*
X32519905Y84494666D01*
X32615143Y84542285D01*
X32662762Y84589904D01*
X32710381Y84685142D01*
X32710381Y84923238D01*
X32662762Y85018476D01*
X32615143Y85066095D01*
X32710381Y84018476D02*
X32710381Y83828000D01*
X32662762Y83732761D01*
X32615143Y83685142D01*
X32472286Y83589904D01*
X32281810Y83542285D01*
X31900857Y83542285D01*
X31805619Y83589904D01*
X31758000Y83637523D01*
X31710381Y83732761D01*
X31710381Y83923238D01*
X31758000Y84018476D01*
X31805619Y84066095D01*
X31900857Y84113714D01*
X32138952Y84113714D01*
X32234190Y84066095D01*
X32281810Y84018476D01*
X32329429Y83923238D01*
X32329429Y83732761D01*
X32281810Y83637523D01*
X32234190Y83589904D01*
X32138952Y83542285D01*
X31710381Y82923238D02*
X31710381Y82827999D01*
X31758000Y82732761D01*
X31805619Y82685142D01*
X31900857Y82637523D01*
X32091333Y82589904D01*
X32329429Y82589904D01*
X32519905Y82637523D01*
X32615143Y82685142D01*
X32662762Y82732761D01*
X32710381Y82827999D01*
X32710381Y82923238D01*
X32662762Y83018476D01*
X32615143Y83066095D01*
X32519905Y83113714D01*
X32329429Y83161333D01*
X32091333Y83161333D01*
X31900857Y83113714D01*
X31805619Y83066095D01*
X31758000Y83018476D01*
X31710381Y82923238D01*
X35377381Y85447047D02*
X34901190Y85780381D01*
X35377381Y86018476D02*
X34377381Y86018476D01*
X34377381Y85637523D01*
X34425000Y85542285D01*
X34472619Y85494666D01*
X34567857Y85447047D01*
X34710714Y85447047D01*
X34805952Y85494666D01*
X34853571Y85542285D01*
X34901190Y85637523D01*
X34901190Y86018476D01*
X34377381Y84542285D02*
X34377381Y85018476D01*
X34853571Y85066095D01*
X34805952Y85018476D01*
X34758333Y84923238D01*
X34758333Y84685142D01*
X34805952Y84589904D01*
X34853571Y84542285D01*
X34948810Y84494666D01*
X35186905Y84494666D01*
X35282143Y84542285D01*
X35329762Y84589904D01*
X35377381Y84685142D01*
X35377381Y84923238D01*
X35329762Y85018476D01*
X35282143Y85066095D01*
X34805952Y83923238D02*
X34758333Y84018476D01*
X34710714Y84066095D01*
X34615476Y84113714D01*
X34567857Y84113714D01*
X34472619Y84066095D01*
X34425000Y84018476D01*
X34377381Y83923238D01*
X34377381Y83732761D01*
X34425000Y83637523D01*
X34472619Y83589904D01*
X34567857Y83542285D01*
X34615476Y83542285D01*
X34710714Y83589904D01*
X34758333Y83637523D01*
X34805952Y83732761D01*
X34805952Y83923238D01*
X34853571Y84018476D01*
X34901190Y84066095D01*
X34996429Y84113714D01*
X35186905Y84113714D01*
X35282143Y84066095D01*
X35329762Y84018476D01*
X35377381Y83923238D01*
X35377381Y83732761D01*
X35329762Y83637523D01*
X35282143Y83589904D01*
X35186905Y83542285D01*
X34996429Y83542285D01*
X34901190Y83589904D01*
X34853571Y83637523D01*
X34805952Y83732761D01*
X35377381Y83066095D02*
X35377381Y82875619D01*
X35329762Y82780380D01*
X35282143Y82732761D01*
X35139286Y82637523D01*
X34948810Y82589904D01*
X34567857Y82589904D01*
X34472619Y82637523D01*
X34425000Y82685142D01*
X34377381Y82780380D01*
X34377381Y82970857D01*
X34425000Y83066095D01*
X34472619Y83113714D01*
X34567857Y83161333D01*
X34805952Y83161333D01*
X34901190Y83113714D01*
X34948810Y83066095D01*
X34996429Y82970857D01*
X34996429Y82780380D01*
X34948810Y82685142D01*
X34901190Y82637523D01*
X34805952Y82589904D01*
X51252381Y85447047D02*
X50776190Y85780381D01*
X51252381Y86018476D02*
X50252381Y86018476D01*
X50252381Y85637523D01*
X50300000Y85542285D01*
X50347619Y85494666D01*
X50442857Y85447047D01*
X50585714Y85447047D01*
X50680952Y85494666D01*
X50728571Y85542285D01*
X50776190Y85637523D01*
X50776190Y86018476D01*
X50252381Y84542285D02*
X50252381Y85018476D01*
X50728571Y85066095D01*
X50680952Y85018476D01*
X50633333Y84923238D01*
X50633333Y84685142D01*
X50680952Y84589904D01*
X50728571Y84542285D01*
X50823810Y84494666D01*
X51061905Y84494666D01*
X51157143Y84542285D01*
X51204762Y84589904D01*
X51252381Y84685142D01*
X51252381Y84923238D01*
X51204762Y85018476D01*
X51157143Y85066095D01*
X50680952Y83923238D02*
X50633333Y84018476D01*
X50585714Y84066095D01*
X50490476Y84113714D01*
X50442857Y84113714D01*
X50347619Y84066095D01*
X50300000Y84018476D01*
X50252381Y83923238D01*
X50252381Y83732761D01*
X50300000Y83637523D01*
X50347619Y83589904D01*
X50442857Y83542285D01*
X50490476Y83542285D01*
X50585714Y83589904D01*
X50633333Y83637523D01*
X50680952Y83732761D01*
X50680952Y83923238D01*
X50728571Y84018476D01*
X50776190Y84066095D01*
X50871429Y84113714D01*
X51061905Y84113714D01*
X51157143Y84066095D01*
X51204762Y84018476D01*
X51252381Y83923238D01*
X51252381Y83732761D01*
X51204762Y83637523D01*
X51157143Y83589904D01*
X51061905Y83542285D01*
X50871429Y83542285D01*
X50776190Y83589904D01*
X50728571Y83637523D01*
X50680952Y83732761D01*
X50680952Y82970857D02*
X50633333Y83066095D01*
X50585714Y83113714D01*
X50490476Y83161333D01*
X50442857Y83161333D01*
X50347619Y83113714D01*
X50300000Y83066095D01*
X50252381Y82970857D01*
X50252381Y82780380D01*
X50300000Y82685142D01*
X50347619Y82637523D01*
X50442857Y82589904D01*
X50490476Y82589904D01*
X50585714Y82637523D01*
X50633333Y82685142D01*
X50680952Y82780380D01*
X50680952Y82970857D01*
X50728571Y83066095D01*
X50776190Y83113714D01*
X50871429Y83161333D01*
X51061905Y83161333D01*
X51157143Y83113714D01*
X51204762Y83066095D01*
X51252381Y82970857D01*
X51252381Y82780380D01*
X51204762Y82685142D01*
X51157143Y82637523D01*
X51061905Y82589904D01*
X50871429Y82589904D01*
X50776190Y82637523D01*
X50728571Y82685142D01*
X50680952Y82780380D01*
X53665381Y85447047D02*
X53189190Y85780381D01*
X53665381Y86018476D02*
X52665381Y86018476D01*
X52665381Y85637523D01*
X52713000Y85542285D01*
X52760619Y85494666D01*
X52855857Y85447047D01*
X52998714Y85447047D01*
X53093952Y85494666D01*
X53141571Y85542285D01*
X53189190Y85637523D01*
X53189190Y86018476D01*
X52665381Y84542285D02*
X52665381Y85018476D01*
X53141571Y85066095D01*
X53093952Y85018476D01*
X53046333Y84923238D01*
X53046333Y84685142D01*
X53093952Y84589904D01*
X53141571Y84542285D01*
X53236810Y84494666D01*
X53474905Y84494666D01*
X53570143Y84542285D01*
X53617762Y84589904D01*
X53665381Y84685142D01*
X53665381Y84923238D01*
X53617762Y85018476D01*
X53570143Y85066095D01*
X53093952Y83923238D02*
X53046333Y84018476D01*
X52998714Y84066095D01*
X52903476Y84113714D01*
X52855857Y84113714D01*
X52760619Y84066095D01*
X52713000Y84018476D01*
X52665381Y83923238D01*
X52665381Y83732761D01*
X52713000Y83637523D01*
X52760619Y83589904D01*
X52855857Y83542285D01*
X52903476Y83542285D01*
X52998714Y83589904D01*
X53046333Y83637523D01*
X53093952Y83732761D01*
X53093952Y83923238D01*
X53141571Y84018476D01*
X53189190Y84066095D01*
X53284429Y84113714D01*
X53474905Y84113714D01*
X53570143Y84066095D01*
X53617762Y84018476D01*
X53665381Y83923238D01*
X53665381Y83732761D01*
X53617762Y83637523D01*
X53570143Y83589904D01*
X53474905Y83542285D01*
X53284429Y83542285D01*
X53189190Y83589904D01*
X53141571Y83637523D01*
X53093952Y83732761D01*
X52665381Y83208952D02*
X52665381Y82542285D01*
X53665381Y82970857D01*
X56205381Y85447047D02*
X55729190Y85780381D01*
X56205381Y86018476D02*
X55205381Y86018476D01*
X55205381Y85637523D01*
X55253000Y85542285D01*
X55300619Y85494666D01*
X55395857Y85447047D01*
X55538714Y85447047D01*
X55633952Y85494666D01*
X55681571Y85542285D01*
X55729190Y85637523D01*
X55729190Y86018476D01*
X55205381Y84542285D02*
X55205381Y85018476D01*
X55681571Y85066095D01*
X55633952Y85018476D01*
X55586333Y84923238D01*
X55586333Y84685142D01*
X55633952Y84589904D01*
X55681571Y84542285D01*
X55776810Y84494666D01*
X56014905Y84494666D01*
X56110143Y84542285D01*
X56157762Y84589904D01*
X56205381Y84685142D01*
X56205381Y84923238D01*
X56157762Y85018476D01*
X56110143Y85066095D01*
X55633952Y83923238D02*
X55586333Y84018476D01*
X55538714Y84066095D01*
X55443476Y84113714D01*
X55395857Y84113714D01*
X55300619Y84066095D01*
X55253000Y84018476D01*
X55205381Y83923238D01*
X55205381Y83732761D01*
X55253000Y83637523D01*
X55300619Y83589904D01*
X55395857Y83542285D01*
X55443476Y83542285D01*
X55538714Y83589904D01*
X55586333Y83637523D01*
X55633952Y83732761D01*
X55633952Y83923238D01*
X55681571Y84018476D01*
X55729190Y84066095D01*
X55824429Y84113714D01*
X56014905Y84113714D01*
X56110143Y84066095D01*
X56157762Y84018476D01*
X56205381Y83923238D01*
X56205381Y83732761D01*
X56157762Y83637523D01*
X56110143Y83589904D01*
X56014905Y83542285D01*
X55824429Y83542285D01*
X55729190Y83589904D01*
X55681571Y83637523D01*
X55633952Y83732761D01*
X55205381Y82685142D02*
X55205381Y82875619D01*
X55253000Y82970857D01*
X55300619Y83018476D01*
X55443476Y83113714D01*
X55633952Y83161333D01*
X56014905Y83161333D01*
X56110143Y83113714D01*
X56157762Y83066095D01*
X56205381Y82970857D01*
X56205381Y82780380D01*
X56157762Y82685142D01*
X56110143Y82637523D01*
X56014905Y82589904D01*
X55776810Y82589904D01*
X55681571Y82637523D01*
X55633952Y82685142D01*
X55586333Y82780380D01*
X55586333Y82970857D01*
X55633952Y83066095D01*
X55681571Y83113714D01*
X55776810Y83161333D01*
X58872381Y85447047D02*
X58396190Y85780381D01*
X58872381Y86018476D02*
X57872381Y86018476D01*
X57872381Y85637523D01*
X57920000Y85542285D01*
X57967619Y85494666D01*
X58062857Y85447047D01*
X58205714Y85447047D01*
X58300952Y85494666D01*
X58348571Y85542285D01*
X58396190Y85637523D01*
X58396190Y86018476D01*
X57872381Y84542285D02*
X57872381Y85018476D01*
X58348571Y85066095D01*
X58300952Y85018476D01*
X58253333Y84923238D01*
X58253333Y84685142D01*
X58300952Y84589904D01*
X58348571Y84542285D01*
X58443810Y84494666D01*
X58681905Y84494666D01*
X58777143Y84542285D01*
X58824762Y84589904D01*
X58872381Y84685142D01*
X58872381Y84923238D01*
X58824762Y85018476D01*
X58777143Y85066095D01*
X58300952Y83923238D02*
X58253333Y84018476D01*
X58205714Y84066095D01*
X58110476Y84113714D01*
X58062857Y84113714D01*
X57967619Y84066095D01*
X57920000Y84018476D01*
X57872381Y83923238D01*
X57872381Y83732761D01*
X57920000Y83637523D01*
X57967619Y83589904D01*
X58062857Y83542285D01*
X58110476Y83542285D01*
X58205714Y83589904D01*
X58253333Y83637523D01*
X58300952Y83732761D01*
X58300952Y83923238D01*
X58348571Y84018476D01*
X58396190Y84066095D01*
X58491429Y84113714D01*
X58681905Y84113714D01*
X58777143Y84066095D01*
X58824762Y84018476D01*
X58872381Y83923238D01*
X58872381Y83732761D01*
X58824762Y83637523D01*
X58777143Y83589904D01*
X58681905Y83542285D01*
X58491429Y83542285D01*
X58396190Y83589904D01*
X58348571Y83637523D01*
X58300952Y83732761D01*
X57872381Y82637523D02*
X57872381Y83113714D01*
X58348571Y83161333D01*
X58300952Y83113714D01*
X58253333Y83018476D01*
X58253333Y82780380D01*
X58300952Y82685142D01*
X58348571Y82637523D01*
X58443810Y82589904D01*
X58681905Y82589904D01*
X58777143Y82637523D01*
X58824762Y82685142D01*
X58872381Y82780380D01*
X58872381Y83018476D01*
X58824762Y83113714D01*
X58777143Y83161333D01*
X61412381Y85447047D02*
X60936190Y85780381D01*
X61412381Y86018476D02*
X60412381Y86018476D01*
X60412381Y85637523D01*
X60460000Y85542285D01*
X60507619Y85494666D01*
X60602857Y85447047D01*
X60745714Y85447047D01*
X60840952Y85494666D01*
X60888571Y85542285D01*
X60936190Y85637523D01*
X60936190Y86018476D01*
X60412381Y84542285D02*
X60412381Y85018476D01*
X60888571Y85066095D01*
X60840952Y85018476D01*
X60793333Y84923238D01*
X60793333Y84685142D01*
X60840952Y84589904D01*
X60888571Y84542285D01*
X60983810Y84494666D01*
X61221905Y84494666D01*
X61317143Y84542285D01*
X61364762Y84589904D01*
X61412381Y84685142D01*
X61412381Y84923238D01*
X61364762Y85018476D01*
X61317143Y85066095D01*
X60840952Y83923238D02*
X60793333Y84018476D01*
X60745714Y84066095D01*
X60650476Y84113714D01*
X60602857Y84113714D01*
X60507619Y84066095D01*
X60460000Y84018476D01*
X60412381Y83923238D01*
X60412381Y83732761D01*
X60460000Y83637523D01*
X60507619Y83589904D01*
X60602857Y83542285D01*
X60650476Y83542285D01*
X60745714Y83589904D01*
X60793333Y83637523D01*
X60840952Y83732761D01*
X60840952Y83923238D01*
X60888571Y84018476D01*
X60936190Y84066095D01*
X61031429Y84113714D01*
X61221905Y84113714D01*
X61317143Y84066095D01*
X61364762Y84018476D01*
X61412381Y83923238D01*
X61412381Y83732761D01*
X61364762Y83637523D01*
X61317143Y83589904D01*
X61221905Y83542285D01*
X61031429Y83542285D01*
X60936190Y83589904D01*
X60888571Y83637523D01*
X60840952Y83732761D01*
X60745714Y82685142D02*
X61412381Y82685142D01*
X60364762Y82923238D02*
X61079048Y83161333D01*
X61079048Y82542285D01*
X63698381Y85447047D02*
X63222190Y85780381D01*
X63698381Y86018476D02*
X62698381Y86018476D01*
X62698381Y85637523D01*
X62746000Y85542285D01*
X62793619Y85494666D01*
X62888857Y85447047D01*
X63031714Y85447047D01*
X63126952Y85494666D01*
X63174571Y85542285D01*
X63222190Y85637523D01*
X63222190Y86018476D01*
X62698381Y84542285D02*
X62698381Y85018476D01*
X63174571Y85066095D01*
X63126952Y85018476D01*
X63079333Y84923238D01*
X63079333Y84685142D01*
X63126952Y84589904D01*
X63174571Y84542285D01*
X63269810Y84494666D01*
X63507905Y84494666D01*
X63603143Y84542285D01*
X63650762Y84589904D01*
X63698381Y84685142D01*
X63698381Y84923238D01*
X63650762Y85018476D01*
X63603143Y85066095D01*
X63126952Y83923238D02*
X63079333Y84018476D01*
X63031714Y84066095D01*
X62936476Y84113714D01*
X62888857Y84113714D01*
X62793619Y84066095D01*
X62746000Y84018476D01*
X62698381Y83923238D01*
X62698381Y83732761D01*
X62746000Y83637523D01*
X62793619Y83589904D01*
X62888857Y83542285D01*
X62936476Y83542285D01*
X63031714Y83589904D01*
X63079333Y83637523D01*
X63126952Y83732761D01*
X63126952Y83923238D01*
X63174571Y84018476D01*
X63222190Y84066095D01*
X63317429Y84113714D01*
X63507905Y84113714D01*
X63603143Y84066095D01*
X63650762Y84018476D01*
X63698381Y83923238D01*
X63698381Y83732761D01*
X63650762Y83637523D01*
X63603143Y83589904D01*
X63507905Y83542285D01*
X63317429Y83542285D01*
X63222190Y83589904D01*
X63174571Y83637523D01*
X63126952Y83732761D01*
X62698381Y83208952D02*
X62698381Y82589904D01*
X63079333Y82923238D01*
X63079333Y82780380D01*
X63126952Y82685142D01*
X63174571Y82637523D01*
X63269810Y82589904D01*
X63507905Y82589904D01*
X63603143Y82637523D01*
X63650762Y82685142D01*
X63698381Y82780380D01*
X63698381Y83066095D01*
X63650762Y83161333D01*
X63603143Y83208952D01*
X66492381Y85447047D02*
X66016190Y85780381D01*
X66492381Y86018476D02*
X65492381Y86018476D01*
X65492381Y85637523D01*
X65540000Y85542285D01*
X65587619Y85494666D01*
X65682857Y85447047D01*
X65825714Y85447047D01*
X65920952Y85494666D01*
X65968571Y85542285D01*
X66016190Y85637523D01*
X66016190Y86018476D01*
X65492381Y84542285D02*
X65492381Y85018476D01*
X65968571Y85066095D01*
X65920952Y85018476D01*
X65873333Y84923238D01*
X65873333Y84685142D01*
X65920952Y84589904D01*
X65968571Y84542285D01*
X66063810Y84494666D01*
X66301905Y84494666D01*
X66397143Y84542285D01*
X66444762Y84589904D01*
X66492381Y84685142D01*
X66492381Y84923238D01*
X66444762Y85018476D01*
X66397143Y85066095D01*
X65920952Y83923238D02*
X65873333Y84018476D01*
X65825714Y84066095D01*
X65730476Y84113714D01*
X65682857Y84113714D01*
X65587619Y84066095D01*
X65540000Y84018476D01*
X65492381Y83923238D01*
X65492381Y83732761D01*
X65540000Y83637523D01*
X65587619Y83589904D01*
X65682857Y83542285D01*
X65730476Y83542285D01*
X65825714Y83589904D01*
X65873333Y83637523D01*
X65920952Y83732761D01*
X65920952Y83923238D01*
X65968571Y84018476D01*
X66016190Y84066095D01*
X66111429Y84113714D01*
X66301905Y84113714D01*
X66397143Y84066095D01*
X66444762Y84018476D01*
X66492381Y83923238D01*
X66492381Y83732761D01*
X66444762Y83637523D01*
X66397143Y83589904D01*
X66301905Y83542285D01*
X66111429Y83542285D01*
X66016190Y83589904D01*
X65968571Y83637523D01*
X65920952Y83732761D01*
X65587619Y83161333D02*
X65540000Y83113714D01*
X65492381Y83018476D01*
X65492381Y82780380D01*
X65540000Y82685142D01*
X65587619Y82637523D01*
X65682857Y82589904D01*
X65778095Y82589904D01*
X65920952Y82637523D01*
X66492381Y83208952D01*
X66492381Y82589904D01*
X69032381Y85447047D02*
X68556190Y85780381D01*
X69032381Y86018476D02*
X68032381Y86018476D01*
X68032381Y85637523D01*
X68080000Y85542285D01*
X68127619Y85494666D01*
X68222857Y85447047D01*
X68365714Y85447047D01*
X68460952Y85494666D01*
X68508571Y85542285D01*
X68556190Y85637523D01*
X68556190Y86018476D01*
X68032381Y84542285D02*
X68032381Y85018476D01*
X68508571Y85066095D01*
X68460952Y85018476D01*
X68413333Y84923238D01*
X68413333Y84685142D01*
X68460952Y84589904D01*
X68508571Y84542285D01*
X68603810Y84494666D01*
X68841905Y84494666D01*
X68937143Y84542285D01*
X68984762Y84589904D01*
X69032381Y84685142D01*
X69032381Y84923238D01*
X68984762Y85018476D01*
X68937143Y85066095D01*
X68460952Y83923238D02*
X68413333Y84018476D01*
X68365714Y84066095D01*
X68270476Y84113714D01*
X68222857Y84113714D01*
X68127619Y84066095D01*
X68080000Y84018476D01*
X68032381Y83923238D01*
X68032381Y83732761D01*
X68080000Y83637523D01*
X68127619Y83589904D01*
X68222857Y83542285D01*
X68270476Y83542285D01*
X68365714Y83589904D01*
X68413333Y83637523D01*
X68460952Y83732761D01*
X68460952Y83923238D01*
X68508571Y84018476D01*
X68556190Y84066095D01*
X68651429Y84113714D01*
X68841905Y84113714D01*
X68937143Y84066095D01*
X68984762Y84018476D01*
X69032381Y83923238D01*
X69032381Y83732761D01*
X68984762Y83637523D01*
X68937143Y83589904D01*
X68841905Y83542285D01*
X68651429Y83542285D01*
X68556190Y83589904D01*
X68508571Y83637523D01*
X68460952Y83732761D01*
X69032381Y82589904D02*
X69032381Y83161333D01*
X69032381Y82875619D02*
X68032381Y82875619D01*
X68175238Y82970857D01*
X68270476Y83066095D01*
X68318095Y83161333D01*
X20772381Y26519047D02*
X20296190Y26852381D01*
X20772381Y27090476D02*
X19772381Y27090476D01*
X19772381Y26709523D01*
X19820000Y26614285D01*
X19867619Y26566666D01*
X19962857Y26519047D01*
X20105714Y26519047D01*
X20200952Y26566666D01*
X20248571Y26614285D01*
X20296190Y26709523D01*
X20296190Y27090476D01*
X20105714Y25661904D02*
X20772381Y25661904D01*
X19724762Y25900000D02*
X20439048Y26138095D01*
X20439048Y25519047D01*
X20772381Y24614285D02*
X20772381Y25185714D01*
X20772381Y24900000D02*
X19772381Y24900000D01*
X19915238Y24995238D01*
X20010476Y25090476D01*
X20058095Y25185714D01*
X19867619Y24233333D02*
X19820000Y24185714D01*
X19772381Y24090476D01*
X19772381Y23852380D01*
X19820000Y23757142D01*
X19867619Y23709523D01*
X19962857Y23661904D01*
X20058095Y23661904D01*
X20200952Y23709523D01*
X20772381Y24280952D01*
X20772381Y23661904D01*
X16962381Y26519047D02*
X16486190Y26852381D01*
X16962381Y27090476D02*
X15962381Y27090476D01*
X15962381Y26709523D01*
X16010000Y26614285D01*
X16057619Y26566666D01*
X16152857Y26519047D01*
X16295714Y26519047D01*
X16390952Y26566666D01*
X16438571Y26614285D01*
X16486190Y26709523D01*
X16486190Y27090476D01*
X16295714Y25661904D02*
X16962381Y25661904D01*
X15914762Y25900000D02*
X16629048Y26138095D01*
X16629048Y25519047D01*
X15962381Y24947619D02*
X15962381Y24852380D01*
X16010000Y24757142D01*
X16057619Y24709523D01*
X16152857Y24661904D01*
X16343333Y24614285D01*
X16581429Y24614285D01*
X16771905Y24661904D01*
X16867143Y24709523D01*
X16914762Y24757142D01*
X16962381Y24852380D01*
X16962381Y24947619D01*
X16914762Y25042857D01*
X16867143Y25090476D01*
X16771905Y25138095D01*
X16581429Y25185714D01*
X16343333Y25185714D01*
X16152857Y25138095D01*
X16057619Y25090476D01*
X16010000Y25042857D01*
X15962381Y24947619D01*
X16962381Y24138095D02*
X16962381Y23947619D01*
X16914762Y23852380D01*
X16867143Y23804761D01*
X16724286Y23709523D01*
X16533810Y23661904D01*
X16152857Y23661904D01*
X16057619Y23709523D01*
X16010000Y23757142D01*
X15962381Y23852380D01*
X15962381Y24042857D01*
X16010000Y24138095D01*
X16057619Y24185714D01*
X16152857Y24233333D01*
X16390952Y24233333D01*
X16486190Y24185714D01*
X16533810Y24138095D01*
X16581429Y24042857D01*
X16581429Y23852380D01*
X16533810Y23757142D01*
X16486190Y23709523D01*
X16390952Y23661904D01*
X13152381Y26519047D02*
X12676190Y26852381D01*
X13152381Y27090476D02*
X12152381Y27090476D01*
X12152381Y26709523D01*
X12200000Y26614285D01*
X12247619Y26566666D01*
X12342857Y26519047D01*
X12485714Y26519047D01*
X12580952Y26566666D01*
X12628571Y26614285D01*
X12676190Y26709523D01*
X12676190Y27090476D01*
X12485714Y25661904D02*
X13152381Y25661904D01*
X12104762Y25900000D02*
X12819048Y26138095D01*
X12819048Y25519047D01*
X12152381Y24947619D02*
X12152381Y24852380D01*
X12200000Y24757142D01*
X12247619Y24709523D01*
X12342857Y24661904D01*
X12533333Y24614285D01*
X12771429Y24614285D01*
X12961905Y24661904D01*
X13057143Y24709523D01*
X13104762Y24757142D01*
X13152381Y24852380D01*
X13152381Y24947619D01*
X13104762Y25042857D01*
X13057143Y25090476D01*
X12961905Y25138095D01*
X12771429Y25185714D01*
X12533333Y25185714D01*
X12342857Y25138095D01*
X12247619Y25090476D01*
X12200000Y25042857D01*
X12152381Y24947619D01*
X12152381Y24280952D02*
X12152381Y23614285D01*
X13152381Y24042857D01*
X7716981Y22632847D02*
X7240790Y22966181D01*
X7716981Y23204276D02*
X6716981Y23204276D01*
X6716981Y22823323D01*
X6764600Y22728085D01*
X6812219Y22680466D01*
X6907457Y22632847D01*
X7050314Y22632847D01*
X7145552Y22680466D01*
X7193171Y22728085D01*
X7240790Y22823323D01*
X7240790Y23204276D01*
X7050314Y21775704D02*
X7716981Y21775704D01*
X6669362Y22013800D02*
X7383648Y22251895D01*
X7383648Y21632847D01*
X6716981Y21061419D02*
X6716981Y20966180D01*
X6764600Y20870942D01*
X6812219Y20823323D01*
X6907457Y20775704D01*
X7097933Y20728085D01*
X7336029Y20728085D01*
X7526505Y20775704D01*
X7621743Y20823323D01*
X7669362Y20870942D01*
X7716981Y20966180D01*
X7716981Y21061419D01*
X7669362Y21156657D01*
X7621743Y21204276D01*
X7526505Y21251895D01*
X7336029Y21299514D01*
X7097933Y21299514D01*
X6907457Y21251895D01*
X6812219Y21204276D01*
X6764600Y21156657D01*
X6716981Y21061419D01*
X6716981Y19823323D02*
X6716981Y20299514D01*
X7193171Y20347133D01*
X7145552Y20299514D01*
X7097933Y20204276D01*
X7097933Y19966180D01*
X7145552Y19870942D01*
X7193171Y19823323D01*
X7288410Y19775704D01*
X7526505Y19775704D01*
X7621743Y19823323D01*
X7669362Y19870942D01*
X7716981Y19966180D01*
X7716981Y20204276D01*
X7669362Y20299514D01*
X7621743Y20347133D01*
X4008381Y22709047D02*
X3532190Y23042381D01*
X4008381Y23280476D02*
X3008381Y23280476D01*
X3008381Y22899523D01*
X3056000Y22804285D01*
X3103619Y22756666D01*
X3198857Y22709047D01*
X3341714Y22709047D01*
X3436952Y22756666D01*
X3484571Y22804285D01*
X3532190Y22899523D01*
X3532190Y23280476D01*
X3341714Y21851904D02*
X4008381Y21851904D01*
X2960762Y22090000D02*
X3675048Y22328095D01*
X3675048Y21709047D01*
X3008381Y21137619D02*
X3008381Y21042380D01*
X3056000Y20947142D01*
X3103619Y20899523D01*
X3198857Y20851904D01*
X3389333Y20804285D01*
X3627429Y20804285D01*
X3817905Y20851904D01*
X3913143Y20899523D01*
X3960762Y20947142D01*
X4008381Y21042380D01*
X4008381Y21137619D01*
X3960762Y21232857D01*
X3913143Y21280476D01*
X3817905Y21328095D01*
X3627429Y21375714D01*
X3389333Y21375714D01*
X3198857Y21328095D01*
X3103619Y21280476D01*
X3056000Y21232857D01*
X3008381Y21137619D01*
X4008381Y19851904D02*
X4008381Y20423333D01*
X4008381Y20137619D02*
X3008381Y20137619D01*
X3151238Y20232857D01*
X3246476Y20328095D01*
X3294095Y20423333D01*
X84431047Y33583619D02*
X84764381Y34059810D01*
X85002476Y33583619D02*
X85002476Y34583619D01*
X84621523Y34583619D01*
X84526285Y34536000D01*
X84478666Y34488381D01*
X84431047Y34393143D01*
X84431047Y34250286D01*
X84478666Y34155048D01*
X84526285Y34107429D01*
X84621523Y34059810D01*
X85002476Y34059810D01*
X83526285Y34583619D02*
X84002476Y34583619D01*
X84050095Y34107429D01*
X84002476Y34155048D01*
X83907238Y34202667D01*
X83669142Y34202667D01*
X83573904Y34155048D01*
X83526285Y34107429D01*
X83478666Y34012190D01*
X83478666Y33774095D01*
X83526285Y33678857D01*
X83573904Y33631238D01*
X83669142Y33583619D01*
X83907238Y33583619D01*
X84002476Y33631238D01*
X84050095Y33678857D01*
X83145333Y34583619D02*
X82526285Y34583619D01*
X82859619Y34202667D01*
X82716761Y34202667D01*
X82621523Y34155048D01*
X82573904Y34107429D01*
X82526285Y34012190D01*
X82526285Y33774095D01*
X82573904Y33678857D01*
X82621523Y33631238D01*
X82716761Y33583619D01*
X83002476Y33583619D01*
X83097714Y33631238D01*
X83145333Y33678857D01*
X81669142Y34250286D02*
X81669142Y33583619D01*
X81907238Y34631238D02*
X82145333Y33916952D01*
X81526285Y33916952D01*
X84431047Y31043619D02*
X84764381Y31519810D01*
X85002476Y31043619D02*
X85002476Y32043619D01*
X84621523Y32043619D01*
X84526285Y31996000D01*
X84478666Y31948381D01*
X84431047Y31853143D01*
X84431047Y31710286D01*
X84478666Y31615048D01*
X84526285Y31567429D01*
X84621523Y31519810D01*
X85002476Y31519810D01*
X83526285Y32043619D02*
X84002476Y32043619D01*
X84050095Y31567429D01*
X84002476Y31615048D01*
X83907238Y31662667D01*
X83669142Y31662667D01*
X83573904Y31615048D01*
X83526285Y31567429D01*
X83478666Y31472190D01*
X83478666Y31234095D01*
X83526285Y31138857D01*
X83573904Y31091238D01*
X83669142Y31043619D01*
X83907238Y31043619D01*
X84002476Y31091238D01*
X84050095Y31138857D01*
X83145333Y32043619D02*
X82526285Y32043619D01*
X82859619Y31662667D01*
X82716761Y31662667D01*
X82621523Y31615048D01*
X82573904Y31567429D01*
X82526285Y31472190D01*
X82526285Y31234095D01*
X82573904Y31138857D01*
X82621523Y31091238D01*
X82716761Y31043619D01*
X83002476Y31043619D01*
X83097714Y31091238D01*
X83145333Y31138857D01*
X82192952Y32043619D02*
X81573904Y32043619D01*
X81907238Y31662667D01*
X81764380Y31662667D01*
X81669142Y31615048D01*
X81621523Y31567429D01*
X81573904Y31472190D01*
X81573904Y31234095D01*
X81621523Y31138857D01*
X81669142Y31091238D01*
X81764380Y31043619D01*
X82050095Y31043619D01*
X82145333Y31091238D01*
X82192952Y31138857D01*
X87574381Y15851047D02*
X87098190Y16184381D01*
X87574381Y16422476D02*
X86574381Y16422476D01*
X86574381Y16041523D01*
X86622000Y15946285D01*
X86669619Y15898666D01*
X86764857Y15851047D01*
X86907714Y15851047D01*
X87002952Y15898666D01*
X87050571Y15946285D01*
X87098190Y16041523D01*
X87098190Y16422476D01*
X86574381Y15517714D02*
X86574381Y14898666D01*
X86955333Y15232000D01*
X86955333Y15089142D01*
X87002952Y14993904D01*
X87050571Y14946285D01*
X87145810Y14898666D01*
X87383905Y14898666D01*
X87479143Y14946285D01*
X87526762Y14993904D01*
X87574381Y15089142D01*
X87574381Y15374857D01*
X87526762Y15470095D01*
X87479143Y15517714D01*
X86574381Y14279619D02*
X86574381Y14184380D01*
X86622000Y14089142D01*
X86669619Y14041523D01*
X86764857Y13993904D01*
X86955333Y13946285D01*
X87193429Y13946285D01*
X87383905Y13993904D01*
X87479143Y14041523D01*
X87526762Y14089142D01*
X87574381Y14184380D01*
X87574381Y14279619D01*
X87526762Y14374857D01*
X87479143Y14422476D01*
X87383905Y14470095D01*
X87193429Y14517714D01*
X86955333Y14517714D01*
X86764857Y14470095D01*
X86669619Y14422476D01*
X86622000Y14374857D01*
X86574381Y14279619D01*
X86669619Y13565333D02*
X86622000Y13517714D01*
X86574381Y13422476D01*
X86574381Y13184380D01*
X86622000Y13089142D01*
X86669619Y13041523D01*
X86764857Y12993904D01*
X86860095Y12993904D01*
X87002952Y13041523D01*
X87574381Y13612952D01*
X87574381Y12993904D01*
X78843047Y1325619D02*
X79176381Y1801810D01*
X79414476Y1325619D02*
X79414476Y2325619D01*
X79033523Y2325619D01*
X78938285Y2278000D01*
X78890666Y2230381D01*
X78843047Y2135143D01*
X78843047Y1992286D01*
X78890666Y1897048D01*
X78938285Y1849429D01*
X79033523Y1801810D01*
X79414476Y1801810D01*
X78509714Y2325619D02*
X77890666Y2325619D01*
X78224000Y1944667D01*
X78081142Y1944667D01*
X77985904Y1897048D01*
X77938285Y1849429D01*
X77890666Y1754190D01*
X77890666Y1516095D01*
X77938285Y1420857D01*
X77985904Y1373238D01*
X78081142Y1325619D01*
X78366857Y1325619D01*
X78462095Y1373238D01*
X78509714Y1420857D01*
X77271619Y2325619D02*
X77176380Y2325619D01*
X77081142Y2278000D01*
X77033523Y2230381D01*
X76985904Y2135143D01*
X76938285Y1944667D01*
X76938285Y1706571D01*
X76985904Y1516095D01*
X77033523Y1420857D01*
X77081142Y1373238D01*
X77176380Y1325619D01*
X77271619Y1325619D01*
X77366857Y1373238D01*
X77414476Y1420857D01*
X77462095Y1516095D01*
X77509714Y1706571D01*
X77509714Y1944667D01*
X77462095Y2135143D01*
X77414476Y2230381D01*
X77366857Y2278000D01*
X77271619Y2325619D01*
X75985904Y1325619D02*
X76557333Y1325619D01*
X76271619Y1325619D02*
X76271619Y2325619D01*
X76366857Y2182762D01*
X76462095Y2087524D01*
X76557333Y2039905D01*
X13152381Y11787047D02*
X12676190Y12120381D01*
X13152381Y12358476D02*
X12152381Y12358476D01*
X12152381Y11977523D01*
X12200000Y11882285D01*
X12247619Y11834666D01*
X12342857Y11787047D01*
X12485714Y11787047D01*
X12580952Y11834666D01*
X12628571Y11882285D01*
X12676190Y11977523D01*
X12676190Y12358476D01*
X12247619Y11406095D02*
X12200000Y11358476D01*
X12152381Y11263238D01*
X12152381Y11025142D01*
X12200000Y10929904D01*
X12247619Y10882285D01*
X12342857Y10834666D01*
X12438095Y10834666D01*
X12580952Y10882285D01*
X13152381Y11453714D01*
X13152381Y10834666D01*
X12247619Y10453714D02*
X12200000Y10406095D01*
X12152381Y10310857D01*
X12152381Y10072761D01*
X12200000Y9977523D01*
X12247619Y9929904D01*
X12342857Y9882285D01*
X12438095Y9882285D01*
X12580952Y9929904D01*
X13152381Y10501333D01*
X13152381Y9882285D01*
X12152381Y9025142D02*
X12152381Y9215619D01*
X12200000Y9310857D01*
X12247619Y9358476D01*
X12390476Y9453714D01*
X12580952Y9501333D01*
X12961905Y9501333D01*
X13057143Y9453714D01*
X13104762Y9406095D01*
X13152381Y9310857D01*
X13152381Y9120380D01*
X13104762Y9025142D01*
X13057143Y8977523D01*
X12961905Y8929904D01*
X12723810Y8929904D01*
X12628571Y8977523D01*
X12580952Y9025142D01*
X12533333Y9120380D01*
X12533333Y9310857D01*
X12580952Y9406095D01*
X12628571Y9453714D01*
X12723810Y9501333D01*
X10517047Y46156619D02*
X10850381Y46632810D01*
X11088476Y46156619D02*
X11088476Y47156619D01*
X10707523Y47156619D01*
X10612285Y47109000D01*
X10564666Y47061381D01*
X10517047Y46966143D01*
X10517047Y46823286D01*
X10564666Y46728048D01*
X10612285Y46680429D01*
X10707523Y46632810D01*
X11088476Y46632810D01*
X10136095Y47061381D02*
X10088476Y47109000D01*
X9993238Y47156619D01*
X9755142Y47156619D01*
X9659904Y47109000D01*
X9612285Y47061381D01*
X9564666Y46966143D01*
X9564666Y46870905D01*
X9612285Y46728048D01*
X10183714Y46156619D01*
X9564666Y46156619D01*
X8945619Y47156619D02*
X8850380Y47156619D01*
X8755142Y47109000D01*
X8707523Y47061381D01*
X8659904Y46966143D01*
X8612285Y46775667D01*
X8612285Y46537571D01*
X8659904Y46347095D01*
X8707523Y46251857D01*
X8755142Y46204238D01*
X8850380Y46156619D01*
X8945619Y46156619D01*
X9040857Y46204238D01*
X9088476Y46251857D01*
X9136095Y46347095D01*
X9183714Y46537571D01*
X9183714Y46775667D01*
X9136095Y46966143D01*
X9088476Y47061381D01*
X9040857Y47109000D01*
X8945619Y47156619D01*
X7755142Y46823286D02*
X7755142Y46156619D01*
X7993238Y47204238D02*
X8231333Y46489952D01*
X7612285Y46489952D01*
X20347047Y42727619D02*
X20680381Y43203810D01*
X20918476Y42727619D02*
X20918476Y43727619D01*
X20537523Y43727619D01*
X20442285Y43680000D01*
X20394666Y43632381D01*
X20347047Y43537143D01*
X20347047Y43394286D01*
X20394666Y43299048D01*
X20442285Y43251429D01*
X20537523Y43203810D01*
X20918476Y43203810D01*
X19966095Y43632381D02*
X19918476Y43680000D01*
X19823238Y43727619D01*
X19585142Y43727619D01*
X19489904Y43680000D01*
X19442285Y43632381D01*
X19394666Y43537143D01*
X19394666Y43441905D01*
X19442285Y43299048D01*
X20013714Y42727619D01*
X19394666Y42727619D01*
X19013714Y43632381D02*
X18966095Y43680000D01*
X18870857Y43727619D01*
X18632761Y43727619D01*
X18537523Y43680000D01*
X18489904Y43632381D01*
X18442285Y43537143D01*
X18442285Y43441905D01*
X18489904Y43299048D01*
X19061333Y42727619D01*
X18442285Y42727619D01*
X17823238Y43727619D02*
X17727999Y43727619D01*
X17632761Y43680000D01*
X17585142Y43632381D01*
X17537523Y43537143D01*
X17489904Y43346667D01*
X17489904Y43108571D01*
X17537523Y42918095D01*
X17585142Y42822857D01*
X17632761Y42775238D01*
X17727999Y42727619D01*
X17823238Y42727619D01*
X17918476Y42775238D01*
X17966095Y42822857D01*
X18013714Y42918095D01*
X18061333Y43108571D01*
X18061333Y43346667D01*
X18013714Y43537143D01*
X17966095Y43632381D01*
X17918476Y43680000D01*
X17823238Y43727619D01*
X16359047Y48188619D02*
X16692381Y48664810D01*
X16930476Y48188619D02*
X16930476Y49188619D01*
X16549523Y49188619D01*
X16454285Y49141000D01*
X16406666Y49093381D01*
X16359047Y48998143D01*
X16359047Y48855286D01*
X16406666Y48760048D01*
X16454285Y48712429D01*
X16549523Y48664810D01*
X16930476Y48664810D01*
X15978095Y49093381D02*
X15930476Y49141000D01*
X15835238Y49188619D01*
X15597142Y49188619D01*
X15501904Y49141000D01*
X15454285Y49093381D01*
X15406666Y48998143D01*
X15406666Y48902905D01*
X15454285Y48760048D01*
X16025714Y48188619D01*
X15406666Y48188619D01*
X15025714Y49093381D02*
X14978095Y49141000D01*
X14882857Y49188619D01*
X14644761Y49188619D01*
X14549523Y49141000D01*
X14501904Y49093381D01*
X14454285Y48998143D01*
X14454285Y48902905D01*
X14501904Y48760048D01*
X15073333Y48188619D01*
X14454285Y48188619D01*
X13501904Y48188619D02*
X14073333Y48188619D01*
X13787619Y48188619D02*
X13787619Y49188619D01*
X13882857Y49045762D01*
X13978095Y48950524D01*
X14073333Y48902905D01*
X27281047Y55427619D02*
X27614381Y55903810D01*
X27852476Y55427619D02*
X27852476Y56427619D01*
X27471523Y56427619D01*
X27376285Y56380000D01*
X27328666Y56332381D01*
X27281047Y56237143D01*
X27281047Y56094286D01*
X27328666Y55999048D01*
X27376285Y55951429D01*
X27471523Y55903810D01*
X27852476Y55903810D01*
X26900095Y56332381D02*
X26852476Y56380000D01*
X26757238Y56427619D01*
X26519142Y56427619D01*
X26423904Y56380000D01*
X26376285Y56332381D01*
X26328666Y56237143D01*
X26328666Y56141905D01*
X26376285Y55999048D01*
X26947714Y55427619D01*
X26328666Y55427619D01*
X25709619Y56427619D02*
X25614380Y56427619D01*
X25519142Y56380000D01*
X25471523Y56332381D01*
X25423904Y56237143D01*
X25376285Y56046667D01*
X25376285Y55808571D01*
X25423904Y55618095D01*
X25471523Y55522857D01*
X25519142Y55475238D01*
X25614380Y55427619D01*
X25709619Y55427619D01*
X25804857Y55475238D01*
X25852476Y55522857D01*
X25900095Y55618095D01*
X25947714Y55808571D01*
X25947714Y56046667D01*
X25900095Y56237143D01*
X25852476Y56332381D01*
X25804857Y56380000D01*
X25709619Y56427619D01*
X24519142Y56427619D02*
X24709619Y56427619D01*
X24804857Y56380000D01*
X24852476Y56332381D01*
X24947714Y56189524D01*
X24995333Y55999048D01*
X24995333Y55618095D01*
X24947714Y55522857D01*
X24900095Y55475238D01*
X24804857Y55427619D01*
X24614380Y55427619D01*
X24519142Y55475238D01*
X24471523Y55522857D01*
X24423904Y55618095D01*
X24423904Y55856190D01*
X24471523Y55951429D01*
X24519142Y55999048D01*
X24614380Y56046667D01*
X24804857Y56046667D01*
X24900095Y55999048D01*
X24947714Y55951429D01*
X24995333Y55856190D01*
X23471047Y51236619D02*
X23804381Y51712810D01*
X24042476Y51236619D02*
X24042476Y52236619D01*
X23661523Y52236619D01*
X23566285Y52189000D01*
X23518666Y52141381D01*
X23471047Y52046143D01*
X23471047Y51903286D01*
X23518666Y51808048D01*
X23566285Y51760429D01*
X23661523Y51712810D01*
X24042476Y51712810D01*
X23090095Y52141381D02*
X23042476Y52189000D01*
X22947238Y52236619D01*
X22709142Y52236619D01*
X22613904Y52189000D01*
X22566285Y52141381D01*
X22518666Y52046143D01*
X22518666Y51950905D01*
X22566285Y51808048D01*
X23137714Y51236619D01*
X22518666Y51236619D01*
X21899619Y52236619D02*
X21804380Y52236619D01*
X21709142Y52189000D01*
X21661523Y52141381D01*
X21613904Y52046143D01*
X21566285Y51855667D01*
X21566285Y51617571D01*
X21613904Y51427095D01*
X21661523Y51331857D01*
X21709142Y51284238D01*
X21804380Y51236619D01*
X21899619Y51236619D01*
X21994857Y51284238D01*
X22042476Y51331857D01*
X22090095Y51427095D01*
X22137714Y51617571D01*
X22137714Y51855667D01*
X22090095Y52046143D01*
X22042476Y52141381D01*
X21994857Y52189000D01*
X21899619Y52236619D01*
X20613904Y51236619D02*
X21185333Y51236619D01*
X20899619Y51236619D02*
X20899619Y52236619D01*
X20994857Y52093762D01*
X21090095Y51998524D01*
X21185333Y51950905D01*
X19248381Y32361047D02*
X18772190Y32694381D01*
X19248381Y32932476D02*
X18248381Y32932476D01*
X18248381Y32551523D01*
X18296000Y32456285D01*
X18343619Y32408666D01*
X18438857Y32361047D01*
X18581714Y32361047D01*
X18676952Y32408666D01*
X18724571Y32456285D01*
X18772190Y32551523D01*
X18772190Y32932476D01*
X18343619Y31980095D02*
X18296000Y31932476D01*
X18248381Y31837238D01*
X18248381Y31599142D01*
X18296000Y31503904D01*
X18343619Y31456285D01*
X18438857Y31408666D01*
X18534095Y31408666D01*
X18676952Y31456285D01*
X19248381Y32027714D01*
X19248381Y31408666D01*
X18248381Y30789619D02*
X18248381Y30694380D01*
X18296000Y30599142D01*
X18343619Y30551523D01*
X18438857Y30503904D01*
X18629333Y30456285D01*
X18867429Y30456285D01*
X19057905Y30503904D01*
X19153143Y30551523D01*
X19200762Y30599142D01*
X19248381Y30694380D01*
X19248381Y30789619D01*
X19200762Y30884857D01*
X19153143Y30932476D01*
X19057905Y30980095D01*
X18867429Y31027714D01*
X18629333Y31027714D01*
X18438857Y30980095D01*
X18343619Y30932476D01*
X18296000Y30884857D01*
X18248381Y30789619D01*
X18343619Y30075333D02*
X18296000Y30027714D01*
X18248381Y29932476D01*
X18248381Y29694380D01*
X18296000Y29599142D01*
X18343619Y29551523D01*
X18438857Y29503904D01*
X18534095Y29503904D01*
X18676952Y29551523D01*
X19248381Y30122952D01*
X19248381Y29503904D01*
X27281047Y57967619D02*
X27614381Y58443810D01*
X27852476Y57967619D02*
X27852476Y58967619D01*
X27471523Y58967619D01*
X27376285Y58920000D01*
X27328666Y58872381D01*
X27281047Y58777143D01*
X27281047Y58634286D01*
X27328666Y58539048D01*
X27376285Y58491429D01*
X27471523Y58443810D01*
X27852476Y58443810D01*
X26900095Y58872381D02*
X26852476Y58920000D01*
X26757238Y58967619D01*
X26519142Y58967619D01*
X26423904Y58920000D01*
X26376285Y58872381D01*
X26328666Y58777143D01*
X26328666Y58681905D01*
X26376285Y58539048D01*
X26947714Y57967619D01*
X26328666Y57967619D01*
X25947714Y58872381D02*
X25900095Y58920000D01*
X25804857Y58967619D01*
X25566761Y58967619D01*
X25471523Y58920000D01*
X25423904Y58872381D01*
X25376285Y58777143D01*
X25376285Y58681905D01*
X25423904Y58539048D01*
X25995333Y57967619D01*
X25376285Y57967619D01*
X25042952Y58967619D02*
X24423904Y58967619D01*
X24757238Y58586667D01*
X24614380Y58586667D01*
X24519142Y58539048D01*
X24471523Y58491429D01*
X24423904Y58396190D01*
X24423904Y58158095D01*
X24471523Y58062857D01*
X24519142Y58015238D01*
X24614380Y57967619D01*
X24900095Y57967619D01*
X24995333Y58015238D01*
X25042952Y58062857D01*
X25503047Y30154619D02*
X25836381Y30630810D01*
X26074476Y30154619D02*
X26074476Y31154619D01*
X25693523Y31154619D01*
X25598285Y31107000D01*
X25550666Y31059381D01*
X25503047Y30964143D01*
X25503047Y30821286D01*
X25550666Y30726048D01*
X25598285Y30678429D01*
X25693523Y30630810D01*
X26074476Y30630810D01*
X25122095Y31059381D02*
X25074476Y31107000D01*
X24979238Y31154619D01*
X24741142Y31154619D01*
X24645904Y31107000D01*
X24598285Y31059381D01*
X24550666Y30964143D01*
X24550666Y30868905D01*
X24598285Y30726048D01*
X25169714Y30154619D01*
X24550666Y30154619D01*
X23598285Y30154619D02*
X24169714Y30154619D01*
X23884000Y30154619D02*
X23884000Y31154619D01*
X23979238Y31011762D01*
X24074476Y30916524D01*
X24169714Y30868905D01*
X23122095Y30154619D02*
X22931619Y30154619D01*
X22836380Y30202238D01*
X22788761Y30249857D01*
X22693523Y30392714D01*
X22645904Y30583190D01*
X22645904Y30964143D01*
X22693523Y31059381D01*
X22741142Y31107000D01*
X22836380Y31154619D01*
X23026857Y31154619D01*
X23122095Y31107000D01*
X23169714Y31059381D01*
X23217333Y30964143D01*
X23217333Y30726048D01*
X23169714Y30630810D01*
X23122095Y30583190D01*
X23026857Y30535571D01*
X22836380Y30535571D01*
X22741142Y30583190D01*
X22693523Y30630810D01*
X22645904Y30726048D01*
X70937381Y7596047D02*
X70937381Y8072238D01*
X69937381Y8072238D01*
X69937381Y7357952D02*
X69937381Y6738904D01*
X70318333Y7072238D01*
X70318333Y6929380D01*
X70365952Y6834142D01*
X70413571Y6786523D01*
X70508810Y6738904D01*
X70746905Y6738904D01*
X70842143Y6786523D01*
X70889762Y6834142D01*
X70937381Y6929380D01*
X70937381Y7215095D01*
X70889762Y7310333D01*
X70842143Y7357952D01*
X69937381Y6119857D02*
X69937381Y6024618D01*
X69985000Y5929380D01*
X70032619Y5881761D01*
X70127857Y5834142D01*
X70318333Y5786523D01*
X70556429Y5786523D01*
X70746905Y5834142D01*
X70842143Y5881761D01*
X70889762Y5929380D01*
X70937381Y6024618D01*
X70937381Y6119857D01*
X70889762Y6215095D01*
X70842143Y6262714D01*
X70746905Y6310333D01*
X70556429Y6357952D01*
X70318333Y6357952D01*
X70127857Y6310333D01*
X70032619Y6262714D01*
X69985000Y6215095D01*
X69937381Y6119857D01*
X70937381Y4834142D02*
X70937381Y5405571D01*
X70937381Y5119857D02*
X69937381Y5119857D01*
X70080238Y5215095D01*
X70175476Y5310333D01*
X70223095Y5405571D01*
X62841047Y37361857D02*
X62888666Y37314238D01*
X63031523Y37266619D01*
X63126761Y37266619D01*
X63269619Y37314238D01*
X63364857Y37409476D01*
X63412476Y37504714D01*
X63460095Y37695190D01*
X63460095Y37838048D01*
X63412476Y38028524D01*
X63364857Y38123762D01*
X63269619Y38219000D01*
X63126761Y38266619D01*
X63031523Y38266619D01*
X62888666Y38219000D01*
X62841047Y38171381D01*
X61983904Y37933286D02*
X61983904Y37266619D01*
X62222000Y38314238D02*
X62460095Y37599952D01*
X61841047Y37599952D01*
X61031523Y37933286D02*
X61031523Y37266619D01*
X61269619Y38314238D02*
X61507714Y37599952D01*
X60888666Y37599952D01*
X60317238Y38266619D02*
X60221999Y38266619D01*
X60126761Y38219000D01*
X60079142Y38171381D01*
X60031523Y38076143D01*
X59983904Y37885667D01*
X59983904Y37647571D01*
X60031523Y37457095D01*
X60079142Y37361857D01*
X60126761Y37314238D01*
X60221999Y37266619D01*
X60317238Y37266619D01*
X60412476Y37314238D01*
X60460095Y37361857D01*
X60507714Y37457095D01*
X60555333Y37647571D01*
X60555333Y37885667D01*
X60507714Y38076143D01*
X60460095Y38171381D01*
X60412476Y38219000D01*
X60317238Y38266619D01*
X45823047Y31773857D02*
X45870666Y31726238D01*
X46013523Y31678619D01*
X46108761Y31678619D01*
X46251619Y31726238D01*
X46346857Y31821476D01*
X46394476Y31916714D01*
X46442095Y32107190D01*
X46442095Y32250048D01*
X46394476Y32440524D01*
X46346857Y32535762D01*
X46251619Y32631000D01*
X46108761Y32678619D01*
X46013523Y32678619D01*
X45870666Y32631000D01*
X45823047Y32583381D01*
X44965904Y32345286D02*
X44965904Y31678619D01*
X45204000Y32726238D02*
X45442095Y32011952D01*
X44823047Y32011952D01*
X44489714Y32583381D02*
X44442095Y32631000D01*
X44346857Y32678619D01*
X44108761Y32678619D01*
X44013523Y32631000D01*
X43965904Y32583381D01*
X43918285Y32488143D01*
X43918285Y32392905D01*
X43965904Y32250048D01*
X44537333Y31678619D01*
X43918285Y31678619D01*
X43061142Y32678619D02*
X43251619Y32678619D01*
X43346857Y32631000D01*
X43394476Y32583381D01*
X43489714Y32440524D01*
X43537333Y32250048D01*
X43537333Y31869095D01*
X43489714Y31773857D01*
X43442095Y31726238D01*
X43346857Y31678619D01*
X43156380Y31678619D01*
X43061142Y31726238D01*
X43013523Y31773857D01*
X42965904Y31869095D01*
X42965904Y32107190D01*
X43013523Y32202429D01*
X43061142Y32250048D01*
X43156380Y32297667D01*
X43346857Y32297667D01*
X43442095Y32250048D01*
X43489714Y32202429D01*
X43537333Y32107190D01*
X45696047Y22375857D02*
X45743666Y22328238D01*
X45886523Y22280619D01*
X45981761Y22280619D01*
X46124619Y22328238D01*
X46219857Y22423476D01*
X46267476Y22518714D01*
X46315095Y22709190D01*
X46315095Y22852048D01*
X46267476Y23042524D01*
X46219857Y23137762D01*
X46124619Y23233000D01*
X45981761Y23280619D01*
X45886523Y23280619D01*
X45743666Y23233000D01*
X45696047Y23185381D01*
X44838904Y22947286D02*
X44838904Y22280619D01*
X45077000Y23328238D02*
X45315095Y22613952D01*
X44696047Y22613952D01*
X44362714Y23185381D02*
X44315095Y23233000D01*
X44219857Y23280619D01*
X43981761Y23280619D01*
X43886523Y23233000D01*
X43838904Y23185381D01*
X43791285Y23090143D01*
X43791285Y22994905D01*
X43838904Y22852048D01*
X44410333Y22280619D01*
X43791285Y22280619D01*
X43457952Y23280619D02*
X42838904Y23280619D01*
X43172238Y22899667D01*
X43029380Y22899667D01*
X42934142Y22852048D01*
X42886523Y22804429D01*
X42838904Y22709190D01*
X42838904Y22471095D01*
X42886523Y22375857D01*
X42934142Y22328238D01*
X43029380Y22280619D01*
X43315095Y22280619D01*
X43410333Y22328238D01*
X43457952Y22375857D01*
X61063143Y60047047D02*
X61110762Y60094666D01*
X61158381Y60237523D01*
X61158381Y60332761D01*
X61110762Y60475619D01*
X61015524Y60570857D01*
X60920286Y60618476D01*
X60729810Y60666095D01*
X60586952Y60666095D01*
X60396476Y60618476D01*
X60301238Y60570857D01*
X60206000Y60475619D01*
X60158381Y60332761D01*
X60158381Y60237523D01*
X60206000Y60094666D01*
X60253619Y60047047D01*
X60491714Y59189904D02*
X61158381Y59189904D01*
X60110762Y59428000D02*
X60825048Y59666095D01*
X60825048Y59047047D01*
X60158381Y58761333D02*
X60158381Y58142285D01*
X60539333Y58475619D01*
X60539333Y58332761D01*
X60586952Y58237523D01*
X60634571Y58189904D01*
X60729810Y58142285D01*
X60967905Y58142285D01*
X61063143Y58189904D01*
X61110762Y58237523D01*
X61158381Y58332761D01*
X61158381Y58618476D01*
X61110762Y58713714D01*
X61063143Y58761333D01*
X60158381Y57523238D02*
X60158381Y57427999D01*
X60206000Y57332761D01*
X60253619Y57285142D01*
X60348857Y57237523D01*
X60539333Y57189904D01*
X60777429Y57189904D01*
X60967905Y57237523D01*
X61063143Y57285142D01*
X61110762Y57332761D01*
X61158381Y57427999D01*
X61158381Y57523238D01*
X61110762Y57618476D01*
X61063143Y57666095D01*
X60967905Y57713714D01*
X60777429Y57761333D01*
X60539333Y57761333D01*
X60348857Y57713714D01*
X60253619Y57666095D01*
X60206000Y57618476D01*
X60158381Y57523238D01*
X68937143Y64619047D02*
X68984762Y64666666D01*
X69032381Y64809523D01*
X69032381Y64904761D01*
X68984762Y65047619D01*
X68889524Y65142857D01*
X68794286Y65190476D01*
X68603810Y65238095D01*
X68460952Y65238095D01*
X68270476Y65190476D01*
X68175238Y65142857D01*
X68080000Y65047619D01*
X68032381Y64904761D01*
X68032381Y64809523D01*
X68080000Y64666666D01*
X68127619Y64619047D01*
X68365714Y63761904D02*
X69032381Y63761904D01*
X67984762Y64000000D02*
X68699048Y64238095D01*
X68699048Y63619047D01*
X68127619Y63285714D02*
X68080000Y63238095D01*
X68032381Y63142857D01*
X68032381Y62904761D01*
X68080000Y62809523D01*
X68127619Y62761904D01*
X68222857Y62714285D01*
X68318095Y62714285D01*
X68460952Y62761904D01*
X69032381Y63333333D01*
X69032381Y62714285D01*
X68032381Y62380952D02*
X68032381Y61714285D01*
X69032381Y62142857D01*
X69699047Y55014857D02*
X69746666Y54967238D01*
X69889523Y54919619D01*
X69984761Y54919619D01*
X70127619Y54967238D01*
X70222857Y55062476D01*
X70270476Y55157714D01*
X70318095Y55348190D01*
X70318095Y55491048D01*
X70270476Y55681524D01*
X70222857Y55776762D01*
X70127619Y55872000D01*
X69984761Y55919619D01*
X69889523Y55919619D01*
X69746666Y55872000D01*
X69699047Y55824381D01*
X68841904Y55586286D02*
X68841904Y54919619D01*
X69080000Y55967238D02*
X69318095Y55252952D01*
X68699047Y55252952D01*
X68365714Y55824381D02*
X68318095Y55872000D01*
X68222857Y55919619D01*
X67984761Y55919619D01*
X67889523Y55872000D01*
X67841904Y55824381D01*
X67794285Y55729143D01*
X67794285Y55633905D01*
X67841904Y55491048D01*
X68413333Y54919619D01*
X67794285Y54919619D01*
X67413333Y55824381D02*
X67365714Y55872000D01*
X67270476Y55919619D01*
X67032380Y55919619D01*
X66937142Y55872000D01*
X66889523Y55824381D01*
X66841904Y55729143D01*
X66841904Y55633905D01*
X66889523Y55491048D01*
X67460952Y54919619D01*
X66841904Y54919619D01*
X73636047Y62507857D02*
X73683666Y62460238D01*
X73826523Y62412619D01*
X73921761Y62412619D01*
X74064619Y62460238D01*
X74159857Y62555476D01*
X74207476Y62650714D01*
X74255095Y62841190D01*
X74255095Y62984048D01*
X74207476Y63174524D01*
X74159857Y63269762D01*
X74064619Y63365000D01*
X73921761Y63412619D01*
X73826523Y63412619D01*
X73683666Y63365000D01*
X73636047Y63317381D01*
X72778904Y63079286D02*
X72778904Y62412619D01*
X73017000Y63460238D02*
X73255095Y62745952D01*
X72636047Y62745952D01*
X72302714Y63317381D02*
X72255095Y63365000D01*
X72159857Y63412619D01*
X71921761Y63412619D01*
X71826523Y63365000D01*
X71778904Y63317381D01*
X71731285Y63222143D01*
X71731285Y63126905D01*
X71778904Y62984048D01*
X72350333Y62412619D01*
X71731285Y62412619D01*
X71112238Y63412619D02*
X71016999Y63412619D01*
X70921761Y63365000D01*
X70874142Y63317381D01*
X70826523Y63222143D01*
X70778904Y63031667D01*
X70778904Y62793571D01*
X70826523Y62603095D01*
X70874142Y62507857D01*
X70921761Y62460238D01*
X71016999Y62412619D01*
X71112238Y62412619D01*
X71207476Y62460238D01*
X71255095Y62507857D01*
X71302714Y62603095D01*
X71350333Y62793571D01*
X71350333Y63031667D01*
X71302714Y63222143D01*
X71255095Y63317381D01*
X71207476Y63365000D01*
X71112238Y63412619D01*
X36933047Y60348857D02*
X36980666Y60301238D01*
X37123523Y60253619D01*
X37218761Y60253619D01*
X37361619Y60301238D01*
X37456857Y60396476D01*
X37504476Y60491714D01*
X37552095Y60682190D01*
X37552095Y60825048D01*
X37504476Y61015524D01*
X37456857Y61110762D01*
X37361619Y61206000D01*
X37218761Y61253619D01*
X37123523Y61253619D01*
X36980666Y61206000D01*
X36933047Y61158381D01*
X36075904Y60920286D02*
X36075904Y60253619D01*
X36314000Y61301238D02*
X36552095Y60586952D01*
X35933047Y60586952D01*
X35028285Y60253619D02*
X35599714Y60253619D01*
X35314000Y60253619D02*
X35314000Y61253619D01*
X35409238Y61110762D01*
X35504476Y61015524D01*
X35599714Y60967905D01*
X34171142Y61253619D02*
X34361619Y61253619D01*
X34456857Y61206000D01*
X34504476Y61158381D01*
X34599714Y61015524D01*
X34647333Y60825048D01*
X34647333Y60444095D01*
X34599714Y60348857D01*
X34552095Y60301238D01*
X34456857Y60253619D01*
X34266380Y60253619D01*
X34171142Y60301238D01*
X34123523Y60348857D01*
X34075904Y60444095D01*
X34075904Y60682190D01*
X34123523Y60777429D01*
X34171142Y60825048D01*
X34266380Y60872667D01*
X34456857Y60872667D01*
X34552095Y60825048D01*
X34599714Y60777429D01*
X34647333Y60682190D01*
X52300047Y22629857D02*
X52347666Y22582238D01*
X52490523Y22534619D01*
X52585761Y22534619D01*
X52728619Y22582238D01*
X52823857Y22677476D01*
X52871476Y22772714D01*
X52919095Y22963190D01*
X52919095Y23106048D01*
X52871476Y23296524D01*
X52823857Y23391762D01*
X52728619Y23487000D01*
X52585761Y23534619D01*
X52490523Y23534619D01*
X52347666Y23487000D01*
X52300047Y23439381D01*
X51442904Y23201286D02*
X51442904Y22534619D01*
X51681000Y23582238D02*
X51919095Y22867952D01*
X51300047Y22867952D01*
X50728619Y23534619D02*
X50633380Y23534619D01*
X50538142Y23487000D01*
X50490523Y23439381D01*
X50442904Y23344143D01*
X50395285Y23153667D01*
X50395285Y22915571D01*
X50442904Y22725095D01*
X50490523Y22629857D01*
X50538142Y22582238D01*
X50633380Y22534619D01*
X50728619Y22534619D01*
X50823857Y22582238D01*
X50871476Y22629857D01*
X50919095Y22725095D01*
X50966714Y22915571D01*
X50966714Y23153667D01*
X50919095Y23344143D01*
X50871476Y23439381D01*
X50823857Y23487000D01*
X50728619Y23534619D01*
X49538142Y23201286D02*
X49538142Y22534619D01*
X49776238Y23582238D02*
X50014333Y22867952D01*
X49395285Y22867952D01*
X52343047Y31900857D02*
X52390666Y31853238D01*
X52533523Y31805619D01*
X52628761Y31805619D01*
X52771619Y31853238D01*
X52866857Y31948476D01*
X52914476Y32043714D01*
X52962095Y32234190D01*
X52962095Y32377048D01*
X52914476Y32567524D01*
X52866857Y32662762D01*
X52771619Y32758000D01*
X52628761Y32805619D01*
X52533523Y32805619D01*
X52390666Y32758000D01*
X52343047Y32710381D01*
X51485904Y32472286D02*
X51485904Y31805619D01*
X51724000Y32853238D02*
X51962095Y32138952D01*
X51343047Y32138952D01*
X50771619Y32805619D02*
X50676380Y32805619D01*
X50581142Y32758000D01*
X50533523Y32710381D01*
X50485904Y32615143D01*
X50438285Y32424667D01*
X50438285Y32186571D01*
X50485904Y31996095D01*
X50533523Y31900857D01*
X50581142Y31853238D01*
X50676380Y31805619D01*
X50771619Y31805619D01*
X50866857Y31853238D01*
X50914476Y31900857D01*
X50962095Y31996095D01*
X51009714Y32186571D01*
X51009714Y32424667D01*
X50962095Y32615143D01*
X50914476Y32710381D01*
X50866857Y32758000D01*
X50771619Y32805619D01*
X50104952Y32805619D02*
X49485904Y32805619D01*
X49819238Y32424667D01*
X49676380Y32424667D01*
X49581142Y32377048D01*
X49533523Y32329429D01*
X49485904Y32234190D01*
X49485904Y31996095D01*
X49533523Y31900857D01*
X49581142Y31853238D01*
X49676380Y31805619D01*
X49962095Y31805619D01*
X50057333Y31853238D01*
X50104952Y31900857D01*
X89003143Y25376047D02*
X89050762Y25423666D01*
X89098381Y25566523D01*
X89098381Y25661761D01*
X89050762Y25804619D01*
X88955524Y25899857D01*
X88860286Y25947476D01*
X88669810Y25995095D01*
X88526952Y25995095D01*
X88336476Y25947476D01*
X88241238Y25899857D01*
X88146000Y25804619D01*
X88098381Y25661761D01*
X88098381Y25566523D01*
X88146000Y25423666D01*
X88193619Y25376047D01*
X88098381Y25042714D02*
X88098381Y24423666D01*
X88479333Y24757000D01*
X88479333Y24614142D01*
X88526952Y24518904D01*
X88574571Y24471285D01*
X88669810Y24423666D01*
X88907905Y24423666D01*
X89003143Y24471285D01*
X89050762Y24518904D01*
X89098381Y24614142D01*
X89098381Y24899857D01*
X89050762Y24995095D01*
X89003143Y25042714D01*
X88098381Y23804619D02*
X88098381Y23709380D01*
X88146000Y23614142D01*
X88193619Y23566523D01*
X88288857Y23518904D01*
X88479333Y23471285D01*
X88717429Y23471285D01*
X88907905Y23518904D01*
X89003143Y23566523D01*
X89050762Y23614142D01*
X89098381Y23709380D01*
X89098381Y23804619D01*
X89050762Y23899857D01*
X89003143Y23947476D01*
X88907905Y23995095D01*
X88717429Y24042714D01*
X88479333Y24042714D01*
X88288857Y23995095D01*
X88193619Y23947476D01*
X88146000Y23899857D01*
X88098381Y23804619D01*
X89098381Y22995095D02*
X89098381Y22804619D01*
X89050762Y22709380D01*
X89003143Y22661761D01*
X88860286Y22566523D01*
X88669810Y22518904D01*
X88288857Y22518904D01*
X88193619Y22566523D01*
X88146000Y22614142D01*
X88098381Y22709380D01*
X88098381Y22899857D01*
X88146000Y22995095D01*
X88193619Y23042714D01*
X88288857Y23090333D01*
X88526952Y23090333D01*
X88622190Y23042714D01*
X88669810Y22995095D01*
X88717429Y22899857D01*
X88717429Y22709380D01*
X88669810Y22614142D01*
X88622190Y22566523D01*
X88526952Y22518904D01*
X73763047Y1420857D02*
X73810666Y1373238D01*
X73953523Y1325619D01*
X74048761Y1325619D01*
X74191619Y1373238D01*
X74286857Y1468476D01*
X74334476Y1563714D01*
X74382095Y1754190D01*
X74382095Y1897048D01*
X74334476Y2087524D01*
X74286857Y2182762D01*
X74191619Y2278000D01*
X74048761Y2325619D01*
X73953523Y2325619D01*
X73810666Y2278000D01*
X73763047Y2230381D01*
X73429714Y2325619D02*
X72810666Y2325619D01*
X73144000Y1944667D01*
X73001142Y1944667D01*
X72905904Y1897048D01*
X72858285Y1849429D01*
X72810666Y1754190D01*
X72810666Y1516095D01*
X72858285Y1420857D01*
X72905904Y1373238D01*
X73001142Y1325619D01*
X73286857Y1325619D01*
X73382095Y1373238D01*
X73429714Y1420857D01*
X72191619Y2325619D02*
X72096380Y2325619D01*
X72001142Y2278000D01*
X71953523Y2230381D01*
X71905904Y2135143D01*
X71858285Y1944667D01*
X71858285Y1706571D01*
X71905904Y1516095D01*
X71953523Y1420857D01*
X72001142Y1373238D01*
X72096380Y1325619D01*
X72191619Y1325619D01*
X72286857Y1373238D01*
X72334476Y1420857D01*
X72382095Y1516095D01*
X72429714Y1706571D01*
X72429714Y1944667D01*
X72382095Y2135143D01*
X72334476Y2230381D01*
X72286857Y2278000D01*
X72191619Y2325619D01*
X71001142Y1992286D02*
X71001142Y1325619D01*
X71239238Y2373238D02*
X71477333Y1658952D01*
X70858285Y1658952D01*
X87530143Y7596047D02*
X87577762Y7643666D01*
X87625381Y7786523D01*
X87625381Y7881761D01*
X87577762Y8024619D01*
X87482524Y8119857D01*
X87387286Y8167476D01*
X87196810Y8215095D01*
X87053952Y8215095D01*
X86863476Y8167476D01*
X86768238Y8119857D01*
X86673000Y8024619D01*
X86625381Y7881761D01*
X86625381Y7786523D01*
X86673000Y7643666D01*
X86720619Y7596047D01*
X86625381Y7262714D02*
X86625381Y6643666D01*
X87006333Y6977000D01*
X87006333Y6834142D01*
X87053952Y6738904D01*
X87101571Y6691285D01*
X87196810Y6643666D01*
X87434905Y6643666D01*
X87530143Y6691285D01*
X87577762Y6738904D01*
X87625381Y6834142D01*
X87625381Y7119857D01*
X87577762Y7215095D01*
X87530143Y7262714D01*
X86625381Y6024619D02*
X86625381Y5929380D01*
X86673000Y5834142D01*
X86720619Y5786523D01*
X86815857Y5738904D01*
X87006333Y5691285D01*
X87244429Y5691285D01*
X87434905Y5738904D01*
X87530143Y5786523D01*
X87577762Y5834142D01*
X87625381Y5929380D01*
X87625381Y6024619D01*
X87577762Y6119857D01*
X87530143Y6167476D01*
X87434905Y6215095D01*
X87244429Y6262714D01*
X87006333Y6262714D01*
X86815857Y6215095D01*
X86720619Y6167476D01*
X86673000Y6119857D01*
X86625381Y6024619D01*
X86625381Y4786523D02*
X86625381Y5262714D01*
X87101571Y5310333D01*
X87053952Y5262714D01*
X87006333Y5167476D01*
X87006333Y4929380D01*
X87053952Y4834142D01*
X87101571Y4786523D01*
X87196810Y4738904D01*
X87434905Y4738904D01*
X87530143Y4786523D01*
X87577762Y4834142D01*
X87625381Y4929380D01*
X87625381Y5167476D01*
X87577762Y5262714D01*
X87530143Y5310333D01*
X94210047Y11326857D02*
X94257666Y11279238D01*
X94400523Y11231619D01*
X94495761Y11231619D01*
X94638619Y11279238D01*
X94733857Y11374476D01*
X94781476Y11469714D01*
X94829095Y11660190D01*
X94829095Y11803048D01*
X94781476Y11993524D01*
X94733857Y12088762D01*
X94638619Y12184000D01*
X94495761Y12231619D01*
X94400523Y12231619D01*
X94257666Y12184000D01*
X94210047Y12136381D01*
X93876714Y12231619D02*
X93257666Y12231619D01*
X93591000Y11850667D01*
X93448142Y11850667D01*
X93352904Y11803048D01*
X93305285Y11755429D01*
X93257666Y11660190D01*
X93257666Y11422095D01*
X93305285Y11326857D01*
X93352904Y11279238D01*
X93448142Y11231619D01*
X93733857Y11231619D01*
X93829095Y11279238D01*
X93876714Y11326857D01*
X92638619Y12231619D02*
X92543380Y12231619D01*
X92448142Y12184000D01*
X92400523Y12136381D01*
X92352904Y12041143D01*
X92305285Y11850667D01*
X92305285Y11612571D01*
X92352904Y11422095D01*
X92400523Y11326857D01*
X92448142Y11279238D01*
X92543380Y11231619D01*
X92638619Y11231619D01*
X92733857Y11279238D01*
X92781476Y11326857D01*
X92829095Y11422095D01*
X92876714Y11612571D01*
X92876714Y11850667D01*
X92829095Y12041143D01*
X92781476Y12136381D01*
X92733857Y12184000D01*
X92638619Y12231619D01*
X91971952Y12231619D02*
X91352904Y12231619D01*
X91686238Y11850667D01*
X91543380Y11850667D01*
X91448142Y11803048D01*
X91400523Y11755429D01*
X91352904Y11660190D01*
X91352904Y11422095D01*
X91400523Y11326857D01*
X91448142Y11279238D01*
X91543380Y11231619D01*
X91829095Y11231619D01*
X91924333Y11279238D01*
X91971952Y11326857D01*
X21693047Y41203619D02*
X22026381Y41679810D01*
X22264476Y41203619D02*
X22264476Y42203619D01*
X21883523Y42203619D01*
X21788285Y42156000D01*
X21740666Y42108381D01*
X21693047Y42013143D01*
X21693047Y41870286D01*
X21740666Y41775048D01*
X21788285Y41727429D01*
X21883523Y41679810D01*
X22264476Y41679810D01*
X21312095Y42108381D02*
X21264476Y42156000D01*
X21169238Y42203619D01*
X20931142Y42203619D01*
X20835904Y42156000D01*
X20788285Y42108381D01*
X20740666Y42013143D01*
X20740666Y41917905D01*
X20788285Y41775048D01*
X21359714Y41203619D01*
X20740666Y41203619D01*
X19788285Y41203619D02*
X20359714Y41203619D01*
X20074000Y41203619D02*
X20074000Y42203619D01*
X20169238Y42060762D01*
X20264476Y41965524D01*
X20359714Y41917905D01*
X18931142Y42203619D02*
X19121619Y42203619D01*
X19216857Y42156000D01*
X19264476Y42108381D01*
X19359714Y41965524D01*
X19407333Y41775048D01*
X19407333Y41394095D01*
X19359714Y41298857D01*
X19312095Y41251238D01*
X19216857Y41203619D01*
X19026380Y41203619D01*
X18931142Y41251238D01*
X18883523Y41298857D01*
X18835904Y41394095D01*
X18835904Y41632190D01*
X18883523Y41727429D01*
X18931142Y41775048D01*
X19026380Y41822667D01*
X19216857Y41822667D01*
X19312095Y41775048D01*
X19359714Y41727429D01*
X19407333Y41632190D01*
X25503047Y36885619D02*
X25836381Y37361810D01*
X26074476Y36885619D02*
X26074476Y37885619D01*
X25693523Y37885619D01*
X25598285Y37838000D01*
X25550666Y37790381D01*
X25503047Y37695143D01*
X25503047Y37552286D01*
X25550666Y37457048D01*
X25598285Y37409429D01*
X25693523Y37361810D01*
X26074476Y37361810D01*
X25122095Y37790381D02*
X25074476Y37838000D01*
X24979238Y37885619D01*
X24741142Y37885619D01*
X24645904Y37838000D01*
X24598285Y37790381D01*
X24550666Y37695143D01*
X24550666Y37599905D01*
X24598285Y37457048D01*
X25169714Y36885619D01*
X24550666Y36885619D01*
X23598285Y36885619D02*
X24169714Y36885619D01*
X23884000Y36885619D02*
X23884000Y37885619D01*
X23979238Y37742762D01*
X24074476Y37647524D01*
X24169714Y37599905D01*
X23264952Y37885619D02*
X22598285Y37885619D01*
X23026857Y36885619D01*
X25503047Y34345619D02*
X25836381Y34821810D01*
X26074476Y34345619D02*
X26074476Y35345619D01*
X25693523Y35345619D01*
X25598285Y35298000D01*
X25550666Y35250381D01*
X25503047Y35155143D01*
X25503047Y35012286D01*
X25550666Y34917048D01*
X25598285Y34869429D01*
X25693523Y34821810D01*
X26074476Y34821810D01*
X25122095Y35250381D02*
X25074476Y35298000D01*
X24979238Y35345619D01*
X24741142Y35345619D01*
X24645904Y35298000D01*
X24598285Y35250381D01*
X24550666Y35155143D01*
X24550666Y35059905D01*
X24598285Y34917048D01*
X25169714Y34345619D01*
X24550666Y34345619D01*
X23598285Y34345619D02*
X24169714Y34345619D01*
X23884000Y34345619D02*
X23884000Y35345619D01*
X23979238Y35202762D01*
X24074476Y35107524D01*
X24169714Y35059905D01*
X23026857Y34917048D02*
X23122095Y34964667D01*
X23169714Y35012286D01*
X23217333Y35107524D01*
X23217333Y35155143D01*
X23169714Y35250381D01*
X23122095Y35298000D01*
X23026857Y35345619D01*
X22836380Y35345619D01*
X22741142Y35298000D01*
X22693523Y35250381D01*
X22645904Y35155143D01*
X22645904Y35107524D01*
X22693523Y35012286D01*
X22741142Y34964667D01*
X22836380Y34917048D01*
X23026857Y34917048D01*
X23122095Y34869429D01*
X23169714Y34821810D01*
X23217333Y34726571D01*
X23217333Y34536095D01*
X23169714Y34440857D01*
X23122095Y34393238D01*
X23026857Y34345619D01*
X22836380Y34345619D01*
X22741142Y34393238D01*
X22693523Y34440857D01*
X22645904Y34536095D01*
X22645904Y34726571D01*
X22693523Y34821810D01*
X22741142Y34869429D01*
X22836380Y34917048D01*
X22455047Y62158619D02*
X22788381Y62634810D01*
X23026476Y62158619D02*
X23026476Y63158619D01*
X22645523Y63158619D01*
X22550285Y63111000D01*
X22502666Y63063381D01*
X22455047Y62968143D01*
X22455047Y62825286D01*
X22502666Y62730048D01*
X22550285Y62682429D01*
X22645523Y62634810D01*
X23026476Y62634810D01*
X22074095Y63063381D02*
X22026476Y63111000D01*
X21931238Y63158619D01*
X21693142Y63158619D01*
X21597904Y63111000D01*
X21550285Y63063381D01*
X21502666Y62968143D01*
X21502666Y62872905D01*
X21550285Y62730048D01*
X22121714Y62158619D01*
X21502666Y62158619D01*
X20550285Y62158619D02*
X21121714Y62158619D01*
X20836000Y62158619D02*
X20836000Y63158619D01*
X20931238Y63015762D01*
X21026476Y62920524D01*
X21121714Y62872905D01*
X19645523Y63158619D02*
X20121714Y63158619D01*
X20169333Y62682429D01*
X20121714Y62730048D01*
X20026476Y62777667D01*
X19788380Y62777667D01*
X19693142Y62730048D01*
X19645523Y62682429D01*
X19597904Y62587190D01*
X19597904Y62349095D01*
X19645523Y62253857D01*
X19693142Y62206238D01*
X19788380Y62158619D01*
X20026476Y62158619D01*
X20121714Y62206238D01*
X20169333Y62253857D01*
X7131047Y65079619D02*
X7464381Y65555810D01*
X7702476Y65079619D02*
X7702476Y66079619D01*
X7321523Y66079619D01*
X7226285Y66032000D01*
X7178666Y65984381D01*
X7131047Y65889143D01*
X7131047Y65746286D01*
X7178666Y65651048D01*
X7226285Y65603429D01*
X7321523Y65555810D01*
X7702476Y65555810D01*
X6750095Y65984381D02*
X6702476Y66032000D01*
X6607238Y66079619D01*
X6369142Y66079619D01*
X6273904Y66032000D01*
X6226285Y65984381D01*
X6178666Y65889143D01*
X6178666Y65793905D01*
X6226285Y65651048D01*
X6797714Y65079619D01*
X6178666Y65079619D01*
X5226285Y65079619D02*
X5797714Y65079619D01*
X5512000Y65079619D02*
X5512000Y66079619D01*
X5607238Y65936762D01*
X5702476Y65841524D01*
X5797714Y65793905D01*
X4273904Y65079619D02*
X4845333Y65079619D01*
X4559619Y65079619D02*
X4559619Y66079619D01*
X4654857Y65936762D01*
X4750095Y65841524D01*
X4845333Y65793905D01*
X10866381Y64365047D02*
X10390190Y64698381D01*
X10866381Y64936476D02*
X9866381Y64936476D01*
X9866381Y64555523D01*
X9914000Y64460285D01*
X9961619Y64412666D01*
X10056857Y64365047D01*
X10199714Y64365047D01*
X10294952Y64412666D01*
X10342571Y64460285D01*
X10390190Y64555523D01*
X10390190Y64936476D01*
X9961619Y63984095D02*
X9914000Y63936476D01*
X9866381Y63841238D01*
X9866381Y63603142D01*
X9914000Y63507904D01*
X9961619Y63460285D01*
X10056857Y63412666D01*
X10152095Y63412666D01*
X10294952Y63460285D01*
X10866381Y64031714D01*
X10866381Y63412666D01*
X10866381Y62460285D02*
X10866381Y63031714D01*
X10866381Y62746000D02*
X9866381Y62746000D01*
X10009238Y62841238D01*
X10104476Y62936476D01*
X10152095Y63031714D01*
X9961619Y62079333D02*
X9914000Y62031714D01*
X9866381Y61936476D01*
X9866381Y61698380D01*
X9914000Y61603142D01*
X9961619Y61555523D01*
X10056857Y61507904D01*
X10152095Y61507904D01*
X10294952Y61555523D01*
X10866381Y62126952D01*
X10866381Y61507904D01*
X12517381Y55729047D02*
X12041190Y56062381D01*
X12517381Y56300476D02*
X11517381Y56300476D01*
X11517381Y55919523D01*
X11565000Y55824285D01*
X11612619Y55776666D01*
X11707857Y55729047D01*
X11850714Y55729047D01*
X11945952Y55776666D01*
X11993571Y55824285D01*
X12041190Y55919523D01*
X12041190Y56300476D01*
X11612619Y55348095D02*
X11565000Y55300476D01*
X11517381Y55205238D01*
X11517381Y54967142D01*
X11565000Y54871904D01*
X11612619Y54824285D01*
X11707857Y54776666D01*
X11803095Y54776666D01*
X11945952Y54824285D01*
X12517381Y55395714D01*
X12517381Y54776666D01*
X12517381Y53824285D02*
X12517381Y54395714D01*
X12517381Y54110000D02*
X11517381Y54110000D01*
X11660238Y54205238D01*
X11755476Y54300476D01*
X11803095Y54395714D01*
X11517381Y53490952D02*
X11517381Y52871904D01*
X11898333Y53205238D01*
X11898333Y53062380D01*
X11945952Y52967142D01*
X11993571Y52919523D01*
X12088810Y52871904D01*
X12326905Y52871904D01*
X12422143Y52919523D01*
X12469762Y52967142D01*
X12517381Y53062380D01*
X12517381Y53348095D01*
X12469762Y53443333D01*
X12422143Y53490952D01*
X7131047Y43743619D02*
X7464381Y44219810D01*
X7702476Y43743619D02*
X7702476Y44743619D01*
X7321523Y44743619D01*
X7226285Y44696000D01*
X7178666Y44648381D01*
X7131047Y44553143D01*
X7131047Y44410286D01*
X7178666Y44315048D01*
X7226285Y44267429D01*
X7321523Y44219810D01*
X7702476Y44219810D01*
X6750095Y44648381D02*
X6702476Y44696000D01*
X6607238Y44743619D01*
X6369142Y44743619D01*
X6273904Y44696000D01*
X6226285Y44648381D01*
X6178666Y44553143D01*
X6178666Y44457905D01*
X6226285Y44315048D01*
X6797714Y43743619D01*
X6178666Y43743619D01*
X5559619Y44743619D02*
X5464380Y44743619D01*
X5369142Y44696000D01*
X5321523Y44648381D01*
X5273904Y44553143D01*
X5226285Y44362667D01*
X5226285Y44124571D01*
X5273904Y43934095D01*
X5321523Y43838857D01*
X5369142Y43791238D01*
X5464380Y43743619D01*
X5559619Y43743619D01*
X5654857Y43791238D01*
X5702476Y43838857D01*
X5750095Y43934095D01*
X5797714Y44124571D01*
X5797714Y44362667D01*
X5750095Y44553143D01*
X5702476Y44648381D01*
X5654857Y44696000D01*
X5559619Y44743619D01*
X4654857Y44315048D02*
X4750095Y44362667D01*
X4797714Y44410286D01*
X4845333Y44505524D01*
X4845333Y44553143D01*
X4797714Y44648381D01*
X4750095Y44696000D01*
X4654857Y44743619D01*
X4464380Y44743619D01*
X4369142Y44696000D01*
X4321523Y44648381D01*
X4273904Y44553143D01*
X4273904Y44505524D01*
X4321523Y44410286D01*
X4369142Y44362667D01*
X4464380Y44315048D01*
X4654857Y44315048D01*
X4750095Y44267429D01*
X4797714Y44219810D01*
X4845333Y44124571D01*
X4845333Y43934095D01*
X4797714Y43838857D01*
X4750095Y43791238D01*
X4654857Y43743619D01*
X4464380Y43743619D01*
X4369142Y43791238D01*
X4321523Y43838857D01*
X4273904Y43934095D01*
X4273904Y44124571D01*
X4321523Y44219810D01*
X4369142Y44267429D01*
X4464380Y44315048D01*
X11882381Y41759047D02*
X11406190Y42092381D01*
X11882381Y42330476D02*
X10882381Y42330476D01*
X10882381Y41949523D01*
X10930000Y41854285D01*
X10977619Y41806666D01*
X11072857Y41759047D01*
X11215714Y41759047D01*
X11310952Y41806666D01*
X11358571Y41854285D01*
X11406190Y41949523D01*
X11406190Y42330476D01*
X10977619Y41378095D02*
X10930000Y41330476D01*
X10882381Y41235238D01*
X10882381Y40997142D01*
X10930000Y40901904D01*
X10977619Y40854285D01*
X11072857Y40806666D01*
X11168095Y40806666D01*
X11310952Y40854285D01*
X11882381Y41425714D01*
X11882381Y40806666D01*
X10882381Y40187619D02*
X10882381Y40092380D01*
X10930000Y39997142D01*
X10977619Y39949523D01*
X11072857Y39901904D01*
X11263333Y39854285D01*
X11501429Y39854285D01*
X11691905Y39901904D01*
X11787143Y39949523D01*
X11834762Y39997142D01*
X11882381Y40092380D01*
X11882381Y40187619D01*
X11834762Y40282857D01*
X11787143Y40330476D01*
X11691905Y40378095D01*
X11501429Y40425714D01*
X11263333Y40425714D01*
X11072857Y40378095D01*
X10977619Y40330476D01*
X10930000Y40282857D01*
X10882381Y40187619D01*
X11882381Y39378095D02*
X11882381Y39187619D01*
X11834762Y39092380D01*
X11787143Y39044761D01*
X11644286Y38949523D01*
X11453810Y38901904D01*
X11072857Y38901904D01*
X10977619Y38949523D01*
X10930000Y38997142D01*
X10882381Y39092380D01*
X10882381Y39282857D01*
X10930000Y39378095D01*
X10977619Y39425714D01*
X11072857Y39473333D01*
X11310952Y39473333D01*
X11406190Y39425714D01*
X11453810Y39378095D01*
X11501429Y39282857D01*
X11501429Y39092380D01*
X11453810Y38997142D01*
X11406190Y38949523D01*
X11310952Y38901904D01*
X11882381Y36552047D02*
X11406190Y36885381D01*
X11882381Y37123476D02*
X10882381Y37123476D01*
X10882381Y36742523D01*
X10930000Y36647285D01*
X10977619Y36599666D01*
X11072857Y36552047D01*
X11215714Y36552047D01*
X11310952Y36599666D01*
X11358571Y36647285D01*
X11406190Y36742523D01*
X11406190Y37123476D01*
X10977619Y36171095D02*
X10930000Y36123476D01*
X10882381Y36028238D01*
X10882381Y35790142D01*
X10930000Y35694904D01*
X10977619Y35647285D01*
X11072857Y35599666D01*
X11168095Y35599666D01*
X11310952Y35647285D01*
X11882381Y36218714D01*
X11882381Y35599666D01*
X11882381Y34647285D02*
X11882381Y35218714D01*
X11882381Y34933000D02*
X10882381Y34933000D01*
X11025238Y35028238D01*
X11120476Y35123476D01*
X11168095Y35218714D01*
X10882381Y34028238D02*
X10882381Y33932999D01*
X10930000Y33837761D01*
X10977619Y33790142D01*
X11072857Y33742523D01*
X11263333Y33694904D01*
X11501429Y33694904D01*
X11691905Y33742523D01*
X11787143Y33790142D01*
X11834762Y33837761D01*
X11882381Y33932999D01*
X11882381Y34028238D01*
X11834762Y34123476D01*
X11787143Y34171095D01*
X11691905Y34218714D01*
X11501429Y34266333D01*
X11263333Y34266333D01*
X11072857Y34218714D01*
X10977619Y34171095D01*
X10930000Y34123476D01*
X10882381Y34028238D01*
X95734047Y15771857D02*
X95781666Y15724238D01*
X95924523Y15676619D01*
X96019761Y15676619D01*
X96162619Y15724238D01*
X96257857Y15819476D01*
X96305476Y15914714D01*
X96353095Y16105190D01*
X96353095Y16248048D01*
X96305476Y16438524D01*
X96257857Y16533762D01*
X96162619Y16629000D01*
X96019761Y16676619D01*
X95924523Y16676619D01*
X95781666Y16629000D01*
X95734047Y16581381D01*
X95400714Y16676619D02*
X94781666Y16676619D01*
X95115000Y16295667D01*
X94972142Y16295667D01*
X94876904Y16248048D01*
X94829285Y16200429D01*
X94781666Y16105190D01*
X94781666Y15867095D01*
X94829285Y15771857D01*
X94876904Y15724238D01*
X94972142Y15676619D01*
X95257857Y15676619D01*
X95353095Y15724238D01*
X95400714Y15771857D01*
X94162619Y16676619D02*
X94067380Y16676619D01*
X93972142Y16629000D01*
X93924523Y16581381D01*
X93876904Y16486143D01*
X93829285Y16295667D01*
X93829285Y16057571D01*
X93876904Y15867095D01*
X93924523Y15771857D01*
X93972142Y15724238D01*
X94067380Y15676619D01*
X94162619Y15676619D01*
X94257857Y15724238D01*
X94305476Y15771857D01*
X94353095Y15867095D01*
X94400714Y16057571D01*
X94400714Y16295667D01*
X94353095Y16486143D01*
X94305476Y16581381D01*
X94257857Y16629000D01*
X94162619Y16676619D01*
X93448333Y16581381D02*
X93400714Y16629000D01*
X93305476Y16676619D01*
X93067380Y16676619D01*
X92972142Y16629000D01*
X92924523Y16581381D01*
X92876904Y16486143D01*
X92876904Y16390905D01*
X92924523Y16248048D01*
X93495952Y15676619D01*
X92876904Y15676619D01*
X64746047Y16406857D02*
X64793666Y16359238D01*
X64936523Y16311619D01*
X65031761Y16311619D01*
X65174619Y16359238D01*
X65269857Y16454476D01*
X65317476Y16549714D01*
X65365095Y16740190D01*
X65365095Y16883048D01*
X65317476Y17073524D01*
X65269857Y17168762D01*
X65174619Y17264000D01*
X65031761Y17311619D01*
X64936523Y17311619D01*
X64793666Y17264000D01*
X64746047Y17216381D01*
X64412714Y17311619D02*
X63793666Y17311619D01*
X64127000Y16930667D01*
X63984142Y16930667D01*
X63888904Y16883048D01*
X63841285Y16835429D01*
X63793666Y16740190D01*
X63793666Y16502095D01*
X63841285Y16406857D01*
X63888904Y16359238D01*
X63984142Y16311619D01*
X64269857Y16311619D01*
X64365095Y16359238D01*
X64412714Y16406857D01*
X62841285Y16311619D02*
X63412714Y16311619D01*
X63127000Y16311619D02*
X63127000Y17311619D01*
X63222238Y17168762D01*
X63317476Y17073524D01*
X63412714Y17025905D01*
X62507952Y17311619D02*
X61841285Y17311619D01*
X62269857Y16311619D01*
X59623047Y7929619D02*
X59956381Y8405810D01*
X60194476Y7929619D02*
X60194476Y8929619D01*
X59813523Y8929619D01*
X59718285Y8882000D01*
X59670666Y8834381D01*
X59623047Y8739143D01*
X59623047Y8596286D01*
X59670666Y8501048D01*
X59718285Y8453429D01*
X59813523Y8405810D01*
X60194476Y8405810D01*
X59289714Y8929619D02*
X58670666Y8929619D01*
X59004000Y8548667D01*
X58861142Y8548667D01*
X58765904Y8501048D01*
X58718285Y8453429D01*
X58670666Y8358190D01*
X58670666Y8120095D01*
X58718285Y8024857D01*
X58765904Y7977238D01*
X58861142Y7929619D01*
X59146857Y7929619D01*
X59242095Y7977238D01*
X59289714Y8024857D01*
X58051619Y8929619D02*
X57956380Y8929619D01*
X57861142Y8882000D01*
X57813523Y8834381D01*
X57765904Y8739143D01*
X57718285Y8548667D01*
X57718285Y8310571D01*
X57765904Y8120095D01*
X57813523Y8024857D01*
X57861142Y7977238D01*
X57956380Y7929619D01*
X58051619Y7929619D01*
X58146857Y7977238D01*
X58194476Y8024857D01*
X58242095Y8120095D01*
X58289714Y8310571D01*
X58289714Y8548667D01*
X58242095Y8739143D01*
X58194476Y8834381D01*
X58146857Y8882000D01*
X58051619Y8929619D01*
X57384952Y8929619D02*
X56765904Y8929619D01*
X57099238Y8548667D01*
X56956380Y8548667D01*
X56861142Y8501048D01*
X56813523Y8453429D01*
X56765904Y8358190D01*
X56765904Y8120095D01*
X56813523Y8024857D01*
X56861142Y7977238D01*
X56956380Y7929619D01*
X57242095Y7929619D01*
X57337333Y7977238D01*
X57384952Y8024857D01*
X59602476Y14660619D02*
X59602476Y15660619D01*
X59364381Y15660619D01*
X59221523Y15613000D01*
X59126285Y15517762D01*
X59078666Y15422524D01*
X59031047Y15232048D01*
X59031047Y15089190D01*
X59078666Y14898714D01*
X59126285Y14803476D01*
X59221523Y14708238D01*
X59364381Y14660619D01*
X59602476Y14660619D01*
X58697714Y15660619D02*
X58078666Y15660619D01*
X58412000Y15279667D01*
X58269142Y15279667D01*
X58173904Y15232048D01*
X58126285Y15184429D01*
X58078666Y15089190D01*
X58078666Y14851095D01*
X58126285Y14755857D01*
X58173904Y14708238D01*
X58269142Y14660619D01*
X58554857Y14660619D01*
X58650095Y14708238D01*
X58697714Y14755857D01*
X57459619Y15660619D02*
X57364380Y15660619D01*
X57269142Y15613000D01*
X57221523Y15565381D01*
X57173904Y15470143D01*
X57126285Y15279667D01*
X57126285Y15041571D01*
X57173904Y14851095D01*
X57221523Y14755857D01*
X57269142Y14708238D01*
X57364380Y14660619D01*
X57459619Y14660619D01*
X57554857Y14708238D01*
X57602476Y14755857D01*
X57650095Y14851095D01*
X57697714Y15041571D01*
X57697714Y15279667D01*
X57650095Y15470143D01*
X57602476Y15565381D01*
X57554857Y15613000D01*
X57459619Y15660619D01*
X56221523Y15660619D02*
X56697714Y15660619D01*
X56745333Y15184429D01*
X56697714Y15232048D01*
X56602476Y15279667D01*
X56364380Y15279667D01*
X56269142Y15232048D01*
X56221523Y15184429D01*
X56173904Y15089190D01*
X56173904Y14851095D01*
X56221523Y14755857D01*
X56269142Y14708238D01*
X56364380Y14660619D01*
X56602476Y14660619D01*
X56697714Y14708238D01*
X56745333Y14755857D01*
X56365905Y13009619D02*
X56365905Y14009619D01*
X55794476Y13009619D02*
X56223048Y13581048D01*
X55794476Y14009619D02*
X56365905Y13438190D01*
X62595095Y13295333D02*
X62118904Y13295333D01*
X62690333Y13009619D02*
X62357000Y14009619D01*
X62023666Y13009619D01*
X68016381Y25439476D02*
X67016381Y25439476D01*
X67016381Y25201381D01*
X67064000Y25058523D01*
X67159238Y24963285D01*
X67254476Y24915666D01*
X67444952Y24868047D01*
X67587810Y24868047D01*
X67778286Y24915666D01*
X67873524Y24963285D01*
X67968762Y25058523D01*
X68016381Y25201381D01*
X68016381Y25439476D01*
X67016381Y24534714D02*
X67016381Y23915666D01*
X67397333Y24249000D01*
X67397333Y24106142D01*
X67444952Y24010904D01*
X67492571Y23963285D01*
X67587810Y23915666D01*
X67825905Y23915666D01*
X67921143Y23963285D01*
X67968762Y24010904D01*
X68016381Y24106142D01*
X68016381Y24391857D01*
X67968762Y24487095D01*
X67921143Y24534714D01*
X67016381Y23296619D02*
X67016381Y23201380D01*
X67064000Y23106142D01*
X67111619Y23058523D01*
X67206857Y23010904D01*
X67397333Y22963285D01*
X67635429Y22963285D01*
X67825905Y23010904D01*
X67921143Y23058523D01*
X67968762Y23106142D01*
X68016381Y23201380D01*
X68016381Y23296619D01*
X67968762Y23391857D01*
X67921143Y23439476D01*
X67825905Y23487095D01*
X67635429Y23534714D01*
X67397333Y23534714D01*
X67206857Y23487095D01*
X67111619Y23439476D01*
X67064000Y23391857D01*
X67016381Y23296619D01*
X67349714Y22106142D02*
X68016381Y22106142D01*
X66968762Y22344238D02*
X67683048Y22582333D01*
X67683048Y21963285D01*
X67635381Y19438905D02*
X66635381Y19438905D01*
X67635381Y18867476D02*
X67063952Y19296048D01*
X66635381Y18867476D02*
X67206810Y19438905D01*
X65952667Y25336095D02*
X65952667Y24859904D01*
X66238381Y25431333D02*
X65238381Y25098000D01*
X66238381Y24764666D01*
X81446476Y18902619D02*
X81446476Y19902619D01*
X81208381Y19902619D01*
X81065523Y19855000D01*
X80970285Y19759762D01*
X80922666Y19664524D01*
X80875047Y19474048D01*
X80875047Y19331190D01*
X80922666Y19140714D01*
X80970285Y19045476D01*
X81065523Y18950238D01*
X81208381Y18902619D01*
X81446476Y18902619D01*
X80541714Y19902619D02*
X79922666Y19902619D01*
X80256000Y19521667D01*
X80113142Y19521667D01*
X80017904Y19474048D01*
X79970285Y19426429D01*
X79922666Y19331190D01*
X79922666Y19093095D01*
X79970285Y18997857D01*
X80017904Y18950238D01*
X80113142Y18902619D01*
X80398857Y18902619D01*
X80494095Y18950238D01*
X80541714Y18997857D01*
X79303619Y19902619D02*
X79208380Y19902619D01*
X79113142Y19855000D01*
X79065523Y19807381D01*
X79017904Y19712143D01*
X78970285Y19521667D01*
X78970285Y19283571D01*
X79017904Y19093095D01*
X79065523Y18997857D01*
X79113142Y18950238D01*
X79208380Y18902619D01*
X79303619Y18902619D01*
X79398857Y18950238D01*
X79446476Y18997857D01*
X79494095Y19093095D01*
X79541714Y19283571D01*
X79541714Y19521667D01*
X79494095Y19712143D01*
X79446476Y19807381D01*
X79398857Y19855000D01*
X79303619Y19902619D01*
X78113142Y19902619D02*
X78303619Y19902619D01*
X78398857Y19855000D01*
X78446476Y19807381D01*
X78541714Y19664524D01*
X78589333Y19474048D01*
X78589333Y19093095D01*
X78541714Y18997857D01*
X78494095Y18950238D01*
X78398857Y18902619D01*
X78208380Y18902619D01*
X78113142Y18950238D01*
X78065523Y18997857D01*
X78017904Y19093095D01*
X78017904Y19331190D01*
X78065523Y19426429D01*
X78113142Y19474048D01*
X78208380Y19521667D01*
X78398857Y19521667D01*
X78494095Y19474048D01*
X78541714Y19426429D01*
X78589333Y19331190D01*
X83017905Y20629619D02*
X83017905Y21629619D01*
X82446476Y20629619D02*
X82875048Y21201048D01*
X82446476Y21629619D02*
X83017905Y21058190D01*
X76946095Y20915333D02*
X76469904Y20915333D01*
X77041333Y20629619D02*
X76708000Y21629619D01*
X76374666Y20629619D01*
X49823476Y11739619D02*
X49823476Y12739619D01*
X49585381Y12739619D01*
X49442523Y12692000D01*
X49347285Y12596762D01*
X49299666Y12501524D01*
X49252047Y12311048D01*
X49252047Y12168190D01*
X49299666Y11977714D01*
X49347285Y11882476D01*
X49442523Y11787238D01*
X49585381Y11739619D01*
X49823476Y11739619D01*
X48918714Y12739619D02*
X48299666Y12739619D01*
X48633000Y12358667D01*
X48490142Y12358667D01*
X48394904Y12311048D01*
X48347285Y12263429D01*
X48299666Y12168190D01*
X48299666Y11930095D01*
X48347285Y11834857D01*
X48394904Y11787238D01*
X48490142Y11739619D01*
X48775857Y11739619D01*
X48871095Y11787238D01*
X48918714Y11834857D01*
X47680619Y12739619D02*
X47585380Y12739619D01*
X47490142Y12692000D01*
X47442523Y12644381D01*
X47394904Y12549143D01*
X47347285Y12358667D01*
X47347285Y12120571D01*
X47394904Y11930095D01*
X47442523Y11834857D01*
X47490142Y11787238D01*
X47585380Y11739619D01*
X47680619Y11739619D01*
X47775857Y11787238D01*
X47823476Y11834857D01*
X47871095Y11930095D01*
X47918714Y12120571D01*
X47918714Y12358667D01*
X47871095Y12549143D01*
X47823476Y12644381D01*
X47775857Y12692000D01*
X47680619Y12739619D01*
X47013952Y12739619D02*
X46347285Y12739619D01*
X46775857Y11739619D01*
X46156905Y9961619D02*
X46156905Y10961619D01*
X45585476Y9961619D02*
X46014048Y10533048D01*
X45585476Y10961619D02*
X46156905Y10390190D01*
X52181095Y10247333D02*
X51704904Y10247333D01*
X52276333Y9961619D02*
X51943000Y10961619D01*
X51609666Y9961619D01*
X61158381Y23788476D02*
X60158381Y23788476D01*
X60158381Y23550381D01*
X60206000Y23407523D01*
X60301238Y23312285D01*
X60396476Y23264666D01*
X60586952Y23217047D01*
X60729810Y23217047D01*
X60920286Y23264666D01*
X61015524Y23312285D01*
X61110762Y23407523D01*
X61158381Y23550381D01*
X61158381Y23788476D01*
X60158381Y22883714D02*
X60158381Y22264666D01*
X60539333Y22598000D01*
X60539333Y22455142D01*
X60586952Y22359904D01*
X60634571Y22312285D01*
X60729810Y22264666D01*
X60967905Y22264666D01*
X61063143Y22312285D01*
X61110762Y22359904D01*
X61158381Y22455142D01*
X61158381Y22740857D01*
X61110762Y22836095D01*
X61063143Y22883714D01*
X60158381Y21645619D02*
X60158381Y21550380D01*
X60206000Y21455142D01*
X60253619Y21407523D01*
X60348857Y21359904D01*
X60539333Y21312285D01*
X60777429Y21312285D01*
X60967905Y21359904D01*
X61063143Y21407523D01*
X61110762Y21455142D01*
X61158381Y21550380D01*
X61158381Y21645619D01*
X61110762Y21740857D01*
X61063143Y21788476D01*
X60967905Y21836095D01*
X60777429Y21883714D01*
X60539333Y21883714D01*
X60348857Y21836095D01*
X60253619Y21788476D01*
X60206000Y21740857D01*
X60158381Y21645619D01*
X60586952Y20740857D02*
X60539333Y20836095D01*
X60491714Y20883714D01*
X60396476Y20931333D01*
X60348857Y20931333D01*
X60253619Y20883714D01*
X60206000Y20836095D01*
X60158381Y20740857D01*
X60158381Y20550380D01*
X60206000Y20455142D01*
X60253619Y20407523D01*
X60348857Y20359904D01*
X60396476Y20359904D01*
X60491714Y20407523D01*
X60539333Y20455142D01*
X60586952Y20550380D01*
X60586952Y20740857D01*
X60634571Y20836095D01*
X60682190Y20883714D01*
X60777429Y20931333D01*
X60967905Y20931333D01*
X61063143Y20883714D01*
X61110762Y20836095D01*
X61158381Y20740857D01*
X61158381Y20550380D01*
X61110762Y20455142D01*
X61063143Y20407523D01*
X60967905Y20359904D01*
X60777429Y20359904D01*
X60682190Y20407523D01*
X60634571Y20455142D01*
X60586952Y20550380D01*
X62936381Y25359905D02*
X61936381Y25359905D01*
X62936381Y24788476D02*
X62364952Y25217048D01*
X61936381Y24788476D02*
X62507810Y25359905D01*
X62650667Y19336095D02*
X62650667Y18859904D01*
X62936381Y19431333D02*
X61936381Y19098000D01*
X62936381Y18764666D01*
X77255476Y28376619D02*
X77255476Y29376619D01*
X77017381Y29376619D01*
X76874523Y29329000D01*
X76779285Y29233762D01*
X76731666Y29138524D01*
X76684047Y28948048D01*
X76684047Y28805190D01*
X76731666Y28614714D01*
X76779285Y28519476D01*
X76874523Y28424238D01*
X77017381Y28376619D01*
X77255476Y28376619D01*
X76350714Y29376619D02*
X75731666Y29376619D01*
X76065000Y28995667D01*
X75922142Y28995667D01*
X75826904Y28948048D01*
X75779285Y28900429D01*
X75731666Y28805190D01*
X75731666Y28567095D01*
X75779285Y28471857D01*
X75826904Y28424238D01*
X75922142Y28376619D01*
X76207857Y28376619D01*
X76303095Y28424238D01*
X76350714Y28471857D01*
X74779285Y28376619D02*
X75350714Y28376619D01*
X75065000Y28376619D02*
X75065000Y29376619D01*
X75160238Y29233762D01*
X75255476Y29138524D01*
X75350714Y29090905D01*
X74160238Y29376619D02*
X74064999Y29376619D01*
X73969761Y29329000D01*
X73922142Y29281381D01*
X73874523Y29186143D01*
X73826904Y28995667D01*
X73826904Y28757571D01*
X73874523Y28567095D01*
X73922142Y28471857D01*
X73969761Y28424238D01*
X74064999Y28376619D01*
X74160238Y28376619D01*
X74255476Y28424238D01*
X74303095Y28471857D01*
X74350714Y28567095D01*
X74398333Y28757571D01*
X74398333Y28995667D01*
X74350714Y29186143D01*
X74303095Y29281381D01*
X74255476Y29329000D01*
X74160238Y29376619D01*
X73891905Y26725619D02*
X73891905Y27725619D01*
X73320476Y26725619D02*
X73749048Y27297048D01*
X73320476Y27725619D02*
X73891905Y27154190D01*
X79868095Y27011333D02*
X79391904Y27011333D01*
X79963333Y26725619D02*
X79630000Y27725619D01*
X79296666Y26725619D01*
X29408381Y63179047D02*
X28932190Y63512381D01*
X29408381Y63750476D02*
X28408381Y63750476D01*
X28408381Y63369523D01*
X28456000Y63274285D01*
X28503619Y63226666D01*
X28598857Y63179047D01*
X28741714Y63179047D01*
X28836952Y63226666D01*
X28884571Y63274285D01*
X28932190Y63369523D01*
X28932190Y63750476D01*
X28503619Y62798095D02*
X28456000Y62750476D01*
X28408381Y62655238D01*
X28408381Y62417142D01*
X28456000Y62321904D01*
X28503619Y62274285D01*
X28598857Y62226666D01*
X28694095Y62226666D01*
X28836952Y62274285D01*
X29408381Y62845714D01*
X29408381Y62226666D01*
X28408381Y61607619D02*
X28408381Y61512380D01*
X28456000Y61417142D01*
X28503619Y61369523D01*
X28598857Y61321904D01*
X28789333Y61274285D01*
X29027429Y61274285D01*
X29217905Y61321904D01*
X29313143Y61369523D01*
X29360762Y61417142D01*
X29408381Y61512380D01*
X29408381Y61607619D01*
X29360762Y61702857D01*
X29313143Y61750476D01*
X29217905Y61798095D01*
X29027429Y61845714D01*
X28789333Y61845714D01*
X28598857Y61798095D01*
X28503619Y61750476D01*
X28456000Y61702857D01*
X28408381Y61607619D01*
X28408381Y60369523D02*
X28408381Y60845714D01*
X28884571Y60893333D01*
X28836952Y60845714D01*
X28789333Y60750476D01*
X28789333Y60512380D01*
X28836952Y60417142D01*
X28884571Y60369523D01*
X28979810Y60321904D01*
X29217905Y60321904D01*
X29313143Y60369523D01*
X29360762Y60417142D01*
X29408381Y60512380D01*
X29408381Y60750476D01*
X29360762Y60845714D01*
X29313143Y60893333D01*
X18995433Y11783891D02*
X18519242Y12117225D01*
X18995433Y12355320D02*
X17995433Y12355320D01*
X17995433Y11974367D01*
X18043052Y11879129D01*
X18090671Y11831510D01*
X18185909Y11783891D01*
X18328766Y11783891D01*
X18424004Y11831510D01*
X18471623Y11879129D01*
X18519242Y11974367D01*
X18519242Y12355320D01*
X18090671Y11402939D02*
X18043052Y11355320D01*
X17995433Y11260082D01*
X17995433Y11021986D01*
X18043052Y10926748D01*
X18090671Y10879129D01*
X18185909Y10831510D01*
X18281147Y10831510D01*
X18424004Y10879129D01*
X18995433Y11450558D01*
X18995433Y10831510D01*
X18090671Y10450558D02*
X18043052Y10402939D01*
X17995433Y10307701D01*
X17995433Y10069605D01*
X18043052Y9974367D01*
X18090671Y9926748D01*
X18185909Y9879129D01*
X18281147Y9879129D01*
X18424004Y9926748D01*
X18995433Y10498177D01*
X18995433Y9879129D01*
X17995433Y9545796D02*
X17995433Y8879129D01*
X18995433Y9307701D01*
X20772381Y11787047D02*
X20296190Y12120381D01*
X20772381Y12358476D02*
X19772381Y12358476D01*
X19772381Y11977523D01*
X19820000Y11882285D01*
X19867619Y11834666D01*
X19962857Y11787047D01*
X20105714Y11787047D01*
X20200952Y11834666D01*
X20248571Y11882285D01*
X20296190Y11977523D01*
X20296190Y12358476D01*
X19867619Y11406095D02*
X19820000Y11358476D01*
X19772381Y11263238D01*
X19772381Y11025142D01*
X19820000Y10929904D01*
X19867619Y10882285D01*
X19962857Y10834666D01*
X20058095Y10834666D01*
X20200952Y10882285D01*
X20772381Y11453714D01*
X20772381Y10834666D01*
X19867619Y10453714D02*
X19820000Y10406095D01*
X19772381Y10310857D01*
X19772381Y10072761D01*
X19820000Y9977523D01*
X19867619Y9929904D01*
X19962857Y9882285D01*
X20058095Y9882285D01*
X20200952Y9929904D01*
X20772381Y10501333D01*
X20772381Y9882285D01*
X20772381Y9406095D02*
X20772381Y9215619D01*
X20724762Y9120380D01*
X20677143Y9072761D01*
X20534286Y8977523D01*
X20343810Y8929904D01*
X19962857Y8929904D01*
X19867619Y8977523D01*
X19820000Y9025142D01*
X19772381Y9120380D01*
X19772381Y9310857D01*
X19820000Y9406095D01*
X19867619Y9453714D01*
X19962857Y9501333D01*
X20200952Y9501333D01*
X20296190Y9453714D01*
X20343810Y9406095D01*
X20391429Y9310857D01*
X20391429Y9120380D01*
X20343810Y9025142D01*
X20296190Y8977523D01*
X20200952Y8929904D01*
X26773047Y11485619D02*
X27106381Y11961810D01*
X27344476Y11485619D02*
X27344476Y12485619D01*
X26963523Y12485619D01*
X26868285Y12438000D01*
X26820666Y12390381D01*
X26773047Y12295143D01*
X26773047Y12152286D01*
X26820666Y12057048D01*
X26868285Y12009429D01*
X26963523Y11961810D01*
X27344476Y11961810D01*
X26392095Y12390381D02*
X26344476Y12438000D01*
X26249238Y12485619D01*
X26011142Y12485619D01*
X25915904Y12438000D01*
X25868285Y12390381D01*
X25820666Y12295143D01*
X25820666Y12199905D01*
X25868285Y12057048D01*
X26439714Y11485619D01*
X25820666Y11485619D01*
X25487333Y12485619D02*
X24868285Y12485619D01*
X25201619Y12104667D01*
X25058761Y12104667D01*
X24963523Y12057048D01*
X24915904Y12009429D01*
X24868285Y11914190D01*
X24868285Y11676095D01*
X24915904Y11580857D01*
X24963523Y11533238D01*
X25058761Y11485619D01*
X25344476Y11485619D01*
X25439714Y11533238D01*
X25487333Y11580857D01*
X24249238Y12485619D02*
X24153999Y12485619D01*
X24058761Y12438000D01*
X24011142Y12390381D01*
X23963523Y12295143D01*
X23915904Y12104667D01*
X23915904Y11866571D01*
X23963523Y11676095D01*
X24011142Y11580857D01*
X24058761Y11533238D01*
X24153999Y11485619D01*
X24249238Y11485619D01*
X24344476Y11533238D01*
X24392095Y11580857D01*
X24439714Y11676095D01*
X24487333Y11866571D01*
X24487333Y12104667D01*
X24439714Y12295143D01*
X24392095Y12390381D01*
X24344476Y12438000D01*
X24249238Y12485619D01*
X37504547Y6913619D02*
X37837881Y7389810D01*
X38075976Y6913619D02*
X38075976Y7913619D01*
X37695023Y7913619D01*
X37599785Y7866000D01*
X37552166Y7818381D01*
X37504547Y7723143D01*
X37504547Y7580286D01*
X37552166Y7485048D01*
X37599785Y7437429D01*
X37695023Y7389810D01*
X38075976Y7389810D01*
X37123595Y7818381D02*
X37075976Y7866000D01*
X36980738Y7913619D01*
X36742642Y7913619D01*
X36647404Y7866000D01*
X36599785Y7818381D01*
X36552166Y7723143D01*
X36552166Y7627905D01*
X36599785Y7485048D01*
X37171214Y6913619D01*
X36552166Y6913619D01*
X36218833Y7913619D02*
X35599785Y7913619D01*
X35933119Y7532667D01*
X35790261Y7532667D01*
X35695023Y7485048D01*
X35647404Y7437429D01*
X35599785Y7342190D01*
X35599785Y7104095D01*
X35647404Y7008857D01*
X35695023Y6961238D01*
X35790261Y6913619D01*
X36075976Y6913619D01*
X36171214Y6961238D01*
X36218833Y7008857D01*
X34647404Y6913619D02*
X35218833Y6913619D01*
X34933119Y6913619D02*
X34933119Y7913619D01*
X35028357Y7770762D01*
X35123595Y7675524D01*
X35218833Y7627905D01*
X72380476Y10977619D02*
X72380476Y11977619D01*
X72142381Y11977619D01*
X71999523Y11930000D01*
X71904285Y11834762D01*
X71856666Y11739524D01*
X71809047Y11549048D01*
X71809047Y11406190D01*
X71856666Y11215714D01*
X71904285Y11120476D01*
X71999523Y11025238D01*
X72142381Y10977619D01*
X72380476Y10977619D01*
X71475714Y11977619D02*
X70856666Y11977619D01*
X71190000Y11596667D01*
X71047142Y11596667D01*
X70951904Y11549048D01*
X70904285Y11501429D01*
X70856666Y11406190D01*
X70856666Y11168095D01*
X70904285Y11072857D01*
X70951904Y11025238D01*
X71047142Y10977619D01*
X71332857Y10977619D01*
X71428095Y11025238D01*
X71475714Y11072857D01*
X70237619Y11977619D02*
X70142380Y11977619D01*
X70047142Y11930000D01*
X69999523Y11882381D01*
X69951904Y11787143D01*
X69904285Y11596667D01*
X69904285Y11358571D01*
X69951904Y11168095D01*
X69999523Y11072857D01*
X70047142Y11025238D01*
X70142380Y10977619D01*
X70237619Y10977619D01*
X70332857Y11025238D01*
X70380476Y11072857D01*
X70428095Y11168095D01*
X70475714Y11358571D01*
X70475714Y11596667D01*
X70428095Y11787143D01*
X70380476Y11882381D01*
X70332857Y11930000D01*
X70237619Y11977619D01*
X68951904Y10977619D02*
X69523333Y10977619D01*
X69237619Y10977619D02*
X69237619Y11977619D01*
X69332857Y11834762D01*
X69428095Y11739524D01*
X69523333Y11691905D01*
X67951905Y9199619D02*
X67951905Y10199619D01*
X67380476Y9199619D02*
X67809048Y9771048D01*
X67380476Y10199619D02*
X67951905Y9628190D01*
X73928095Y9485333D02*
X73451904Y9485333D01*
X74023333Y9199619D02*
X73690000Y10199619D01*
X73356666Y9199619D01*
X88890476Y11407619D02*
X88890476Y12407619D01*
X88652381Y12407619D01*
X88509523Y12360000D01*
X88414285Y12264762D01*
X88366666Y12169524D01*
X88319047Y11979048D01*
X88319047Y11836190D01*
X88366666Y11645714D01*
X88414285Y11550476D01*
X88509523Y11455238D01*
X88652381Y11407619D01*
X88890476Y11407619D01*
X87985714Y12407619D02*
X87366666Y12407619D01*
X87700000Y12026667D01*
X87557142Y12026667D01*
X87461904Y11979048D01*
X87414285Y11931429D01*
X87366666Y11836190D01*
X87366666Y11598095D01*
X87414285Y11502857D01*
X87461904Y11455238D01*
X87557142Y11407619D01*
X87842857Y11407619D01*
X87938095Y11455238D01*
X87985714Y11502857D01*
X86747619Y12407619D02*
X86652380Y12407619D01*
X86557142Y12360000D01*
X86509523Y12312381D01*
X86461904Y12217143D01*
X86414285Y12026667D01*
X86414285Y11788571D01*
X86461904Y11598095D01*
X86509523Y11502857D01*
X86557142Y11455238D01*
X86652380Y11407619D01*
X86747619Y11407619D01*
X86842857Y11455238D01*
X86890476Y11502857D01*
X86938095Y11598095D01*
X86985714Y11788571D01*
X86985714Y12026667D01*
X86938095Y12217143D01*
X86890476Y12312381D01*
X86842857Y12360000D01*
X86747619Y12407619D01*
X86033333Y12312381D02*
X85985714Y12360000D01*
X85890476Y12407619D01*
X85652380Y12407619D01*
X85557142Y12360000D01*
X85509523Y12312381D01*
X85461904Y12217143D01*
X85461904Y12121905D01*
X85509523Y11979048D01*
X86080952Y11407619D01*
X85461904Y11407619D01*
X90461905Y9707619D02*
X90461905Y10707619D01*
X89890476Y9707619D02*
X90319048Y10279048D01*
X89890476Y10707619D02*
X90461905Y10136190D01*
X84438095Y9993333D02*
X83961904Y9993333D01*
X84533333Y9707619D02*
X84200000Y10707619D01*
X83866666Y9707619D01*
X50395047Y68222857D02*
X50442666Y68175238D01*
X50585523Y68127619D01*
X50680761Y68127619D01*
X50823619Y68175238D01*
X50918857Y68270476D01*
X50966476Y68365714D01*
X51014095Y68556190D01*
X51014095Y68699048D01*
X50966476Y68889524D01*
X50918857Y68984762D01*
X50823619Y69080000D01*
X50680761Y69127619D01*
X50585523Y69127619D01*
X50442666Y69080000D01*
X50395047Y69032381D01*
X49537904Y68794286D02*
X49537904Y68127619D01*
X49776000Y69175238D02*
X50014095Y68460952D01*
X49395047Y68460952D01*
X48585523Y68794286D02*
X48585523Y68127619D01*
X48823619Y69175238D02*
X49061714Y68460952D01*
X48442666Y68460952D01*
X47633142Y69127619D02*
X47823619Y69127619D01*
X47918857Y69080000D01*
X47966476Y69032381D01*
X48061714Y68889524D01*
X48109333Y68699048D01*
X48109333Y68318095D01*
X48061714Y68222857D01*
X48014095Y68175238D01*
X47918857Y68127619D01*
X47728380Y68127619D01*
X47633142Y68175238D01*
X47585523Y68222857D01*
X47537904Y68318095D01*
X47537904Y68556190D01*
X47585523Y68651429D01*
X47633142Y68699048D01*
X47728380Y68746667D01*
X47918857Y68746667D01*
X48014095Y68699048D01*
X48061714Y68651429D01*
X48109333Y68556190D01*
X46585047Y76858857D02*
X46632666Y76811238D01*
X46775523Y76763619D01*
X46870761Y76763619D01*
X47013619Y76811238D01*
X47108857Y76906476D01*
X47156476Y77001714D01*
X47204095Y77192190D01*
X47204095Y77335048D01*
X47156476Y77525524D01*
X47108857Y77620762D01*
X47013619Y77716000D01*
X46870761Y77763619D01*
X46775523Y77763619D01*
X46632666Y77716000D01*
X46585047Y77668381D01*
X45727904Y77430286D02*
X45727904Y76763619D01*
X45966000Y77811238D02*
X46204095Y77096952D01*
X45585047Y77096952D01*
X44775523Y77430286D02*
X44775523Y76763619D01*
X45013619Y77811238D02*
X45251714Y77096952D01*
X44632666Y77096952D01*
X44346952Y77763619D02*
X43680285Y77763619D01*
X44108857Y76763619D01*
X66397143Y49506047D02*
X66444762Y49553666D01*
X66492381Y49696523D01*
X66492381Y49791761D01*
X66444762Y49934619D01*
X66349524Y50029857D01*
X66254286Y50077476D01*
X66063810Y50125095D01*
X65920952Y50125095D01*
X65730476Y50077476D01*
X65635238Y50029857D01*
X65540000Y49934619D01*
X65492381Y49791761D01*
X65492381Y49696523D01*
X65540000Y49553666D01*
X65587619Y49506047D01*
X65825714Y48648904D02*
X66492381Y48648904D01*
X65444762Y48887000D02*
X66159048Y49125095D01*
X66159048Y48506047D01*
X65492381Y47648904D02*
X65492381Y48125095D01*
X65968571Y48172714D01*
X65920952Y48125095D01*
X65873333Y48029857D01*
X65873333Y47791761D01*
X65920952Y47696523D01*
X65968571Y47648904D01*
X66063810Y47601285D01*
X66301905Y47601285D01*
X66397143Y47648904D01*
X66444762Y47696523D01*
X66492381Y47791761D01*
X66492381Y48029857D01*
X66444762Y48125095D01*
X66397143Y48172714D01*
X65492381Y46982238D02*
X65492381Y46886999D01*
X65540000Y46791761D01*
X65587619Y46744142D01*
X65682857Y46696523D01*
X65873333Y46648904D01*
X66111429Y46648904D01*
X66301905Y46696523D01*
X66397143Y46744142D01*
X66444762Y46791761D01*
X66492381Y46886999D01*
X66492381Y46982238D01*
X66444762Y47077476D01*
X66397143Y47125095D01*
X66301905Y47172714D01*
X66111429Y47220333D01*
X65873333Y47220333D01*
X65682857Y47172714D01*
X65587619Y47125095D01*
X65540000Y47077476D01*
X65492381Y46982238D01*
X70080143Y49506047D02*
X70127762Y49553666D01*
X70175381Y49696523D01*
X70175381Y49791761D01*
X70127762Y49934619D01*
X70032524Y50029857D01*
X69937286Y50077476D01*
X69746810Y50125095D01*
X69603952Y50125095D01*
X69413476Y50077476D01*
X69318238Y50029857D01*
X69223000Y49934619D01*
X69175381Y49791761D01*
X69175381Y49696523D01*
X69223000Y49553666D01*
X69270619Y49506047D01*
X69508714Y48648904D02*
X70175381Y48648904D01*
X69127762Y48887000D02*
X69842048Y49125095D01*
X69842048Y48506047D01*
X69175381Y47648904D02*
X69175381Y48125095D01*
X69651571Y48172714D01*
X69603952Y48125095D01*
X69556333Y48029857D01*
X69556333Y47791761D01*
X69603952Y47696523D01*
X69651571Y47648904D01*
X69746810Y47601285D01*
X69984905Y47601285D01*
X70080143Y47648904D01*
X70127762Y47696523D01*
X70175381Y47791761D01*
X70175381Y48029857D01*
X70127762Y48125095D01*
X70080143Y48172714D01*
X70175381Y46648904D02*
X70175381Y47220333D01*
X70175381Y46934619D02*
X69175381Y46934619D01*
X69318238Y47029857D01*
X69413476Y47125095D01*
X69461095Y47220333D01*
X6580143Y27535047D02*
X6627762Y27582666D01*
X6675381Y27725523D01*
X6675381Y27820761D01*
X6627762Y27963619D01*
X6532524Y28058857D01*
X6437286Y28106476D01*
X6246810Y28154095D01*
X6103952Y28154095D01*
X5913476Y28106476D01*
X5818238Y28058857D01*
X5723000Y27963619D01*
X5675381Y27820761D01*
X5675381Y27725523D01*
X5723000Y27582666D01*
X5770619Y27535047D01*
X6008714Y26677904D02*
X6675381Y26677904D01*
X5627762Y26916000D02*
X6342048Y27154095D01*
X6342048Y26535047D01*
X5675381Y25725523D02*
X5675381Y25916000D01*
X5723000Y26011238D01*
X5770619Y26058857D01*
X5913476Y26154095D01*
X6103952Y26201714D01*
X6484905Y26201714D01*
X6580143Y26154095D01*
X6627762Y26106476D01*
X6675381Y26011238D01*
X6675381Y25820761D01*
X6627762Y25725523D01*
X6580143Y25677904D01*
X6484905Y25630285D01*
X6246810Y25630285D01*
X6151571Y25677904D01*
X6103952Y25725523D01*
X6056333Y25820761D01*
X6056333Y26011238D01*
X6103952Y26106476D01*
X6151571Y26154095D01*
X6246810Y26201714D01*
X5675381Y25011238D02*
X5675381Y24915999D01*
X5723000Y24820761D01*
X5770619Y24773142D01*
X5865857Y24725523D01*
X6056333Y24677904D01*
X6294429Y24677904D01*
X6484905Y24725523D01*
X6580143Y24773142D01*
X6627762Y24820761D01*
X6675381Y24915999D01*
X6675381Y25011238D01*
X6627762Y25106476D01*
X6580143Y25154095D01*
X6484905Y25201714D01*
X6294429Y25249333D01*
X6056333Y25249333D01*
X5865857Y25201714D01*
X5770619Y25154095D01*
X5723000Y25106476D01*
X5675381Y25011238D01*
X35282143Y26773047D02*
X35329762Y26820666D01*
X35377381Y26963523D01*
X35377381Y27058761D01*
X35329762Y27201619D01*
X35234524Y27296857D01*
X35139286Y27344476D01*
X34948810Y27392095D01*
X34805952Y27392095D01*
X34615476Y27344476D01*
X34520238Y27296857D01*
X34425000Y27201619D01*
X34377381Y27058761D01*
X34377381Y26963523D01*
X34425000Y26820666D01*
X34472619Y26773047D01*
X34710714Y25915904D02*
X35377381Y25915904D01*
X34329762Y26154000D02*
X35044048Y26392095D01*
X35044048Y25773047D01*
X34377381Y24963523D02*
X34377381Y25154000D01*
X34425000Y25249238D01*
X34472619Y25296857D01*
X34615476Y25392095D01*
X34805952Y25439714D01*
X35186905Y25439714D01*
X35282143Y25392095D01*
X35329762Y25344476D01*
X35377381Y25249238D01*
X35377381Y25058761D01*
X35329762Y24963523D01*
X35282143Y24915904D01*
X35186905Y24868285D01*
X34948810Y24868285D01*
X34853571Y24915904D01*
X34805952Y24963523D01*
X34758333Y25058761D01*
X34758333Y25249238D01*
X34805952Y25344476D01*
X34853571Y25392095D01*
X34948810Y25439714D01*
X35377381Y23915904D02*
X35377381Y24487333D01*
X35377381Y24201619D02*
X34377381Y24201619D01*
X34520238Y24296857D01*
X34615476Y24392095D01*
X34663095Y24487333D01*
X54792286Y57189619D02*
X54220857Y57189619D01*
X54506572Y56189619D02*
X54506572Y57189619D01*
X53887524Y56189619D02*
X53887524Y57189619D01*
X53506571Y57189619D01*
X53411333Y57142000D01*
X53363714Y57094381D01*
X53316095Y56999143D01*
X53316095Y56856286D01*
X53363714Y56761048D01*
X53411333Y56713429D01*
X53506571Y56665810D01*
X53887524Y56665810D01*
X52458952Y56856286D02*
X52458952Y56189619D01*
X52697048Y57237238D02*
X52935143Y56522952D01*
X52316095Y56522952D01*
X51744667Y57189619D02*
X51649428Y57189619D01*
X51554190Y57142000D01*
X51506571Y57094381D01*
X51458952Y56999143D01*
X51411333Y56808667D01*
X51411333Y56570571D01*
X51458952Y56380095D01*
X51506571Y56284857D01*
X51554190Y56237238D01*
X51649428Y56189619D01*
X51744667Y56189619D01*
X51839905Y56237238D01*
X51887524Y56284857D01*
X51935143Y56380095D01*
X51982762Y56570571D01*
X51982762Y56808667D01*
X51935143Y56999143D01*
X51887524Y57094381D01*
X51839905Y57142000D01*
X51744667Y57189619D01*
X51030381Y57094381D02*
X50982762Y57142000D01*
X50887524Y57189619D01*
X50649428Y57189619D01*
X50554190Y57142000D01*
X50506571Y57094381D01*
X50458952Y56999143D01*
X50458952Y56903905D01*
X50506571Y56761048D01*
X51078000Y56189619D01*
X50458952Y56189619D01*
X52125286Y60110619D02*
X51553857Y60110619D01*
X51839572Y59110619D02*
X51839572Y60110619D01*
X51220524Y59110619D02*
X51220524Y60110619D01*
X50839571Y60110619D01*
X50744333Y60063000D01*
X50696714Y60015381D01*
X50649095Y59920143D01*
X50649095Y59777286D01*
X50696714Y59682048D01*
X50744333Y59634429D01*
X50839571Y59586810D01*
X51220524Y59586810D01*
X49791952Y59777286D02*
X49791952Y59110619D01*
X50030048Y60158238D02*
X50268143Y59443952D01*
X49649095Y59443952D01*
X49077667Y60110619D02*
X48982428Y60110619D01*
X48887190Y60063000D01*
X48839571Y60015381D01*
X48791952Y59920143D01*
X48744333Y59729667D01*
X48744333Y59491571D01*
X48791952Y59301095D01*
X48839571Y59205857D01*
X48887190Y59158238D01*
X48982428Y59110619D01*
X49077667Y59110619D01*
X49172905Y59158238D01*
X49220524Y59205857D01*
X49268143Y59301095D01*
X49315762Y59491571D01*
X49315762Y59729667D01*
X49268143Y59920143D01*
X49220524Y60015381D01*
X49172905Y60063000D01*
X49077667Y60110619D01*
X47791952Y59110619D02*
X48363381Y59110619D01*
X48077667Y59110619D02*
X48077667Y60110619D01*
X48172905Y59967762D01*
X48268143Y59872524D01*
X48363381Y59824905D01*
M02*
