G04 #@! TF.FileFunction,Soldermask,Top*
%FSLAX46Y46*%
G04 Gerber Fmt 4.6, Leading zero omitted, Abs format (unit mm)*
G04 Created by KiCad (PCBNEW 4.0.2-stable) date 25/05/2016 09:56:59*
%MOMM*%
G01*
G04 APERTURE LIST*
%ADD10C,0.100000*%
%ADD11C,0.150000*%
%ADD12R,1.300000X1.700000*%
%ADD13R,1.600000X1.300000*%
%ADD14R,1.200000X1.300000*%
%ADD15R,1.700000X1.300000*%
%ADD16R,2.100000X1.500000*%
%ADD17R,1.500000X2.100000*%
%ADD18R,1.300000X1.300000*%
%ADD19R,4.000000X2.600000*%
%ADD20R,0.950000X2.550000*%
%ADD21C,2.000000*%
%ADD22O,3.600000X2.000000*%
%ADD23C,2.400000*%
%ADD24C,2.100000*%
%ADD25C,6.200000*%
%ADD26C,3.000000*%
%ADD27R,4.000000X2.400000*%
%ADD28R,1.600000X2.400000*%
%ADD29R,1.050000X1.600000*%
G04 APERTURE END LIST*
D10*
D11*
X100000000Y0D02*
X0Y0D01*
X100000000Y100000000D02*
X100000000Y0D01*
X0Y100000000D02*
X100000000Y100000000D01*
X0Y0D02*
X0Y100000000D01*
D12*
X37592000Y6858000D03*
X39792000Y6858000D03*
X70950000Y30734000D03*
X68750000Y30734000D03*
D13*
X37006000Y20066000D03*
D14*
X35306000Y20066000D03*
X35306000Y18266000D03*
X37206000Y18266000D03*
D15*
X55880000Y13632000D03*
X55880000Y15832000D03*
D12*
X13835000Y83058000D03*
X16035000Y83058000D03*
X21201000Y83058000D03*
X23401000Y83058000D03*
X28567000Y83058000D03*
X30767000Y83058000D03*
X35933000Y83058000D03*
X38133000Y83058000D03*
X44315000Y83058000D03*
X46515000Y83058000D03*
X51681000Y83058000D03*
X53881000Y83058000D03*
X59047000Y83058000D03*
X61247000Y83058000D03*
X66413000Y83058000D03*
X68613000Y83058000D03*
D15*
X82118000Y86190000D03*
X82118000Y83990000D03*
D16*
X20904000Y77294000D03*
X20904000Y80694000D03*
X23698000Y77294000D03*
X23698000Y80694000D03*
X28270000Y77294000D03*
X28270000Y80694000D03*
X31064000Y77294000D03*
X31064000Y80694000D03*
X35636000Y77294000D03*
X35636000Y80694000D03*
X38430000Y77294000D03*
X38430000Y80694000D03*
X44018000Y77294000D03*
X44018000Y80694000D03*
X46812000Y77294000D03*
X46812000Y80694000D03*
X51384000Y77294000D03*
X51384000Y80694000D03*
X54178000Y77294000D03*
X54178000Y80694000D03*
X58750000Y77294000D03*
X58750000Y80694000D03*
X61544000Y77294000D03*
X61544000Y80694000D03*
X66116000Y77294000D03*
X66116000Y80694000D03*
X68910000Y77294000D03*
X68910000Y80694000D03*
D17*
X84482000Y86487000D03*
X87882000Y86487000D03*
X84482000Y83693000D03*
X87882000Y83693000D03*
X84482000Y79121000D03*
X87882000Y79121000D03*
X84482000Y76327000D03*
X87882000Y76327000D03*
X84482000Y71755000D03*
X87882000Y71755000D03*
X84482000Y68961000D03*
X87882000Y68961000D03*
X84482000Y64389000D03*
X87882000Y64389000D03*
X84482000Y61595000D03*
X87882000Y61595000D03*
X84482000Y55372000D03*
X87882000Y55372000D03*
X84482000Y52578000D03*
X87882000Y52578000D03*
X84482000Y48006000D03*
X87882000Y48006000D03*
X84482000Y45212000D03*
X87882000Y45212000D03*
X84482000Y40640000D03*
X87882000Y40640000D03*
X84482000Y37846000D03*
X87882000Y37846000D03*
X76354000Y86487000D03*
X79754000Y86487000D03*
X76354000Y83693000D03*
X79754000Y83693000D03*
X76354000Y79121000D03*
X79754000Y79121000D03*
X76354000Y76327000D03*
X79754000Y76327000D03*
X76354000Y71755000D03*
X79754000Y71755000D03*
X76354000Y68961000D03*
X79754000Y68961000D03*
X76354000Y64389000D03*
X79754000Y64389000D03*
X76354000Y61595000D03*
X79754000Y61595000D03*
X76354000Y55372000D03*
X79754000Y55372000D03*
X76354000Y52578000D03*
X79754000Y52578000D03*
X76354000Y48006000D03*
X79754000Y48006000D03*
X76354000Y45212000D03*
X79754000Y45212000D03*
X76354000Y40640000D03*
X79754000Y40640000D03*
X76354000Y37846000D03*
X79754000Y37846000D03*
D15*
X82118000Y78824000D03*
X82118000Y76624000D03*
X82118000Y71458000D03*
X82118000Y69258000D03*
X82118000Y64092000D03*
X82118000Y61892000D03*
X82118000Y55075000D03*
X82118000Y52875000D03*
X82118000Y47709000D03*
X82118000Y45509000D03*
X82118000Y40343000D03*
X82118000Y38143000D03*
D18*
X31445000Y61534000D03*
X31445000Y63434000D03*
X44450000Y41148000D03*
X46350000Y41148000D03*
X61788000Y49784000D03*
X63688000Y49784000D03*
D10*
G36*
X55609610Y44689951D02*
X56528849Y45609190D01*
X57448088Y44689951D01*
X56528849Y43770712D01*
X55609610Y44689951D01*
X55609610Y44689951D01*
G37*
G36*
X56953112Y43346449D02*
X57872351Y44265688D01*
X58791590Y43346449D01*
X57872351Y42427210D01*
X56953112Y43346449D01*
X56953112Y43346449D01*
G37*
D18*
X45034000Y66614000D03*
X45034000Y68514000D03*
D10*
G36*
X39944990Y61812249D02*
X39025751Y60893010D01*
X38106512Y61812249D01*
X39025751Y62731488D01*
X39944990Y61812249D01*
X39944990Y61812249D01*
G37*
G36*
X38601488Y63155751D02*
X37682249Y62236512D01*
X36763010Y63155751D01*
X37682249Y64074990D01*
X38601488Y63155751D01*
X38601488Y63155751D01*
G37*
D18*
X49606000Y66614000D03*
X49606000Y68514000D03*
X47320000Y68514000D03*
X47320000Y66614000D03*
X61788000Y54864000D03*
X63688000Y54864000D03*
X63688000Y52324000D03*
X61788000Y52324000D03*
X36205000Y51562000D03*
X34305000Y51562000D03*
X44450000Y38735000D03*
X46350000Y38735000D03*
X36763800Y59029600D03*
X34863800Y59029600D03*
X50556000Y41656000D03*
X48656000Y41656000D03*
X50556000Y39116000D03*
X48656000Y39116000D03*
X35570000Y63500000D03*
X33670000Y63500000D03*
X50556000Y36576000D03*
X48656000Y36576000D03*
X35570000Y61468000D03*
X33670000Y61468000D03*
X39634000Y48260000D03*
X37734000Y48260000D03*
X35559800Y55814000D03*
X35559800Y53914000D03*
X33020000Y55814000D03*
X33020000Y53914000D03*
X30480000Y55814000D03*
X30480000Y53914000D03*
D19*
X75946000Y12953800D03*
D20*
X75946000Y19214900D03*
X73406000Y19214900D03*
X78486000Y19214900D03*
X77216000Y19214900D03*
X74676000Y19214900D03*
D16*
X13538000Y85422000D03*
X13538000Y88822000D03*
X16332000Y85422000D03*
X16332000Y88822000D03*
X20904000Y85422000D03*
X20904000Y88822000D03*
X23698000Y85422000D03*
X23698000Y88822000D03*
X28270000Y85422000D03*
X28270000Y88822000D03*
X31064000Y85422000D03*
X31064000Y88822000D03*
X35636000Y85422000D03*
X35636000Y88822000D03*
X38430000Y85422000D03*
X38430000Y88822000D03*
X44018000Y85422000D03*
X44018000Y88822000D03*
X46812000Y85422000D03*
X46812000Y88822000D03*
X51384000Y85422000D03*
X51384000Y88822000D03*
X54178000Y85422000D03*
X54178000Y88822000D03*
X58750000Y85422000D03*
X58750000Y88822000D03*
X61544000Y85422000D03*
X61544000Y88822000D03*
X66116000Y85422000D03*
X66116000Y88822000D03*
X68910000Y85422000D03*
X68910000Y88822000D03*
X13538000Y77294000D03*
X13538000Y80694000D03*
X16332000Y77294000D03*
X16332000Y80694000D03*
D15*
X65786000Y30734000D03*
X65786000Y28534000D03*
D12*
X37506000Y29464000D03*
X35306000Y29464000D03*
X37506000Y23114000D03*
X35306000Y23114000D03*
D15*
X37084000Y11852000D03*
X37084000Y9652000D03*
D12*
X45720000Y22860000D03*
X47920000Y22860000D03*
D15*
X55880000Y27686000D03*
X55880000Y25486000D03*
D17*
X84482000Y33274000D03*
X87882000Y33274000D03*
X84482000Y30480000D03*
X87882000Y30480000D03*
X76354000Y33274000D03*
X79754000Y33274000D03*
X76354000Y30480000D03*
X79754000Y30480000D03*
D15*
X70612000Y15240000D03*
X70612000Y13040000D03*
D12*
X68412000Y18034000D03*
X70612000Y18034000D03*
D15*
X67310000Y15240000D03*
X67310000Y13040000D03*
D12*
X23452000Y58420000D03*
X21252000Y58420000D03*
X21252000Y53340000D03*
X23452000Y53340000D03*
X21252000Y55880000D03*
X23452000Y55880000D03*
X21252000Y60960000D03*
X23452000Y60960000D03*
X33612000Y47244000D03*
X31412000Y47244000D03*
X33612000Y44450000D03*
X31412000Y44450000D03*
D21*
X72390000Y6600000D03*
D22*
X75565000Y6600000D03*
D21*
X85090000Y6600000D03*
D22*
X81915000Y6600000D03*
D15*
X45720000Y17696000D03*
X45720000Y19896000D03*
D12*
X61044000Y28321000D03*
X58844000Y28321000D03*
D15*
X65786000Y25908000D03*
X65786000Y23708000D03*
D12*
X56050000Y39370000D03*
X58250000Y39370000D03*
X35306000Y26416000D03*
X37506000Y26416000D03*
D15*
X40386000Y11852000D03*
X40386000Y9652000D03*
D12*
X50292000Y22860000D03*
X52492000Y22860000D03*
D15*
X39878000Y17864000D03*
X39878000Y15664000D03*
X39878000Y21252000D03*
X39878000Y23452000D03*
X55880000Y22690000D03*
X55880000Y20490000D03*
X82118000Y32977000D03*
X82118000Y30777000D03*
D12*
X70950000Y21209000D03*
X68750000Y21209000D03*
X70950000Y24384000D03*
X68750000Y24384000D03*
X70950000Y27559000D03*
X68750000Y27559000D03*
X61044000Y19050000D03*
X58844000Y19050000D03*
X48557000Y14986000D03*
X50757000Y14986000D03*
X61044000Y22098000D03*
X58844000Y22098000D03*
X45931000Y14732000D03*
X43731000Y14732000D03*
X61044000Y25273000D03*
X58844000Y25273000D03*
X48557000Y18034000D03*
X50757000Y18034000D03*
D15*
X58674000Y13632000D03*
X58674000Y15832000D03*
X52451000Y5164000D03*
X52451000Y2964000D03*
X83820000Y24554000D03*
X83820000Y26754000D03*
D12*
X61214000Y10668000D03*
X63414000Y10668000D03*
D15*
X52451000Y7917000D03*
X52451000Y10117000D03*
X55499000Y5164000D03*
X55499000Y2964000D03*
D23*
X65278000Y3556000D03*
X65278000Y7056000D03*
D15*
X80772000Y24554000D03*
X80772000Y26754000D03*
D23*
X93472000Y13970000D03*
X96972000Y13970000D03*
X85344000Y21082000D03*
X85344000Y17582000D03*
D15*
X86868000Y24554000D03*
X86868000Y26754000D03*
D24*
X45720000Y27432000D03*
X43220000Y27432000D03*
X46716000Y72542400D03*
X44216000Y72542400D03*
X74950000Y24130000D03*
X77450000Y24130000D03*
X52578000Y27686000D03*
X50078000Y27686000D03*
X71343000Y58293000D03*
X73843000Y58293000D03*
X65548978Y57717944D03*
X65548978Y60217944D03*
X67830500Y53213000D03*
X67830500Y50713000D03*
X62861313Y33039203D03*
X60361313Y33039203D03*
D15*
X27178000Y63160000D03*
X27178000Y60960000D03*
X32004000Y21674000D03*
X32004000Y19474000D03*
D21*
X95072000Y28956000D03*
X92532000Y28956000D03*
X95072000Y31496000D03*
X92532000Y31496000D03*
X95072000Y34036000D03*
X92532000Y34036000D03*
X95072000Y36576000D03*
X92532000Y36576000D03*
X95072000Y39116000D03*
X92532000Y39116000D03*
X95072000Y41656000D03*
X92532000Y41656000D03*
X95072000Y44196000D03*
X92532000Y44196000D03*
X95072000Y46736000D03*
X92532000Y46736000D03*
X95072000Y49276000D03*
X92532000Y49276000D03*
X95072000Y51816000D03*
X92532000Y51816000D03*
X95072000Y62611000D03*
X92532000Y62611000D03*
X95072000Y65151000D03*
X92532000Y65151000D03*
X95072000Y67691000D03*
X92532000Y67691000D03*
X95072000Y70231000D03*
X92532000Y70231000D03*
X95072000Y72771000D03*
X92532000Y72771000D03*
X95072000Y75311000D03*
X92532000Y75311000D03*
X95072000Y77851000D03*
X92532000Y77851000D03*
X95072000Y80391000D03*
X92532000Y80391000D03*
X95072000Y82931000D03*
X92532000Y82931000D03*
X95072000Y85471000D03*
X92532000Y85471000D03*
X71069000Y96012000D03*
X71069000Y93472000D03*
X68529000Y96012000D03*
X68529000Y93472000D03*
X65989000Y96012000D03*
X65989000Y93472000D03*
X63449000Y96012000D03*
X63449000Y93472000D03*
X60909000Y96012000D03*
X60909000Y93472000D03*
X58369000Y96012000D03*
X58369000Y93472000D03*
X55829000Y96012000D03*
X55829000Y93472000D03*
X53289000Y96012000D03*
X53289000Y93472000D03*
X50749000Y96012000D03*
X50749000Y93472000D03*
X48209000Y96012000D03*
X48209000Y93472000D03*
X37414000Y96012000D03*
X37414000Y93472000D03*
X34874000Y96012000D03*
X34874000Y93472000D03*
X32334000Y96012000D03*
X32334000Y93472000D03*
X29794000Y96012000D03*
X29794000Y93472000D03*
X27254000Y96012000D03*
X27254000Y93472000D03*
X24714000Y96012000D03*
X24714000Y93472000D03*
X22174000Y96012000D03*
X22174000Y93472000D03*
X19634000Y96012000D03*
X19634000Y93472000D03*
X17094000Y96012000D03*
X17094000Y93472000D03*
X14554000Y96012000D03*
X14554000Y93472000D03*
X13970000Y60960000D03*
X16510000Y60960000D03*
X13970000Y58420000D03*
X16510000Y58420000D03*
X13970000Y55880000D03*
X16510000Y55880000D03*
X13970000Y53340000D03*
X16510000Y53340000D03*
X13970000Y50800000D03*
X16510000Y50800000D03*
X13970000Y39878000D03*
X16510000Y39878000D03*
X13970000Y37338000D03*
X16510000Y37338000D03*
X13970000Y34798000D03*
X16510000Y34798000D03*
X13970000Y32258000D03*
X16510000Y32258000D03*
X13970000Y29718000D03*
X16510000Y29718000D03*
X4572000Y39878000D03*
X7112000Y39878000D03*
X4572000Y37338000D03*
X7112000Y37338000D03*
X4572000Y34798000D03*
X7112000Y34798000D03*
X4572000Y32258000D03*
X7112000Y32258000D03*
X4572000Y29718000D03*
X7112000Y29718000D03*
X4572000Y60960000D03*
X7112000Y60960000D03*
X4572000Y58420000D03*
X7112000Y58420000D03*
X4572000Y55880000D03*
X7112000Y55880000D03*
X4572000Y53340000D03*
X7112000Y53340000D03*
X4572000Y50800000D03*
X7112000Y50800000D03*
D10*
G36*
X46468679Y64863048D02*
X47069720Y65464089D01*
X48201091Y64332718D01*
X47600050Y63731677D01*
X46468679Y64863048D01*
X46468679Y64863048D01*
G37*
G36*
X46009060Y64403429D02*
X46610101Y65004470D01*
X47741472Y63873099D01*
X47140431Y63272058D01*
X46009060Y64403429D01*
X46009060Y64403429D01*
G37*
G36*
X45549441Y63943809D02*
X46150482Y64544850D01*
X47281853Y63413479D01*
X46680812Y62812438D01*
X45549441Y63943809D01*
X45549441Y63943809D01*
G37*
G36*
X45089821Y63484190D02*
X45690862Y64085231D01*
X46822233Y62953860D01*
X46221192Y62352819D01*
X45089821Y63484190D01*
X45089821Y63484190D01*
G37*
G36*
X44630202Y63024571D02*
X45231243Y63625612D01*
X46362614Y62494241D01*
X45761573Y61893200D01*
X44630202Y63024571D01*
X44630202Y63024571D01*
G37*
G36*
X44170582Y62564951D02*
X44771623Y63165992D01*
X45902994Y62034621D01*
X45301953Y61433580D01*
X44170582Y62564951D01*
X44170582Y62564951D01*
G37*
G36*
X43710963Y62105332D02*
X44312004Y62706373D01*
X45443375Y61575002D01*
X44842334Y60973961D01*
X43710963Y62105332D01*
X43710963Y62105332D01*
G37*
G36*
X43251344Y61645712D02*
X43852385Y62246753D01*
X44983756Y61115382D01*
X44382715Y60514341D01*
X43251344Y61645712D01*
X43251344Y61645712D01*
G37*
G36*
X42791724Y61186093D02*
X43392765Y61787134D01*
X44524136Y60655763D01*
X43923095Y60054722D01*
X42791724Y61186093D01*
X42791724Y61186093D01*
G37*
G36*
X42332105Y60726474D02*
X42933146Y61327515D01*
X44064517Y60196144D01*
X43463476Y59595103D01*
X42332105Y60726474D01*
X42332105Y60726474D01*
G37*
G36*
X41872485Y60266854D02*
X42473526Y60867895D01*
X43604897Y59736524D01*
X43003856Y59135483D01*
X41872485Y60266854D01*
X41872485Y60266854D01*
G37*
G36*
X41412866Y59807235D02*
X42013907Y60408276D01*
X43145278Y59276905D01*
X42544237Y58675864D01*
X41412866Y59807235D01*
X41412866Y59807235D01*
G37*
G36*
X40953247Y59347615D02*
X41554288Y59948656D01*
X42685659Y58817285D01*
X42084618Y58216244D01*
X40953247Y59347615D01*
X40953247Y59347615D01*
G37*
G36*
X40493627Y58887996D02*
X41094668Y59489037D01*
X42226039Y58357666D01*
X41624998Y57756625D01*
X40493627Y58887996D01*
X40493627Y58887996D01*
G37*
G36*
X40034008Y58428377D02*
X40635049Y59029418D01*
X41766420Y57898047D01*
X41165379Y57297006D01*
X40034008Y58428377D01*
X40034008Y58428377D01*
G37*
G36*
X39574388Y57968757D02*
X40175429Y58569798D01*
X41306800Y57438427D01*
X40705759Y56837386D01*
X39574388Y57968757D01*
X39574388Y57968757D01*
G37*
G36*
X39114769Y57509138D02*
X39715810Y58110179D01*
X40847181Y56978808D01*
X40246140Y56377767D01*
X39114769Y57509138D01*
X39114769Y57509138D01*
G37*
G36*
X38655150Y57049518D02*
X39256191Y57650559D01*
X40387562Y56519188D01*
X39786521Y55918147D01*
X38655150Y57049518D01*
X38655150Y57049518D01*
G37*
G36*
X38195530Y56589899D02*
X38796571Y57190940D01*
X39927942Y56059569D01*
X39326901Y55458528D01*
X38195530Y56589899D01*
X38195530Y56589899D01*
G37*
G36*
X37735911Y56130280D02*
X38336952Y56731321D01*
X39468323Y55599950D01*
X38867282Y54998909D01*
X37735911Y56130280D01*
X37735911Y56130280D01*
G37*
G36*
X38336952Y52488679D02*
X37735911Y53089720D01*
X38867282Y54221091D01*
X39468323Y53620050D01*
X38336952Y52488679D01*
X38336952Y52488679D01*
G37*
G36*
X38796571Y52029060D02*
X38195530Y52630101D01*
X39326901Y53761472D01*
X39927942Y53160431D01*
X38796571Y52029060D01*
X38796571Y52029060D01*
G37*
G36*
X39256191Y51569441D02*
X38655150Y52170482D01*
X39786521Y53301853D01*
X40387562Y52700812D01*
X39256191Y51569441D01*
X39256191Y51569441D01*
G37*
G36*
X39715810Y51109821D02*
X39114769Y51710862D01*
X40246140Y52842233D01*
X40847181Y52241192D01*
X39715810Y51109821D01*
X39715810Y51109821D01*
G37*
G36*
X40175429Y50650202D02*
X39574388Y51251243D01*
X40705759Y52382614D01*
X41306800Y51781573D01*
X40175429Y50650202D01*
X40175429Y50650202D01*
G37*
G36*
X40635049Y50190582D02*
X40034008Y50791623D01*
X41165379Y51922994D01*
X41766420Y51321953D01*
X40635049Y50190582D01*
X40635049Y50190582D01*
G37*
G36*
X41094668Y49730963D02*
X40493627Y50332004D01*
X41624998Y51463375D01*
X42226039Y50862334D01*
X41094668Y49730963D01*
X41094668Y49730963D01*
G37*
G36*
X41554288Y49271344D02*
X40953247Y49872385D01*
X42084618Y51003756D01*
X42685659Y50402715D01*
X41554288Y49271344D01*
X41554288Y49271344D01*
G37*
G36*
X42013907Y48811724D02*
X41412866Y49412765D01*
X42544237Y50544136D01*
X43145278Y49943095D01*
X42013907Y48811724D01*
X42013907Y48811724D01*
G37*
G36*
X42473526Y48352105D02*
X41872485Y48953146D01*
X43003856Y50084517D01*
X43604897Y49483476D01*
X42473526Y48352105D01*
X42473526Y48352105D01*
G37*
G36*
X42933146Y47892485D02*
X42332105Y48493526D01*
X43463476Y49624897D01*
X44064517Y49023856D01*
X42933146Y47892485D01*
X42933146Y47892485D01*
G37*
G36*
X43392765Y47432866D02*
X42791724Y48033907D01*
X43923095Y49165278D01*
X44524136Y48564237D01*
X43392765Y47432866D01*
X43392765Y47432866D01*
G37*
G36*
X43852385Y46973247D02*
X43251344Y47574288D01*
X44382715Y48705659D01*
X44983756Y48104618D01*
X43852385Y46973247D01*
X43852385Y46973247D01*
G37*
G36*
X44312004Y46513627D02*
X43710963Y47114668D01*
X44842334Y48246039D01*
X45443375Y47644998D01*
X44312004Y46513627D01*
X44312004Y46513627D01*
G37*
G36*
X44771623Y46054008D02*
X44170582Y46655049D01*
X45301953Y47786420D01*
X45902994Y47185379D01*
X44771623Y46054008D01*
X44771623Y46054008D01*
G37*
G36*
X45231243Y45594388D02*
X44630202Y46195429D01*
X45761573Y47326800D01*
X46362614Y46725759D01*
X45231243Y45594388D01*
X45231243Y45594388D01*
G37*
G36*
X45690862Y45134769D02*
X45089821Y45735810D01*
X46221192Y46867181D01*
X46822233Y46266140D01*
X45690862Y45134769D01*
X45690862Y45134769D01*
G37*
G36*
X46150482Y44675150D02*
X45549441Y45276191D01*
X46680812Y46407562D01*
X47281853Y45806521D01*
X46150482Y44675150D01*
X46150482Y44675150D01*
G37*
G36*
X46610101Y44215530D02*
X46009060Y44816571D01*
X47140431Y45947942D01*
X47741472Y45346901D01*
X46610101Y44215530D01*
X46610101Y44215530D01*
G37*
G36*
X47069720Y43755911D02*
X46468679Y44356952D01*
X47600050Y45488323D01*
X48201091Y44887282D01*
X47069720Y43755911D01*
X47069720Y43755911D01*
G37*
G36*
X48978909Y44887282D02*
X49579950Y45488323D01*
X50711321Y44356952D01*
X50110280Y43755911D01*
X48978909Y44887282D01*
X48978909Y44887282D01*
G37*
G36*
X49438528Y45346901D02*
X50039569Y45947942D01*
X51170940Y44816571D01*
X50569899Y44215530D01*
X49438528Y45346901D01*
X49438528Y45346901D01*
G37*
G36*
X49898147Y45806521D02*
X50499188Y46407562D01*
X51630559Y45276191D01*
X51029518Y44675150D01*
X49898147Y45806521D01*
X49898147Y45806521D01*
G37*
G36*
X50357767Y46266140D02*
X50958808Y46867181D01*
X52090179Y45735810D01*
X51489138Y45134769D01*
X50357767Y46266140D01*
X50357767Y46266140D01*
G37*
G36*
X50817386Y46725759D02*
X51418427Y47326800D01*
X52549798Y46195429D01*
X51948757Y45594388D01*
X50817386Y46725759D01*
X50817386Y46725759D01*
G37*
G36*
X51277006Y47185379D02*
X51878047Y47786420D01*
X53009418Y46655049D01*
X52408377Y46054008D01*
X51277006Y47185379D01*
X51277006Y47185379D01*
G37*
G36*
X51736625Y47644998D02*
X52337666Y48246039D01*
X53469037Y47114668D01*
X52867996Y46513627D01*
X51736625Y47644998D01*
X51736625Y47644998D01*
G37*
G36*
X52196244Y48104618D02*
X52797285Y48705659D01*
X53928656Y47574288D01*
X53327615Y46973247D01*
X52196244Y48104618D01*
X52196244Y48104618D01*
G37*
G36*
X52655864Y48564237D02*
X53256905Y49165278D01*
X54388276Y48033907D01*
X53787235Y47432866D01*
X52655864Y48564237D01*
X52655864Y48564237D01*
G37*
G36*
X53115483Y49023856D02*
X53716524Y49624897D01*
X54847895Y48493526D01*
X54246854Y47892485D01*
X53115483Y49023856D01*
X53115483Y49023856D01*
G37*
G36*
X53575103Y49483476D02*
X54176144Y50084517D01*
X55307515Y48953146D01*
X54706474Y48352105D01*
X53575103Y49483476D01*
X53575103Y49483476D01*
G37*
G36*
X54034722Y49943095D02*
X54635763Y50544136D01*
X55767134Y49412765D01*
X55166093Y48811724D01*
X54034722Y49943095D01*
X54034722Y49943095D01*
G37*
G36*
X54494341Y50402715D02*
X55095382Y51003756D01*
X56226753Y49872385D01*
X55625712Y49271344D01*
X54494341Y50402715D01*
X54494341Y50402715D01*
G37*
G36*
X54953961Y50862334D02*
X55555002Y51463375D01*
X56686373Y50332004D01*
X56085332Y49730963D01*
X54953961Y50862334D01*
X54953961Y50862334D01*
G37*
G36*
X55413580Y51321953D02*
X56014621Y51922994D01*
X57145992Y50791623D01*
X56544951Y50190582D01*
X55413580Y51321953D01*
X55413580Y51321953D01*
G37*
G36*
X55873200Y51781573D02*
X56474241Y52382614D01*
X57605612Y51251243D01*
X57004571Y50650202D01*
X55873200Y51781573D01*
X55873200Y51781573D01*
G37*
G36*
X56332819Y52241192D02*
X56933860Y52842233D01*
X58065231Y51710862D01*
X57464190Y51109821D01*
X56332819Y52241192D01*
X56332819Y52241192D01*
G37*
G36*
X56792438Y52700812D02*
X57393479Y53301853D01*
X58524850Y52170482D01*
X57923809Y51569441D01*
X56792438Y52700812D01*
X56792438Y52700812D01*
G37*
G36*
X57252058Y53160431D02*
X57853099Y53761472D01*
X58984470Y52630101D01*
X58383429Y52029060D01*
X57252058Y53160431D01*
X57252058Y53160431D01*
G37*
G36*
X57711677Y53620050D02*
X58312718Y54221091D01*
X59444089Y53089720D01*
X58843048Y52488679D01*
X57711677Y53620050D01*
X57711677Y53620050D01*
G37*
G36*
X58310597Y54996787D02*
X57709556Y55597828D01*
X58840927Y56729199D01*
X59441968Y56128158D01*
X58310597Y54996787D01*
X58310597Y54996787D01*
G37*
G36*
X57850978Y55456407D02*
X57249937Y56057448D01*
X58381308Y57188819D01*
X58982349Y56587778D01*
X57850978Y55456407D01*
X57850978Y55456407D01*
G37*
G36*
X57391358Y55916026D02*
X56790317Y56517067D01*
X57921688Y57648438D01*
X58522729Y57047397D01*
X57391358Y55916026D01*
X57391358Y55916026D01*
G37*
G36*
X56931739Y56375645D02*
X56330698Y56976686D01*
X57462069Y58108057D01*
X58063110Y57507016D01*
X56931739Y56375645D01*
X56931739Y56375645D01*
G37*
G36*
X56472119Y56835265D02*
X55871078Y57436306D01*
X57002449Y58567677D01*
X57603490Y57966636D01*
X56472119Y56835265D01*
X56472119Y56835265D01*
G37*
G36*
X56012500Y57294884D02*
X55411459Y57895925D01*
X56542830Y59027296D01*
X57143871Y58426255D01*
X56012500Y57294884D01*
X56012500Y57294884D01*
G37*
G36*
X55552881Y57754504D02*
X54951840Y58355545D01*
X56083211Y59486916D01*
X56684252Y58885875D01*
X55552881Y57754504D01*
X55552881Y57754504D01*
G37*
G36*
X55093261Y58214123D02*
X54492220Y58815164D01*
X55623591Y59946535D01*
X56224632Y59345494D01*
X55093261Y58214123D01*
X55093261Y58214123D01*
G37*
G36*
X54633642Y58673742D02*
X54032601Y59274783D01*
X55163972Y60406154D01*
X55765013Y59805113D01*
X54633642Y58673742D01*
X54633642Y58673742D01*
G37*
G36*
X54174022Y59133362D02*
X53572981Y59734403D01*
X54704352Y60865774D01*
X55305393Y60264733D01*
X54174022Y59133362D01*
X54174022Y59133362D01*
G37*
G36*
X53714403Y59592981D02*
X53113362Y60194022D01*
X54244733Y61325393D01*
X54845774Y60724352D01*
X53714403Y59592981D01*
X53714403Y59592981D01*
G37*
G36*
X53254783Y60052601D02*
X52653742Y60653642D01*
X53785113Y61785013D01*
X54386154Y61183972D01*
X53254783Y60052601D01*
X53254783Y60052601D01*
G37*
G36*
X52795164Y60512220D02*
X52194123Y61113261D01*
X53325494Y62244632D01*
X53926535Y61643591D01*
X52795164Y60512220D01*
X52795164Y60512220D01*
G37*
G36*
X52335545Y60971840D02*
X51734504Y61572881D01*
X52865875Y62704252D01*
X53466916Y62103211D01*
X52335545Y60971840D01*
X52335545Y60971840D01*
G37*
G36*
X51875925Y61431459D02*
X51274884Y62032500D01*
X52406255Y63163871D01*
X53007296Y62562830D01*
X51875925Y61431459D01*
X51875925Y61431459D01*
G37*
G36*
X51416306Y61891078D02*
X50815265Y62492119D01*
X51946636Y63623490D01*
X52547677Y63022449D01*
X51416306Y61891078D01*
X51416306Y61891078D01*
G37*
G36*
X50956686Y62350698D02*
X50355645Y62951739D01*
X51487016Y64083110D01*
X52088057Y63482069D01*
X50956686Y62350698D01*
X50956686Y62350698D01*
G37*
G36*
X50497067Y62810317D02*
X49896026Y63411358D01*
X51027397Y64542729D01*
X51628438Y63941688D01*
X50497067Y62810317D01*
X50497067Y62810317D01*
G37*
G36*
X50037448Y63269937D02*
X49436407Y63870978D01*
X50567778Y65002349D01*
X51168819Y64401308D01*
X50037448Y63269937D01*
X50037448Y63269937D01*
G37*
G36*
X49577828Y63729556D02*
X48976787Y64330597D01*
X50108158Y65461968D01*
X50709199Y64860927D01*
X49577828Y63729556D01*
X49577828Y63729556D01*
G37*
D21*
X29718000Y66167000D03*
X24638000Y66167000D03*
X27178000Y66167000D03*
X5080000Y17780000D03*
X5080000Y15240000D03*
X37592000Y3048000D03*
X40132000Y3048000D03*
D25*
X5000000Y5000000D03*
X95000000Y5000000D03*
X95000000Y95000000D03*
X5000000Y95000000D03*
D26*
X90000000Y97000000D03*
X5000000Y10000000D03*
D27*
X47117000Y11303000D03*
D28*
X47117000Y4699000D03*
X49403000Y4699000D03*
X44831000Y4699000D03*
D29*
X61280000Y13786000D03*
X62230000Y13786000D03*
X63180000Y13786000D03*
X63180000Y16186000D03*
X61280000Y16186000D03*
D21*
X14352052Y4822844D03*
X14352052Y7362844D03*
X16892052Y4822844D03*
X16892052Y7362844D03*
X19432052Y4822844D03*
X19432052Y7362844D03*
X21972052Y4822844D03*
X21972052Y7362844D03*
X24512052Y4822844D03*
X24512052Y7362844D03*
X27052052Y7362844D03*
X27052052Y4822844D03*
X8890000Y17780000D03*
X8890000Y15240000D03*
X12700000Y17780000D03*
X12700000Y15240000D03*
X16510000Y17780000D03*
X16510000Y15240000D03*
X20320000Y17780000D03*
X20320000Y15240000D03*
X24130000Y17780000D03*
X24130000Y15240000D03*
X27940000Y17780000D03*
X27940000Y15240000D03*
D16*
X32004000Y16256000D03*
X32004000Y12856000D03*
M02*
