G04 #@! TF.FileFunction,Soldermask,Bot*
%FSLAX46Y46*%
G04 Gerber Fmt 4.6, Leading zero omitted, Abs format (unit mm)*
G04 Created by KiCad (PCBNEW 4.0.2-stable) date 25/05/2016 09:56:59*
%MOMM*%
G01*
G04 APERTURE LIST*
%ADD10C,0.100000*%
%ADD11C,0.150000*%
%ADD12R,1.700000X1.300000*%
%ADD13R,1.300000X1.700000*%
%ADD14R,1.400000X1.400000*%
%ADD15R,1.500000X2.100000*%
%ADD16R,1.300000X1.300000*%
%ADD17R,2.100000X1.500000*%
%ADD18C,2.000000*%
%ADD19O,3.600000X2.000000*%
%ADD20C,2.400000*%
%ADD21C,2.100000*%
%ADD22C,6.200000*%
%ADD23C,3.000000*%
%ADD24C,1.400000*%
G04 APERTURE END LIST*
D10*
D11*
X100000000Y0D02*
X0Y0D01*
X100000000Y100000000D02*
X100000000Y0D01*
X0Y100000000D02*
X100000000Y100000000D01*
X0Y0D02*
X0Y100000000D01*
D12*
X10922000Y11768000D03*
X10922000Y9568000D03*
X10414000Y30058000D03*
X10414000Y32258000D03*
X24130000Y20490000D03*
X24130000Y22690000D03*
X27940000Y20490000D03*
X27940000Y22690000D03*
D13*
X93472000Y21082000D03*
X91272000Y21082000D03*
D14*
X50595000Y6858000D03*
X47195000Y6858000D03*
D15*
X89660000Y82931000D03*
X86260000Y82931000D03*
X89660000Y80391000D03*
X86260000Y80391000D03*
X89660000Y77851000D03*
X86260000Y77851000D03*
X89660000Y75311000D03*
X86260000Y75311000D03*
X89660000Y72771000D03*
X86260000Y72771000D03*
X89660000Y70231000D03*
X86260000Y70231000D03*
X89660000Y67691000D03*
X86260000Y67691000D03*
X89660000Y65151000D03*
X86260000Y65151000D03*
X89660000Y49276000D03*
X86260000Y49276000D03*
X89660000Y46736000D03*
X86260000Y46736000D03*
X89660000Y44196000D03*
X86260000Y44196000D03*
X89660000Y41656000D03*
X86260000Y41656000D03*
X89660000Y39116000D03*
X86260000Y39116000D03*
X89660000Y36576000D03*
X86260000Y36576000D03*
D16*
X60198000Y49276000D03*
X62098000Y49276000D03*
X54927500Y44640500D03*
X54927500Y42740500D03*
X45466000Y63627000D03*
X45466000Y61727000D03*
X41341000Y61722000D03*
X43241000Y61722000D03*
X36205000Y51435000D03*
X34305000Y51435000D03*
X41148000Y50038000D03*
X41148000Y51938000D03*
D13*
X62861313Y29991203D03*
X60661313Y29991203D03*
D16*
X43180000Y48260000D03*
X45080000Y48260000D03*
D17*
X17094000Y90600000D03*
X17094000Y87200000D03*
X19634000Y90600000D03*
X19634000Y87200000D03*
X22174000Y90600000D03*
X22174000Y87200000D03*
X24714000Y90600000D03*
X24714000Y87200000D03*
X27254000Y90600000D03*
X27254000Y87200000D03*
X29794000Y90600000D03*
X29794000Y87200000D03*
X32334000Y90600000D03*
X32334000Y87200000D03*
X34874000Y90600000D03*
X34874000Y87200000D03*
X50749000Y90600000D03*
X50749000Y87200000D03*
X53289000Y90600000D03*
X53289000Y87200000D03*
X55829000Y90600000D03*
X55829000Y87200000D03*
X58369000Y90600000D03*
X58369000Y87200000D03*
X60909000Y90600000D03*
X60909000Y87200000D03*
X63449000Y90600000D03*
X63449000Y87200000D03*
X65989000Y90600000D03*
X65989000Y87200000D03*
X68529000Y90600000D03*
X68529000Y87200000D03*
D12*
X20320000Y20490000D03*
X20320000Y22690000D03*
X16510000Y20490000D03*
X16510000Y22690000D03*
X12700000Y20490000D03*
X12700000Y22690000D03*
X8890000Y20490000D03*
X8890000Y22690000D03*
X5080000Y20490000D03*
X5080000Y22690000D03*
D15*
X89660000Y34036000D03*
X86260000Y34036000D03*
X89660000Y31496000D03*
X86260000Y31496000D03*
D12*
X88646000Y16594000D03*
X88646000Y14394000D03*
D13*
X76624000Y3556000D03*
X78824000Y3556000D03*
D12*
X14352052Y11764844D03*
X14352052Y9564844D03*
D13*
X8298000Y48260000D03*
X10498000Y48260000D03*
X14140000Y42926000D03*
X16340000Y42926000D03*
X14140000Y46990000D03*
X16340000Y46990000D03*
X23452000Y55880000D03*
X21252000Y55880000D03*
X23452000Y53340000D03*
X21252000Y53340000D03*
D12*
X20574000Y30058000D03*
X20574000Y32258000D03*
D13*
X21252000Y58420000D03*
X23452000Y58420000D03*
X23368000Y32258000D03*
X25568000Y32258000D03*
D18*
X72390000Y6600000D03*
D19*
X75565000Y6600000D03*
D18*
X85090000Y6600000D03*
D19*
X81915000Y6600000D03*
D12*
X68834000Y7112000D03*
X68834000Y4912000D03*
D13*
X62861313Y36087203D03*
X60661313Y36087203D03*
X45720000Y30480000D03*
X43520000Y30480000D03*
X45720000Y24384000D03*
X43520000Y24384000D03*
D12*
X62496500Y57726400D03*
X62496500Y59926400D03*
X68719500Y57726400D03*
X68719500Y59926400D03*
D13*
X71366000Y55435500D03*
X73566000Y55435500D03*
X71366000Y61277500D03*
X73566000Y61277500D03*
X36957000Y59055000D03*
X34757000Y59055000D03*
X52578000Y24638000D03*
X50378000Y24638000D03*
X52578000Y30734000D03*
X50378000Y30734000D03*
D20*
X65278000Y3556000D03*
X65278000Y7056000D03*
D12*
X88646000Y21082000D03*
X88646000Y18882000D03*
D13*
X71544000Y3556000D03*
X73744000Y3556000D03*
D12*
X88900000Y7450000D03*
X88900000Y5250000D03*
D13*
X93472000Y10160000D03*
X95672000Y10160000D03*
D20*
X93472000Y13970000D03*
X96972000Y13970000D03*
X85344000Y21082000D03*
X85344000Y17582000D03*
D13*
X19474000Y39878000D03*
X21674000Y39878000D03*
X19431000Y37338000D03*
X21631000Y37338000D03*
X19431000Y34798000D03*
X21631000Y34798000D03*
X23452000Y60960000D03*
X21252000Y60960000D03*
X7112000Y64008000D03*
X4912000Y64008000D03*
D12*
X10414000Y58420000D03*
X10414000Y60620000D03*
X10414000Y55880000D03*
X10414000Y53680000D03*
D13*
X7112000Y42672000D03*
X4912000Y42672000D03*
D12*
X9652000Y39286000D03*
X9652000Y41486000D03*
X9652000Y34714000D03*
X9652000Y36914000D03*
D13*
X93472000Y17780000D03*
X95672000Y17780000D03*
D21*
X45720000Y27432000D03*
X43220000Y27432000D03*
X46716000Y72542400D03*
X44216000Y72542400D03*
X74950000Y24130000D03*
X77450000Y24130000D03*
X52578000Y27686000D03*
X50078000Y27686000D03*
X71343000Y58293000D03*
X73843000Y58293000D03*
X65548978Y57717944D03*
X65548978Y60217944D03*
X67830500Y53213000D03*
X67830500Y50713000D03*
X62861313Y33039203D03*
X60361313Y33039203D03*
D12*
X60706000Y15918000D03*
X60706000Y18118000D03*
D13*
X57404000Y10160000D03*
X59604000Y10160000D03*
D14*
X57404000Y13462000D03*
X60804000Y13462000D03*
X65786000Y20398000D03*
X65786000Y23798000D03*
X81456000Y21082000D03*
X78056000Y21082000D03*
X47195000Y10414000D03*
X50595000Y10414000D03*
X62484000Y23798000D03*
X62484000Y20398000D03*
X74930000Y27178000D03*
X78330000Y27178000D03*
D12*
X27178000Y60960000D03*
X27178000Y63160000D03*
X16892052Y11764844D03*
X16892052Y9564844D03*
X21972052Y11764844D03*
X21972052Y9564844D03*
D13*
X26712052Y10410844D03*
X24512052Y10410844D03*
X33656052Y7362844D03*
X31456052Y7362844D03*
D18*
X95072000Y28956000D03*
X92532000Y28956000D03*
X95072000Y31496000D03*
X92532000Y31496000D03*
X95072000Y34036000D03*
X92532000Y34036000D03*
X95072000Y36576000D03*
X92532000Y36576000D03*
X95072000Y39116000D03*
X92532000Y39116000D03*
X95072000Y41656000D03*
X92532000Y41656000D03*
X95072000Y44196000D03*
X92532000Y44196000D03*
X95072000Y46736000D03*
X92532000Y46736000D03*
X95072000Y49276000D03*
X92532000Y49276000D03*
X95072000Y51816000D03*
X92532000Y51816000D03*
X95072000Y62611000D03*
X92532000Y62611000D03*
X95072000Y65151000D03*
X92532000Y65151000D03*
X95072000Y67691000D03*
X92532000Y67691000D03*
X95072000Y70231000D03*
X92532000Y70231000D03*
X95072000Y72771000D03*
X92532000Y72771000D03*
X95072000Y75311000D03*
X92532000Y75311000D03*
X95072000Y77851000D03*
X92532000Y77851000D03*
X95072000Y80391000D03*
X92532000Y80391000D03*
X95072000Y82931000D03*
X92532000Y82931000D03*
X95072000Y85471000D03*
X92532000Y85471000D03*
X71069000Y96012000D03*
X71069000Y93472000D03*
X68529000Y96012000D03*
X68529000Y93472000D03*
X65989000Y96012000D03*
X65989000Y93472000D03*
X63449000Y96012000D03*
X63449000Y93472000D03*
X60909000Y96012000D03*
X60909000Y93472000D03*
X58369000Y96012000D03*
X58369000Y93472000D03*
X55829000Y96012000D03*
X55829000Y93472000D03*
X53289000Y96012000D03*
X53289000Y93472000D03*
X50749000Y96012000D03*
X50749000Y93472000D03*
X48209000Y96012000D03*
X48209000Y93472000D03*
X37414000Y96012000D03*
X37414000Y93472000D03*
X34874000Y96012000D03*
X34874000Y93472000D03*
X32334000Y96012000D03*
X32334000Y93472000D03*
X29794000Y96012000D03*
X29794000Y93472000D03*
X27254000Y96012000D03*
X27254000Y93472000D03*
X24714000Y96012000D03*
X24714000Y93472000D03*
X22174000Y96012000D03*
X22174000Y93472000D03*
X19634000Y96012000D03*
X19634000Y93472000D03*
X17094000Y96012000D03*
X17094000Y93472000D03*
X14554000Y96012000D03*
X14554000Y93472000D03*
X13970000Y60960000D03*
X16510000Y60960000D03*
X13970000Y58420000D03*
X16510000Y58420000D03*
X13970000Y55880000D03*
X16510000Y55880000D03*
X13970000Y53340000D03*
X16510000Y53340000D03*
X13970000Y50800000D03*
X16510000Y50800000D03*
X13970000Y39878000D03*
X16510000Y39878000D03*
X13970000Y37338000D03*
X16510000Y37338000D03*
X13970000Y34798000D03*
X16510000Y34798000D03*
X13970000Y32258000D03*
X16510000Y32258000D03*
X13970000Y29718000D03*
X16510000Y29718000D03*
X4572000Y39878000D03*
X7112000Y39878000D03*
X4572000Y37338000D03*
X7112000Y37338000D03*
X4572000Y34798000D03*
X7112000Y34798000D03*
X4572000Y32258000D03*
X7112000Y32258000D03*
X4572000Y29718000D03*
X7112000Y29718000D03*
X4572000Y60960000D03*
X7112000Y60960000D03*
X4572000Y58420000D03*
X7112000Y58420000D03*
X4572000Y55880000D03*
X7112000Y55880000D03*
X4572000Y53340000D03*
X7112000Y53340000D03*
X4572000Y50800000D03*
X7112000Y50800000D03*
X29718000Y66167000D03*
X24638000Y66167000D03*
X27178000Y66167000D03*
X5080000Y17780000D03*
X5080000Y15240000D03*
X37592000Y3048000D03*
X40132000Y3048000D03*
D22*
X5000000Y5000000D03*
X95000000Y5000000D03*
X95000000Y95000000D03*
X5000000Y95000000D03*
D14*
X68990000Y9652000D03*
X72390000Y9652000D03*
X88900000Y10160000D03*
X85500000Y10160000D03*
D23*
X90000000Y97000000D03*
X5000000Y10000000D03*
D18*
X14352052Y4822844D03*
X14352052Y7362844D03*
X16892052Y4822844D03*
X16892052Y7362844D03*
X19432052Y4822844D03*
X19432052Y7362844D03*
X21972052Y4822844D03*
X21972052Y7362844D03*
X24512052Y4822844D03*
X24512052Y7362844D03*
X27052052Y7362844D03*
X27052052Y4822844D03*
D13*
X46566000Y69342000D03*
X44366000Y69342000D03*
X46566000Y75692000D03*
X44366000Y75692000D03*
D12*
X64897000Y53213000D03*
X64897000Y51013000D03*
X70802500Y53213000D03*
X70802500Y51013000D03*
D18*
X8890000Y17780000D03*
X8890000Y15240000D03*
X12700000Y17780000D03*
X12700000Y15240000D03*
X16510000Y17780000D03*
X16510000Y15240000D03*
X20320000Y17780000D03*
X20320000Y15240000D03*
X24130000Y17780000D03*
X24130000Y15240000D03*
X27940000Y17780000D03*
X27940000Y15240000D03*
D24*
X33656052Y4822844D03*
D12*
X4572000Y25316000D03*
X4572000Y27516000D03*
X33274000Y24554000D03*
X33274000Y26754000D03*
D20*
X48768000Y56642000D03*
X46355000Y58420000D03*
M02*
