M48
;DRILL file {KiCad 4.0.1-stable} date 18/01/2016 14:23:13
;FORMAT={-:-/ absolute / metric / decimal}
FMAT,2
METRIC,TZ
T1C0.400
T2C0.500
T3C0.800
T4C1.000
T5C3.000
%
G90
G05
M71
T1
X34.582Y59.017
X60.439Y22.936
T2
X1.905Y31.75
X1.934Y61.989
X1.934Y56.147
X1.934Y51.702
X1.934Y49.035
X1.934Y42.304
X1.934Y38.367
X2.07Y76.569
X2.121Y8.725
X2.146Y88.354
X2.717Y19.508
X2.73Y24.892
X4.347Y29.985
X4.622Y14.11
X4.686Y16.713
X4.94Y22.238
X5.257Y27.318
X6.845Y22.238
X7.912Y8.09
X8.445Y2.02
X8.928Y88.303
X9.385Y76.67
X11.078Y27.953
X11.265Y98.311
X11.354Y77.864
X11.366Y11.722
X11.417Y89.294
X11.417Y82.575
X12.306Y19.508
X13.258Y75.832
X13.512Y16.713
X13.618Y27.953
X15.1Y19.571
X15.659Y13.221
X17.716Y29.375
X17.831Y19.571
X18.644Y82.017
X18.885Y4.661
X19.113Y6.947
X19.723Y67.45
X19.723Y25.083
X19.735Y69.228
X19.863Y74.054
X20.256Y2.68
X20.603Y59.576
X21.45Y14.935
X22.466Y33.947
X22.974Y22.301
X22.974Y17.031
X23.685Y29.68
X23.711Y51.931
X24.015Y69.126
X24.286Y32.017
X24.942Y19.634
X25.578Y24.905
X25.683Y30.62
X25.971Y67.45
X26.035Y81.991
X26.187Y40.081
X26.2Y16.955
X26.276Y33.77
X26.479Y37.427
X26.657Y74.816
X27.292Y19.698
X27.978Y69.126
X28.46Y34.836
X28.461Y37.427
X28.477Y31.382
X29.387Y10.998
X30.594Y53.734
X30.657Y14.999
X30.848Y27.953
X31.292Y25.159
X31.292Y18.809
X31.686Y64.783
X31.966Y37.44
X31.991Y34.862
X32.033Y31.255
X32.118Y52.21
X32.22Y69.126
X32.22Y67.45
X32.88Y51.448
X32.944Y16.65
X33.223Y81.737
X33.325Y76.213
X33.43Y31.255
X33.464Y40.856
X33.718Y64.808
X33.82Y34.887
X33.858Y37.44
X34.239Y20.15
X34.849Y46.05
X34.975Y42.24
X35.483Y16.587
X36.182Y40.424
X36.372Y48.273
X36.436Y28.334
X37.63Y51.524
X37.642Y63.132
X37.757Y54.191
X38.023Y16.587
X38.51Y3.95
X38.925Y50.94
X39.928Y75.197
X40.119Y11.887
X40.183Y53.896
X40.627Y26.238
X40.652Y59.906
X41.008Y20.959
X41.148Y81.178
X41.262Y47.886
X41.364Y98.184
X41.516Y15.761
X42.215Y38.557
X42.405Y33.986
X42.507Y53.48
X42.685Y57.261
X42.786Y29.604
X43.421Y20.079
X43.421Y18.428
X43.421Y13.094
X43.532Y50.546
X43.802Y58.019
X44.361Y54.725
X44.412Y98.184
X44.811Y23.381
X45.034Y69.926
X45.389Y15.761
X45.936Y43.574
X47.002Y38.672
X47.663Y61.88
X47.675Y15.697
X47.815Y43.295
X48.222Y56.096
X48.31Y58.014
X48.501Y49.645
X48.653Y36.919
X48.806Y63.564
X48.971Y81.204
X49.114Y25.476
X49.136Y29.794
X49.272Y65.155
X49.606Y69.901
X49.796Y54.496
X50.914Y75.26
X51.337Y20.142
X51.529Y50.292
X51.739Y14.935
X51.896Y48.794
X52.959Y56.515
X54.533Y75.26
X54.978Y16.396
X55.041Y33.605
X55.422Y29.223
X56.146Y41.974
X56.184Y15.634
X56.248Y53.531
X56.49Y81.178
X56.629Y32.398
X57.264Y72.657
X57.493Y54.75
X58.089Y28.524
X58.864Y42.329
X58.978Y15.697
X59.321Y55.131
X59.55Y3.696
X59.677Y26.746
X59.804Y70.18
X59.867Y24.143
X60.121Y28.905
X60.439Y5.22
X60.693Y40.78
X60.82Y37.859
X60.82Y21.666
X60.947Y14.428
X61.328Y24.27
X62.23Y26.797
X62.598Y24.27
X62.598Y21.666
X62.598Y19.063
X62.598Y16.65
X62.598Y14.808
X63.487Y74.816
X63.627Y47.841
X64.249Y37.224
X64.63Y1.601
X64.884Y64.402
X65.138Y33.477
X65.621Y49.873
X67.487Y45.352
X67.932Y42.367
X68.186Y39.002
X68.504Y33.033
X68.694Y26.111
X68.694Y24.27
X68.694Y21.666
X69.647Y74.816
X69.964Y28.715
X70.129Y16.586
X70.345Y1.601
X71.615Y35.764
X72.504Y29.159
X73.025Y86.436
X73.965Y66.561
X74.472Y81.42
X74.625Y42.367
X74.79Y27.42
X74.98Y35.7
X75.361Y2.045
X75.87Y73.927
X76.995Y24.511
X77.394Y2.045
X78.028Y29.096
X81.902Y89.23
X81.902Y81.356
X81.902Y73.927
X81.902Y66.561
X81.902Y58.623
X81.965Y50.305
X81.965Y42.875
X81.965Y35.446
X82.855Y26.238
X84.188Y1.791
X86.156Y29.032
X89.776Y1.791
X90.741Y25.083
X90.995Y9.106
X96.431Y25.083
X97.574Y58.281
X97.599Y55.512
X97.904Y22.746
X97.904Y10.3
X97.968Y1.791
T3
X5.969Y68.656
X5.969Y66.116
X5.969Y57.785
X5.969Y55.245
X6.045Y46.99
X6.045Y44.45
X6.045Y36.195
X6.045Y33.655
X6.506Y29.35
X8.509Y68.656
X8.509Y66.116
X8.509Y57.785
X8.509Y55.245
X8.585Y46.99
X8.585Y44.45
X8.585Y36.195
X8.585Y33.655
X11.049Y68.656
X11.049Y66.116
X11.049Y57.785
X11.049Y55.245
X11.125Y46.99
X11.125Y44.45
X11.125Y36.195
X11.125Y33.655
X11.28Y5.715
X13.589Y68.656
X13.589Y66.116
X13.589Y57.785
X13.589Y55.245
X13.665Y46.99
X13.665Y44.45
X13.665Y36.195
X13.665Y33.655
X14.554Y96.012
X14.554Y93.472
X14.78Y5.715
X16.129Y68.656
X16.129Y66.116
X16.129Y57.785
X16.129Y55.245
X16.205Y46.99
X16.205Y44.45
X16.205Y36.195
X16.205Y33.655
X17.094Y96.012
X17.094Y93.472
X19.634Y96.012
X19.634Y93.472
X20.1Y12.92
X22.174Y96.012
X22.174Y93.472
X23.698Y45.923
X23.698Y42.316
X24.638Y66.167
X24.714Y96.012
X24.714Y93.472
X26.238Y45.923
X26.238Y42.316
X27.178Y66.167
X27.207Y58.56
X27.207Y54.115
X27.254Y96.012
X27.254Y93.472
X27.34Y29.464
X28.778Y45.923
X28.778Y42.316
X29.718Y66.167
X29.794Y96.012
X29.794Y93.472
X30.086Y6.998
X30.509Y56.909
X32.334Y96.012
X32.334Y93.472
X34.874Y96.012
X34.874Y93.472
X37.414Y96.012
X37.414Y93.472
X37.942Y32.258
X40.442Y32.258
X44.546Y72.542
X44.593Y32.258
X46.05Y8.1
X46.05Y4.6
X46.24Y49.721
X47.046Y72.542
X47.093Y32.258
X48.209Y96.012
X48.209Y93.472
X48.958Y47.765
X50.749Y96.012
X50.749Y93.472
X51.228Y32.258
X53.289Y96.012
X53.289Y93.472
X53.728Y32.258
X55.575Y8.1
X55.575Y4.6
X55.829Y96.012
X55.829Y93.472
X56.23Y18.542
X58.369Y96.012
X58.369Y93.472
X58.73Y18.542
X60.909Y96.012
X60.909Y93.472
X62.09Y12.586
X63.449Y96.012
X63.449Y93.472
X65.549Y59.71
X65.549Y57.21
X65.989Y96.012
X65.989Y93.472
X67.259Y8.954
X67.259Y6.413
X67.259Y3.873
X68.529Y96.012
X68.529Y93.472
X68.91Y53.269
X68.91Y50.769
X69.202Y13.348
X70.942Y8.954
X70.942Y6.413
X70.942Y3.873
X71.069Y96.012
X71.069Y93.472
X71.343Y58.293
X71.374Y18.288
X73.843Y58.293
X73.914Y18.288
X74.752Y8.954
X74.752Y6.413
X77.927Y8.954
X77.927Y6.413
X79.849Y19.19
X81.737Y8.954
X81.737Y6.413
X81.737Y3.873
X82.88Y18.415
X82.88Y15.875
X82.918Y13.348
X84.801Y13.856
X85.42Y18.415
X85.42Y15.875
X86.817Y8.954
X86.817Y6.413
X86.817Y3.873
X86.944Y26.67
X86.944Y24.13
X87.96Y18.415
X87.96Y15.875
X90.5Y18.415
X90.5Y15.875
X91.151Y92.723
X92.532Y85.471
X92.532Y82.931
X92.532Y80.391
X92.532Y77.851
X92.532Y75.311
X92.532Y72.771
X92.532Y70.231
X92.532Y67.691
X92.532Y65.151
X92.532Y62.611
X92.532Y51.816
X92.532Y49.276
X92.532Y46.736
X92.532Y44.196
X92.532Y41.656
X92.532Y39.116
X92.532Y36.576
X92.532Y34.036
X92.532Y31.496
X92.532Y28.956
X93.04Y18.415
X93.04Y15.875
X95.072Y85.471
X95.072Y82.931
X95.072Y80.391
X95.072Y77.851
X95.072Y75.311
X95.072Y72.771
X95.072Y70.231
X95.072Y67.691
X95.072Y65.151
X95.072Y62.611
X95.072Y51.816
X95.072Y49.276
X95.072Y46.736
X95.072Y44.196
X95.072Y41.656
X95.072Y39.116
X95.072Y36.576
X95.072Y34.036
X95.072Y31.496
X95.072Y28.956
X96.231Y20.079
X96.231Y14.11
T4
X23.825Y5.08
X36.525Y5.08
T5
X5.Y95.
X5.Y5.
X95.Y95.
X95.Y5.
T4
X26.23Y5.08G85X27.77Y5.08
G05
X34.12Y5.08G85X32.58Y5.08
G05
T0
M30
