G04 #@! TF.FileFunction,Soldermask,Bot*
%FSLAX46Y46*%
G04 Gerber Fmt 4.6, Leading zero omitted, Abs format (unit mm)*
G04 Created by KiCad (PCBNEW 4.0.1-stable) date 18/01/2016 14:29:12*
%MOMM*%
G01*
G04 APERTURE LIST*
%ADD10C,0.100000*%
%ADD11C,2.000000*%
%ADD12R,2.900000X2.100000*%
%ADD13R,1.500000X2.100000*%
%ADD14R,1.300000X1.300000*%
%ADD15R,1.300000X1.700000*%
%ADD16R,2.100000X1.500000*%
%ADD17R,1.700000X1.300000*%
%ADD18O,3.600000X2.000000*%
%ADD19C,2.400000*%
%ADD20C,2.100000*%
%ADD21R,1.400000X1.400000*%
G04 APERTURE END LIST*
D10*
D11*
X16128800Y57785000D03*
X16128800Y55245000D03*
X13588800Y57785000D03*
X13588800Y55245000D03*
X11048800Y57785000D03*
X11048800Y55245000D03*
X8508800Y57785000D03*
X8508800Y55245000D03*
X5968800Y57785000D03*
X5968800Y55245000D03*
D12*
X36430000Y8890000D03*
X40430000Y8890000D03*
D11*
X86944000Y24130000D03*
X86944000Y26670000D03*
D13*
X89660000Y82931000D03*
X86260000Y82931000D03*
X89660000Y80391000D03*
X86260000Y80391000D03*
X89660000Y77851000D03*
X86260000Y77851000D03*
X89660000Y75311000D03*
X86260000Y75311000D03*
X89660000Y72771000D03*
X86260000Y72771000D03*
X89660000Y70231000D03*
X86260000Y70231000D03*
X89660000Y67691000D03*
X86260000Y67691000D03*
X89660000Y65151000D03*
X86260000Y65151000D03*
X89660000Y49276000D03*
X86260000Y49276000D03*
X89660000Y46736000D03*
X86260000Y46736000D03*
X89660000Y44196000D03*
X86260000Y44196000D03*
X89660000Y41656000D03*
X86260000Y41656000D03*
X89660000Y39116000D03*
X86260000Y39116000D03*
X89660000Y36576000D03*
X86260000Y36576000D03*
D10*
G36*
X56150190Y54217649D02*
X55230951Y53298410D01*
X54311712Y54217649D01*
X55230951Y55136888D01*
X56150190Y54217649D01*
X56150190Y54217649D01*
G37*
G36*
X54806688Y55561151D02*
X53887449Y54641912D01*
X52968210Y55561151D01*
X53887449Y56480390D01*
X54806688Y55561151D01*
X54806688Y55561151D01*
G37*
D14*
X50454400Y51358800D03*
X48554400Y51358800D03*
X48945800Y61351200D03*
X48945800Y59451200D03*
X45176200Y58013600D03*
X47076200Y58013600D03*
X36205000Y51435000D03*
X34305000Y51435000D03*
X44820600Y53035200D03*
X46720600Y53035200D03*
D15*
X51300000Y29210000D03*
X53500000Y29210000D03*
D14*
X44810400Y51384200D03*
X46710400Y51384200D03*
D16*
X17094000Y90600000D03*
X17094000Y87200000D03*
X19634000Y90600000D03*
X19634000Y87200000D03*
X22174000Y90600000D03*
X22174000Y87200000D03*
X24714000Y90600000D03*
X24714000Y87200000D03*
X27254000Y90600000D03*
X27254000Y87200000D03*
X29794000Y90600000D03*
X29794000Y87200000D03*
X32334000Y90600000D03*
X32334000Y87200000D03*
X34874000Y90600000D03*
X34874000Y87200000D03*
X50749000Y90600000D03*
X50749000Y87200000D03*
X53289000Y90600000D03*
X53289000Y87200000D03*
X55829000Y90600000D03*
X55829000Y87200000D03*
X58369000Y90600000D03*
X58369000Y87200000D03*
X60909000Y90600000D03*
X60909000Y87200000D03*
X63449000Y90600000D03*
X63449000Y87200000D03*
X65989000Y90600000D03*
X65989000Y87200000D03*
X68529000Y90600000D03*
X68529000Y87200000D03*
D15*
X51300000Y26670000D03*
X53500000Y26670000D03*
D13*
X89660000Y34036000D03*
X86260000Y34036000D03*
X89660000Y31496000D03*
X86260000Y31496000D03*
D15*
X52230000Y3175000D03*
X50030000Y3175000D03*
X16649500Y2667000D03*
X18849500Y2667000D03*
D17*
X8509000Y39794000D03*
X8509000Y41994000D03*
X8509000Y50843000D03*
X8509000Y53043000D03*
X13589000Y61511000D03*
X13589000Y63711000D03*
X11049000Y61511000D03*
X11049000Y63711000D03*
X8509000Y61511000D03*
X8509000Y63711000D03*
X8636000Y29380000D03*
X8636000Y31580000D03*
D11*
X23698000Y45923200D03*
X28778000Y45923200D03*
X26238000Y45923200D03*
X23698000Y42316400D03*
X28778000Y42316400D03*
X26238000Y42316400D03*
X86817000Y3873500D03*
X86817000Y8953500D03*
X86817000Y6413500D03*
X81737000Y3873500D03*
X81737000Y8953500D03*
X81737000Y6413500D03*
X70942000Y3873500D03*
X70942000Y8953500D03*
X70942000Y6413500D03*
X67259000Y3873500D03*
X67259000Y8953500D03*
X67259000Y6413500D03*
X77927000Y8953500D03*
X77927000Y6413500D03*
X74752000Y8953500D03*
X74752000Y6413500D03*
X73914000Y18288000D03*
X71374000Y18288000D03*
X23825000Y5080000D03*
D18*
X27000000Y5080000D03*
D11*
X36525000Y5080000D03*
D18*
X33350000Y5080000D03*
D15*
X53500000Y24130000D03*
X51300000Y24130000D03*
X50030000Y9525000D03*
X52230000Y9525000D03*
X13495000Y8636000D03*
X11295000Y8636000D03*
D12*
X21126000Y8636000D03*
X17126000Y8636000D03*
D15*
X51300000Y34925000D03*
X53500000Y34925000D03*
X55872000Y26670000D03*
X58072000Y26670000D03*
D10*
G36*
X56022523Y40641396D02*
X57224604Y41843477D01*
X58143843Y40924238D01*
X56941762Y39722157D01*
X56022523Y40641396D01*
X56022523Y40641396D01*
G37*
G36*
X57578157Y39085762D02*
X58780238Y40287843D01*
X59699477Y39368604D01*
X58497396Y38166523D01*
X57578157Y39085762D01*
X57578157Y39085762D01*
G37*
D15*
X38092000Y29210000D03*
X40292000Y29210000D03*
X38092000Y35052000D03*
X40292000Y35052000D03*
D17*
X62496500Y57218400D03*
X62496500Y59418400D03*
X68719500Y57218400D03*
X68719500Y59418400D03*
D15*
X76995000Y25908000D03*
X74795000Y25908000D03*
X71366000Y55435500D03*
X73566000Y55435500D03*
X71366000Y61277500D03*
X73566000Y61277500D03*
X39961800Y55600600D03*
X37761800Y55600600D03*
X46943286Y29210000D03*
X44743286Y29210000D03*
X46943286Y35052000D03*
X44743286Y35052000D03*
X56951500Y21590000D03*
X59151500Y21590000D03*
X56126000Y24130000D03*
X58326000Y24130000D03*
D19*
X11280000Y5715000D03*
X14780000Y5715000D03*
D17*
X52400000Y7450000D03*
X52400000Y5250000D03*
D15*
X11295000Y2667000D03*
X13495000Y2667000D03*
D17*
X49860000Y7450000D03*
X49860000Y5250000D03*
X42875000Y5545000D03*
X42875000Y3345000D03*
D11*
X16205000Y36195000D03*
X16205000Y33655000D03*
X13665000Y36195000D03*
X13665000Y33655000D03*
X11125000Y36195000D03*
X11125000Y33655000D03*
X8585000Y36195000D03*
X8585000Y33655000D03*
X6045000Y36195000D03*
X6045000Y33655000D03*
X16128800Y68656200D03*
X16128800Y66116200D03*
X13588800Y68656200D03*
X13588800Y66116200D03*
X11048800Y68656200D03*
X11048800Y66116200D03*
X8508800Y68656200D03*
X8508800Y66116200D03*
X5968800Y68656200D03*
X5968800Y66116200D03*
X16205000Y46990000D03*
X16205000Y44450000D03*
X13665000Y46990000D03*
X13665000Y44450000D03*
X11125000Y46990000D03*
X11125000Y44450000D03*
X8585000Y46990000D03*
X8585000Y44450000D03*
X6045000Y46990000D03*
X6045000Y44450000D03*
X82880000Y15875000D03*
X82880000Y18415000D03*
X85420000Y15875000D03*
X85420000Y18415000D03*
X87960000Y15875000D03*
X87960000Y18415000D03*
X90500000Y15875000D03*
X90500000Y18415000D03*
X93040000Y15875000D03*
X93040000Y18415000D03*
X95072000Y28956000D03*
X92532000Y28956000D03*
X95072000Y31496000D03*
X92532000Y31496000D03*
X95072000Y34036000D03*
X92532000Y34036000D03*
X95072000Y36576000D03*
X92532000Y36576000D03*
X95072000Y39116000D03*
X92532000Y39116000D03*
X95072000Y41656000D03*
X92532000Y41656000D03*
X95072000Y44196000D03*
X92532000Y44196000D03*
X95072000Y46736000D03*
X92532000Y46736000D03*
X95072000Y49276000D03*
X92532000Y49276000D03*
X95072000Y51816000D03*
X92532000Y51816000D03*
X95072000Y62611000D03*
X92532000Y62611000D03*
X95072000Y65151000D03*
X92532000Y65151000D03*
X95072000Y67691000D03*
X92532000Y67691000D03*
X95072000Y70231000D03*
X92532000Y70231000D03*
X95072000Y72771000D03*
X92532000Y72771000D03*
X95072000Y75311000D03*
X92532000Y75311000D03*
X95072000Y77851000D03*
X92532000Y77851000D03*
X95072000Y80391000D03*
X92532000Y80391000D03*
X95072000Y82931000D03*
X92532000Y82931000D03*
X95072000Y85471000D03*
X92532000Y85471000D03*
X71069000Y96012000D03*
X71069000Y93472000D03*
X68529000Y96012000D03*
X68529000Y93472000D03*
X65989000Y96012000D03*
X65989000Y93472000D03*
X63449000Y96012000D03*
X63449000Y93472000D03*
X60909000Y96012000D03*
X60909000Y93472000D03*
X58369000Y96012000D03*
X58369000Y93472000D03*
X55829000Y96012000D03*
X55829000Y93472000D03*
X53289000Y96012000D03*
X53289000Y93472000D03*
X50749000Y96012000D03*
X50749000Y93472000D03*
X48209000Y96012000D03*
X48209000Y93472000D03*
X37414000Y96012000D03*
X37414000Y93472000D03*
X34874000Y96012000D03*
X34874000Y93472000D03*
X32334000Y96012000D03*
X32334000Y93472000D03*
X29794000Y96012000D03*
X29794000Y93472000D03*
X27254000Y96012000D03*
X27254000Y93472000D03*
X24714000Y96012000D03*
X24714000Y93472000D03*
X22174000Y96012000D03*
X22174000Y93472000D03*
X19634000Y96012000D03*
X19634000Y93472000D03*
X17094000Y96012000D03*
X17094000Y93472000D03*
X14554000Y96012000D03*
X14554000Y93472000D03*
D19*
X46050000Y8100000D03*
X46050000Y4600000D03*
X55575000Y8100000D03*
X55575000Y4600000D03*
D17*
X16205000Y31580000D03*
X16205000Y29380000D03*
X13665000Y31580000D03*
X13665000Y29380000D03*
X11125000Y31580000D03*
X11125000Y29380000D03*
X16129000Y61511000D03*
X16129000Y63711000D03*
X16129000Y53043000D03*
X16129000Y50843000D03*
X13589000Y53043000D03*
X13589000Y50843000D03*
X11049000Y53043000D03*
X11049000Y50843000D03*
X16256000Y41994000D03*
X16256000Y39794000D03*
X13716000Y41994000D03*
X13716000Y39794000D03*
X11176000Y41994000D03*
X11176000Y39794000D03*
D14*
X48270000Y70358000D03*
X46370000Y70358000D03*
X46746000Y74625200D03*
X44846000Y74625200D03*
X66179500Y51374000D03*
X66179500Y53274000D03*
X71640500Y51044000D03*
X71640500Y52944000D03*
D17*
X40335000Y5545000D03*
X40335000Y3345000D03*
X58750000Y7450000D03*
X58750000Y5250000D03*
D20*
X37942000Y32258000D03*
X40442000Y32258000D03*
X47046000Y72542400D03*
X44546000Y72542400D03*
X56230000Y18542000D03*
X58730000Y18542000D03*
X47093286Y32258000D03*
X44593286Y32258000D03*
X71343000Y58293000D03*
X73843000Y58293000D03*
X65548978Y57209944D03*
X65548978Y59709944D03*
X68910000Y50769200D03*
X68910000Y53269200D03*
X51228002Y32258000D03*
X53728002Y32258000D03*
D21*
X29249700Y20193000D03*
X32649700Y20193000D03*
X57607000Y13108200D03*
X57607000Y16508200D03*
X39700000Y20051500D03*
X39700000Y16651500D03*
X53416000Y18337000D03*
X53416000Y14937000D03*
D11*
X29718000Y66167000D03*
X24638000Y66167000D03*
X27178000Y66167000D03*
D17*
X27178000Y61892000D03*
X27178000Y64092000D03*
X82867500Y20426500D03*
X82867500Y22626500D03*
X84899500Y20426500D03*
X84899500Y22626500D03*
X90487500Y20426500D03*
X90487500Y22626500D03*
X87947500Y11536500D03*
X87947500Y13736500D03*
X90487500Y11536500D03*
X90487500Y13736500D03*
X93027500Y11536500D03*
X93027500Y13736500D03*
M02*
